G04 #@! TF.GenerationSoftware,KiCad,Pcbnew,9.0.5*
G04 #@! TF.CreationDate,2025-12-02T21:41:35+01:00*
G04 #@! TF.ProjectId,ToyBoard,546f7942-6f61-4726-942e-6b696361645f,rev?*
G04 #@! TF.SameCoordinates,Original*
G04 #@! TF.FileFunction,Legend,Bot*
G04 #@! TF.FilePolarity,Positive*
%FSLAX46Y46*%
G04 Gerber Fmt 4.6, Leading zero omitted, Abs format (unit mm)*
G04 Created by KiCad (PCBNEW 9.0.5) date 2025-12-02 21:41:35*
%MOMM*%
%LPD*%
G01*
G04 APERTURE LIST*
%ADD10C,0.150000*%
%ADD11C,0.200000*%
%ADD12C,0.127000*%
%ADD13C,0.120000*%
G04 APERTURE END LIST*
D10*
X151296666Y-127249580D02*
X151344285Y-127297200D01*
X151344285Y-127297200D02*
X151487142Y-127344819D01*
X151487142Y-127344819D02*
X151582380Y-127344819D01*
X151582380Y-127344819D02*
X151725237Y-127297200D01*
X151725237Y-127297200D02*
X151820475Y-127201961D01*
X151820475Y-127201961D02*
X151868094Y-127106723D01*
X151868094Y-127106723D02*
X151915713Y-126916247D01*
X151915713Y-126916247D02*
X151915713Y-126773390D01*
X151915713Y-126773390D02*
X151868094Y-126582914D01*
X151868094Y-126582914D02*
X151820475Y-126487676D01*
X151820475Y-126487676D02*
X151725237Y-126392438D01*
X151725237Y-126392438D02*
X151582380Y-126344819D01*
X151582380Y-126344819D02*
X151487142Y-126344819D01*
X151487142Y-126344819D02*
X151344285Y-126392438D01*
X151344285Y-126392438D02*
X151296666Y-126440057D01*
X150915713Y-126440057D02*
X150868094Y-126392438D01*
X150868094Y-126392438D02*
X150772856Y-126344819D01*
X150772856Y-126344819D02*
X150534761Y-126344819D01*
X150534761Y-126344819D02*
X150439523Y-126392438D01*
X150439523Y-126392438D02*
X150391904Y-126440057D01*
X150391904Y-126440057D02*
X150344285Y-126535295D01*
X150344285Y-126535295D02*
X150344285Y-126630533D01*
X150344285Y-126630533D02*
X150391904Y-126773390D01*
X150391904Y-126773390D02*
X150963332Y-127344819D01*
X150963332Y-127344819D02*
X150344285Y-127344819D01*
X134783238Y-105808057D02*
X134878476Y-105760438D01*
X134878476Y-105760438D02*
X134973714Y-105665200D01*
X134973714Y-105665200D02*
X135116571Y-105522342D01*
X135116571Y-105522342D02*
X135211809Y-105474723D01*
X135211809Y-105474723D02*
X135307047Y-105474723D01*
X135259428Y-105712819D02*
X135354666Y-105665200D01*
X135354666Y-105665200D02*
X135449904Y-105569961D01*
X135449904Y-105569961D02*
X135497523Y-105379485D01*
X135497523Y-105379485D02*
X135497523Y-105046152D01*
X135497523Y-105046152D02*
X135449904Y-104855676D01*
X135449904Y-104855676D02*
X135354666Y-104760438D01*
X135354666Y-104760438D02*
X135259428Y-104712819D01*
X135259428Y-104712819D02*
X135068952Y-104712819D01*
X135068952Y-104712819D02*
X134973714Y-104760438D01*
X134973714Y-104760438D02*
X134878476Y-104855676D01*
X134878476Y-104855676D02*
X134830857Y-105046152D01*
X134830857Y-105046152D02*
X134830857Y-105379485D01*
X134830857Y-105379485D02*
X134878476Y-105569961D01*
X134878476Y-105569961D02*
X134973714Y-105665200D01*
X134973714Y-105665200D02*
X135068952Y-105712819D01*
X135068952Y-105712819D02*
X135259428Y-105712819D01*
X134449904Y-104808057D02*
X134402285Y-104760438D01*
X134402285Y-104760438D02*
X134307047Y-104712819D01*
X134307047Y-104712819D02*
X134068952Y-104712819D01*
X134068952Y-104712819D02*
X133973714Y-104760438D01*
X133973714Y-104760438D02*
X133926095Y-104808057D01*
X133926095Y-104808057D02*
X133878476Y-104903295D01*
X133878476Y-104903295D02*
X133878476Y-104998533D01*
X133878476Y-104998533D02*
X133926095Y-105141390D01*
X133926095Y-105141390D02*
X134497523Y-105712819D01*
X134497523Y-105712819D02*
X133878476Y-105712819D01*
X144591238Y-105960057D02*
X144686476Y-105912438D01*
X144686476Y-105912438D02*
X144781714Y-105817200D01*
X144781714Y-105817200D02*
X144924571Y-105674342D01*
X144924571Y-105674342D02*
X145019809Y-105626723D01*
X145019809Y-105626723D02*
X145115047Y-105626723D01*
X145067428Y-105864819D02*
X145162666Y-105817200D01*
X145162666Y-105817200D02*
X145257904Y-105721961D01*
X145257904Y-105721961D02*
X145305523Y-105531485D01*
X145305523Y-105531485D02*
X145305523Y-105198152D01*
X145305523Y-105198152D02*
X145257904Y-105007676D01*
X145257904Y-105007676D02*
X145162666Y-104912438D01*
X145162666Y-104912438D02*
X145067428Y-104864819D01*
X145067428Y-104864819D02*
X144876952Y-104864819D01*
X144876952Y-104864819D02*
X144781714Y-104912438D01*
X144781714Y-104912438D02*
X144686476Y-105007676D01*
X144686476Y-105007676D02*
X144638857Y-105198152D01*
X144638857Y-105198152D02*
X144638857Y-105531485D01*
X144638857Y-105531485D02*
X144686476Y-105721961D01*
X144686476Y-105721961D02*
X144781714Y-105817200D01*
X144781714Y-105817200D02*
X144876952Y-105864819D01*
X144876952Y-105864819D02*
X145067428Y-105864819D01*
X143686476Y-105864819D02*
X144257904Y-105864819D01*
X143972190Y-105864819D02*
X143972190Y-104864819D01*
X143972190Y-104864819D02*
X144067428Y-105007676D01*
X144067428Y-105007676D02*
X144162666Y-105102914D01*
X144162666Y-105102914D02*
X144257904Y-105150533D01*
X152566666Y-128375580D02*
X152614285Y-128423200D01*
X152614285Y-128423200D02*
X152757142Y-128470819D01*
X152757142Y-128470819D02*
X152852380Y-128470819D01*
X152852380Y-128470819D02*
X152995237Y-128423200D01*
X152995237Y-128423200D02*
X153090475Y-128327961D01*
X153090475Y-128327961D02*
X153138094Y-128232723D01*
X153138094Y-128232723D02*
X153185713Y-128042247D01*
X153185713Y-128042247D02*
X153185713Y-127899390D01*
X153185713Y-127899390D02*
X153138094Y-127708914D01*
X153138094Y-127708914D02*
X153090475Y-127613676D01*
X153090475Y-127613676D02*
X152995237Y-127518438D01*
X152995237Y-127518438D02*
X152852380Y-127470819D01*
X152852380Y-127470819D02*
X152757142Y-127470819D01*
X152757142Y-127470819D02*
X152614285Y-127518438D01*
X152614285Y-127518438D02*
X152566666Y-127566057D01*
X151614285Y-128470819D02*
X152185713Y-128470819D01*
X151899999Y-128470819D02*
X151899999Y-127470819D01*
X151899999Y-127470819D02*
X151995237Y-127613676D01*
X151995237Y-127613676D02*
X152090475Y-127708914D01*
X152090475Y-127708914D02*
X152185713Y-127756533D01*
X134500666Y-109166819D02*
X134833999Y-108690628D01*
X135072094Y-109166819D02*
X135072094Y-108166819D01*
X135072094Y-108166819D02*
X134691142Y-108166819D01*
X134691142Y-108166819D02*
X134595904Y-108214438D01*
X134595904Y-108214438D02*
X134548285Y-108262057D01*
X134548285Y-108262057D02*
X134500666Y-108357295D01*
X134500666Y-108357295D02*
X134500666Y-108500152D01*
X134500666Y-108500152D02*
X134548285Y-108595390D01*
X134548285Y-108595390D02*
X134595904Y-108643009D01*
X134595904Y-108643009D02*
X134691142Y-108690628D01*
X134691142Y-108690628D02*
X135072094Y-108690628D01*
X133643523Y-108500152D02*
X133643523Y-109166819D01*
X133881618Y-108119200D02*
X134119713Y-108833485D01*
X134119713Y-108833485D02*
X133500666Y-108833485D01*
X144438666Y-109420819D02*
X144771999Y-108944628D01*
X145010094Y-109420819D02*
X145010094Y-108420819D01*
X145010094Y-108420819D02*
X144629142Y-108420819D01*
X144629142Y-108420819D02*
X144533904Y-108468438D01*
X144533904Y-108468438D02*
X144486285Y-108516057D01*
X144486285Y-108516057D02*
X144438666Y-108611295D01*
X144438666Y-108611295D02*
X144438666Y-108754152D01*
X144438666Y-108754152D02*
X144486285Y-108849390D01*
X144486285Y-108849390D02*
X144533904Y-108897009D01*
X144533904Y-108897009D02*
X144629142Y-108944628D01*
X144629142Y-108944628D02*
X145010094Y-108944628D01*
X144105332Y-108420819D02*
X143486285Y-108420819D01*
X143486285Y-108420819D02*
X143819618Y-108801771D01*
X143819618Y-108801771D02*
X143676761Y-108801771D01*
X143676761Y-108801771D02*
X143581523Y-108849390D01*
X143581523Y-108849390D02*
X143533904Y-108897009D01*
X143533904Y-108897009D02*
X143486285Y-108992247D01*
X143486285Y-108992247D02*
X143486285Y-109230342D01*
X143486285Y-109230342D02*
X143533904Y-109325580D01*
X143533904Y-109325580D02*
X143581523Y-109373200D01*
X143581523Y-109373200D02*
X143676761Y-109420819D01*
X143676761Y-109420819D02*
X143962475Y-109420819D01*
X143962475Y-109420819D02*
X144057713Y-109373200D01*
X144057713Y-109373200D02*
X144105332Y-109325580D01*
X140692094Y-103832819D02*
X140692094Y-102832819D01*
X140692094Y-102832819D02*
X140453999Y-102832819D01*
X140453999Y-102832819D02*
X140311142Y-102880438D01*
X140311142Y-102880438D02*
X140215904Y-102975676D01*
X140215904Y-102975676D02*
X140168285Y-103070914D01*
X140168285Y-103070914D02*
X140120666Y-103261390D01*
X140120666Y-103261390D02*
X140120666Y-103404247D01*
X140120666Y-103404247D02*
X140168285Y-103594723D01*
X140168285Y-103594723D02*
X140215904Y-103689961D01*
X140215904Y-103689961D02*
X140311142Y-103785200D01*
X140311142Y-103785200D02*
X140453999Y-103832819D01*
X140453999Y-103832819D02*
X140692094Y-103832819D01*
X139739713Y-102928057D02*
X139692094Y-102880438D01*
X139692094Y-102880438D02*
X139596856Y-102832819D01*
X139596856Y-102832819D02*
X139358761Y-102832819D01*
X139358761Y-102832819D02*
X139263523Y-102880438D01*
X139263523Y-102880438D02*
X139215904Y-102928057D01*
X139215904Y-102928057D02*
X139168285Y-103023295D01*
X139168285Y-103023295D02*
X139168285Y-103118533D01*
X139168285Y-103118533D02*
X139215904Y-103261390D01*
X139215904Y-103261390D02*
X139787332Y-103832819D01*
X139787332Y-103832819D02*
X139168285Y-103832819D01*
X150544666Y-132654819D02*
X150877999Y-132178628D01*
X151116094Y-132654819D02*
X151116094Y-131654819D01*
X151116094Y-131654819D02*
X150735142Y-131654819D01*
X150735142Y-131654819D02*
X150639904Y-131702438D01*
X150639904Y-131702438D02*
X150592285Y-131750057D01*
X150592285Y-131750057D02*
X150544666Y-131845295D01*
X150544666Y-131845295D02*
X150544666Y-131988152D01*
X150544666Y-131988152D02*
X150592285Y-132083390D01*
X150592285Y-132083390D02*
X150639904Y-132131009D01*
X150639904Y-132131009D02*
X150735142Y-132178628D01*
X150735142Y-132178628D02*
X151116094Y-132178628D01*
X149592285Y-132654819D02*
X150163713Y-132654819D01*
X149877999Y-132654819D02*
X149877999Y-131654819D01*
X149877999Y-131654819D02*
X149973237Y-131797676D01*
X149973237Y-131797676D02*
X150068475Y-131892914D01*
X150068475Y-131892914D02*
X150163713Y-131940533D01*
X143994094Y-104086819D02*
X143994094Y-103086819D01*
X143994094Y-103086819D02*
X143755999Y-103086819D01*
X143755999Y-103086819D02*
X143613142Y-103134438D01*
X143613142Y-103134438D02*
X143517904Y-103229676D01*
X143517904Y-103229676D02*
X143470285Y-103324914D01*
X143470285Y-103324914D02*
X143422666Y-103515390D01*
X143422666Y-103515390D02*
X143422666Y-103658247D01*
X143422666Y-103658247D02*
X143470285Y-103848723D01*
X143470285Y-103848723D02*
X143517904Y-103943961D01*
X143517904Y-103943961D02*
X143613142Y-104039200D01*
X143613142Y-104039200D02*
X143755999Y-104086819D01*
X143755999Y-104086819D02*
X143994094Y-104086819D01*
X142470285Y-104086819D02*
X143041713Y-104086819D01*
X142755999Y-104086819D02*
X142755999Y-103086819D01*
X142755999Y-103086819D02*
X142851237Y-103229676D01*
X142851237Y-103229676D02*
X142946475Y-103324914D01*
X142946475Y-103324914D02*
X143041713Y-103372533D01*
D11*
X135184000Y-122464000D02*
G75*
G02*
X134984000Y-122464000I-100000J0D01*
G01*
X134984000Y-122464000D02*
G75*
G02*
X135184000Y-122464000I100000J0D01*
G01*
D12*
X133234000Y-118984000D02*
X133234000Y-121794000D01*
X131614000Y-117289000D02*
X124554000Y-117289000D01*
X131214000Y-132139000D02*
X124554000Y-132139000D01*
X121714000Y-132139000D02*
X118734000Y-132139000D01*
X121714000Y-117289000D02*
X118734000Y-117289000D01*
X118734000Y-132139000D02*
X118734000Y-117289000D01*
D13*
X151014165Y-126090000D02*
X151245835Y-126090000D01*
X151014165Y-125370000D02*
X151245835Y-125370000D01*
X139208000Y-104196000D02*
X139208000Y-106046000D01*
X139208000Y-104196000D02*
X138318000Y-104196000D01*
X136978000Y-104211000D02*
X136088000Y-104211000D01*
X136088000Y-104211000D02*
X136088000Y-106061000D01*
X139548000Y-106676000D02*
X139218000Y-106436000D01*
X139548000Y-106196000D01*
X139548000Y-106676000D01*
G36*
X139548000Y-106676000D02*
G01*
X139218000Y-106436000D01*
X139548000Y-106196000D01*
X139548000Y-106676000D01*
G37*
X148860000Y-104450000D02*
X148860000Y-106300000D01*
X148860000Y-104450000D02*
X147970000Y-104450000D01*
X146630000Y-104465000D02*
X145740000Y-104465000D01*
X145740000Y-104465000D02*
X145740000Y-106315000D01*
X149200000Y-106930000D02*
X148870000Y-106690000D01*
X149200000Y-106450000D01*
X149200000Y-106930000D01*
G36*
X149200000Y-106930000D02*
G01*
X148870000Y-106690000D01*
X149200000Y-106450000D01*
X149200000Y-106930000D01*
G37*
X149934165Y-128260000D02*
X150165835Y-128260000D01*
X149934165Y-127540000D02*
X150165835Y-127540000D01*
X137895064Y-109447000D02*
X137440936Y-109447000D01*
X137895064Y-107977000D02*
X137440936Y-107977000D01*
X147547064Y-109701000D02*
X147092936Y-109701000D01*
X147547064Y-108231000D02*
X147092936Y-108231000D01*
X141178000Y-102488000D02*
X135668000Y-102488000D01*
X141178000Y-99188000D02*
X135668000Y-99188000D01*
X141178000Y-99188000D02*
X141178000Y-102488000D01*
X147552064Y-132935000D02*
X147097936Y-132935000D01*
X147552064Y-131465000D02*
X147097936Y-131465000D01*
X142190000Y-102650000D02*
X142190000Y-99350000D01*
X142190000Y-102650000D02*
X147700000Y-102650000D01*
X142190000Y-99350000D02*
X147700000Y-99350000D01*
M02*
