G04 #@! TF.GenerationSoftware,KiCad,Pcbnew,9.0.5*
G04 #@! TF.CreationDate,2025-12-02T21:41:35+01:00*
G04 #@! TF.ProjectId,ToyBoard,546f7942-6f61-4726-942e-6b696361645f,rev?*
G04 #@! TF.SameCoordinates,Original*
G04 #@! TF.FileFunction,Copper,L4,Bot*
G04 #@! TF.FilePolarity,Positive*
%FSLAX46Y46*%
G04 Gerber Fmt 4.6, Leading zero omitted, Abs format (unit mm)*
G04 Created by KiCad (PCBNEW 9.0.5) date 2025-12-02 21:41:35*
%MOMM*%
%LPD*%
G01*
G04 APERTURE LIST*
G04 Aperture macros list*
%AMRoundRect*
0 Rectangle with rounded corners*
0 $1 Rounding radius*
0 $2 $3 $4 $5 $6 $7 $8 $9 X,Y pos of 4 corners*
0 Add a 4 corners polygon primitive as box body*
4,1,4,$2,$3,$4,$5,$6,$7,$8,$9,$2,$3,0*
0 Add four circle primitives for the rounded corners*
1,1,$1+$1,$2,$3*
1,1,$1+$1,$4,$5*
1,1,$1+$1,$6,$7*
1,1,$1+$1,$8,$9*
0 Add four rect primitives between the rounded corners*
20,1,$1+$1,$2,$3,$4,$5,0*
20,1,$1+$1,$4,$5,$6,$7,0*
20,1,$1+$1,$6,$7,$8,$9,0*
20,1,$1+$1,$8,$9,$2,$3,0*%
G04 Aperture macros list end*
G04 #@! TA.AperFunction,ComponentPad*
%ADD10C,2.000000*%
G04 #@! TD*
G04 #@! TA.AperFunction,ComponentPad*
%ADD11RoundRect,0.190500X-1.079500X-0.444500X1.079500X-0.444500X1.079500X0.444500X-1.079500X0.444500X0*%
G04 #@! TD*
G04 #@! TA.AperFunction,ComponentPad*
%ADD12RoundRect,0.250000X0.750000X-0.500000X0.750000X0.500000X-0.750000X0.500000X-0.750000X-0.500000X0*%
G04 #@! TD*
G04 #@! TA.AperFunction,ComponentPad*
%ADD13RoundRect,0.250000X-0.500000X-0.750000X0.500000X-0.750000X0.500000X0.750000X-0.500000X0.750000X0*%
G04 #@! TD*
G04 #@! TA.AperFunction,ComponentPad*
%ADD14RoundRect,0.250000X0.500000X0.750000X-0.500000X0.750000X-0.500000X-0.750000X0.500000X-0.750000X0*%
G04 #@! TD*
G04 #@! TA.AperFunction,SMDPad,CuDef*
%ADD15R,1.800000X1.200000*%
G04 #@! TD*
G04 #@! TA.AperFunction,SMDPad,CuDef*
%ADD16R,2.200000X1.200000*%
G04 #@! TD*
G04 #@! TA.AperFunction,SMDPad,CuDef*
%ADD17R,1.500000X1.600000*%
G04 #@! TD*
G04 #@! TA.AperFunction,SMDPad,CuDef*
%ADD18R,1.600000X0.700000*%
G04 #@! TD*
G04 #@! TA.AperFunction,SMDPad,CuDef*
%ADD19RoundRect,0.155000X-0.212500X-0.155000X0.212500X-0.155000X0.212500X0.155000X-0.212500X0.155000X0*%
G04 #@! TD*
G04 #@! TA.AperFunction,ComponentPad*
%ADD20RoundRect,0.249999X-0.850001X-0.850001X0.850001X-0.850001X0.850001X0.850001X-0.850001X0.850001X0*%
G04 #@! TD*
G04 #@! TA.AperFunction,ComponentPad*
%ADD21C,2.200000*%
G04 #@! TD*
G04 #@! TA.AperFunction,SMDPad,CuDef*
%ADD22RoundRect,0.162500X0.162500X-0.447500X0.162500X0.447500X-0.162500X0.447500X-0.162500X-0.447500X0*%
G04 #@! TD*
G04 #@! TA.AperFunction,SMDPad,CuDef*
%ADD23RoundRect,0.250000X0.350000X0.450000X-0.350000X0.450000X-0.350000X-0.450000X0.350000X-0.450000X0*%
G04 #@! TD*
G04 #@! TA.AperFunction,SMDPad,CuDef*
%ADD24RoundRect,0.250000X1.000000X0.650000X-1.000000X0.650000X-1.000000X-0.650000X1.000000X-0.650000X0*%
G04 #@! TD*
G04 #@! TA.AperFunction,SMDPad,CuDef*
%ADD25RoundRect,0.250000X-1.000000X-0.650000X1.000000X-0.650000X1.000000X0.650000X-1.000000X0.650000X0*%
G04 #@! TD*
G04 #@! TA.AperFunction,ViaPad*
%ADD26C,0.600000*%
G04 #@! TD*
G04 #@! TA.AperFunction,Conductor*
%ADD27C,0.127000*%
G04 #@! TD*
G04 #@! TA.AperFunction,Conductor*
%ADD28C,0.500000*%
G04 #@! TD*
G04 APERTURE END LIST*
D10*
X145900000Y-117728000D03*
X148440000Y-117728000D03*
X138280000Y-114680000D03*
X140820000Y-114680000D03*
X143360000Y-114680000D03*
X145900000Y-114680000D03*
X150980000Y-114680000D03*
X138280000Y-129920000D03*
X140820000Y-129920000D03*
X143360000Y-129920000D03*
X145900000Y-129920000D03*
X148440000Y-129920000D03*
X153520000Y-129920000D03*
X153520000Y-114680000D03*
D11*
X122582000Y-110950000D03*
X122582000Y-98631000D03*
X151715800Y-110950000D03*
X151715800Y-98631000D03*
D12*
X154858000Y-104275000D03*
X154858000Y-102425000D03*
D13*
X149825000Y-95115000D03*
X147975000Y-95115000D03*
D14*
X125875000Y-95185000D03*
X127725000Y-95185000D03*
D12*
X118900500Y-104275000D03*
X118900500Y-102425000D03*
D15*
X132435600Y-132588000D03*
D16*
X123134000Y-116964000D03*
X123134000Y-132464000D03*
D17*
X132684000Y-117864000D03*
D18*
X133734000Y-131264000D03*
X133734000Y-130164000D03*
X133734000Y-129064000D03*
X133734000Y-127964000D03*
X133734000Y-126864000D03*
X133734000Y-125764000D03*
X133734000Y-124664000D03*
X133734000Y-123564000D03*
X133734000Y-122464000D03*
D19*
X150562500Y-125730000D03*
X151697500Y-125730000D03*
D20*
X144928000Y-121600000D03*
D21*
X154072000Y-121600000D03*
D10*
X120080000Y-114780000D03*
X122620000Y-114780000D03*
X130240000Y-114780000D03*
X132780000Y-114780000D03*
X135320000Y-114780000D03*
D22*
X137668000Y-103846000D03*
X136718000Y-106466000D03*
X138618000Y-106466000D03*
X147320000Y-104100000D03*
X146370000Y-106720000D03*
X148270000Y-106720000D03*
D19*
X149482500Y-127900000D03*
X150617500Y-127900000D03*
D23*
X138668000Y-108712000D03*
X136668000Y-108712000D03*
X148320000Y-108966000D03*
X146320000Y-108966000D03*
D24*
X139668000Y-100838000D03*
X135668000Y-100838000D03*
D23*
X148325000Y-132200000D03*
X146325000Y-132200000D03*
D25*
X143700000Y-101000000D03*
X147700000Y-101000000D03*
D26*
X148460682Y-125810682D03*
X136325000Y-125730000D03*
X141600000Y-104025000D03*
D27*
X145900000Y-127104000D02*
X145900000Y-129920000D01*
X142360000Y-123564000D02*
X145900000Y-127104000D01*
X133734000Y-123564000D02*
X142360000Y-123564000D01*
X138104000Y-124664000D02*
X143360000Y-129920000D01*
X133734000Y-124664000D02*
X138104000Y-124664000D01*
X136291000Y-125764000D02*
X136325000Y-125730000D01*
X133734000Y-125764000D02*
X136291000Y-125764000D01*
X137764000Y-126864000D02*
X140820000Y-129920000D01*
X133734000Y-126864000D02*
X137764000Y-126864000D01*
X137424000Y-129064000D02*
X138280000Y-129920000D01*
X133734000Y-129064000D02*
X137424000Y-129064000D01*
X142255000Y-116586000D02*
X143360000Y-115481000D01*
X132046000Y-116586000D02*
X142255000Y-116586000D01*
X130240000Y-114780000D02*
X132046000Y-116586000D01*
X139422000Y-116078000D02*
X140820000Y-114680000D01*
X134078000Y-116078000D02*
X139422000Y-116078000D01*
X132780000Y-114780000D02*
X134078000Y-116078000D01*
X133828000Y-129920000D02*
X133734000Y-129826000D01*
X138618000Y-108662000D02*
X138668000Y-108712000D01*
X138618000Y-106466000D02*
X138618000Y-108662000D01*
X139932000Y-108712000D02*
X138668000Y-108712000D01*
X145900000Y-114680000D02*
X139932000Y-108712000D01*
D28*
X147400000Y-104020000D02*
X147320000Y-104100000D01*
X147400000Y-101300000D02*
X147400000Y-104020000D01*
D27*
X149482500Y-127900000D02*
X148440000Y-127900000D01*
D28*
X148440000Y-129920000D02*
X148440000Y-132085000D01*
X148440000Y-129920000D02*
X148440000Y-127900000D01*
X148450000Y-125800000D02*
X148460682Y-125810682D01*
X154858000Y-101058000D02*
X152431000Y-98631000D01*
X154858000Y-107407800D02*
X154858000Y-104275000D01*
X139668000Y-100838000D02*
X137180000Y-98350000D01*
X141600000Y-104025000D02*
X141575000Y-104000000D01*
X154858000Y-102425000D02*
X154858000Y-101058000D01*
X141600000Y-100838000D02*
X143538000Y-100838000D01*
X137600000Y-102770000D02*
X135668000Y-100838000D01*
X143700000Y-99690000D02*
X148275000Y-95115000D01*
X135668000Y-100838000D02*
X129438000Y-100838000D01*
X149525000Y-98093000D02*
X149525000Y-95115000D01*
X126175000Y-97575000D02*
X126175000Y-95185000D01*
X130590000Y-98350000D02*
X127425000Y-95185000D01*
X145900000Y-129920000D02*
X145900000Y-131775000D01*
X151815800Y-110450000D02*
X154858000Y-107407800D01*
X137180000Y-98350000D02*
X130590000Y-98350000D01*
X141600000Y-104025000D02*
X141600000Y-100838000D01*
D27*
X135320000Y-114780000D02*
X138180000Y-114780000D01*
D28*
X147700000Y-101000000D02*
X147700000Y-99918000D01*
X137600000Y-103490000D02*
X137600000Y-102770000D01*
X143700000Y-101000000D02*
X143700000Y-99690000D01*
X147700000Y-99918000D02*
X149525000Y-98093000D01*
D27*
X148300000Y-108300000D02*
X148300000Y-106160000D01*
D28*
X139668000Y-100838000D02*
X141600000Y-100838000D01*
X129438000Y-100838000D02*
X126175000Y-97575000D01*
D27*
X150980000Y-114680000D02*
X148300000Y-112000000D01*
X148300000Y-112000000D02*
X148300000Y-108300000D01*
D28*
X148460682Y-125810682D02*
X150351818Y-125810682D01*
X148440000Y-127900000D02*
X148440000Y-125831364D01*
G04 #@! TA.AperFunction,Conductor*
G36*
X124986726Y-94120185D02*
G01*
X125032481Y-94172989D01*
X125042425Y-94242147D01*
X125031087Y-94278960D01*
X125008191Y-94325793D01*
X125008190Y-94325796D01*
X124997500Y-94399172D01*
X124997500Y-95970825D01*
X125008191Y-96044204D01*
X125063525Y-96157392D01*
X125152607Y-96246474D01*
X125152608Y-96246474D01*
X125152610Y-96246476D01*
X125265796Y-96301809D01*
X125339173Y-96312500D01*
X125673500Y-96312499D01*
X125740539Y-96332183D01*
X125786294Y-96384987D01*
X125797500Y-96436499D01*
X125797500Y-97525301D01*
X125797500Y-97624699D01*
X125823226Y-97720710D01*
X125872925Y-97806790D01*
X129206210Y-101140075D01*
X129292290Y-101189774D01*
X129388301Y-101215500D01*
X129487699Y-101215500D01*
X134166501Y-101215500D01*
X134233540Y-101235185D01*
X134279295Y-101287989D01*
X134290501Y-101339500D01*
X134290501Y-101523826D01*
X134301191Y-101597204D01*
X134356525Y-101710392D01*
X134445607Y-101799474D01*
X134445608Y-101799474D01*
X134445610Y-101799476D01*
X134558796Y-101854809D01*
X134632173Y-101865500D01*
X136110271Y-101865499D01*
X136177310Y-101885184D01*
X136197952Y-101901818D01*
X137186181Y-102890046D01*
X137219666Y-102951369D01*
X137222500Y-102977727D01*
X137222500Y-103298997D01*
X137218860Y-103326238D01*
X137215500Y-103355198D01*
X137215500Y-104336801D01*
X137218313Y-104361045D01*
X137218314Y-104361051D01*
X137262107Y-104460229D01*
X137338770Y-104536892D01*
X137437948Y-104580685D01*
X137437950Y-104580685D01*
X137437954Y-104580687D01*
X137462202Y-104583500D01*
X137462204Y-104583500D01*
X137873796Y-104583500D01*
X137873798Y-104583500D01*
X137898046Y-104580687D01*
X137997228Y-104536893D01*
X138073893Y-104460228D01*
X138105810Y-104387943D01*
X138117685Y-104361051D01*
X138117685Y-104361050D01*
X138117687Y-104361046D01*
X138120500Y-104336798D01*
X138120500Y-103355202D01*
X138117687Y-103330954D01*
X138117685Y-103330950D01*
X138117685Y-103330948D01*
X138073892Y-103231770D01*
X138013819Y-103171697D01*
X137980334Y-103110374D01*
X137977500Y-103084016D01*
X137977500Y-102720303D01*
X137977500Y-102720301D01*
X137951774Y-102624291D01*
X137951774Y-102624290D01*
X137951774Y-102624289D01*
X137902078Y-102538213D01*
X137902074Y-102538208D01*
X137515365Y-102151499D01*
X137069423Y-101705558D01*
X137035939Y-101644236D01*
X137034401Y-101599999D01*
X137034807Y-101597206D01*
X137034809Y-101597204D01*
X137045500Y-101523827D01*
X137045499Y-100152174D01*
X137034809Y-100078796D01*
X136979476Y-99965610D01*
X136979474Y-99965608D01*
X136979474Y-99965607D01*
X136890392Y-99876525D01*
X136873569Y-99868301D01*
X136777204Y-99821191D01*
X136777202Y-99821190D01*
X136703827Y-99810500D01*
X134632174Y-99810500D01*
X134558795Y-99821191D01*
X134445607Y-99876525D01*
X134356525Y-99965607D01*
X134301190Y-100078797D01*
X134290500Y-100152172D01*
X134290500Y-100336500D01*
X134270815Y-100403539D01*
X134218011Y-100449294D01*
X134166500Y-100460500D01*
X129645727Y-100460500D01*
X129578688Y-100440815D01*
X129558046Y-100424181D01*
X126588819Y-97454954D01*
X126555334Y-97393631D01*
X126552500Y-97367273D01*
X126552500Y-96342355D01*
X126572185Y-96275316D01*
X126585055Y-96258606D01*
X126595170Y-96247561D01*
X126597390Y-96246476D01*
X126686476Y-96157390D01*
X126696464Y-96136959D01*
X126708555Y-96123757D01*
X126723750Y-96114572D01*
X126735725Y-96101465D01*
X126753027Y-96096874D01*
X126768350Y-96087613D01*
X126786098Y-96088101D01*
X126803258Y-96083549D01*
X126820295Y-96089041D01*
X126838193Y-96089534D01*
X126852860Y-96099540D01*
X126869757Y-96104988D01*
X126882644Y-96119860D01*
X126895910Y-96128911D01*
X126901103Y-96141162D01*
X126911400Y-96153046D01*
X126913524Y-96157390D01*
X126913525Y-96157391D01*
X126913526Y-96157393D01*
X127002607Y-96246474D01*
X127002608Y-96246474D01*
X127002610Y-96246476D01*
X127115796Y-96301809D01*
X127189173Y-96312500D01*
X127967272Y-96312499D01*
X128034311Y-96332183D01*
X128054953Y-96348818D01*
X130358210Y-98652075D01*
X130444290Y-98701774D01*
X130540301Y-98727500D01*
X136972273Y-98727500D01*
X137039312Y-98747185D01*
X137059954Y-98763819D01*
X138266575Y-99970440D01*
X138300060Y-100031763D01*
X138301599Y-100075998D01*
X138301191Y-100078794D01*
X138301191Y-100078796D01*
X138290500Y-100152173D01*
X138290500Y-100152177D01*
X138290500Y-100152178D01*
X138290500Y-101523825D01*
X138301191Y-101597204D01*
X138356525Y-101710392D01*
X138445607Y-101799474D01*
X138445608Y-101799474D01*
X138445610Y-101799476D01*
X138558796Y-101854809D01*
X138632173Y-101865500D01*
X140703826Y-101865499D01*
X140777204Y-101854809D01*
X140890390Y-101799476D01*
X140979476Y-101710390D01*
X140987099Y-101694795D01*
X141034227Y-101643214D01*
X141101761Y-101625299D01*
X141168259Y-101646739D01*
X141212610Y-101700728D01*
X141222500Y-101749256D01*
X141222500Y-103790622D01*
X141205889Y-103852619D01*
X141201634Y-103859988D01*
X141201634Y-103859989D01*
X141201633Y-103859991D01*
X141172500Y-103968719D01*
X141172500Y-104081281D01*
X141187066Y-104135645D01*
X141201633Y-104190010D01*
X141229774Y-104238750D01*
X141257915Y-104287491D01*
X141337509Y-104367085D01*
X141434991Y-104423367D01*
X141543719Y-104452500D01*
X141543721Y-104452500D01*
X141656279Y-104452500D01*
X141656281Y-104452500D01*
X141765009Y-104423367D01*
X141862491Y-104367085D01*
X141942085Y-104287491D01*
X141998367Y-104190009D01*
X142027500Y-104081281D01*
X142027500Y-103968719D01*
X141998367Y-103859991D01*
X141994111Y-103852619D01*
X141977500Y-103790622D01*
X141977500Y-101339500D01*
X141980050Y-101330814D01*
X141978762Y-101321853D01*
X141989740Y-101297812D01*
X141997185Y-101272461D01*
X142004025Y-101266533D01*
X142007787Y-101258297D01*
X142030021Y-101244007D01*
X142049989Y-101226706D01*
X142060503Y-101224418D01*
X142066565Y-101220523D01*
X142101500Y-101215500D01*
X142198501Y-101215500D01*
X142265540Y-101235185D01*
X142311295Y-101287989D01*
X142322501Y-101339500D01*
X142322501Y-101685825D01*
X142333191Y-101759204D01*
X142388525Y-101872392D01*
X142477607Y-101961474D01*
X142477608Y-101961474D01*
X142477610Y-101961476D01*
X142590796Y-102016809D01*
X142664173Y-102027500D01*
X144735826Y-102027499D01*
X144809204Y-102016809D01*
X144922390Y-101961476D01*
X145011476Y-101872390D01*
X145066809Y-101759204D01*
X145077500Y-101685827D01*
X145077499Y-100314174D01*
X145066809Y-100240796D01*
X145011476Y-100127610D01*
X145011474Y-100127608D01*
X145011474Y-100127607D01*
X144922392Y-100038525D01*
X144809202Y-99983190D01*
X144735828Y-99972500D01*
X144735827Y-99972500D01*
X144250727Y-99972500D01*
X144183688Y-99952815D01*
X144137933Y-99900011D01*
X144127989Y-99830853D01*
X144157014Y-99767297D01*
X144163046Y-99760819D01*
X147645046Y-96278818D01*
X147706369Y-96245333D01*
X147732727Y-96242499D01*
X148510826Y-96242499D01*
X148584204Y-96231809D01*
X148697390Y-96176476D01*
X148786476Y-96087390D01*
X148788599Y-96083046D01*
X148835725Y-96031465D01*
X148903258Y-96013549D01*
X148969757Y-96034988D01*
X148991445Y-96053757D01*
X149003535Y-96066959D01*
X149013524Y-96087390D01*
X149102610Y-96176476D01*
X149104829Y-96177561D01*
X149114945Y-96188606D01*
X149124819Y-96208744D01*
X149138664Y-96226386D01*
X149142012Y-96243808D01*
X149145706Y-96251340D01*
X149144861Y-96258629D01*
X149147500Y-96272355D01*
X149147500Y-97885273D01*
X149127815Y-97952312D01*
X149111181Y-97972954D01*
X147397927Y-99686207D01*
X147397925Y-99686210D01*
X147348226Y-99772288D01*
X147347719Y-99774181D01*
X147335124Y-99821190D01*
X147335123Y-99821192D01*
X147320397Y-99876151D01*
X147318168Y-99875553D01*
X147294706Y-99928586D01*
X147236380Y-99967055D01*
X147200037Y-99972500D01*
X146664179Y-99972500D01*
X146590796Y-99983191D01*
X146477607Y-100038525D01*
X146388525Y-100127607D01*
X146333190Y-100240797D01*
X146322500Y-100314172D01*
X146322500Y-101685825D01*
X146333191Y-101759204D01*
X146388525Y-101872392D01*
X146477607Y-101961474D01*
X146477608Y-101961474D01*
X146477610Y-101961476D01*
X146590796Y-102016809D01*
X146664173Y-102027500D01*
X146898500Y-102027499D01*
X146965539Y-102047183D01*
X147011294Y-102099987D01*
X147022500Y-102151499D01*
X147022500Y-103326016D01*
X147002815Y-103393055D01*
X146986181Y-103413697D01*
X146914107Y-103485770D01*
X146870314Y-103584948D01*
X146870313Y-103584954D01*
X146867500Y-103609198D01*
X146867500Y-104590801D01*
X146870313Y-104615045D01*
X146870314Y-104615051D01*
X146914107Y-104714229D01*
X146990770Y-104790892D01*
X147089948Y-104834685D01*
X147089950Y-104834685D01*
X147089954Y-104834687D01*
X147114202Y-104837500D01*
X147114204Y-104837500D01*
X147525796Y-104837500D01*
X147525798Y-104837500D01*
X147550046Y-104834687D01*
X147649228Y-104790893D01*
X147725893Y-104714228D01*
X147769687Y-104615046D01*
X147772500Y-104590798D01*
X147772500Y-104104683D01*
X147776725Y-104072590D01*
X147777500Y-104069699D01*
X147777500Y-103970301D01*
X147777500Y-102151499D01*
X147797185Y-102084460D01*
X147849989Y-102038705D01*
X147901500Y-102027499D01*
X148735826Y-102027499D01*
X148809204Y-102016809D01*
X148922390Y-101961476D01*
X149011476Y-101872390D01*
X149066809Y-101759204D01*
X149077500Y-101685827D01*
X149077499Y-100314174D01*
X149066809Y-100240796D01*
X149011476Y-100127610D01*
X149011474Y-100127608D01*
X149011474Y-100127607D01*
X148922392Y-100038525D01*
X148809202Y-99983190D01*
X148735828Y-99972500D01*
X148735827Y-99972500D01*
X148478726Y-99972500D01*
X148411687Y-99952815D01*
X148365932Y-99900011D01*
X148355988Y-99830853D01*
X148385013Y-99767297D01*
X148391045Y-99760819D01*
X148992792Y-99159072D01*
X149827075Y-98324790D01*
X149876774Y-98238710D01*
X149900747Y-98149242D01*
X150318300Y-98149242D01*
X150318300Y-99112757D01*
X150318301Y-99112773D01*
X150324396Y-99159072D01*
X150324397Y-99159074D01*
X150371791Y-99260711D01*
X150451089Y-99340009D01*
X150552726Y-99387403D01*
X150599036Y-99393500D01*
X152608273Y-99393500D01*
X152675312Y-99413185D01*
X152695954Y-99429819D01*
X154444181Y-101178046D01*
X154458884Y-101204973D01*
X154475477Y-101230792D01*
X154476368Y-101236992D01*
X154477666Y-101239369D01*
X154480500Y-101265727D01*
X154480500Y-101423500D01*
X154460815Y-101490539D01*
X154408011Y-101536294D01*
X154356500Y-101547500D01*
X154072179Y-101547500D01*
X153998796Y-101558191D01*
X153885607Y-101613525D01*
X153796525Y-101702607D01*
X153741190Y-101815797D01*
X153730500Y-101889172D01*
X153730500Y-102960825D01*
X153741191Y-103034204D01*
X153796525Y-103147392D01*
X153885608Y-103236475D01*
X153889954Y-103238600D01*
X153941536Y-103285728D01*
X153959450Y-103353262D01*
X153938009Y-103419760D01*
X153889954Y-103461400D01*
X153885608Y-103463524D01*
X153796525Y-103552607D01*
X153741190Y-103665797D01*
X153730500Y-103739172D01*
X153730500Y-104810825D01*
X153741191Y-104884204D01*
X153796525Y-104997392D01*
X153885607Y-105086474D01*
X153885608Y-105086474D01*
X153885610Y-105086476D01*
X153998796Y-105141809D01*
X154072173Y-105152500D01*
X154356501Y-105152499D01*
X154423539Y-105172183D01*
X154469294Y-105224987D01*
X154480500Y-105276499D01*
X154480500Y-107200072D01*
X154460815Y-107267111D01*
X154444181Y-107287753D01*
X151580754Y-110151181D01*
X151519431Y-110184666D01*
X151493073Y-110187500D01*
X150599036Y-110187500D01*
X150599030Y-110187500D01*
X150599026Y-110187501D01*
X150552727Y-110193596D01*
X150451088Y-110240991D01*
X150371791Y-110320288D01*
X150324396Y-110421927D01*
X150318301Y-110468226D01*
X150318300Y-110468242D01*
X150318300Y-111431757D01*
X150318301Y-111431773D01*
X150324396Y-111478072D01*
X150324397Y-111478074D01*
X150371791Y-111579711D01*
X150451089Y-111659009D01*
X150552726Y-111706403D01*
X150599036Y-111712500D01*
X150599043Y-111712500D01*
X152832557Y-111712500D01*
X152832564Y-111712500D01*
X152878874Y-111706403D01*
X152980511Y-111659009D01*
X153059809Y-111579711D01*
X153107203Y-111478074D01*
X153113300Y-111431764D01*
X153113300Y-110468236D01*
X153107203Y-110421926D01*
X153059809Y-110320289D01*
X152980511Y-110240991D01*
X152878874Y-110193597D01*
X152878872Y-110193596D01*
X152878871Y-110193596D01*
X152869763Y-110190941D01*
X152870775Y-110187469D01*
X152823142Y-110166360D01*
X152784709Y-110108011D01*
X152783923Y-110038146D01*
X152815603Y-109984061D01*
X155160075Y-107639591D01*
X155209773Y-107553510D01*
X155209774Y-107553509D01*
X155235500Y-107457499D01*
X155235500Y-105276499D01*
X155255185Y-105209460D01*
X155307989Y-105163705D01*
X155359500Y-105152499D01*
X155643826Y-105152499D01*
X155717204Y-105141809D01*
X155830390Y-105086476D01*
X155919476Y-104997390D01*
X155974809Y-104884204D01*
X155985500Y-104810827D01*
X155985499Y-103739174D01*
X155974809Y-103665796D01*
X155919476Y-103552610D01*
X155919474Y-103552608D01*
X155919474Y-103552607D01*
X155830391Y-103463524D01*
X155826042Y-103461398D01*
X155774461Y-103414268D01*
X155756549Y-103346733D01*
X155777992Y-103280235D01*
X155826051Y-103238596D01*
X155830390Y-103236476D01*
X155919476Y-103147390D01*
X155974809Y-103034204D01*
X155985500Y-102960827D01*
X155985499Y-101889174D01*
X155974809Y-101815796D01*
X155919476Y-101702610D01*
X155919474Y-101702608D01*
X155919474Y-101702607D01*
X155830392Y-101613525D01*
X155717202Y-101558190D01*
X155643828Y-101547500D01*
X155643827Y-101547500D01*
X155359500Y-101547500D01*
X155292461Y-101527815D01*
X155246706Y-101475011D01*
X155235500Y-101423500D01*
X155235500Y-101008303D01*
X155235500Y-101008301D01*
X155209774Y-100912291D01*
X155188768Y-100875908D01*
X155160075Y-100826209D01*
X153149619Y-98815753D01*
X153116134Y-98754430D01*
X153113300Y-98728072D01*
X153113300Y-98149242D01*
X153113300Y-98149236D01*
X153107203Y-98102926D01*
X153059809Y-98001289D01*
X152980511Y-97921991D01*
X152878874Y-97874597D01*
X152878872Y-97874596D01*
X152832573Y-97868501D01*
X152832570Y-97868500D01*
X152832564Y-97868500D01*
X150599036Y-97868500D01*
X150599030Y-97868500D01*
X150599026Y-97868501D01*
X150552727Y-97874596D01*
X150451088Y-97921991D01*
X150371791Y-98001288D01*
X150324396Y-98102927D01*
X150318301Y-98149226D01*
X150318300Y-98149242D01*
X149900747Y-98149242D01*
X149902500Y-98142699D01*
X149902500Y-98043301D01*
X149902500Y-96366499D01*
X149922185Y-96299460D01*
X149974989Y-96253705D01*
X150026500Y-96242499D01*
X150360826Y-96242499D01*
X150434204Y-96231809D01*
X150547390Y-96176476D01*
X150636476Y-96087390D01*
X150691809Y-95974204D01*
X150702500Y-95900827D01*
X150702499Y-94465843D01*
X150722184Y-94398805D01*
X150774987Y-94353050D01*
X150844146Y-94343106D01*
X150907702Y-94372131D01*
X150921598Y-94386270D01*
X156381585Y-100912289D01*
X156442604Y-100985222D01*
X156470525Y-101049271D01*
X156471500Y-101064791D01*
X156471500Y-133233500D01*
X156451815Y-133300539D01*
X156399011Y-133346294D01*
X156347500Y-133357500D01*
X133959600Y-133357500D01*
X133892561Y-133337815D01*
X133846806Y-133285011D01*
X133835600Y-133233500D01*
X133835600Y-132838000D01*
X131035600Y-132838000D01*
X131035600Y-133233500D01*
X131015915Y-133300539D01*
X130963111Y-133346294D01*
X130911600Y-133357500D01*
X124836772Y-133357500D01*
X124769733Y-133337815D01*
X124723978Y-133285011D01*
X124714034Y-133215853D01*
X124720589Y-133190168D01*
X124727597Y-133171376D01*
X124727598Y-133171372D01*
X124733999Y-133111844D01*
X124734000Y-133111827D01*
X124734000Y-132714000D01*
X121534000Y-132714000D01*
X121534000Y-133111844D01*
X121540401Y-133171372D01*
X121540402Y-133171376D01*
X121547411Y-133190168D01*
X121552394Y-133259860D01*
X121518908Y-133321183D01*
X121457584Y-133354667D01*
X121431228Y-133357500D01*
X117724500Y-133357500D01*
X117657461Y-133337815D01*
X117611706Y-133285011D01*
X117600500Y-133233500D01*
X117600500Y-131816155D01*
X121534000Y-131816155D01*
X121534000Y-132214000D01*
X122884000Y-132214000D01*
X123384000Y-132214000D01*
X124734000Y-132214000D01*
X124734000Y-131940155D01*
X131035600Y-131940155D01*
X131035600Y-132338000D01*
X132185600Y-132338000D01*
X132185600Y-131488000D01*
X131487755Y-131488000D01*
X131428227Y-131494401D01*
X131428220Y-131494403D01*
X131293513Y-131544645D01*
X131293506Y-131544649D01*
X131178412Y-131630809D01*
X131178409Y-131630812D01*
X131092249Y-131745906D01*
X131092245Y-131745913D01*
X131042003Y-131880620D01*
X131042001Y-131880627D01*
X131035600Y-131940155D01*
X124734000Y-131940155D01*
X124734000Y-131816172D01*
X124733999Y-131816155D01*
X124727598Y-131756627D01*
X124727596Y-131756620D01*
X124677354Y-131621913D01*
X124677350Y-131621906D01*
X124591190Y-131506812D01*
X124591187Y-131506809D01*
X124476093Y-131420649D01*
X124476086Y-131420645D01*
X124341379Y-131370403D01*
X124341372Y-131370401D01*
X124281844Y-131364000D01*
X123384000Y-131364000D01*
X123384000Y-132214000D01*
X122884000Y-132214000D01*
X122884000Y-131364000D01*
X121986155Y-131364000D01*
X121926627Y-131370401D01*
X121926620Y-131370403D01*
X121791913Y-131420645D01*
X121791906Y-131420649D01*
X121676812Y-131506809D01*
X121676809Y-131506812D01*
X121590649Y-131621906D01*
X121590645Y-131621913D01*
X121540403Y-131756620D01*
X121540401Y-131756627D01*
X121534000Y-131816155D01*
X117600500Y-131816155D01*
X117600500Y-129737920D01*
X121983499Y-129737920D01*
X122012340Y-129882907D01*
X122012343Y-129882917D01*
X122068912Y-130019488D01*
X122068919Y-130019501D01*
X122151048Y-130142415D01*
X122151051Y-130142419D01*
X122255580Y-130246948D01*
X122255584Y-130246951D01*
X122378498Y-130329080D01*
X122378511Y-130329087D01*
X122515082Y-130385656D01*
X122515087Y-130385658D01*
X122515091Y-130385658D01*
X122515092Y-130385659D01*
X122660079Y-130414500D01*
X122660082Y-130414500D01*
X122807920Y-130414500D01*
X122905462Y-130395096D01*
X122952913Y-130385658D01*
X123089495Y-130329084D01*
X123212416Y-130246951D01*
X123316951Y-130142416D01*
X123399084Y-130019495D01*
X123455658Y-129882913D01*
X123484500Y-129737918D01*
X123484500Y-129590082D01*
X123484500Y-129590079D01*
X123455659Y-129445092D01*
X123455658Y-129445091D01*
X123455658Y-129445087D01*
X123407597Y-129329057D01*
X123399087Y-129308511D01*
X123399080Y-129308498D01*
X123316951Y-129185584D01*
X123316948Y-129185580D01*
X123212419Y-129081051D01*
X123212415Y-129081048D01*
X123089501Y-128998919D01*
X123089488Y-128998912D01*
X122952917Y-128942343D01*
X122952907Y-128942340D01*
X122807920Y-128913500D01*
X122807918Y-128913500D01*
X122660082Y-128913500D01*
X122660080Y-128913500D01*
X122515092Y-128942340D01*
X122515082Y-128942343D01*
X122378511Y-128998912D01*
X122378498Y-128998919D01*
X122255584Y-129081048D01*
X122255580Y-129081051D01*
X122151051Y-129185580D01*
X122151048Y-129185584D01*
X122068919Y-129308498D01*
X122068912Y-129308511D01*
X122012343Y-129445082D01*
X122012340Y-129445092D01*
X121983500Y-129590079D01*
X121983500Y-129590082D01*
X121983500Y-129737918D01*
X121983500Y-129737920D01*
X121983499Y-129737920D01*
X117600500Y-129737920D01*
X117600500Y-128361844D01*
X132434000Y-128361844D01*
X132440401Y-128421372D01*
X132440403Y-128421379D01*
X132490645Y-128556086D01*
X132490649Y-128556093D01*
X132576809Y-128671187D01*
X132576812Y-128671190D01*
X132691906Y-128757350D01*
X132691915Y-128757355D01*
X132725832Y-128770005D01*
X132781766Y-128811875D01*
X132806184Y-128877339D01*
X132806500Y-128886187D01*
X132806500Y-129426558D01*
X132813898Y-129463749D01*
X132842078Y-129505923D01*
X132849525Y-129510899D01*
X132894330Y-129564512D01*
X132903036Y-129633837D01*
X132872880Y-129696864D01*
X132849525Y-129717101D01*
X132842078Y-129722076D01*
X132813898Y-129764250D01*
X132806500Y-129801441D01*
X132806500Y-130526558D01*
X132813898Y-130563749D01*
X132842078Y-130605923D01*
X132849525Y-130610899D01*
X132894330Y-130664512D01*
X132903036Y-130733837D01*
X132872880Y-130796864D01*
X132849525Y-130817101D01*
X132842078Y-130822076D01*
X132813898Y-130864250D01*
X132806500Y-130901441D01*
X132806500Y-131364000D01*
X132786815Y-131431039D01*
X132734011Y-131476794D01*
X132686461Y-131487138D01*
X132685600Y-131488000D01*
X132685600Y-132338000D01*
X133835600Y-132338000D01*
X133835600Y-131940172D01*
X133835599Y-131940158D01*
X133828997Y-131878757D01*
X133841401Y-131809997D01*
X133889011Y-131758859D01*
X133952286Y-131741500D01*
X134546559Y-131741500D01*
X134553957Y-131740028D01*
X134583748Y-131734102D01*
X134625922Y-131705922D01*
X134654102Y-131663748D01*
X134661500Y-131626558D01*
X134661500Y-130901442D01*
X134654102Y-130864252D01*
X134625922Y-130822078D01*
X134618475Y-130817102D01*
X134573671Y-130763491D01*
X134564962Y-130694166D01*
X134595116Y-130631139D01*
X134618476Y-130610897D01*
X134625922Y-130605922D01*
X134654102Y-130563748D01*
X134661500Y-130526558D01*
X134661500Y-129801442D01*
X134654102Y-129764252D01*
X134636507Y-129737920D01*
X134625922Y-129722078D01*
X134618476Y-129717103D01*
X134573671Y-129663491D01*
X134564962Y-129594166D01*
X134595116Y-129531139D01*
X134618476Y-129510897D01*
X134625922Y-129505922D01*
X134654102Y-129463748D01*
X134661500Y-129426558D01*
X134661500Y-129379000D01*
X134681185Y-129311961D01*
X134733989Y-129266206D01*
X134785500Y-129255000D01*
X137151062Y-129255000D01*
X137218101Y-129274685D01*
X137263856Y-129327489D01*
X137273800Y-129396647D01*
X137261547Y-129435295D01*
X137235103Y-129487192D01*
X137180263Y-129655972D01*
X137180263Y-129655975D01*
X137152500Y-129831264D01*
X137152500Y-130008735D01*
X137180263Y-130184024D01*
X137180263Y-130184027D01*
X137235103Y-130352807D01*
X137315678Y-130510942D01*
X137419985Y-130654510D01*
X137419989Y-130654515D01*
X137545484Y-130780010D01*
X137545489Y-130780014D01*
X137603386Y-130822078D01*
X137689061Y-130884324D01*
X137834794Y-130958579D01*
X137847192Y-130964896D01*
X138015973Y-131019736D01*
X138015974Y-131019736D01*
X138015977Y-131019737D01*
X138191264Y-131047500D01*
X138191265Y-131047500D01*
X138368735Y-131047500D01*
X138368736Y-131047500D01*
X138544023Y-131019737D01*
X138544026Y-131019736D01*
X138544027Y-131019736D01*
X138712807Y-130964896D01*
X138712807Y-130964895D01*
X138712810Y-130964895D01*
X138870939Y-130884324D01*
X139014517Y-130780009D01*
X139140009Y-130654517D01*
X139244324Y-130510939D01*
X139324895Y-130352810D01*
X139379737Y-130184023D01*
X139407500Y-130008736D01*
X139407500Y-129831264D01*
X139379737Y-129655977D01*
X139379736Y-129655973D01*
X139379736Y-129655972D01*
X139324896Y-129487192D01*
X139294001Y-129426558D01*
X139244324Y-129329061D01*
X139200867Y-129269247D01*
X139140014Y-129185489D01*
X139140010Y-129185484D01*
X139014515Y-129059989D01*
X139014510Y-129059985D01*
X138870942Y-128955678D01*
X138870941Y-128955677D01*
X138870939Y-128955676D01*
X138788164Y-128913500D01*
X138712807Y-128875103D01*
X138544026Y-128820263D01*
X138412557Y-128799440D01*
X138368736Y-128792500D01*
X138191264Y-128792500D01*
X138140685Y-128800511D01*
X138015975Y-128820263D01*
X138015972Y-128820263D01*
X137847192Y-128875103D01*
X137700920Y-128949633D01*
X137632251Y-128962529D01*
X137567510Y-128936253D01*
X137556944Y-128926829D01*
X137532193Y-128902078D01*
X137461993Y-128873000D01*
X137461992Y-128873000D01*
X134987835Y-128873000D01*
X134920796Y-128853315D01*
X134875041Y-128800511D01*
X134865097Y-128731353D01*
X134888569Y-128674688D01*
X134977352Y-128556089D01*
X134977354Y-128556086D01*
X135027596Y-128421379D01*
X135027598Y-128421372D01*
X135033999Y-128361844D01*
X135034000Y-128361827D01*
X135034000Y-128214000D01*
X132434000Y-128214000D01*
X132434000Y-128361844D01*
X117600500Y-128361844D01*
X117600500Y-127566155D01*
X132434000Y-127566155D01*
X132434000Y-127714000D01*
X135034000Y-127714000D01*
X135034000Y-127566172D01*
X135033999Y-127566155D01*
X135027598Y-127506627D01*
X135027596Y-127506620D01*
X134977354Y-127371913D01*
X134977352Y-127371910D01*
X134888569Y-127253312D01*
X134864151Y-127187847D01*
X134879002Y-127119574D01*
X134928407Y-127070168D01*
X134987835Y-127055000D01*
X137633523Y-127055000D01*
X137700562Y-127074685D01*
X137721204Y-127091319D01*
X139826829Y-129196944D01*
X139860314Y-129258267D01*
X139855330Y-129327959D01*
X139849633Y-129340920D01*
X139775103Y-129487192D01*
X139720263Y-129655972D01*
X139720263Y-129655975D01*
X139692500Y-129831264D01*
X139692500Y-130008735D01*
X139720263Y-130184024D01*
X139720263Y-130184027D01*
X139775103Y-130352807D01*
X139855678Y-130510942D01*
X139959985Y-130654510D01*
X139959989Y-130654515D01*
X140085484Y-130780010D01*
X140085489Y-130780014D01*
X140143386Y-130822078D01*
X140229061Y-130884324D01*
X140374794Y-130958579D01*
X140387192Y-130964896D01*
X140555973Y-131019736D01*
X140555974Y-131019736D01*
X140555977Y-131019737D01*
X140731264Y-131047500D01*
X140731265Y-131047500D01*
X140908735Y-131047500D01*
X140908736Y-131047500D01*
X141084023Y-131019737D01*
X141084026Y-131019736D01*
X141084027Y-131019736D01*
X141252807Y-130964896D01*
X141252807Y-130964895D01*
X141252810Y-130964895D01*
X141410939Y-130884324D01*
X141554517Y-130780009D01*
X141680009Y-130654517D01*
X141784324Y-130510939D01*
X141864895Y-130352810D01*
X141919737Y-130184023D01*
X141947500Y-130008736D01*
X141947500Y-129831264D01*
X141919737Y-129655977D01*
X141919736Y-129655973D01*
X141919736Y-129655972D01*
X141864896Y-129487192D01*
X141834001Y-129426558D01*
X141784324Y-129329061D01*
X141740867Y-129269247D01*
X141680014Y-129185489D01*
X141680010Y-129185484D01*
X141554515Y-129059989D01*
X141554510Y-129059985D01*
X141410942Y-128955678D01*
X141410941Y-128955677D01*
X141410939Y-128955676D01*
X141328164Y-128913500D01*
X141252807Y-128875103D01*
X141084026Y-128820263D01*
X140952557Y-128799440D01*
X140908736Y-128792500D01*
X140731264Y-128792500D01*
X140680685Y-128800511D01*
X140555975Y-128820263D01*
X140555972Y-128820263D01*
X140387192Y-128875103D01*
X140240920Y-128949633D01*
X140172251Y-128962529D01*
X140107510Y-128936253D01*
X140096944Y-128926829D01*
X137872193Y-126702078D01*
X137801993Y-126673000D01*
X137801992Y-126673000D01*
X134785500Y-126673000D01*
X134718461Y-126653315D01*
X134672706Y-126600511D01*
X134661500Y-126549000D01*
X134661500Y-126501441D01*
X134659404Y-126490907D01*
X134654102Y-126464252D01*
X134625922Y-126422078D01*
X134618475Y-126417102D01*
X134573671Y-126363491D01*
X134564962Y-126294166D01*
X134595116Y-126231139D01*
X134618476Y-126210897D01*
X134625922Y-126205922D01*
X134654102Y-126163748D01*
X134661500Y-126126558D01*
X134661500Y-126079000D01*
X134681185Y-126011961D01*
X134733989Y-125966206D01*
X134785500Y-125955000D01*
X135894061Y-125955000D01*
X135961100Y-125974685D01*
X135981742Y-125991318D01*
X135982914Y-125992490D01*
X135982915Y-125992491D01*
X136062509Y-126072085D01*
X136159991Y-126128367D01*
X136268719Y-126157500D01*
X136268721Y-126157500D01*
X136381279Y-126157500D01*
X136381281Y-126157500D01*
X136490009Y-126128367D01*
X136587491Y-126072085D01*
X136667085Y-125992491D01*
X136723367Y-125895009D01*
X136752500Y-125786281D01*
X136752500Y-125673719D01*
X136723367Y-125564991D01*
X136667085Y-125467509D01*
X136587491Y-125387915D01*
X136500871Y-125337904D01*
X136490010Y-125331633D01*
X136435645Y-125317066D01*
X136381281Y-125302500D01*
X136268719Y-125302500D01*
X136159989Y-125331633D01*
X136062509Y-125387915D01*
X136062506Y-125387917D01*
X135982917Y-125467506D01*
X135982915Y-125467509D01*
X135957805Y-125511001D01*
X135907237Y-125559216D01*
X135850418Y-125573000D01*
X134785500Y-125573000D01*
X134718461Y-125553315D01*
X134672706Y-125500511D01*
X134661500Y-125449000D01*
X134661500Y-125401441D01*
X134659662Y-125392205D01*
X134654102Y-125364252D01*
X134632306Y-125331633D01*
X134625922Y-125322078D01*
X134618476Y-125317103D01*
X134573671Y-125263491D01*
X134564962Y-125194166D01*
X134595116Y-125131139D01*
X134618476Y-125110897D01*
X134625922Y-125105922D01*
X134654102Y-125063748D01*
X134661500Y-125026558D01*
X134661500Y-124979000D01*
X134681185Y-124911961D01*
X134733989Y-124866206D01*
X134785500Y-124855000D01*
X137973523Y-124855000D01*
X138040562Y-124874685D01*
X138061204Y-124891319D01*
X140224885Y-127055000D01*
X142366829Y-129196943D01*
X142400314Y-129258266D01*
X142395330Y-129327958D01*
X142389633Y-129340918D01*
X142315104Y-129487189D01*
X142260263Y-129655972D01*
X142260263Y-129655975D01*
X142232500Y-129831264D01*
X142232500Y-130008735D01*
X142260263Y-130184024D01*
X142260263Y-130184027D01*
X142315103Y-130352807D01*
X142395678Y-130510942D01*
X142499985Y-130654510D01*
X142499989Y-130654515D01*
X142625484Y-130780010D01*
X142625489Y-130780014D01*
X142683386Y-130822078D01*
X142769061Y-130884324D01*
X142914794Y-130958579D01*
X142927192Y-130964896D01*
X143095973Y-131019736D01*
X143095974Y-131019736D01*
X143095977Y-131019737D01*
X143271264Y-131047500D01*
X143271265Y-131047500D01*
X143448735Y-131047500D01*
X143448736Y-131047500D01*
X143624023Y-131019737D01*
X143624026Y-131019736D01*
X143624027Y-131019736D01*
X143792807Y-130964896D01*
X143792807Y-130964895D01*
X143792810Y-130964895D01*
X143950939Y-130884324D01*
X144094517Y-130780009D01*
X144220009Y-130654517D01*
X144324324Y-130510939D01*
X144404895Y-130352810D01*
X144459737Y-130184023D01*
X144487500Y-130008736D01*
X144487500Y-129831264D01*
X144459737Y-129655977D01*
X144459736Y-129655973D01*
X144459736Y-129655972D01*
X144404896Y-129487192D01*
X144374001Y-129426558D01*
X144324324Y-129329061D01*
X144280867Y-129269247D01*
X144220014Y-129185489D01*
X144220010Y-129185484D01*
X144094515Y-129059989D01*
X144094510Y-129059985D01*
X143950942Y-128955678D01*
X143950941Y-128955677D01*
X143950939Y-128955676D01*
X143868164Y-128913500D01*
X143792807Y-128875103D01*
X143624026Y-128820263D01*
X143492557Y-128799440D01*
X143448736Y-128792500D01*
X143271264Y-128792500D01*
X143220685Y-128800511D01*
X143095975Y-128820263D01*
X143095972Y-128820263D01*
X142927189Y-128875104D01*
X142780918Y-128949633D01*
X142712249Y-128962529D01*
X142647509Y-128936252D01*
X142636943Y-128926829D01*
X138212194Y-124502079D01*
X138212193Y-124502078D01*
X138141993Y-124473000D01*
X138141992Y-124473000D01*
X134785500Y-124473000D01*
X134718461Y-124453315D01*
X134672706Y-124400511D01*
X134661500Y-124349000D01*
X134661500Y-124301441D01*
X134659662Y-124292205D01*
X134654102Y-124264252D01*
X134625922Y-124222078D01*
X134618475Y-124217102D01*
X134573671Y-124163491D01*
X134564962Y-124094166D01*
X134595116Y-124031139D01*
X134618476Y-124010897D01*
X134625922Y-124005922D01*
X134654102Y-123963748D01*
X134661500Y-123926558D01*
X134661500Y-123879000D01*
X134681185Y-123811961D01*
X134733989Y-123766206D01*
X134785500Y-123755000D01*
X142229523Y-123755000D01*
X142296562Y-123774685D01*
X142317204Y-123791319D01*
X145672681Y-127146796D01*
X145706166Y-127208119D01*
X145709000Y-127234477D01*
X145709000Y-128706444D01*
X145689315Y-128773483D01*
X145636511Y-128819238D01*
X145623318Y-128824375D01*
X145467192Y-128875103D01*
X145309057Y-128955678D01*
X145165489Y-129059985D01*
X145165484Y-129059989D01*
X145039989Y-129185484D01*
X145039985Y-129185489D01*
X144935678Y-129329057D01*
X144855103Y-129487192D01*
X144800263Y-129655972D01*
X144800263Y-129655975D01*
X144772500Y-129831264D01*
X144772500Y-130008735D01*
X144800263Y-130184024D01*
X144800263Y-130184027D01*
X144855103Y-130352807D01*
X144935678Y-130510942D01*
X145039985Y-130654510D01*
X145039989Y-130654515D01*
X145165484Y-130780010D01*
X145165489Y-130780014D01*
X145309056Y-130884321D01*
X145309058Y-130884322D01*
X145309061Y-130884324D01*
X145454795Y-130958579D01*
X145505591Y-131006554D01*
X145522500Y-131069064D01*
X145522500Y-131824699D01*
X145536985Y-131878757D01*
X145548227Y-131920713D01*
X145548228Y-131920714D01*
X145580886Y-131977278D01*
X145597500Y-132039279D01*
X145597500Y-132685820D01*
X145608191Y-132759203D01*
X145663525Y-132872392D01*
X145752607Y-132961474D01*
X145752608Y-132961474D01*
X145752610Y-132961476D01*
X145865796Y-133016809D01*
X145939173Y-133027500D01*
X146710826Y-133027499D01*
X146784204Y-133016809D01*
X146897390Y-132961476D01*
X146986476Y-132872390D01*
X147041809Y-132759204D01*
X147052500Y-132685827D01*
X147052499Y-131714174D01*
X147041809Y-131640796D01*
X146986476Y-131527610D01*
X146986474Y-131527608D01*
X146986474Y-131527607D01*
X146897392Y-131438525D01*
X146887037Y-131433463D01*
X146784204Y-131383191D01*
X146784202Y-131383190D01*
X146710828Y-131372500D01*
X146710827Y-131372500D01*
X146401500Y-131372500D01*
X146392814Y-131369949D01*
X146383853Y-131371238D01*
X146359812Y-131360259D01*
X146334461Y-131352815D01*
X146328533Y-131345974D01*
X146320297Y-131342213D01*
X146306007Y-131319978D01*
X146288706Y-131300011D01*
X146286418Y-131289496D01*
X146282523Y-131283435D01*
X146277500Y-131248500D01*
X146277500Y-131069064D01*
X146297185Y-131002025D01*
X146345203Y-130958579D01*
X146490939Y-130884324D01*
X146634517Y-130780009D01*
X146760009Y-130654517D01*
X146864324Y-130510939D01*
X146944895Y-130352810D01*
X146999737Y-130184023D01*
X147027500Y-130008736D01*
X147027500Y-129831264D01*
X147312500Y-129831264D01*
X147312500Y-130008735D01*
X147340263Y-130184024D01*
X147340263Y-130184027D01*
X147395103Y-130352807D01*
X147475678Y-130510942D01*
X147579985Y-130654510D01*
X147579989Y-130654515D01*
X147705484Y-130780010D01*
X147705489Y-130780014D01*
X147849056Y-130884321D01*
X147849058Y-130884322D01*
X147849061Y-130884324D01*
X147994795Y-130958579D01*
X148005859Y-130969028D01*
X148019703Y-130975351D01*
X148030744Y-130992531D01*
X148045591Y-131006554D01*
X148049832Y-131022233D01*
X148057477Y-131034129D01*
X148062500Y-131069064D01*
X148062500Y-131248500D01*
X148042815Y-131315539D01*
X147990011Y-131361294D01*
X147943598Y-131371397D01*
X147943655Y-131372176D01*
X147939184Y-131372500D01*
X147939177Y-131372500D01*
X147939174Y-131372501D01*
X147865803Y-131383190D01*
X147865796Y-131383191D01*
X147752607Y-131438525D01*
X147663525Y-131527607D01*
X147608190Y-131640797D01*
X147597500Y-131714172D01*
X147597500Y-132685825D01*
X147608191Y-132759204D01*
X147663525Y-132872392D01*
X147752607Y-132961474D01*
X147752608Y-132961474D01*
X147752610Y-132961476D01*
X147865796Y-133016809D01*
X147939173Y-133027500D01*
X148710826Y-133027499D01*
X148784204Y-133016809D01*
X148897390Y-132961476D01*
X148986476Y-132872390D01*
X149041809Y-132759204D01*
X149052500Y-132685827D01*
X149052499Y-131714174D01*
X149041809Y-131640796D01*
X148986476Y-131527610D01*
X148986474Y-131527608D01*
X148986474Y-131527607D01*
X148897391Y-131438524D01*
X148887038Y-131433463D01*
X148835456Y-131386334D01*
X148817500Y-131322063D01*
X148817500Y-131069064D01*
X148837185Y-131002025D01*
X148885203Y-130958579D01*
X149030939Y-130884324D01*
X149174517Y-130780009D01*
X149300009Y-130654517D01*
X149404324Y-130510939D01*
X149484895Y-130352810D01*
X149539737Y-130184023D01*
X149567500Y-130008736D01*
X149567500Y-129831264D01*
X152392500Y-129831264D01*
X152392500Y-130008735D01*
X152420263Y-130184024D01*
X152420263Y-130184027D01*
X152475103Y-130352807D01*
X152555678Y-130510942D01*
X152659985Y-130654510D01*
X152659989Y-130654515D01*
X152785484Y-130780010D01*
X152785489Y-130780014D01*
X152843386Y-130822078D01*
X152929061Y-130884324D01*
X153074794Y-130958579D01*
X153087192Y-130964896D01*
X153255973Y-131019736D01*
X153255974Y-131019736D01*
X153255977Y-131019737D01*
X153431264Y-131047500D01*
X153431265Y-131047500D01*
X153608735Y-131047500D01*
X153608736Y-131047500D01*
X153784023Y-131019737D01*
X153784026Y-131019736D01*
X153784027Y-131019736D01*
X153952807Y-130964896D01*
X153952807Y-130964895D01*
X153952810Y-130964895D01*
X154110939Y-130884324D01*
X154254517Y-130780009D01*
X154380009Y-130654517D01*
X154484324Y-130510939D01*
X154564895Y-130352810D01*
X154619737Y-130184023D01*
X154647500Y-130008736D01*
X154647500Y-129831264D01*
X154619737Y-129655977D01*
X154619736Y-129655973D01*
X154619736Y-129655972D01*
X154564896Y-129487192D01*
X154534001Y-129426558D01*
X154484324Y-129329061D01*
X154440867Y-129269247D01*
X154380014Y-129185489D01*
X154380010Y-129185484D01*
X154254515Y-129059989D01*
X154254510Y-129059985D01*
X154110942Y-128955678D01*
X154110941Y-128955677D01*
X154110939Y-128955676D01*
X154028164Y-128913500D01*
X153952807Y-128875103D01*
X153784026Y-128820263D01*
X153652557Y-128799440D01*
X153608736Y-128792500D01*
X153431264Y-128792500D01*
X153380685Y-128800511D01*
X153255975Y-128820263D01*
X153255972Y-128820263D01*
X153087192Y-128875103D01*
X152929057Y-128955678D01*
X152785489Y-129059985D01*
X152785484Y-129059989D01*
X152659989Y-129185484D01*
X152659985Y-129185489D01*
X152555678Y-129329057D01*
X152475103Y-129487192D01*
X152420263Y-129655972D01*
X152420263Y-129655975D01*
X152392500Y-129831264D01*
X149567500Y-129831264D01*
X149539737Y-129655977D01*
X149539736Y-129655973D01*
X149539736Y-129655972D01*
X149484896Y-129487192D01*
X149454001Y-129426558D01*
X149404324Y-129329061D01*
X149360867Y-129269247D01*
X149300014Y-129185489D01*
X149300010Y-129185484D01*
X149174515Y-129059989D01*
X149174510Y-129059985D01*
X149030943Y-128955678D01*
X148992817Y-128936252D01*
X148885204Y-128881420D01*
X148834409Y-128833446D01*
X148817500Y-128770936D01*
X148817500Y-128301376D01*
X148837185Y-128234337D01*
X148889989Y-128188582D01*
X148959147Y-128178638D01*
X149022703Y-128207663D01*
X149029181Y-128213695D01*
X149032902Y-128217416D01*
X149107584Y-128292098D01*
X149107587Y-128292099D01*
X149107588Y-128292100D01*
X149204198Y-128334758D01*
X149204199Y-128334758D01*
X149204201Y-128334759D01*
X149227826Y-128337500D01*
X149227827Y-128337500D01*
X149740370Y-128337500D01*
X149807409Y-128357185D01*
X149847102Y-128398379D01*
X149883332Y-128459641D01*
X149883339Y-128459650D01*
X150000349Y-128576660D01*
X150000357Y-128576666D01*
X150142802Y-128660907D01*
X150142805Y-128660908D01*
X150301716Y-128707077D01*
X150301722Y-128707078D01*
X150338842Y-128709999D01*
X150338858Y-128710000D01*
X150367500Y-128710000D01*
X150867500Y-128710000D01*
X150896142Y-128710000D01*
X150896157Y-128709999D01*
X150933277Y-128707078D01*
X150933283Y-128707077D01*
X151092194Y-128660908D01*
X151092197Y-128660907D01*
X151234642Y-128576666D01*
X151234650Y-128576660D01*
X151351660Y-128459650D01*
X151351666Y-128459642D01*
X151435907Y-128317197D01*
X151435909Y-128317194D01*
X151482078Y-128158281D01*
X151482730Y-128150000D01*
X150867500Y-128150000D01*
X150867500Y-128710000D01*
X150367500Y-128710000D01*
X150367500Y-127650000D01*
X150867500Y-127650000D01*
X151482730Y-127650000D01*
X151482078Y-127641718D01*
X151435909Y-127482805D01*
X151435907Y-127482802D01*
X151351666Y-127340357D01*
X151351660Y-127340349D01*
X151234650Y-127223339D01*
X151234642Y-127223333D01*
X151092197Y-127139092D01*
X151092194Y-127139091D01*
X150933283Y-127092922D01*
X150933277Y-127092921D01*
X150896157Y-127090000D01*
X150867500Y-127090000D01*
X150867500Y-127650000D01*
X150367500Y-127650000D01*
X150367500Y-127090000D01*
X150338842Y-127090000D01*
X150301722Y-127092921D01*
X150301716Y-127092922D01*
X150142805Y-127139091D01*
X150142802Y-127139092D01*
X150000357Y-127223333D01*
X150000349Y-127223339D01*
X149883339Y-127340349D01*
X149883332Y-127340358D01*
X149847102Y-127401621D01*
X149796033Y-127449305D01*
X149740370Y-127462500D01*
X149227824Y-127462500D01*
X149204198Y-127465241D01*
X149107588Y-127507899D01*
X149107581Y-127507904D01*
X149029181Y-127586305D01*
X148967858Y-127619790D01*
X148898166Y-127614806D01*
X148842233Y-127572934D01*
X148817816Y-127507470D01*
X148817500Y-127498624D01*
X148817500Y-126312182D01*
X148837185Y-126245143D01*
X148889989Y-126199388D01*
X148941500Y-126188182D01*
X150401515Y-126188182D01*
X150401517Y-126188182D01*
X150453503Y-126174252D01*
X150462936Y-126171725D01*
X150495029Y-126167500D01*
X150820370Y-126167500D01*
X150887409Y-126187185D01*
X150927102Y-126228379D01*
X150963332Y-126289641D01*
X150963339Y-126289650D01*
X151080349Y-126406660D01*
X151080357Y-126406666D01*
X151222802Y-126490907D01*
X151222805Y-126490908D01*
X151381716Y-126537077D01*
X151381722Y-126537078D01*
X151418842Y-126539999D01*
X151418858Y-126540000D01*
X151447500Y-126540000D01*
X151947500Y-126540000D01*
X151976142Y-126540000D01*
X151976157Y-126539999D01*
X152013277Y-126537078D01*
X152013283Y-126537077D01*
X152172194Y-126490908D01*
X152172197Y-126490907D01*
X152314642Y-126406666D01*
X152314650Y-126406660D01*
X152431660Y-126289650D01*
X152431666Y-126289642D01*
X152515907Y-126147197D01*
X152515909Y-126147194D01*
X152562078Y-125988281D01*
X152562730Y-125980000D01*
X151947500Y-125980000D01*
X151947500Y-126540000D01*
X151447500Y-126540000D01*
X151447500Y-125480000D01*
X151947500Y-125480000D01*
X152562730Y-125480000D01*
X152562078Y-125471718D01*
X152515909Y-125312805D01*
X152515907Y-125312802D01*
X152431666Y-125170357D01*
X152431660Y-125170349D01*
X152314650Y-125053339D01*
X152314642Y-125053333D01*
X152172197Y-124969092D01*
X152172194Y-124969091D01*
X152013283Y-124922922D01*
X152013277Y-124922921D01*
X151976157Y-124920000D01*
X151947500Y-124920000D01*
X151947500Y-125480000D01*
X151447500Y-125480000D01*
X151447500Y-124920000D01*
X151418842Y-124920000D01*
X151381722Y-124922921D01*
X151381716Y-124922922D01*
X151222805Y-124969091D01*
X151222802Y-124969092D01*
X151080357Y-125053333D01*
X151080349Y-125053339D01*
X150963339Y-125170349D01*
X150963332Y-125170358D01*
X150927102Y-125231621D01*
X150876033Y-125279305D01*
X150820370Y-125292500D01*
X150307824Y-125292500D01*
X150284198Y-125295241D01*
X150187588Y-125337899D01*
X150187581Y-125337904D01*
X150128623Y-125396863D01*
X150067300Y-125430348D01*
X150040942Y-125433182D01*
X148695060Y-125433182D01*
X148633059Y-125416569D01*
X148625692Y-125412315D01*
X148568022Y-125396863D01*
X148516963Y-125383182D01*
X148404401Y-125383182D01*
X148295671Y-125412315D01*
X148198191Y-125468597D01*
X148198188Y-125468599D01*
X148118599Y-125548188D01*
X148118597Y-125548191D01*
X148062315Y-125645671D01*
X148033182Y-125754401D01*
X148033182Y-125866962D01*
X148058275Y-125960613D01*
X148062500Y-125992706D01*
X148062500Y-128770936D01*
X148042815Y-128837975D01*
X147994796Y-128881420D01*
X147954253Y-128902078D01*
X147849056Y-128955678D01*
X147705489Y-129059985D01*
X147705484Y-129059989D01*
X147579989Y-129185484D01*
X147579985Y-129185489D01*
X147475678Y-129329057D01*
X147395103Y-129487192D01*
X147340263Y-129655972D01*
X147340263Y-129655975D01*
X147312500Y-129831264D01*
X147027500Y-129831264D01*
X146999737Y-129655977D01*
X146999736Y-129655973D01*
X146999736Y-129655972D01*
X146944896Y-129487192D01*
X146914001Y-129426558D01*
X146864324Y-129329061D01*
X146820867Y-129269247D01*
X146760014Y-129185489D01*
X146760010Y-129185484D01*
X146634515Y-129059989D01*
X146634510Y-129059985D01*
X146490942Y-128955678D01*
X146490941Y-128955677D01*
X146490939Y-128955676D01*
X146408164Y-128913500D01*
X146332807Y-128875103D01*
X146176682Y-128824375D01*
X146119006Y-128784937D01*
X146091808Y-128720579D01*
X146091000Y-128706444D01*
X146091000Y-127066009D01*
X146090999Y-127066006D01*
X146086440Y-127055000D01*
X146061922Y-126995807D01*
X146008193Y-126942078D01*
X142468193Y-123402078D01*
X142397993Y-123373000D01*
X142397992Y-123373000D01*
X134785500Y-123373000D01*
X134718461Y-123353315D01*
X134672706Y-123300511D01*
X134661500Y-123249000D01*
X134661500Y-123201441D01*
X134659662Y-123192205D01*
X134654102Y-123164252D01*
X134625922Y-123122078D01*
X134618475Y-123117102D01*
X134573671Y-123063491D01*
X134564962Y-122994166D01*
X134595116Y-122931139D01*
X134618476Y-122910897D01*
X134625922Y-122905922D01*
X134654102Y-122863748D01*
X134661500Y-122826558D01*
X134661500Y-122101442D01*
X134654102Y-122064252D01*
X134654101Y-122064250D01*
X134625922Y-122022077D01*
X134583749Y-121993898D01*
X134546559Y-121986500D01*
X134546558Y-121986500D01*
X132921442Y-121986500D01*
X132921441Y-121986500D01*
X132884250Y-121993898D01*
X132842077Y-122022077D01*
X132813898Y-122064250D01*
X132806500Y-122101441D01*
X132806500Y-122826558D01*
X132813898Y-122863749D01*
X132842078Y-122905923D01*
X132849525Y-122910899D01*
X132894330Y-122964512D01*
X132903036Y-123033837D01*
X132872880Y-123096864D01*
X132849525Y-123117101D01*
X132842078Y-123122076D01*
X132813898Y-123164250D01*
X132806500Y-123201441D01*
X132806500Y-123926558D01*
X132813898Y-123963749D01*
X132842078Y-124005923D01*
X132849525Y-124010899D01*
X132894330Y-124064512D01*
X132903036Y-124133837D01*
X132872880Y-124196864D01*
X132849525Y-124217101D01*
X132842078Y-124222076D01*
X132813898Y-124264250D01*
X132806500Y-124301441D01*
X132806500Y-125026558D01*
X132813898Y-125063749D01*
X132842078Y-125105923D01*
X132849525Y-125110899D01*
X132894330Y-125164512D01*
X132903036Y-125233837D01*
X132872880Y-125296864D01*
X132849525Y-125317101D01*
X132842078Y-125322076D01*
X132813898Y-125364250D01*
X132806500Y-125401441D01*
X132806500Y-126126558D01*
X132813898Y-126163749D01*
X132842078Y-126205923D01*
X132849525Y-126210899D01*
X132894330Y-126264512D01*
X132903036Y-126333837D01*
X132872880Y-126396864D01*
X132849525Y-126417101D01*
X132842078Y-126422076D01*
X132813898Y-126464250D01*
X132806500Y-126501441D01*
X132806500Y-127041812D01*
X132786815Y-127108851D01*
X132734011Y-127154606D01*
X132725836Y-127157993D01*
X132691913Y-127170646D01*
X132576809Y-127256813D01*
X132490649Y-127371906D01*
X132490645Y-127371913D01*
X132440403Y-127506620D01*
X132440401Y-127506627D01*
X132434000Y-127566155D01*
X117600500Y-127566155D01*
X117600500Y-121737920D01*
X121983499Y-121737920D01*
X122012340Y-121882907D01*
X122012343Y-121882917D01*
X122068912Y-122019488D01*
X122068919Y-122019501D01*
X122151048Y-122142415D01*
X122151051Y-122142419D01*
X122255580Y-122246948D01*
X122255584Y-122246951D01*
X122378498Y-122329080D01*
X122378511Y-122329087D01*
X122515082Y-122385656D01*
X122515087Y-122385658D01*
X122515091Y-122385658D01*
X122515092Y-122385659D01*
X122660079Y-122414500D01*
X122660082Y-122414500D01*
X122807920Y-122414500D01*
X122905462Y-122395096D01*
X122952913Y-122385658D01*
X123089495Y-122329084D01*
X123212416Y-122246951D01*
X123316951Y-122142416D01*
X123399084Y-122019495D01*
X123455658Y-121882913D01*
X123484500Y-121737918D01*
X123484500Y-121590082D01*
X123484500Y-121590079D01*
X123455659Y-121445092D01*
X123455658Y-121445091D01*
X123455658Y-121445087D01*
X123400763Y-121312558D01*
X123399087Y-121308511D01*
X123399080Y-121308498D01*
X123316951Y-121185584D01*
X123316948Y-121185580D01*
X123212419Y-121081051D01*
X123212415Y-121081048D01*
X123089501Y-120998919D01*
X123089488Y-120998912D01*
X122952917Y-120942343D01*
X122952907Y-120942340D01*
X122807920Y-120913500D01*
X122807918Y-120913500D01*
X122660082Y-120913500D01*
X122660080Y-120913500D01*
X122515092Y-120942340D01*
X122515082Y-120942343D01*
X122378511Y-120998912D01*
X122378498Y-120998919D01*
X122255584Y-121081048D01*
X122255580Y-121081051D01*
X122151051Y-121185580D01*
X122151048Y-121185584D01*
X122068919Y-121308498D01*
X122068912Y-121308511D01*
X122012343Y-121445082D01*
X122012340Y-121445092D01*
X121983500Y-121590079D01*
X121983500Y-121590082D01*
X121983500Y-121737918D01*
X121983500Y-121737920D01*
X121983499Y-121737920D01*
X117600500Y-121737920D01*
X117600500Y-120714171D01*
X143700500Y-120714171D01*
X143700500Y-122485828D01*
X143711190Y-122559204D01*
X143766524Y-122672391D01*
X143855608Y-122761475D01*
X143968795Y-122816809D01*
X144042171Y-122827500D01*
X144042172Y-122827500D01*
X145813829Y-122827500D01*
X145850516Y-122822154D01*
X145887205Y-122816809D01*
X146000390Y-122761476D01*
X146089476Y-122672390D01*
X146144809Y-122559205D01*
X146155500Y-122485828D01*
X146155500Y-121503388D01*
X152844500Y-121503388D01*
X152844500Y-121696611D01*
X152874725Y-121887441D01*
X152934429Y-122071194D01*
X153022147Y-122243349D01*
X153135715Y-122399663D01*
X153272336Y-122536284D01*
X153428650Y-122649852D01*
X153600805Y-122737570D01*
X153692681Y-122767422D01*
X153784560Y-122797275D01*
X153872943Y-122811273D01*
X153975389Y-122827500D01*
X153975394Y-122827500D01*
X154168611Y-122827500D01*
X154261123Y-122812846D01*
X154359440Y-122797275D01*
X154543197Y-122737569D01*
X154715350Y-122649852D01*
X154871663Y-122536285D01*
X155008285Y-122399663D01*
X155121852Y-122243350D01*
X155209569Y-122071197D01*
X155269275Y-121887440D01*
X155292957Y-121737918D01*
X155299500Y-121696611D01*
X155299500Y-121503388D01*
X155281916Y-121392373D01*
X155269275Y-121312560D01*
X155209569Y-121128803D01*
X155121852Y-120956650D01*
X155008285Y-120800337D01*
X154871663Y-120663715D01*
X154715350Y-120550148D01*
X154715351Y-120550148D01*
X154715349Y-120550147D01*
X154543194Y-120462429D01*
X154359441Y-120402725D01*
X154168611Y-120372500D01*
X154168606Y-120372500D01*
X153975394Y-120372500D01*
X153975389Y-120372500D01*
X153784558Y-120402725D01*
X153600805Y-120462429D01*
X153428650Y-120550147D01*
X153272336Y-120663715D01*
X153135715Y-120800336D01*
X153022147Y-120956650D01*
X152934429Y-121128805D01*
X152874725Y-121312558D01*
X152844500Y-121503388D01*
X146155500Y-121503388D01*
X146155500Y-120714172D01*
X146144809Y-120640795D01*
X146089476Y-120527610D01*
X146089475Y-120527609D01*
X146089475Y-120527608D01*
X146000391Y-120438524D01*
X145887204Y-120383190D01*
X145813829Y-120372500D01*
X145813828Y-120372500D01*
X144042172Y-120372500D01*
X144042171Y-120372500D01*
X143968795Y-120383190D01*
X143855608Y-120438524D01*
X143766524Y-120527608D01*
X143711190Y-120640795D01*
X143700500Y-120714171D01*
X117600500Y-120714171D01*
X117600500Y-118711844D01*
X131434000Y-118711844D01*
X131440401Y-118771372D01*
X131440403Y-118771379D01*
X131490645Y-118906086D01*
X131490649Y-118906093D01*
X131576809Y-119021187D01*
X131576812Y-119021190D01*
X131691906Y-119107350D01*
X131691913Y-119107354D01*
X131826620Y-119157596D01*
X131826627Y-119157598D01*
X131886155Y-119163999D01*
X131886172Y-119164000D01*
X132434000Y-119164000D01*
X132934000Y-119164000D01*
X133481828Y-119164000D01*
X133481844Y-119163999D01*
X133541372Y-119157598D01*
X133541379Y-119157596D01*
X133676086Y-119107354D01*
X133676093Y-119107350D01*
X133791187Y-119021190D01*
X133791190Y-119021187D01*
X133877350Y-118906093D01*
X133877354Y-118906086D01*
X133927596Y-118771379D01*
X133927598Y-118771372D01*
X133933999Y-118711844D01*
X133934000Y-118711827D01*
X133934000Y-118114000D01*
X132934000Y-118114000D01*
X132934000Y-119164000D01*
X132434000Y-119164000D01*
X132434000Y-118114000D01*
X131434000Y-118114000D01*
X131434000Y-118711844D01*
X117600500Y-118711844D01*
X117600500Y-117611844D01*
X121534000Y-117611844D01*
X121540401Y-117671372D01*
X121540403Y-117671379D01*
X121590645Y-117806086D01*
X121590649Y-117806093D01*
X121676809Y-117921187D01*
X121676812Y-117921190D01*
X121791906Y-118007350D01*
X121791913Y-118007354D01*
X121926620Y-118057596D01*
X121926627Y-118057598D01*
X121986155Y-118063999D01*
X121986172Y-118064000D01*
X122884000Y-118064000D01*
X123384000Y-118064000D01*
X124281828Y-118064000D01*
X124281844Y-118063999D01*
X124341372Y-118057598D01*
X124341379Y-118057596D01*
X124476086Y-118007354D01*
X124476088Y-118007353D01*
X124534841Y-117963371D01*
X124534841Y-117963370D01*
X124591190Y-117921187D01*
X124677350Y-117806093D01*
X124677354Y-117806086D01*
X124727596Y-117671379D01*
X124727598Y-117671372D01*
X124731051Y-117639264D01*
X144772500Y-117639264D01*
X144772500Y-117816735D01*
X144800263Y-117992024D01*
X144800263Y-117992027D01*
X144855103Y-118160807D01*
X144855105Y-118160810D01*
X144927963Y-118303802D01*
X144935678Y-118318942D01*
X145039985Y-118462510D01*
X145039989Y-118462515D01*
X145165484Y-118588010D01*
X145165489Y-118588014D01*
X145290716Y-118678996D01*
X145309061Y-118692324D01*
X145464201Y-118771372D01*
X145467192Y-118772896D01*
X145635973Y-118827736D01*
X145635974Y-118827736D01*
X145635977Y-118827737D01*
X145811264Y-118855500D01*
X145811265Y-118855500D01*
X145988735Y-118855500D01*
X145988736Y-118855500D01*
X146164023Y-118827737D01*
X146164026Y-118827736D01*
X146164027Y-118827736D01*
X146294116Y-118785468D01*
X146332807Y-118772896D01*
X146332807Y-118772895D01*
X146332810Y-118772895D01*
X146490939Y-118692324D01*
X146634517Y-118588009D01*
X146760009Y-118462517D01*
X146858997Y-118326269D01*
X146914325Y-118283606D01*
X146983938Y-118277627D01*
X147045734Y-118310232D01*
X147069799Y-118342862D01*
X147157087Y-118514174D01*
X147217338Y-118597104D01*
X147217340Y-118597105D01*
X148018274Y-117796171D01*
X148043963Y-117892044D01*
X148099916Y-117988956D01*
X148179044Y-118068084D01*
X148275956Y-118124037D01*
X148371828Y-118149725D01*
X147570893Y-118950658D01*
X147653828Y-119010914D01*
X147864197Y-119118102D01*
X148088752Y-119191065D01*
X148088751Y-119191065D01*
X148321948Y-119228000D01*
X148558052Y-119228000D01*
X148791247Y-119191065D01*
X149015802Y-119118102D01*
X149226163Y-119010918D01*
X149226169Y-119010914D01*
X149309104Y-118950658D01*
X149309105Y-118950658D01*
X148508171Y-118149725D01*
X148604044Y-118124037D01*
X148700956Y-118068084D01*
X148780084Y-117988956D01*
X148836037Y-117892044D01*
X148861725Y-117796172D01*
X149662658Y-118597105D01*
X149662658Y-118597104D01*
X149722914Y-118514169D01*
X149722918Y-118514163D01*
X149830102Y-118303802D01*
X149903065Y-118079247D01*
X149940000Y-117846052D01*
X149940000Y-117609947D01*
X149903065Y-117376752D01*
X149830102Y-117152197D01*
X149722914Y-116941828D01*
X149662658Y-116858894D01*
X149662658Y-116858893D01*
X148861725Y-117659827D01*
X148836037Y-117563956D01*
X148780084Y-117467044D01*
X148700956Y-117387916D01*
X148604044Y-117331963D01*
X148508172Y-117306274D01*
X149309105Y-116505340D01*
X149309104Y-116505338D01*
X149226174Y-116445087D01*
X149015802Y-116337897D01*
X148791247Y-116264934D01*
X148791248Y-116264934D01*
X148558052Y-116228000D01*
X148321948Y-116228000D01*
X148088752Y-116264934D01*
X147864197Y-116337897D01*
X147653830Y-116445084D01*
X147570894Y-116505340D01*
X148371828Y-117306274D01*
X148275956Y-117331963D01*
X148179044Y-117387916D01*
X148099916Y-117467044D01*
X148043963Y-117563956D01*
X148018274Y-117659828D01*
X147217340Y-116858894D01*
X147157084Y-116941830D01*
X147069799Y-117113137D01*
X147021824Y-117163933D01*
X146954003Y-117180728D01*
X146887868Y-117158190D01*
X146858996Y-117129727D01*
X146760014Y-116993488D01*
X146634515Y-116867989D01*
X146634510Y-116867985D01*
X146490942Y-116763678D01*
X146490941Y-116763677D01*
X146490939Y-116763676D01*
X146393445Y-116714000D01*
X146332807Y-116683103D01*
X146294110Y-116670530D01*
X146164026Y-116628263D01*
X146032557Y-116607440D01*
X145988736Y-116600500D01*
X145811264Y-116600500D01*
X145752835Y-116609754D01*
X145635975Y-116628263D01*
X145635972Y-116628263D01*
X145467192Y-116683103D01*
X145309057Y-116763678D01*
X145165489Y-116867985D01*
X145165484Y-116867989D01*
X145039989Y-116993484D01*
X145039985Y-116993489D01*
X144935678Y-117137057D01*
X144855103Y-117295192D01*
X144800263Y-117463972D01*
X144800263Y-117463975D01*
X144772500Y-117639264D01*
X124731051Y-117639264D01*
X124733999Y-117611844D01*
X124734000Y-117611827D01*
X124734000Y-117214000D01*
X123384000Y-117214000D01*
X123384000Y-118064000D01*
X122884000Y-118064000D01*
X122884000Y-117214000D01*
X121534000Y-117214000D01*
X121534000Y-117611844D01*
X117600500Y-117611844D01*
X117600500Y-114691264D01*
X118952500Y-114691264D01*
X118952500Y-114868735D01*
X118980263Y-115044024D01*
X118980263Y-115044027D01*
X119035103Y-115212807D01*
X119035105Y-115212810D01*
X119109632Y-115359078D01*
X119115678Y-115370942D01*
X119219985Y-115514510D01*
X119219989Y-115514515D01*
X119345484Y-115640010D01*
X119345489Y-115640014D01*
X119470716Y-115730996D01*
X119489061Y-115744324D01*
X119647190Y-115824895D01*
X119647192Y-115824896D01*
X119815973Y-115879736D01*
X119815974Y-115879736D01*
X119815977Y-115879737D01*
X119991264Y-115907500D01*
X119991265Y-115907500D01*
X120168735Y-115907500D01*
X120168736Y-115907500D01*
X120344023Y-115879737D01*
X120344026Y-115879736D01*
X120344027Y-115879736D01*
X120512807Y-115824896D01*
X120512807Y-115824895D01*
X120512810Y-115824895D01*
X120670939Y-115744324D01*
X120814517Y-115640009D01*
X120940009Y-115514517D01*
X121038997Y-115378269D01*
X121094325Y-115335606D01*
X121163938Y-115329627D01*
X121225734Y-115362232D01*
X121249799Y-115394862D01*
X121337087Y-115566174D01*
X121397338Y-115649104D01*
X121397340Y-115649105D01*
X122198274Y-114848171D01*
X122223963Y-114944044D01*
X122279916Y-115040956D01*
X122359044Y-115120084D01*
X122455956Y-115176037D01*
X122551828Y-115201725D01*
X121706036Y-116047517D01*
X121644713Y-116081002D01*
X121627202Y-116083520D01*
X121618942Y-116084110D01*
X121590647Y-116121908D01*
X121540403Y-116256620D01*
X121540401Y-116256627D01*
X121534000Y-116316155D01*
X121534000Y-116714000D01*
X124734000Y-116714000D01*
X124734000Y-116316172D01*
X124733999Y-116316155D01*
X124727598Y-116256627D01*
X124727596Y-116256620D01*
X124677354Y-116121913D01*
X124677350Y-116121906D01*
X124591190Y-116006812D01*
X124591187Y-116006809D01*
X124476093Y-115920649D01*
X124476086Y-115920645D01*
X124341379Y-115870403D01*
X124341372Y-115870401D01*
X124281844Y-115864000D01*
X123929893Y-115864000D01*
X123862854Y-115844315D01*
X123817099Y-115791511D01*
X123807155Y-115722353D01*
X123829575Y-115667114D01*
X123902914Y-115566171D01*
X124010102Y-115355802D01*
X124083065Y-115131247D01*
X124120000Y-114898052D01*
X124120000Y-114691264D01*
X129112500Y-114691264D01*
X129112500Y-114868735D01*
X129140263Y-115044024D01*
X129140263Y-115044027D01*
X129195103Y-115212807D01*
X129195105Y-115212810D01*
X129269632Y-115359078D01*
X129275678Y-115370942D01*
X129379985Y-115514510D01*
X129379989Y-115514515D01*
X129505484Y-115640010D01*
X129505489Y-115640014D01*
X129630716Y-115730996D01*
X129649061Y-115744324D01*
X129807190Y-115824895D01*
X129807192Y-115824896D01*
X129975973Y-115879736D01*
X129975974Y-115879736D01*
X129975977Y-115879737D01*
X130151264Y-115907500D01*
X130151265Y-115907500D01*
X130328735Y-115907500D01*
X130328736Y-115907500D01*
X130504023Y-115879737D01*
X130504026Y-115879736D01*
X130504027Y-115879736D01*
X130585007Y-115853423D01*
X130672810Y-115824895D01*
X130819079Y-115750366D01*
X130887747Y-115737470D01*
X130952488Y-115763746D01*
X130963055Y-115773170D01*
X131658560Y-116468675D01*
X131692045Y-116529998D01*
X131687061Y-116599690D01*
X131645190Y-116655623D01*
X131576809Y-116706813D01*
X131490649Y-116821906D01*
X131490645Y-116821913D01*
X131440403Y-116956620D01*
X131440401Y-116956627D01*
X131434000Y-117016155D01*
X131434000Y-117614000D01*
X133934000Y-117614000D01*
X133934000Y-117016172D01*
X133933999Y-117016155D01*
X133927598Y-116956627D01*
X133927596Y-116956620D01*
X133923014Y-116944333D01*
X133918030Y-116874641D01*
X133951515Y-116813318D01*
X134012839Y-116779834D01*
X134039196Y-116777000D01*
X142292990Y-116777000D01*
X142292992Y-116777000D01*
X142363193Y-116747922D01*
X143267296Y-115843819D01*
X143328619Y-115810334D01*
X143354977Y-115807500D01*
X143448735Y-115807500D01*
X143448736Y-115807500D01*
X143624023Y-115779737D01*
X143624026Y-115779736D01*
X143624027Y-115779736D01*
X143792807Y-115724896D01*
X143792807Y-115724895D01*
X143792810Y-115724895D01*
X143950939Y-115644324D01*
X144094517Y-115540009D01*
X144220009Y-115414517D01*
X144324324Y-115270939D01*
X144404895Y-115112810D01*
X144459737Y-114944023D01*
X144487500Y-114768736D01*
X144487500Y-114591264D01*
X144459737Y-114415977D01*
X144459736Y-114415973D01*
X144459736Y-114415972D01*
X144404896Y-114247192D01*
X144382989Y-114204197D01*
X144324324Y-114089061D01*
X144280867Y-114029247D01*
X144220014Y-113945489D01*
X144220010Y-113945484D01*
X144094515Y-113819989D01*
X144094510Y-113819985D01*
X143950942Y-113715678D01*
X143950941Y-113715677D01*
X143950939Y-113715676D01*
X143826950Y-113652500D01*
X143792807Y-113635103D01*
X143624026Y-113580263D01*
X143479294Y-113557340D01*
X143448736Y-113552500D01*
X143271264Y-113552500D01*
X143240706Y-113557340D01*
X143095975Y-113580263D01*
X143095972Y-113580263D01*
X142927192Y-113635103D01*
X142769057Y-113715678D01*
X142625489Y-113819985D01*
X142625484Y-113819989D01*
X142499989Y-113945484D01*
X142499985Y-113945489D01*
X142395678Y-114089057D01*
X142315103Y-114247192D01*
X142260263Y-114415972D01*
X142260263Y-114415975D01*
X142232500Y-114591264D01*
X142232500Y-114768735D01*
X142260263Y-114944024D01*
X142260263Y-114944027D01*
X142315103Y-115112807D01*
X142395678Y-115270942D01*
X142499985Y-115414510D01*
X142499989Y-115414515D01*
X142625488Y-115540014D01*
X142742825Y-115625263D01*
X142785491Y-115680592D01*
X142791470Y-115750206D01*
X142758865Y-115812001D01*
X142757621Y-115813262D01*
X142212204Y-116358681D01*
X142150881Y-116392166D01*
X142124523Y-116395000D01*
X139674477Y-116395000D01*
X139607438Y-116375315D01*
X139561683Y-116322511D01*
X139551739Y-116253353D01*
X139580764Y-116189797D01*
X139586796Y-116183319D01*
X139689113Y-116081002D01*
X140096945Y-115673168D01*
X140158266Y-115639685D01*
X140227957Y-115644669D01*
X140240919Y-115650366D01*
X140387192Y-115724896D01*
X140555973Y-115779736D01*
X140555974Y-115779736D01*
X140555977Y-115779737D01*
X140731264Y-115807500D01*
X140731265Y-115807500D01*
X140908735Y-115807500D01*
X140908736Y-115807500D01*
X141084023Y-115779737D01*
X141084026Y-115779736D01*
X141084027Y-115779736D01*
X141252807Y-115724896D01*
X141252807Y-115724895D01*
X141252810Y-115724895D01*
X141410939Y-115644324D01*
X141554517Y-115540009D01*
X141680009Y-115414517D01*
X141784324Y-115270939D01*
X141864895Y-115112810D01*
X141919737Y-114944023D01*
X141947500Y-114768736D01*
X141947500Y-114591264D01*
X141919737Y-114415977D01*
X141919736Y-114415973D01*
X141919736Y-114415972D01*
X141864896Y-114247192D01*
X141842989Y-114204197D01*
X141784324Y-114089061D01*
X141740867Y-114029247D01*
X141680014Y-113945489D01*
X141680010Y-113945484D01*
X141554515Y-113819989D01*
X141554510Y-113819985D01*
X141410942Y-113715678D01*
X141410941Y-113715677D01*
X141410939Y-113715676D01*
X141286950Y-113652500D01*
X141252807Y-113635103D01*
X141084026Y-113580263D01*
X140939294Y-113557340D01*
X140908736Y-113552500D01*
X140731264Y-113552500D01*
X140700706Y-113557340D01*
X140555975Y-113580263D01*
X140555972Y-113580263D01*
X140387192Y-113635103D01*
X140229057Y-113715678D01*
X140085489Y-113819985D01*
X140085484Y-113819989D01*
X139959989Y-113945484D01*
X139959985Y-113945489D01*
X139855678Y-114089057D01*
X139775103Y-114247192D01*
X139720263Y-114415972D01*
X139720263Y-114415975D01*
X139692500Y-114591264D01*
X139692500Y-114768735D01*
X139720263Y-114944024D01*
X139720263Y-114944027D01*
X139775103Y-115112807D01*
X139849633Y-115259079D01*
X139862529Y-115327748D01*
X139836253Y-115392489D01*
X139826829Y-115403055D01*
X139379204Y-115850681D01*
X139317881Y-115884166D01*
X139291523Y-115887000D01*
X138911158Y-115887000D01*
X138844119Y-115867315D01*
X138798364Y-115814511D01*
X138788420Y-115745353D01*
X138817445Y-115681797D01*
X138854863Y-115652515D01*
X138870939Y-115644324D01*
X139014517Y-115540009D01*
X139140009Y-115414517D01*
X139244324Y-115270939D01*
X139324895Y-115112810D01*
X139379737Y-114944023D01*
X139407500Y-114768736D01*
X139407500Y-114591264D01*
X139379737Y-114415977D01*
X139379736Y-114415973D01*
X139379736Y-114415972D01*
X139324896Y-114247192D01*
X139302989Y-114204197D01*
X139244324Y-114089061D01*
X139200867Y-114029247D01*
X139140014Y-113945489D01*
X139140010Y-113945484D01*
X139014515Y-113819989D01*
X139014510Y-113819985D01*
X138870942Y-113715678D01*
X138870941Y-113715677D01*
X138870939Y-113715676D01*
X138746950Y-113652500D01*
X138712807Y-113635103D01*
X138544026Y-113580263D01*
X138399294Y-113557340D01*
X138368736Y-113552500D01*
X138191264Y-113552500D01*
X138160706Y-113557340D01*
X138015975Y-113580263D01*
X138015972Y-113580263D01*
X137847192Y-113635103D01*
X137689057Y-113715678D01*
X137545489Y-113819985D01*
X137545484Y-113819989D01*
X137419989Y-113945484D01*
X137419985Y-113945489D01*
X137315678Y-114089057D01*
X137235103Y-114247192D01*
X137180263Y-114415975D01*
X137169426Y-114484398D01*
X137139497Y-114547533D01*
X137080185Y-114584464D01*
X137046953Y-114589000D01*
X136533556Y-114589000D01*
X136466517Y-114569315D01*
X136420762Y-114516511D01*
X136415625Y-114503318D01*
X136364896Y-114347192D01*
X136313942Y-114247190D01*
X136284324Y-114189061D01*
X136220286Y-114100920D01*
X136180014Y-114045489D01*
X136180010Y-114045484D01*
X136054515Y-113919989D01*
X136054510Y-113919985D01*
X135910942Y-113815678D01*
X135910941Y-113815677D01*
X135910939Y-113815676D01*
X135831874Y-113775390D01*
X135752807Y-113735103D01*
X135584026Y-113680263D01*
X135452557Y-113659440D01*
X135408736Y-113652500D01*
X135231264Y-113652500D01*
X135172835Y-113661754D01*
X135055975Y-113680263D01*
X135055972Y-113680263D01*
X134887192Y-113735103D01*
X134729057Y-113815678D01*
X134585489Y-113919985D01*
X134585484Y-113919989D01*
X134459989Y-114045484D01*
X134459985Y-114045489D01*
X134355678Y-114189057D01*
X134275103Y-114347192D01*
X134220263Y-114515972D01*
X134220263Y-114515975D01*
X134192500Y-114691264D01*
X134192500Y-114868735D01*
X134220263Y-115044024D01*
X134220263Y-115044027D01*
X134275103Y-115212807D01*
X134275105Y-115212810D01*
X134349632Y-115359078D01*
X134355678Y-115370942D01*
X134459985Y-115514510D01*
X134459989Y-115514515D01*
X134585486Y-115640012D01*
X134616688Y-115662681D01*
X134659355Y-115718011D01*
X134665334Y-115787624D01*
X134632729Y-115849419D01*
X134571891Y-115883777D01*
X134543804Y-115887000D01*
X134208477Y-115887000D01*
X134141438Y-115867315D01*
X134120796Y-115850681D01*
X133773170Y-115503055D01*
X133739685Y-115441732D01*
X133744669Y-115372040D01*
X133750363Y-115359085D01*
X133824895Y-115212810D01*
X133879737Y-115044023D01*
X133907500Y-114868736D01*
X133907500Y-114691264D01*
X133879737Y-114515977D01*
X133879736Y-114515973D01*
X133879736Y-114515972D01*
X133824896Y-114347192D01*
X133773942Y-114247190D01*
X133744324Y-114189061D01*
X133680286Y-114100920D01*
X133640014Y-114045489D01*
X133640010Y-114045484D01*
X133514515Y-113919989D01*
X133514510Y-113919985D01*
X133370942Y-113815678D01*
X133370941Y-113815677D01*
X133370939Y-113815676D01*
X133291874Y-113775390D01*
X133212807Y-113735103D01*
X133044026Y-113680263D01*
X132912557Y-113659440D01*
X132868736Y-113652500D01*
X132691264Y-113652500D01*
X132632835Y-113661754D01*
X132515975Y-113680263D01*
X132515972Y-113680263D01*
X132347192Y-113735103D01*
X132189057Y-113815678D01*
X132045489Y-113919985D01*
X132045484Y-113919989D01*
X131919989Y-114045484D01*
X131919985Y-114045489D01*
X131815678Y-114189057D01*
X131735103Y-114347192D01*
X131680263Y-114515972D01*
X131680263Y-114515975D01*
X131652500Y-114691264D01*
X131652500Y-114868735D01*
X131680263Y-115044024D01*
X131680263Y-115044027D01*
X131735103Y-115212807D01*
X131735105Y-115212810D01*
X131809632Y-115359078D01*
X131815678Y-115370942D01*
X131919985Y-115514510D01*
X131919989Y-115514515D01*
X132045484Y-115640010D01*
X132045489Y-115640014D01*
X132170716Y-115730996D01*
X132189061Y-115744324D01*
X132347190Y-115824895D01*
X132347192Y-115824896D01*
X132515973Y-115879736D01*
X132515974Y-115879736D01*
X132515977Y-115879737D01*
X132691264Y-115907500D01*
X132691265Y-115907500D01*
X132868735Y-115907500D01*
X132868736Y-115907500D01*
X133044023Y-115879737D01*
X133044026Y-115879736D01*
X133044027Y-115879736D01*
X133125007Y-115853423D01*
X133212810Y-115824895D01*
X133359079Y-115750366D01*
X133427747Y-115737470D01*
X133492488Y-115763746D01*
X133503055Y-115773170D01*
X133913204Y-116183319D01*
X133946689Y-116244642D01*
X133941705Y-116314334D01*
X133899833Y-116370267D01*
X133834369Y-116394684D01*
X133825523Y-116395000D01*
X132176477Y-116395000D01*
X132109438Y-116375315D01*
X132088796Y-116358681D01*
X131233170Y-115503055D01*
X131199685Y-115441732D01*
X131204669Y-115372040D01*
X131210363Y-115359085D01*
X131284895Y-115212810D01*
X131339737Y-115044023D01*
X131367500Y-114868736D01*
X131367500Y-114691264D01*
X131339737Y-114515977D01*
X131339736Y-114515973D01*
X131339736Y-114515972D01*
X131284896Y-114347192D01*
X131233942Y-114247190D01*
X131204324Y-114189061D01*
X131140286Y-114100920D01*
X131100014Y-114045489D01*
X131100010Y-114045484D01*
X130974515Y-113919989D01*
X130974510Y-113919985D01*
X130830942Y-113815678D01*
X130830941Y-113815677D01*
X130830939Y-113815676D01*
X130751874Y-113775390D01*
X130672807Y-113735103D01*
X130504026Y-113680263D01*
X130372557Y-113659440D01*
X130328736Y-113652500D01*
X130151264Y-113652500D01*
X130092835Y-113661754D01*
X129975975Y-113680263D01*
X129975972Y-113680263D01*
X129807192Y-113735103D01*
X129649057Y-113815678D01*
X129505489Y-113919985D01*
X129505484Y-113919989D01*
X129379989Y-114045484D01*
X129379985Y-114045489D01*
X129275678Y-114189057D01*
X129195103Y-114347192D01*
X129140263Y-114515972D01*
X129140263Y-114515975D01*
X129112500Y-114691264D01*
X124120000Y-114691264D01*
X124120000Y-114661947D01*
X124083065Y-114428752D01*
X124010102Y-114204197D01*
X123902914Y-113993828D01*
X123842658Y-113910894D01*
X123842658Y-113910893D01*
X123041725Y-114711827D01*
X123016037Y-114615956D01*
X122960084Y-114519044D01*
X122880956Y-114439916D01*
X122784044Y-114383963D01*
X122688172Y-114358274D01*
X123489105Y-113557340D01*
X123489104Y-113557338D01*
X123406174Y-113497087D01*
X123195802Y-113389897D01*
X122971247Y-113316934D01*
X122971248Y-113316934D01*
X122738052Y-113280000D01*
X122501948Y-113280000D01*
X122268752Y-113316934D01*
X122044197Y-113389897D01*
X121833830Y-113497084D01*
X121750894Y-113557340D01*
X122551828Y-114358274D01*
X122455956Y-114383963D01*
X122359044Y-114439916D01*
X122279916Y-114519044D01*
X122223963Y-114615956D01*
X122198274Y-114711828D01*
X121397340Y-113910894D01*
X121337084Y-113993830D01*
X121249799Y-114165137D01*
X121201824Y-114215933D01*
X121134003Y-114232728D01*
X121067868Y-114210190D01*
X121038996Y-114181727D01*
X120940014Y-114045488D01*
X120814515Y-113919989D01*
X120814510Y-113919985D01*
X120670942Y-113815678D01*
X120670941Y-113815677D01*
X120670939Y-113815676D01*
X120591874Y-113775390D01*
X120512807Y-113735103D01*
X120474110Y-113722530D01*
X120344026Y-113680263D01*
X120212557Y-113659440D01*
X120168736Y-113652500D01*
X119991264Y-113652500D01*
X119932835Y-113661754D01*
X119815975Y-113680263D01*
X119815972Y-113680263D01*
X119647192Y-113735103D01*
X119489057Y-113815678D01*
X119345489Y-113919985D01*
X119345484Y-113919989D01*
X119219989Y-114045484D01*
X119219985Y-114045489D01*
X119115678Y-114189057D01*
X119035103Y-114347192D01*
X118980263Y-114515972D01*
X118980263Y-114515975D01*
X118952500Y-114691264D01*
X117600500Y-114691264D01*
X117600500Y-110468242D01*
X121184500Y-110468242D01*
X121184500Y-111431757D01*
X121184501Y-111431773D01*
X121190596Y-111478072D01*
X121190597Y-111478074D01*
X121237991Y-111579711D01*
X121317289Y-111659009D01*
X121418926Y-111706403D01*
X121465236Y-111712500D01*
X121465243Y-111712500D01*
X123698757Y-111712500D01*
X123698764Y-111712500D01*
X123745074Y-111706403D01*
X123846711Y-111659009D01*
X123926009Y-111579711D01*
X123973403Y-111478074D01*
X123979500Y-111431764D01*
X123979500Y-110468236D01*
X123973403Y-110421926D01*
X123926009Y-110320289D01*
X123846711Y-110240991D01*
X123745074Y-110193597D01*
X123745072Y-110193596D01*
X123698773Y-110187501D01*
X123698770Y-110187500D01*
X123698764Y-110187500D01*
X121465236Y-110187500D01*
X121465230Y-110187500D01*
X121465226Y-110187501D01*
X121418927Y-110193596D01*
X121317288Y-110240991D01*
X121237991Y-110320288D01*
X121190596Y-110421927D01*
X121184501Y-110468226D01*
X121184500Y-110468242D01*
X117600500Y-110468242D01*
X117600500Y-109211986D01*
X135568001Y-109211986D01*
X135578494Y-109314697D01*
X135633641Y-109481119D01*
X135633643Y-109481124D01*
X135725684Y-109630345D01*
X135849654Y-109754315D01*
X135998875Y-109846356D01*
X135998880Y-109846358D01*
X136165302Y-109901505D01*
X136165309Y-109901506D01*
X136268019Y-109911999D01*
X136417999Y-109911999D01*
X136418000Y-109911998D01*
X136418000Y-108962000D01*
X135568001Y-108962000D01*
X135568001Y-109211986D01*
X117600500Y-109211986D01*
X117600500Y-108212013D01*
X135568000Y-108212013D01*
X135568000Y-108462000D01*
X136418000Y-108462000D01*
X136418000Y-107706000D01*
X136918000Y-107706000D01*
X136918000Y-109911999D01*
X137067972Y-109911999D01*
X137067986Y-109911998D01*
X137170697Y-109901505D01*
X137337119Y-109846358D01*
X137337124Y-109846356D01*
X137486345Y-109754315D01*
X137610315Y-109630345D01*
X137702356Y-109481124D01*
X137702359Y-109481117D01*
X137748732Y-109341171D01*
X137788504Y-109283726D01*
X137853020Y-109256902D01*
X137921796Y-109269217D01*
X137972996Y-109316759D01*
X137977838Y-109325713D01*
X138006524Y-109384391D01*
X138095607Y-109473474D01*
X138095608Y-109473474D01*
X138095610Y-109473476D01*
X138208796Y-109528809D01*
X138282173Y-109539500D01*
X139053826Y-109539499D01*
X139127204Y-109528809D01*
X139240390Y-109473476D01*
X139329476Y-109384390D01*
X139384809Y-109271204D01*
X139395500Y-109197827D01*
X139395500Y-109027000D01*
X139415185Y-108959961D01*
X139467989Y-108914206D01*
X139519500Y-108903000D01*
X139801523Y-108903000D01*
X139868562Y-108922685D01*
X139889204Y-108939319D01*
X144906829Y-113956944D01*
X144940314Y-114018267D01*
X144935330Y-114087959D01*
X144929633Y-114100920D01*
X144855103Y-114247192D01*
X144800263Y-114415972D01*
X144800263Y-114415975D01*
X144772500Y-114591264D01*
X144772500Y-114768735D01*
X144800263Y-114944024D01*
X144800263Y-114944027D01*
X144855103Y-115112807D01*
X144935678Y-115270942D01*
X145039985Y-115414510D01*
X145039989Y-115414515D01*
X145165484Y-115540010D01*
X145165489Y-115540014D01*
X145201496Y-115566174D01*
X145309061Y-115644324D01*
X145462201Y-115722353D01*
X145467192Y-115724896D01*
X145635973Y-115779736D01*
X145635974Y-115779736D01*
X145635977Y-115779737D01*
X145811264Y-115807500D01*
X145811265Y-115807500D01*
X145988735Y-115807500D01*
X145988736Y-115807500D01*
X146164023Y-115779737D01*
X146164026Y-115779736D01*
X146164027Y-115779736D01*
X146332807Y-115724896D01*
X146332807Y-115724895D01*
X146332810Y-115724895D01*
X146490939Y-115644324D01*
X146634517Y-115540009D01*
X146760009Y-115414517D01*
X146864324Y-115270939D01*
X146944895Y-115112810D01*
X146999737Y-114944023D01*
X147027500Y-114768736D01*
X147027500Y-114591264D01*
X146999737Y-114415977D01*
X146999736Y-114415973D01*
X146999736Y-114415972D01*
X146944896Y-114247192D01*
X146922989Y-114204197D01*
X146864324Y-114089061D01*
X146820867Y-114029247D01*
X146760014Y-113945489D01*
X146760010Y-113945484D01*
X146634515Y-113819989D01*
X146634510Y-113819985D01*
X146490942Y-113715678D01*
X146490941Y-113715677D01*
X146490939Y-113715676D01*
X146366950Y-113652500D01*
X146332807Y-113635103D01*
X146164026Y-113580263D01*
X146019294Y-113557340D01*
X145988736Y-113552500D01*
X145811264Y-113552500D01*
X145780706Y-113557340D01*
X145635975Y-113580263D01*
X145635972Y-113580263D01*
X145467192Y-113635103D01*
X145320920Y-113709633D01*
X145252251Y-113722529D01*
X145187510Y-113696253D01*
X145176944Y-113686829D01*
X140956101Y-109465986D01*
X145220001Y-109465986D01*
X145230494Y-109568697D01*
X145285641Y-109735119D01*
X145285643Y-109735124D01*
X145377684Y-109884345D01*
X145501654Y-110008315D01*
X145650875Y-110100356D01*
X145650880Y-110100358D01*
X145817302Y-110155505D01*
X145817309Y-110155506D01*
X145920019Y-110165999D01*
X146069999Y-110165999D01*
X146070000Y-110165998D01*
X146070000Y-109216000D01*
X145220001Y-109216000D01*
X145220001Y-109465986D01*
X140956101Y-109465986D01*
X140040193Y-108550078D01*
X139969993Y-108521000D01*
X139969992Y-108521000D01*
X139519499Y-108521000D01*
X139452460Y-108501315D01*
X139421871Y-108466013D01*
X145220000Y-108466013D01*
X145220000Y-108716000D01*
X146070000Y-108716000D01*
X146070000Y-107960000D01*
X146570000Y-107960000D01*
X146570000Y-110165999D01*
X146719972Y-110165999D01*
X146719986Y-110165998D01*
X146822697Y-110155505D01*
X146989119Y-110100358D01*
X146989124Y-110100356D01*
X147138345Y-110008315D01*
X147262315Y-109884345D01*
X147354356Y-109735124D01*
X147354359Y-109735117D01*
X147400732Y-109595171D01*
X147440504Y-109537726D01*
X147505020Y-109510902D01*
X147573796Y-109523217D01*
X147624996Y-109570759D01*
X147629838Y-109579713D01*
X147658524Y-109638391D01*
X147747607Y-109727474D01*
X147747608Y-109727474D01*
X147747610Y-109727476D01*
X147860796Y-109782809D01*
X147934173Y-109793500D01*
X147985000Y-109793499D01*
X148052038Y-109813182D01*
X148097793Y-109865985D01*
X148109000Y-109917499D01*
X148109000Y-112037993D01*
X148138078Y-112108193D01*
X149986829Y-113956944D01*
X150020314Y-114018267D01*
X150015330Y-114087959D01*
X150009633Y-114100920D01*
X149935103Y-114247192D01*
X149880263Y-114415972D01*
X149880263Y-114415975D01*
X149852500Y-114591264D01*
X149852500Y-114768735D01*
X149880263Y-114944024D01*
X149880263Y-114944027D01*
X149935103Y-115112807D01*
X150015678Y-115270942D01*
X150119985Y-115414510D01*
X150119989Y-115414515D01*
X150245484Y-115540010D01*
X150245489Y-115540014D01*
X150281496Y-115566174D01*
X150389061Y-115644324D01*
X150542201Y-115722353D01*
X150547192Y-115724896D01*
X150715973Y-115779736D01*
X150715974Y-115779736D01*
X150715977Y-115779737D01*
X150891264Y-115807500D01*
X150891265Y-115807500D01*
X151068735Y-115807500D01*
X151068736Y-115807500D01*
X151244023Y-115779737D01*
X151244026Y-115779736D01*
X151244027Y-115779736D01*
X151412807Y-115724896D01*
X151412807Y-115724895D01*
X151412810Y-115724895D01*
X151570939Y-115644324D01*
X151714517Y-115540009D01*
X151840009Y-115414517D01*
X151944324Y-115270939D01*
X152024895Y-115112810D01*
X152079737Y-114944023D01*
X152107500Y-114768736D01*
X152107500Y-114591264D01*
X152392500Y-114591264D01*
X152392500Y-114768735D01*
X152420263Y-114944024D01*
X152420263Y-114944027D01*
X152475103Y-115112807D01*
X152555678Y-115270942D01*
X152659985Y-115414510D01*
X152659989Y-115414515D01*
X152785484Y-115540010D01*
X152785489Y-115540014D01*
X152821496Y-115566174D01*
X152929061Y-115644324D01*
X153082201Y-115722353D01*
X153087192Y-115724896D01*
X153255973Y-115779736D01*
X153255974Y-115779736D01*
X153255977Y-115779737D01*
X153431264Y-115807500D01*
X153431265Y-115807500D01*
X153608735Y-115807500D01*
X153608736Y-115807500D01*
X153784023Y-115779737D01*
X153784026Y-115779736D01*
X153784027Y-115779736D01*
X153952807Y-115724896D01*
X153952807Y-115724895D01*
X153952810Y-115724895D01*
X154110939Y-115644324D01*
X154254517Y-115540009D01*
X154380009Y-115414517D01*
X154484324Y-115270939D01*
X154564895Y-115112810D01*
X154619737Y-114944023D01*
X154647500Y-114768736D01*
X154647500Y-114591264D01*
X154619737Y-114415977D01*
X154619736Y-114415973D01*
X154619736Y-114415972D01*
X154564896Y-114247192D01*
X154542989Y-114204197D01*
X154484324Y-114089061D01*
X154440867Y-114029247D01*
X154380014Y-113945489D01*
X154380010Y-113945484D01*
X154254515Y-113819989D01*
X154254510Y-113819985D01*
X154110942Y-113715678D01*
X154110941Y-113715677D01*
X154110939Y-113715676D01*
X153986950Y-113652500D01*
X153952807Y-113635103D01*
X153784026Y-113580263D01*
X153639294Y-113557340D01*
X153608736Y-113552500D01*
X153431264Y-113552500D01*
X153400706Y-113557340D01*
X153255975Y-113580263D01*
X153255972Y-113580263D01*
X153087192Y-113635103D01*
X152929057Y-113715678D01*
X152785489Y-113819985D01*
X152785484Y-113819989D01*
X152659989Y-113945484D01*
X152659985Y-113945489D01*
X152555678Y-114089057D01*
X152475103Y-114247192D01*
X152420263Y-114415972D01*
X152420263Y-114415975D01*
X152392500Y-114591264D01*
X152107500Y-114591264D01*
X152079737Y-114415977D01*
X152079736Y-114415973D01*
X152079736Y-114415972D01*
X152024896Y-114247192D01*
X152002989Y-114204197D01*
X151944324Y-114089061D01*
X151900867Y-114029247D01*
X151840014Y-113945489D01*
X151840010Y-113945484D01*
X151714515Y-113819989D01*
X151714510Y-113819985D01*
X151570942Y-113715678D01*
X151570941Y-113715677D01*
X151570939Y-113715676D01*
X151446950Y-113652500D01*
X151412807Y-113635103D01*
X151244026Y-113580263D01*
X151099294Y-113557340D01*
X151068736Y-113552500D01*
X150891264Y-113552500D01*
X150860706Y-113557340D01*
X150715975Y-113580263D01*
X150715972Y-113580263D01*
X150547192Y-113635103D01*
X150400920Y-113709633D01*
X150332251Y-113722529D01*
X150267510Y-113696253D01*
X150256944Y-113686829D01*
X148527319Y-111957204D01*
X148493834Y-111895881D01*
X148491000Y-111869523D01*
X148491000Y-109917499D01*
X148510685Y-109850460D01*
X148563489Y-109804705D01*
X148615000Y-109793499D01*
X148705826Y-109793499D01*
X148779204Y-109782809D01*
X148892390Y-109727476D01*
X148981476Y-109638390D01*
X149036809Y-109525204D01*
X149047500Y-109451827D01*
X149047499Y-108480174D01*
X149036809Y-108406796D01*
X148981476Y-108293610D01*
X148981474Y-108293608D01*
X148981474Y-108293607D01*
X148892392Y-108204525D01*
X148779202Y-108149190D01*
X148705828Y-108138500D01*
X148705827Y-108138500D01*
X148615000Y-108138500D01*
X148547961Y-108118815D01*
X148502206Y-108066011D01*
X148491000Y-108014500D01*
X148491000Y-107539478D01*
X148510685Y-107472439D01*
X148563489Y-107426684D01*
X148564793Y-107426097D01*
X148599228Y-107410893D01*
X148675893Y-107334228D01*
X148719687Y-107235046D01*
X148722500Y-107210798D01*
X148722500Y-106229202D01*
X148719687Y-106204954D01*
X148719685Y-106204950D01*
X148719685Y-106204948D01*
X148675892Y-106105770D01*
X148599229Y-106029107D01*
X148500051Y-105985314D01*
X148500046Y-105985313D01*
X148493984Y-105984609D01*
X148475801Y-105982500D01*
X148475798Y-105982500D01*
X148370584Y-105982500D01*
X148337992Y-105969000D01*
X148262008Y-105969000D01*
X148229416Y-105982500D01*
X148064202Y-105982500D01*
X148064198Y-105982500D01*
X148039954Y-105985313D01*
X148039948Y-105985314D01*
X147940770Y-106029107D01*
X147864107Y-106105770D01*
X147820314Y-106204948D01*
X147820313Y-106204954D01*
X147817500Y-106229198D01*
X147817500Y-107210801D01*
X147820313Y-107235045D01*
X147820314Y-107235051D01*
X147864107Y-107334229D01*
X147940770Y-107410892D01*
X148035087Y-107452538D01*
X148088463Y-107497624D01*
X148108990Y-107564410D01*
X148109000Y-107565972D01*
X148109000Y-108014500D01*
X148089315Y-108081539D01*
X148036511Y-108127294D01*
X147985002Y-108138500D01*
X147934179Y-108138500D01*
X147860796Y-108149191D01*
X147747607Y-108204525D01*
X147658524Y-108293608D01*
X147629839Y-108352285D01*
X147582711Y-108403867D01*
X147515177Y-108421781D01*
X147448679Y-108400340D01*
X147404329Y-108346351D01*
X147400733Y-108336828D01*
X147354358Y-108196880D01*
X147354356Y-108196875D01*
X147262315Y-108047654D01*
X147138344Y-107923683D01*
X147138340Y-107923680D01*
X147008887Y-107843832D01*
X146962162Y-107791884D01*
X146950941Y-107722922D01*
X146978784Y-107658840D01*
X146986303Y-107650612D01*
X147057837Y-107579078D01*
X147141070Y-107441396D01*
X147188934Y-107287792D01*
X147195000Y-107221043D01*
X147195000Y-106970000D01*
X146620000Y-106970000D01*
X146620000Y-107858638D01*
X146600315Y-107925677D01*
X146583681Y-107946319D01*
X146570000Y-107960000D01*
X146070000Y-107960000D01*
X146070000Y-107737362D01*
X146089685Y-107670323D01*
X146106319Y-107649681D01*
X146120000Y-107636000D01*
X146120000Y-106970000D01*
X145545000Y-106970000D01*
X145545000Y-107221043D01*
X145551065Y-107287792D01*
X145598929Y-107441396D01*
X145682163Y-107579080D01*
X145721925Y-107618842D01*
X145755410Y-107680165D01*
X145750426Y-107749857D01*
X145708554Y-107805790D01*
X145673251Y-107824228D01*
X145650882Y-107831640D01*
X145650875Y-107831643D01*
X145501654Y-107923684D01*
X145377684Y-108047654D01*
X145285643Y-108196875D01*
X145285641Y-108196880D01*
X145230494Y-108363302D01*
X145230493Y-108363309D01*
X145220000Y-108466013D01*
X139421871Y-108466013D01*
X139406705Y-108448511D01*
X139395499Y-108397000D01*
X139395499Y-108226174D01*
X139391231Y-108196880D01*
X139384809Y-108152796D01*
X139329476Y-108039610D01*
X139329474Y-108039608D01*
X139329474Y-108039607D01*
X139240392Y-107950525D01*
X139127202Y-107895190D01*
X139053828Y-107884500D01*
X139053827Y-107884500D01*
X138933000Y-107884500D01*
X138865961Y-107864815D01*
X138820206Y-107812011D01*
X138809000Y-107760500D01*
X138809000Y-107298725D01*
X138828685Y-107231686D01*
X138881489Y-107185931D01*
X138882914Y-107185291D01*
X138947228Y-107156893D01*
X139023892Y-107080229D01*
X139023893Y-107080228D01*
X139067687Y-106981046D01*
X139070500Y-106956798D01*
X139070500Y-106218956D01*
X145545000Y-106218956D01*
X145545000Y-106470000D01*
X146120000Y-106470000D01*
X146620000Y-106470000D01*
X147195000Y-106470000D01*
X147195000Y-106218956D01*
X147188934Y-106152207D01*
X147141070Y-105998603D01*
X147057836Y-105860919D01*
X146944080Y-105747163D01*
X146806396Y-105663929D01*
X146652794Y-105616066D01*
X146620000Y-105613085D01*
X146620000Y-106470000D01*
X146120000Y-106470000D01*
X146120000Y-105613085D01*
X146119999Y-105613085D01*
X146087205Y-105616066D01*
X145933603Y-105663929D01*
X145795919Y-105747163D01*
X145682163Y-105860919D01*
X145598929Y-105998603D01*
X145551065Y-106152207D01*
X145545000Y-106218956D01*
X139070500Y-106218956D01*
X139070500Y-105975202D01*
X139067687Y-105950954D01*
X139067685Y-105950950D01*
X139067685Y-105950948D01*
X139023892Y-105851770D01*
X138947229Y-105775107D01*
X138848051Y-105731314D01*
X138848046Y-105731313D01*
X138841984Y-105730609D01*
X138823801Y-105728500D01*
X138823798Y-105728500D01*
X138412202Y-105728500D01*
X138412198Y-105728500D01*
X138387954Y-105731313D01*
X138387948Y-105731314D01*
X138288770Y-105775107D01*
X138212107Y-105851770D01*
X138168314Y-105950948D01*
X138168313Y-105950954D01*
X138165500Y-105975198D01*
X138165500Y-106956801D01*
X138168313Y-106981045D01*
X138168314Y-106981051D01*
X138212107Y-107080229D01*
X138288771Y-107156893D01*
X138353086Y-107185291D01*
X138406463Y-107230377D01*
X138426990Y-107297163D01*
X138427000Y-107298725D01*
X138427000Y-107760500D01*
X138407315Y-107827539D01*
X138354511Y-107873294D01*
X138303005Y-107884500D01*
X138282179Y-107884500D01*
X138208796Y-107895191D01*
X138095607Y-107950525D01*
X138006524Y-108039608D01*
X137977839Y-108098285D01*
X137930711Y-108149867D01*
X137863177Y-108167781D01*
X137796679Y-108146340D01*
X137752329Y-108092351D01*
X137748733Y-108082828D01*
X137702358Y-107942880D01*
X137702356Y-107942875D01*
X137610315Y-107793654D01*
X137486344Y-107669683D01*
X137486340Y-107669680D01*
X137356887Y-107589832D01*
X137310162Y-107537884D01*
X137298941Y-107468922D01*
X137326784Y-107404840D01*
X137334303Y-107396612D01*
X137405837Y-107325078D01*
X137489070Y-107187396D01*
X137536934Y-107033792D01*
X137543000Y-106967043D01*
X137543000Y-106716000D01*
X136968000Y-106716000D01*
X136968000Y-107604638D01*
X136948315Y-107671677D01*
X136931681Y-107692319D01*
X136918000Y-107706000D01*
X136418000Y-107706000D01*
X136418000Y-107483362D01*
X136437685Y-107416323D01*
X136454319Y-107395681D01*
X136468000Y-107382000D01*
X136468000Y-106716000D01*
X135893000Y-106716000D01*
X135893000Y-106967043D01*
X135899065Y-107033792D01*
X135946929Y-107187396D01*
X136030163Y-107325080D01*
X136069925Y-107364842D01*
X136103410Y-107426165D01*
X136098426Y-107495857D01*
X136056554Y-107551790D01*
X136021251Y-107570228D01*
X135998882Y-107577640D01*
X135998875Y-107577643D01*
X135849654Y-107669684D01*
X135725684Y-107793654D01*
X135633643Y-107942875D01*
X135633641Y-107942880D01*
X135578494Y-108109302D01*
X135578493Y-108109309D01*
X135568000Y-108212013D01*
X117600500Y-108212013D01*
X117600500Y-105964956D01*
X135893000Y-105964956D01*
X135893000Y-106216000D01*
X136468000Y-106216000D01*
X136968000Y-106216000D01*
X137543000Y-106216000D01*
X137543000Y-105964956D01*
X137536934Y-105898207D01*
X137489070Y-105744603D01*
X137405836Y-105606919D01*
X137292080Y-105493163D01*
X137154396Y-105409929D01*
X137000794Y-105362066D01*
X136968000Y-105359085D01*
X136968000Y-106216000D01*
X136468000Y-106216000D01*
X136468000Y-105359085D01*
X136467999Y-105359085D01*
X136435205Y-105362066D01*
X136281603Y-105409929D01*
X136143919Y-105493163D01*
X136030163Y-105606919D01*
X135946929Y-105744603D01*
X135899065Y-105898207D01*
X135893000Y-105964956D01*
X117600500Y-105964956D01*
X117600500Y-105045461D01*
X117620185Y-104978422D01*
X117672989Y-104932667D01*
X117742147Y-104922723D01*
X117805703Y-104951748D01*
X117835901Y-104991002D01*
X117839024Y-104997391D01*
X117928107Y-105086474D01*
X117928108Y-105086474D01*
X117928110Y-105086476D01*
X118041296Y-105141809D01*
X118114673Y-105152500D01*
X119686326Y-105152499D01*
X119759704Y-105141809D01*
X119872890Y-105086476D01*
X119961976Y-104997390D01*
X120017309Y-104884204D01*
X120028000Y-104810827D01*
X120027999Y-103739174D01*
X120027999Y-103739172D01*
X120027999Y-103739168D01*
X120021626Y-103695429D01*
X120017580Y-103667658D01*
X120027393Y-103598483D01*
X120073048Y-103545593D01*
X120075189Y-103544242D01*
X120118845Y-103517315D01*
X120242815Y-103393345D01*
X120334856Y-103244124D01*
X120334858Y-103244119D01*
X120390005Y-103077697D01*
X120390006Y-103077690D01*
X120400499Y-102974986D01*
X120400500Y-102974973D01*
X120400500Y-102675000D01*
X119216186Y-102675000D01*
X119220580Y-102670606D01*
X119273241Y-102579394D01*
X119300500Y-102477661D01*
X119300500Y-102372339D01*
X119273241Y-102270606D01*
X119220580Y-102179394D01*
X119216186Y-102175000D01*
X120400499Y-102175000D01*
X120400499Y-101875028D01*
X120400498Y-101875013D01*
X120390005Y-101772302D01*
X120334858Y-101605880D01*
X120334856Y-101605875D01*
X120242815Y-101456654D01*
X120118845Y-101332684D01*
X119969624Y-101240643D01*
X119969619Y-101240641D01*
X119803197Y-101185494D01*
X119803190Y-101185493D01*
X119700486Y-101175000D01*
X119150500Y-101175000D01*
X119150500Y-102109314D01*
X119146106Y-102104920D01*
X119054894Y-102052259D01*
X118953161Y-102025000D01*
X118847839Y-102025000D01*
X118746106Y-102052259D01*
X118654894Y-102104920D01*
X118650500Y-102109314D01*
X118650500Y-101175000D01*
X118100528Y-101175000D01*
X118100512Y-101175001D01*
X117997802Y-101185494D01*
X117831380Y-101240641D01*
X117831371Y-101240645D01*
X117789596Y-101266413D01*
X117781978Y-101268497D01*
X117776011Y-101273668D01*
X117748762Y-101277585D01*
X117722204Y-101284853D01*
X117714669Y-101282488D01*
X117706853Y-101283612D01*
X117681808Y-101272174D01*
X117655540Y-101263930D01*
X117650480Y-101257867D01*
X117643297Y-101254587D01*
X117628412Y-101231425D01*
X117610771Y-101210288D01*
X117608831Y-101200957D01*
X117605523Y-101195809D01*
X117600500Y-101160874D01*
X117600500Y-101069268D01*
X117620185Y-101002229D01*
X117629559Y-100989505D01*
X120031324Y-98130701D01*
X120812000Y-98130701D01*
X120812000Y-98381000D01*
X122235590Y-98381000D01*
X122185963Y-98466956D01*
X122157000Y-98575048D01*
X122157000Y-98686952D01*
X122185963Y-98795044D01*
X122235590Y-98881000D01*
X120812001Y-98881000D01*
X120812001Y-99131308D01*
X120818321Y-99200875D01*
X120818323Y-99200883D01*
X120868208Y-99360970D01*
X120868209Y-99360972D01*
X120954954Y-99504467D01*
X120954957Y-99504471D01*
X121073528Y-99623042D01*
X121073532Y-99623045D01*
X121217026Y-99709789D01*
X121377123Y-99759677D01*
X121446701Y-99765999D01*
X122331999Y-99765999D01*
X122332000Y-99765998D01*
X122332000Y-98977409D01*
X122417956Y-99027037D01*
X122526048Y-99056000D01*
X122637952Y-99056000D01*
X122746044Y-99027037D01*
X122832000Y-98977409D01*
X122832000Y-99765999D01*
X123717307Y-99765999D01*
X123786875Y-99759678D01*
X123786883Y-99759676D01*
X123946970Y-99709791D01*
X123946972Y-99709790D01*
X124090467Y-99623045D01*
X124090471Y-99623042D01*
X124209042Y-99504471D01*
X124209045Y-99504467D01*
X124295789Y-99360973D01*
X124345677Y-99200876D01*
X124352000Y-99131298D01*
X124352000Y-98881000D01*
X122928410Y-98881000D01*
X122978037Y-98795044D01*
X123007000Y-98686952D01*
X123007000Y-98575048D01*
X122978037Y-98466956D01*
X122928410Y-98381000D01*
X124351999Y-98381000D01*
X124351999Y-98130691D01*
X124345678Y-98061124D01*
X124345676Y-98061116D01*
X124295791Y-97901029D01*
X124295790Y-97901027D01*
X124209045Y-97757532D01*
X124209042Y-97757528D01*
X124090471Y-97638957D01*
X124090467Y-97638954D01*
X123946973Y-97552210D01*
X123786876Y-97502322D01*
X123717298Y-97496000D01*
X122832000Y-97496000D01*
X122832000Y-98284590D01*
X122746044Y-98234963D01*
X122637952Y-98206000D01*
X122526048Y-98206000D01*
X122417956Y-98234963D01*
X122332000Y-98284590D01*
X122332000Y-97496000D01*
X121446691Y-97496000D01*
X121377123Y-97502321D01*
X121377116Y-97502323D01*
X121217029Y-97552208D01*
X121217027Y-97552209D01*
X121073532Y-97638954D01*
X121073528Y-97638957D01*
X120954957Y-97757528D01*
X120954954Y-97757532D01*
X120868210Y-97901026D01*
X120818322Y-98061123D01*
X120812000Y-98130701D01*
X120031324Y-98130701D01*
X123380051Y-94144736D01*
X123438245Y-94106070D01*
X123474992Y-94100500D01*
X124919687Y-94100500D01*
X124986726Y-94120185D01*
G37*
G04 #@! TD.AperFunction*
M02*
