G04 #@! TF.GenerationSoftware,KiCad,Pcbnew,9.0.5*
G04 #@! TF.CreationDate,2025-12-02T21:41:35+01:00*
G04 #@! TF.ProjectId,ToyBoard,546f7942-6f61-4726-942e-6b696361645f,rev?*
G04 #@! TF.SameCoordinates,Original*
G04 #@! TF.FileFunction,Legend,Top*
G04 #@! TF.FilePolarity,Positive*
%FSLAX46Y46*%
G04 Gerber Fmt 4.6, Leading zero omitted, Abs format (unit mm)*
G04 Created by KiCad (PCBNEW 9.0.5) date 2025-12-02 21:41:35*
%MOMM*%
%LPD*%
G01*
G04 APERTURE LIST*
%ADD10C,0.150000*%
%ADD11C,0.100000*%
%ADD12C,0.120000*%
G04 APERTURE END LIST*
D10*
X130327255Y-98069819D02*
X130422493Y-98069819D01*
X130422493Y-98069819D02*
X130517731Y-98117438D01*
X130517731Y-98117438D02*
X130565350Y-98165057D01*
X130565350Y-98165057D02*
X130612969Y-98260295D01*
X130612969Y-98260295D02*
X130660588Y-98450771D01*
X130660588Y-98450771D02*
X130660588Y-98688866D01*
X130660588Y-98688866D02*
X130612969Y-98879342D01*
X130612969Y-98879342D02*
X130565350Y-98974580D01*
X130565350Y-98974580D02*
X130517731Y-99022200D01*
X130517731Y-99022200D02*
X130422493Y-99069819D01*
X130422493Y-99069819D02*
X130327255Y-99069819D01*
X130327255Y-99069819D02*
X130232017Y-99022200D01*
X130232017Y-99022200D02*
X130184398Y-98974580D01*
X130184398Y-98974580D02*
X130136779Y-98879342D01*
X130136779Y-98879342D02*
X130089160Y-98688866D01*
X130089160Y-98688866D02*
X130089160Y-98450771D01*
X130089160Y-98450771D02*
X130136779Y-98260295D01*
X130136779Y-98260295D02*
X130184398Y-98165057D01*
X130184398Y-98165057D02*
X130232017Y-98117438D01*
X130232017Y-98117438D02*
X130327255Y-98069819D01*
X131041541Y-98165057D02*
X131089160Y-98117438D01*
X131089160Y-98117438D02*
X131184398Y-98069819D01*
X131184398Y-98069819D02*
X131422493Y-98069819D01*
X131422493Y-98069819D02*
X131517731Y-98117438D01*
X131517731Y-98117438D02*
X131565350Y-98165057D01*
X131565350Y-98165057D02*
X131612969Y-98260295D01*
X131612969Y-98260295D02*
X131612969Y-98355533D01*
X131612969Y-98355533D02*
X131565350Y-98498390D01*
X131565350Y-98498390D02*
X130993922Y-99069819D01*
X130993922Y-99069819D02*
X131612969Y-99069819D01*
X132755826Y-98022200D02*
X131898684Y-99307914D01*
X133612969Y-99069819D02*
X133041541Y-99069819D01*
X133327255Y-99069819D02*
X133327255Y-98069819D01*
X133327255Y-98069819D02*
X133232017Y-98212676D01*
X133232017Y-98212676D02*
X133136779Y-98307914D01*
X133136779Y-98307914D02*
X133041541Y-98355533D01*
X133993922Y-98165057D02*
X134041541Y-98117438D01*
X134041541Y-98117438D02*
X134136779Y-98069819D01*
X134136779Y-98069819D02*
X134374874Y-98069819D01*
X134374874Y-98069819D02*
X134470112Y-98117438D01*
X134470112Y-98117438D02*
X134517731Y-98165057D01*
X134517731Y-98165057D02*
X134565350Y-98260295D01*
X134565350Y-98260295D02*
X134565350Y-98355533D01*
X134565350Y-98355533D02*
X134517731Y-98498390D01*
X134517731Y-98498390D02*
X133946303Y-99069819D01*
X133946303Y-99069819D02*
X134565350Y-99069819D01*
X135708207Y-98022200D02*
X134851065Y-99307914D01*
X135993922Y-98165057D02*
X136041541Y-98117438D01*
X136041541Y-98117438D02*
X136136779Y-98069819D01*
X136136779Y-98069819D02*
X136374874Y-98069819D01*
X136374874Y-98069819D02*
X136470112Y-98117438D01*
X136470112Y-98117438D02*
X136517731Y-98165057D01*
X136517731Y-98165057D02*
X136565350Y-98260295D01*
X136565350Y-98260295D02*
X136565350Y-98355533D01*
X136565350Y-98355533D02*
X136517731Y-98498390D01*
X136517731Y-98498390D02*
X135946303Y-99069819D01*
X135946303Y-99069819D02*
X136565350Y-99069819D01*
X137184398Y-98069819D02*
X137279636Y-98069819D01*
X137279636Y-98069819D02*
X137374874Y-98117438D01*
X137374874Y-98117438D02*
X137422493Y-98165057D01*
X137422493Y-98165057D02*
X137470112Y-98260295D01*
X137470112Y-98260295D02*
X137517731Y-98450771D01*
X137517731Y-98450771D02*
X137517731Y-98688866D01*
X137517731Y-98688866D02*
X137470112Y-98879342D01*
X137470112Y-98879342D02*
X137422493Y-98974580D01*
X137422493Y-98974580D02*
X137374874Y-99022200D01*
X137374874Y-99022200D02*
X137279636Y-99069819D01*
X137279636Y-99069819D02*
X137184398Y-99069819D01*
X137184398Y-99069819D02*
X137089160Y-99022200D01*
X137089160Y-99022200D02*
X137041541Y-98974580D01*
X137041541Y-98974580D02*
X136993922Y-98879342D01*
X136993922Y-98879342D02*
X136946303Y-98688866D01*
X136946303Y-98688866D02*
X136946303Y-98450771D01*
X136946303Y-98450771D02*
X136993922Y-98260295D01*
X136993922Y-98260295D02*
X137041541Y-98165057D01*
X137041541Y-98165057D02*
X137089160Y-98117438D01*
X137089160Y-98117438D02*
X137184398Y-98069819D01*
X137898684Y-98165057D02*
X137946303Y-98117438D01*
X137946303Y-98117438D02*
X138041541Y-98069819D01*
X138041541Y-98069819D02*
X138279636Y-98069819D01*
X138279636Y-98069819D02*
X138374874Y-98117438D01*
X138374874Y-98117438D02*
X138422493Y-98165057D01*
X138422493Y-98165057D02*
X138470112Y-98260295D01*
X138470112Y-98260295D02*
X138470112Y-98355533D01*
X138470112Y-98355533D02*
X138422493Y-98498390D01*
X138422493Y-98498390D02*
X137851065Y-99069819D01*
X137851065Y-99069819D02*
X138470112Y-99069819D01*
X139374874Y-98069819D02*
X138898684Y-98069819D01*
X138898684Y-98069819D02*
X138851065Y-98546009D01*
X138851065Y-98546009D02*
X138898684Y-98498390D01*
X138898684Y-98498390D02*
X138993922Y-98450771D01*
X138993922Y-98450771D02*
X139232017Y-98450771D01*
X139232017Y-98450771D02*
X139327255Y-98498390D01*
X139327255Y-98498390D02*
X139374874Y-98546009D01*
X139374874Y-98546009D02*
X139422493Y-98641247D01*
X139422493Y-98641247D02*
X139422493Y-98879342D01*
X139422493Y-98879342D02*
X139374874Y-98974580D01*
X139374874Y-98974580D02*
X139327255Y-99022200D01*
X139327255Y-99022200D02*
X139232017Y-99069819D01*
X139232017Y-99069819D02*
X138993922Y-99069819D01*
X138993922Y-99069819D02*
X138898684Y-99022200D01*
X138898684Y-99022200D02*
X138851065Y-98974580D01*
X140612970Y-98688866D02*
X141374875Y-98688866D01*
X142517732Y-98403152D02*
X142755827Y-99069819D01*
X142755827Y-99069819D02*
X142993922Y-98403152D01*
X143898684Y-99069819D02*
X143327256Y-99069819D01*
X143612970Y-99069819D02*
X143612970Y-98069819D01*
X143612970Y-98069819D02*
X143517732Y-98212676D01*
X143517732Y-98212676D02*
X143422494Y-98307914D01*
X143422494Y-98307914D02*
X143327256Y-98355533D01*
X144327256Y-98974580D02*
X144374875Y-99022200D01*
X144374875Y-99022200D02*
X144327256Y-99069819D01*
X144327256Y-99069819D02*
X144279637Y-99022200D01*
X144279637Y-99022200D02*
X144327256Y-98974580D01*
X144327256Y-98974580D02*
X144327256Y-99069819D01*
X144993922Y-98069819D02*
X145089160Y-98069819D01*
X145089160Y-98069819D02*
X145184398Y-98117438D01*
X145184398Y-98117438D02*
X145232017Y-98165057D01*
X145232017Y-98165057D02*
X145279636Y-98260295D01*
X145279636Y-98260295D02*
X145327255Y-98450771D01*
X145327255Y-98450771D02*
X145327255Y-98688866D01*
X145327255Y-98688866D02*
X145279636Y-98879342D01*
X145279636Y-98879342D02*
X145232017Y-98974580D01*
X145232017Y-98974580D02*
X145184398Y-99022200D01*
X145184398Y-99022200D02*
X145089160Y-99069819D01*
X145089160Y-99069819D02*
X144993922Y-99069819D01*
X144993922Y-99069819D02*
X144898684Y-99022200D01*
X144898684Y-99022200D02*
X144851065Y-98974580D01*
X144851065Y-98974580D02*
X144803446Y-98879342D01*
X144803446Y-98879342D02*
X144755827Y-98688866D01*
X144755827Y-98688866D02*
X144755827Y-98450771D01*
X144755827Y-98450771D02*
X144803446Y-98260295D01*
X144803446Y-98260295D02*
X144851065Y-98165057D01*
X144851065Y-98165057D02*
X144898684Y-98117438D01*
X144898684Y-98117438D02*
X144993922Y-98069819D01*
X127222493Y-128969819D02*
X127222493Y-129684104D01*
X127222493Y-129684104D02*
X127174874Y-129826961D01*
X127174874Y-129826961D02*
X127079636Y-129922200D01*
X127079636Y-129922200D02*
X126936779Y-129969819D01*
X126936779Y-129969819D02*
X126841541Y-129969819D01*
X128174874Y-129969819D02*
X127698684Y-129969819D01*
X127698684Y-129969819D02*
X127698684Y-128969819D01*
X129079636Y-129874580D02*
X129032017Y-129922200D01*
X129032017Y-129922200D02*
X128889160Y-129969819D01*
X128889160Y-129969819D02*
X128793922Y-129969819D01*
X128793922Y-129969819D02*
X128651065Y-129922200D01*
X128651065Y-129922200D02*
X128555827Y-129826961D01*
X128555827Y-129826961D02*
X128508208Y-129731723D01*
X128508208Y-129731723D02*
X128460589Y-129541247D01*
X128460589Y-129541247D02*
X128460589Y-129398390D01*
X128460589Y-129398390D02*
X128508208Y-129207914D01*
X128508208Y-129207914D02*
X128555827Y-129112676D01*
X128555827Y-129112676D02*
X128651065Y-129017438D01*
X128651065Y-129017438D02*
X128793922Y-128969819D01*
X128793922Y-128969819D02*
X128889160Y-128969819D01*
X128889160Y-128969819D02*
X129032017Y-129017438D01*
X129032017Y-129017438D02*
X129079636Y-129065057D01*
X129793922Y-128969819D02*
X129793922Y-129684104D01*
X129793922Y-129684104D02*
X129746303Y-129826961D01*
X129746303Y-129826961D02*
X129651065Y-129922200D01*
X129651065Y-129922200D02*
X129508208Y-129969819D01*
X129508208Y-129969819D02*
X129412970Y-129969819D01*
X130746303Y-129969819D02*
X130270113Y-129969819D01*
X130270113Y-129969819D02*
X130270113Y-128969819D01*
X131651065Y-129874580D02*
X131603446Y-129922200D01*
X131603446Y-129922200D02*
X131460589Y-129969819D01*
X131460589Y-129969819D02*
X131365351Y-129969819D01*
X131365351Y-129969819D02*
X131222494Y-129922200D01*
X131222494Y-129922200D02*
X131127256Y-129826961D01*
X131127256Y-129826961D02*
X131079637Y-129731723D01*
X131079637Y-129731723D02*
X131032018Y-129541247D01*
X131032018Y-129541247D02*
X131032018Y-129398390D01*
X131032018Y-129398390D02*
X131079637Y-129207914D01*
X131079637Y-129207914D02*
X131127256Y-129112676D01*
X131127256Y-129112676D02*
X131222494Y-129017438D01*
X131222494Y-129017438D02*
X131365351Y-128969819D01*
X131365351Y-128969819D02*
X131460589Y-128969819D01*
X131460589Y-128969819D02*
X131603446Y-129017438D01*
X131603446Y-129017438D02*
X131651065Y-129065057D01*
X132365351Y-128969819D02*
X132365351Y-129684104D01*
X132365351Y-129684104D02*
X132317732Y-129826961D01*
X132317732Y-129826961D02*
X132222494Y-129922200D01*
X132222494Y-129922200D02*
X132079637Y-129969819D01*
X132079637Y-129969819D02*
X131984399Y-129969819D01*
X133317732Y-129969819D02*
X132841542Y-129969819D01*
X132841542Y-129969819D02*
X132841542Y-128969819D01*
X134222494Y-129874580D02*
X134174875Y-129922200D01*
X134174875Y-129922200D02*
X134032018Y-129969819D01*
X134032018Y-129969819D02*
X133936780Y-129969819D01*
X133936780Y-129969819D02*
X133793923Y-129922200D01*
X133793923Y-129922200D02*
X133698685Y-129826961D01*
X133698685Y-129826961D02*
X133651066Y-129731723D01*
X133651066Y-129731723D02*
X133603447Y-129541247D01*
X133603447Y-129541247D02*
X133603447Y-129398390D01*
X133603447Y-129398390D02*
X133651066Y-129207914D01*
X133651066Y-129207914D02*
X133698685Y-129112676D01*
X133698685Y-129112676D02*
X133793923Y-129017438D01*
X133793923Y-129017438D02*
X133936780Y-128969819D01*
X133936780Y-128969819D02*
X134032018Y-128969819D01*
X134032018Y-128969819D02*
X134174875Y-129017438D01*
X134174875Y-129017438D02*
X134222494Y-129065057D01*
D11*
X141690476Y-127157419D02*
X142357142Y-128157419D01*
X142357142Y-127157419D02*
X141690476Y-128157419D01*
X142738095Y-128157419D02*
X142738095Y-127490752D01*
X142738095Y-127157419D02*
X142690476Y-127205038D01*
X142690476Y-127205038D02*
X142738095Y-127252657D01*
X142738095Y-127252657D02*
X142785714Y-127205038D01*
X142785714Y-127205038D02*
X142738095Y-127157419D01*
X142738095Y-127157419D02*
X142738095Y-127252657D01*
X143642856Y-128157419D02*
X143642856Y-127633609D01*
X143642856Y-127633609D02*
X143595237Y-127538371D01*
X143595237Y-127538371D02*
X143499999Y-127490752D01*
X143499999Y-127490752D02*
X143309523Y-127490752D01*
X143309523Y-127490752D02*
X143214285Y-127538371D01*
X143642856Y-128109800D02*
X143547618Y-128157419D01*
X143547618Y-128157419D02*
X143309523Y-128157419D01*
X143309523Y-128157419D02*
X143214285Y-128109800D01*
X143214285Y-128109800D02*
X143166666Y-128014561D01*
X143166666Y-128014561D02*
X143166666Y-127919323D01*
X143166666Y-127919323D02*
X143214285Y-127824085D01*
X143214285Y-127824085D02*
X143309523Y-127776466D01*
X143309523Y-127776466D02*
X143547618Y-127776466D01*
X143547618Y-127776466D02*
X143642856Y-127728847D01*
X144261904Y-128157419D02*
X144166666Y-128109800D01*
X144166666Y-128109800D02*
X144119047Y-128062180D01*
X144119047Y-128062180D02*
X144071428Y-127966942D01*
X144071428Y-127966942D02*
X144071428Y-127681228D01*
X144071428Y-127681228D02*
X144119047Y-127585990D01*
X144119047Y-127585990D02*
X144166666Y-127538371D01*
X144166666Y-127538371D02*
X144261904Y-127490752D01*
X144261904Y-127490752D02*
X144404761Y-127490752D01*
X144404761Y-127490752D02*
X144499999Y-127538371D01*
X144499999Y-127538371D02*
X144547618Y-127585990D01*
X144547618Y-127585990D02*
X144595237Y-127681228D01*
X144595237Y-127681228D02*
X144595237Y-127966942D01*
X144595237Y-127966942D02*
X144547618Y-128062180D01*
X144547618Y-128062180D02*
X144499999Y-128109800D01*
X144499999Y-128109800D02*
X144404761Y-128157419D01*
X144404761Y-128157419D02*
X144261904Y-128157419D01*
X145023809Y-128157419D02*
X145023809Y-127157419D01*
X145023809Y-127157419D02*
X145595237Y-128157419D01*
X145595237Y-128157419D02*
X145595237Y-127157419D01*
X146642856Y-128157419D02*
X146309523Y-127681228D01*
X146071428Y-128157419D02*
X146071428Y-127157419D01*
X146071428Y-127157419D02*
X146452380Y-127157419D01*
X146452380Y-127157419D02*
X146547618Y-127205038D01*
X146547618Y-127205038D02*
X146595237Y-127252657D01*
X146595237Y-127252657D02*
X146642856Y-127347895D01*
X146642856Y-127347895D02*
X146642856Y-127490752D01*
X146642856Y-127490752D02*
X146595237Y-127585990D01*
X146595237Y-127585990D02*
X146547618Y-127633609D01*
X146547618Y-127633609D02*
X146452380Y-127681228D01*
X146452380Y-127681228D02*
X146071428Y-127681228D01*
X147404761Y-127633609D02*
X147071428Y-127633609D01*
X147071428Y-128157419D02*
X147071428Y-127157419D01*
X147071428Y-127157419D02*
X147547618Y-127157419D01*
X148404761Y-127157419D02*
X147928571Y-127157419D01*
X147928571Y-127157419D02*
X147880952Y-127633609D01*
X147880952Y-127633609D02*
X147928571Y-127585990D01*
X147928571Y-127585990D02*
X148023809Y-127538371D01*
X148023809Y-127538371D02*
X148261904Y-127538371D01*
X148261904Y-127538371D02*
X148357142Y-127585990D01*
X148357142Y-127585990D02*
X148404761Y-127633609D01*
X148404761Y-127633609D02*
X148452380Y-127728847D01*
X148452380Y-127728847D02*
X148452380Y-127966942D01*
X148452380Y-127966942D02*
X148404761Y-128062180D01*
X148404761Y-128062180D02*
X148357142Y-128109800D01*
X148357142Y-128109800D02*
X148261904Y-128157419D01*
X148261904Y-128157419D02*
X148023809Y-128157419D01*
X148023809Y-128157419D02*
X147928571Y-128109800D01*
X147928571Y-128109800D02*
X147880952Y-128062180D01*
X148833333Y-127252657D02*
X148880952Y-127205038D01*
X148880952Y-127205038D02*
X148976190Y-127157419D01*
X148976190Y-127157419D02*
X149214285Y-127157419D01*
X149214285Y-127157419D02*
X149309523Y-127205038D01*
X149309523Y-127205038D02*
X149357142Y-127252657D01*
X149357142Y-127252657D02*
X149404761Y-127347895D01*
X149404761Y-127347895D02*
X149404761Y-127443133D01*
X149404761Y-127443133D02*
X149357142Y-127585990D01*
X149357142Y-127585990D02*
X148785714Y-128157419D01*
X148785714Y-128157419D02*
X149404761Y-128157419D01*
X149976190Y-127585990D02*
X149880952Y-127538371D01*
X149880952Y-127538371D02*
X149833333Y-127490752D01*
X149833333Y-127490752D02*
X149785714Y-127395514D01*
X149785714Y-127395514D02*
X149785714Y-127347895D01*
X149785714Y-127347895D02*
X149833333Y-127252657D01*
X149833333Y-127252657D02*
X149880952Y-127205038D01*
X149880952Y-127205038D02*
X149976190Y-127157419D01*
X149976190Y-127157419D02*
X150166666Y-127157419D01*
X150166666Y-127157419D02*
X150261904Y-127205038D01*
X150261904Y-127205038D02*
X150309523Y-127252657D01*
X150309523Y-127252657D02*
X150357142Y-127347895D01*
X150357142Y-127347895D02*
X150357142Y-127395514D01*
X150357142Y-127395514D02*
X150309523Y-127490752D01*
X150309523Y-127490752D02*
X150261904Y-127538371D01*
X150261904Y-127538371D02*
X150166666Y-127585990D01*
X150166666Y-127585990D02*
X149976190Y-127585990D01*
X149976190Y-127585990D02*
X149880952Y-127633609D01*
X149880952Y-127633609D02*
X149833333Y-127681228D01*
X149833333Y-127681228D02*
X149785714Y-127776466D01*
X149785714Y-127776466D02*
X149785714Y-127966942D01*
X149785714Y-127966942D02*
X149833333Y-128062180D01*
X149833333Y-128062180D02*
X149880952Y-128109800D01*
X149880952Y-128109800D02*
X149976190Y-128157419D01*
X149976190Y-128157419D02*
X150166666Y-128157419D01*
X150166666Y-128157419D02*
X150261904Y-128109800D01*
X150261904Y-128109800D02*
X150309523Y-128062180D01*
X150309523Y-128062180D02*
X150357142Y-127966942D01*
X150357142Y-127966942D02*
X150357142Y-127776466D01*
X150357142Y-127776466D02*
X150309523Y-127681228D01*
X150309523Y-127681228D02*
X150261904Y-127633609D01*
X150261904Y-127633609D02*
X150166666Y-127585990D01*
X151214285Y-127490752D02*
X151214285Y-128157419D01*
X150976190Y-127109800D02*
X150738095Y-127824085D01*
X150738095Y-127824085D02*
X151357142Y-127824085D01*
X151928571Y-127157419D02*
X152023809Y-127157419D01*
X152023809Y-127157419D02*
X152119047Y-127205038D01*
X152119047Y-127205038D02*
X152166666Y-127252657D01*
X152166666Y-127252657D02*
X152214285Y-127347895D01*
X152214285Y-127347895D02*
X152261904Y-127538371D01*
X152261904Y-127538371D02*
X152261904Y-127776466D01*
X152261904Y-127776466D02*
X152214285Y-127966942D01*
X152214285Y-127966942D02*
X152166666Y-128062180D01*
X152166666Y-128062180D02*
X152119047Y-128109800D01*
X152119047Y-128109800D02*
X152023809Y-128157419D01*
X152023809Y-128157419D02*
X151928571Y-128157419D01*
X151928571Y-128157419D02*
X151833333Y-128109800D01*
X151833333Y-128109800D02*
X151785714Y-128062180D01*
X151785714Y-128062180D02*
X151738095Y-127966942D01*
X151738095Y-127966942D02*
X151690476Y-127776466D01*
X151690476Y-127776466D02*
X151690476Y-127538371D01*
X151690476Y-127538371D02*
X151738095Y-127347895D01*
X151738095Y-127347895D02*
X151785714Y-127252657D01*
X151785714Y-127252657D02*
X151833333Y-127205038D01*
X151833333Y-127205038D02*
X151928571Y-127157419D01*
X129399999Y-105357419D02*
X128923809Y-105357419D01*
X128923809Y-105357419D02*
X128923809Y-104357419D01*
X129733333Y-105357419D02*
X129733333Y-104690752D01*
X129733333Y-104357419D02*
X129685714Y-104405038D01*
X129685714Y-104405038D02*
X129733333Y-104452657D01*
X129733333Y-104452657D02*
X129780952Y-104405038D01*
X129780952Y-104405038D02*
X129733333Y-104357419D01*
X129733333Y-104357419D02*
X129733333Y-104452657D01*
X130209523Y-104690752D02*
X130209523Y-105690752D01*
X130209523Y-104738371D02*
X130304761Y-104690752D01*
X130304761Y-104690752D02*
X130495237Y-104690752D01*
X130495237Y-104690752D02*
X130590475Y-104738371D01*
X130590475Y-104738371D02*
X130638094Y-104785990D01*
X130638094Y-104785990D02*
X130685713Y-104881228D01*
X130685713Y-104881228D02*
X130685713Y-105166942D01*
X130685713Y-105166942D02*
X130638094Y-105262180D01*
X130638094Y-105262180D02*
X130590475Y-105309800D01*
X130590475Y-105309800D02*
X130495237Y-105357419D01*
X130495237Y-105357419D02*
X130304761Y-105357419D01*
X130304761Y-105357419D02*
X130209523Y-105309800D01*
X131257142Y-105357419D02*
X131161904Y-105309800D01*
X131161904Y-105309800D02*
X131114285Y-105262180D01*
X131114285Y-105262180D02*
X131066666Y-105166942D01*
X131066666Y-105166942D02*
X131066666Y-104881228D01*
X131066666Y-104881228D02*
X131114285Y-104785990D01*
X131114285Y-104785990D02*
X131161904Y-104738371D01*
X131161904Y-104738371D02*
X131257142Y-104690752D01*
X131257142Y-104690752D02*
X131399999Y-104690752D01*
X131399999Y-104690752D02*
X131495237Y-104738371D01*
X131495237Y-104738371D02*
X131542856Y-104785990D01*
X131542856Y-104785990D02*
X131590475Y-104881228D01*
X131590475Y-104881228D02*
X131590475Y-105166942D01*
X131590475Y-105166942D02*
X131542856Y-105262180D01*
X131542856Y-105262180D02*
X131495237Y-105309800D01*
X131495237Y-105309800D02*
X131399999Y-105357419D01*
X131399999Y-105357419D02*
X131257142Y-105357419D01*
X132161904Y-105357419D02*
X132066666Y-105309800D01*
X132066666Y-105309800D02*
X132019047Y-105214561D01*
X132019047Y-105214561D02*
X132019047Y-104357419D01*
X133114285Y-105262180D02*
X133066666Y-105309800D01*
X133066666Y-105309800D02*
X132923809Y-105357419D01*
X132923809Y-105357419D02*
X132828571Y-105357419D01*
X132828571Y-105357419D02*
X132685714Y-105309800D01*
X132685714Y-105309800D02*
X132590476Y-105214561D01*
X132590476Y-105214561D02*
X132542857Y-105119323D01*
X132542857Y-105119323D02*
X132495238Y-104928847D01*
X132495238Y-104928847D02*
X132495238Y-104785990D01*
X132495238Y-104785990D02*
X132542857Y-104595514D01*
X132542857Y-104595514D02*
X132590476Y-104500276D01*
X132590476Y-104500276D02*
X132685714Y-104405038D01*
X132685714Y-104405038D02*
X132828571Y-104357419D01*
X132828571Y-104357419D02*
X132923809Y-104357419D01*
X132923809Y-104357419D02*
X133066666Y-104405038D01*
X133066666Y-104405038D02*
X133114285Y-104452657D01*
X133542857Y-105357419D02*
X133542857Y-104357419D01*
X133971428Y-105357419D02*
X133971428Y-104833609D01*
X133971428Y-104833609D02*
X133923809Y-104738371D01*
X133923809Y-104738371D02*
X133828571Y-104690752D01*
X133828571Y-104690752D02*
X133685714Y-104690752D01*
X133685714Y-104690752D02*
X133590476Y-104738371D01*
X133590476Y-104738371D02*
X133542857Y-104785990D01*
X134876190Y-105357419D02*
X134876190Y-104833609D01*
X134876190Y-104833609D02*
X134828571Y-104738371D01*
X134828571Y-104738371D02*
X134733333Y-104690752D01*
X134733333Y-104690752D02*
X134542857Y-104690752D01*
X134542857Y-104690752D02*
X134447619Y-104738371D01*
X134876190Y-105309800D02*
X134780952Y-105357419D01*
X134780952Y-105357419D02*
X134542857Y-105357419D01*
X134542857Y-105357419D02*
X134447619Y-105309800D01*
X134447619Y-105309800D02*
X134400000Y-105214561D01*
X134400000Y-105214561D02*
X134400000Y-105119323D01*
X134400000Y-105119323D02*
X134447619Y-105024085D01*
X134447619Y-105024085D02*
X134542857Y-104976466D01*
X134542857Y-104976466D02*
X134780952Y-104976466D01*
X134780952Y-104976466D02*
X134876190Y-104928847D01*
X135352381Y-105357419D02*
X135352381Y-104690752D01*
X135352381Y-104881228D02*
X135400000Y-104785990D01*
X135400000Y-104785990D02*
X135447619Y-104738371D01*
X135447619Y-104738371D02*
X135542857Y-104690752D01*
X135542857Y-104690752D02*
X135638095Y-104690752D01*
X136400000Y-104690752D02*
X136400000Y-105500276D01*
X136400000Y-105500276D02*
X136352381Y-105595514D01*
X136352381Y-105595514D02*
X136304762Y-105643133D01*
X136304762Y-105643133D02*
X136209524Y-105690752D01*
X136209524Y-105690752D02*
X136066667Y-105690752D01*
X136066667Y-105690752D02*
X135971429Y-105643133D01*
X136400000Y-105309800D02*
X136304762Y-105357419D01*
X136304762Y-105357419D02*
X136114286Y-105357419D01*
X136114286Y-105357419D02*
X136019048Y-105309800D01*
X136019048Y-105309800D02*
X135971429Y-105262180D01*
X135971429Y-105262180D02*
X135923810Y-105166942D01*
X135923810Y-105166942D02*
X135923810Y-104881228D01*
X135923810Y-104881228D02*
X135971429Y-104785990D01*
X135971429Y-104785990D02*
X136019048Y-104738371D01*
X136019048Y-104738371D02*
X136114286Y-104690752D01*
X136114286Y-104690752D02*
X136304762Y-104690752D01*
X136304762Y-104690752D02*
X136400000Y-104738371D01*
X137257143Y-105309800D02*
X137161905Y-105357419D01*
X137161905Y-105357419D02*
X136971429Y-105357419D01*
X136971429Y-105357419D02*
X136876191Y-105309800D01*
X136876191Y-105309800D02*
X136828572Y-105214561D01*
X136828572Y-105214561D02*
X136828572Y-104833609D01*
X136828572Y-104833609D02*
X136876191Y-104738371D01*
X136876191Y-104738371D02*
X136971429Y-104690752D01*
X136971429Y-104690752D02*
X137161905Y-104690752D01*
X137161905Y-104690752D02*
X137257143Y-104738371D01*
X137257143Y-104738371D02*
X137304762Y-104833609D01*
X137304762Y-104833609D02*
X137304762Y-104928847D01*
X137304762Y-104928847D02*
X136828572Y-105024085D01*
X137733334Y-105357419D02*
X137733334Y-104690752D01*
X137733334Y-104881228D02*
X137780953Y-104785990D01*
X137780953Y-104785990D02*
X137828572Y-104738371D01*
X137828572Y-104738371D02*
X137923810Y-104690752D01*
X137923810Y-104690752D02*
X138019048Y-104690752D01*
X124937217Y-109648609D02*
X125080074Y-109696228D01*
X125080074Y-109696228D02*
X125127693Y-109743847D01*
X125127693Y-109743847D02*
X125175312Y-109839085D01*
X125175312Y-109839085D02*
X125175312Y-109981942D01*
X125175312Y-109981942D02*
X125127693Y-110077180D01*
X125127693Y-110077180D02*
X125080074Y-110124800D01*
X125080074Y-110124800D02*
X124984836Y-110172419D01*
X124984836Y-110172419D02*
X124603884Y-110172419D01*
X124603884Y-110172419D02*
X124603884Y-109172419D01*
X124603884Y-109172419D02*
X124937217Y-109172419D01*
X124937217Y-109172419D02*
X125032455Y-109220038D01*
X125032455Y-109220038D02*
X125080074Y-109267657D01*
X125080074Y-109267657D02*
X125127693Y-109362895D01*
X125127693Y-109362895D02*
X125127693Y-109458133D01*
X125127693Y-109458133D02*
X125080074Y-109553371D01*
X125080074Y-109553371D02*
X125032455Y-109600990D01*
X125032455Y-109600990D02*
X124937217Y-109648609D01*
X124937217Y-109648609D02*
X124603884Y-109648609D01*
X125556265Y-109886704D02*
X126032455Y-109886704D01*
X125461027Y-110172419D02*
X125794360Y-109172419D01*
X125794360Y-109172419D02*
X126127693Y-110172419D01*
X126318170Y-109172419D02*
X126889598Y-109172419D01*
X126603884Y-110172419D02*
X126603884Y-109172419D01*
X127222932Y-109791466D02*
X127984837Y-109791466D01*
X127603884Y-110172419D02*
X127603884Y-109410514D01*
X125237217Y-98848609D02*
X125380074Y-98896228D01*
X125380074Y-98896228D02*
X125427693Y-98943847D01*
X125427693Y-98943847D02*
X125475312Y-99039085D01*
X125475312Y-99039085D02*
X125475312Y-99181942D01*
X125475312Y-99181942D02*
X125427693Y-99277180D01*
X125427693Y-99277180D02*
X125380074Y-99324800D01*
X125380074Y-99324800D02*
X125284836Y-99372419D01*
X125284836Y-99372419D02*
X124903884Y-99372419D01*
X124903884Y-99372419D02*
X124903884Y-98372419D01*
X124903884Y-98372419D02*
X125237217Y-98372419D01*
X125237217Y-98372419D02*
X125332455Y-98420038D01*
X125332455Y-98420038D02*
X125380074Y-98467657D01*
X125380074Y-98467657D02*
X125427693Y-98562895D01*
X125427693Y-98562895D02*
X125427693Y-98658133D01*
X125427693Y-98658133D02*
X125380074Y-98753371D01*
X125380074Y-98753371D02*
X125332455Y-98800990D01*
X125332455Y-98800990D02*
X125237217Y-98848609D01*
X125237217Y-98848609D02*
X124903884Y-98848609D01*
X125856265Y-99086704D02*
X126332455Y-99086704D01*
X125761027Y-99372419D02*
X126094360Y-98372419D01*
X126094360Y-98372419D02*
X126427693Y-99372419D01*
X126618170Y-98372419D02*
X127189598Y-98372419D01*
X126903884Y-99372419D02*
X126903884Y-98372419D01*
X127522932Y-98991466D02*
X128284837Y-98991466D01*
X147381027Y-110711419D02*
X147714360Y-111711419D01*
X147714360Y-111711419D02*
X148047693Y-110711419D01*
X148952455Y-111616180D02*
X148904836Y-111663800D01*
X148904836Y-111663800D02*
X148761979Y-111711419D01*
X148761979Y-111711419D02*
X148666741Y-111711419D01*
X148666741Y-111711419D02*
X148523884Y-111663800D01*
X148523884Y-111663800D02*
X148428646Y-111568561D01*
X148428646Y-111568561D02*
X148381027Y-111473323D01*
X148381027Y-111473323D02*
X148333408Y-111282847D01*
X148333408Y-111282847D02*
X148333408Y-111139990D01*
X148333408Y-111139990D02*
X148381027Y-110949514D01*
X148381027Y-110949514D02*
X148428646Y-110854276D01*
X148428646Y-110854276D02*
X148523884Y-110759038D01*
X148523884Y-110759038D02*
X148666741Y-110711419D01*
X148666741Y-110711419D02*
X148761979Y-110711419D01*
X148761979Y-110711419D02*
X148904836Y-110759038D01*
X148904836Y-110759038D02*
X148952455Y-110806657D01*
X149952455Y-111616180D02*
X149904836Y-111663800D01*
X149904836Y-111663800D02*
X149761979Y-111711419D01*
X149761979Y-111711419D02*
X149666741Y-111711419D01*
X149666741Y-111711419D02*
X149523884Y-111663800D01*
X149523884Y-111663800D02*
X149428646Y-111568561D01*
X149428646Y-111568561D02*
X149381027Y-111473323D01*
X149381027Y-111473323D02*
X149333408Y-111282847D01*
X149333408Y-111282847D02*
X149333408Y-111139990D01*
X149333408Y-111139990D02*
X149381027Y-110949514D01*
X149381027Y-110949514D02*
X149428646Y-110854276D01*
X149428646Y-110854276D02*
X149523884Y-110759038D01*
X149523884Y-110759038D02*
X149666741Y-110711419D01*
X149666741Y-110711419D02*
X149761979Y-110711419D01*
X149761979Y-110711419D02*
X149904836Y-110759038D01*
X149904836Y-110759038D02*
X149952455Y-110806657D01*
X148047693Y-98059038D02*
X147952455Y-98011419D01*
X147952455Y-98011419D02*
X147809598Y-98011419D01*
X147809598Y-98011419D02*
X147666741Y-98059038D01*
X147666741Y-98059038D02*
X147571503Y-98154276D01*
X147571503Y-98154276D02*
X147523884Y-98249514D01*
X147523884Y-98249514D02*
X147476265Y-98439990D01*
X147476265Y-98439990D02*
X147476265Y-98582847D01*
X147476265Y-98582847D02*
X147523884Y-98773323D01*
X147523884Y-98773323D02*
X147571503Y-98868561D01*
X147571503Y-98868561D02*
X147666741Y-98963800D01*
X147666741Y-98963800D02*
X147809598Y-99011419D01*
X147809598Y-99011419D02*
X147904836Y-99011419D01*
X147904836Y-99011419D02*
X148047693Y-98963800D01*
X148047693Y-98963800D02*
X148095312Y-98916180D01*
X148095312Y-98916180D02*
X148095312Y-98582847D01*
X148095312Y-98582847D02*
X147904836Y-98582847D01*
X148523884Y-99011419D02*
X148523884Y-98011419D01*
X148523884Y-98011419D02*
X149095312Y-99011419D01*
X149095312Y-99011419D02*
X149095312Y-98011419D01*
X149571503Y-99011419D02*
X149571503Y-98011419D01*
X149571503Y-98011419D02*
X149809598Y-98011419D01*
X149809598Y-98011419D02*
X149952455Y-98059038D01*
X149952455Y-98059038D02*
X150047693Y-98154276D01*
X150047693Y-98154276D02*
X150095312Y-98249514D01*
X150095312Y-98249514D02*
X150142931Y-98439990D01*
X150142931Y-98439990D02*
X150142931Y-98582847D01*
X150142931Y-98582847D02*
X150095312Y-98773323D01*
X150095312Y-98773323D02*
X150047693Y-98868561D01*
X150047693Y-98868561D02*
X149952455Y-98963800D01*
X149952455Y-98963800D02*
X149809598Y-99011419D01*
X149809598Y-99011419D02*
X149571503Y-99011419D01*
X152157419Y-103573333D02*
X152871704Y-103573333D01*
X152871704Y-103573333D02*
X153014561Y-103620952D01*
X153014561Y-103620952D02*
X153109800Y-103716190D01*
X153109800Y-103716190D02*
X153157419Y-103859047D01*
X153157419Y-103859047D02*
X153157419Y-103954285D01*
X152252657Y-103144761D02*
X152205038Y-103097142D01*
X152205038Y-103097142D02*
X152157419Y-103001904D01*
X152157419Y-103001904D02*
X152157419Y-102763809D01*
X152157419Y-102763809D02*
X152205038Y-102668571D01*
X152205038Y-102668571D02*
X152252657Y-102620952D01*
X152252657Y-102620952D02*
X152347895Y-102573333D01*
X152347895Y-102573333D02*
X152443133Y-102573333D01*
X152443133Y-102573333D02*
X152585990Y-102620952D01*
X152585990Y-102620952D02*
X153157419Y-103192380D01*
X153157419Y-103192380D02*
X153157419Y-102573333D01*
X145462666Y-94453419D02*
X145462666Y-95167704D01*
X145462666Y-95167704D02*
X145415047Y-95310561D01*
X145415047Y-95310561D02*
X145319809Y-95405800D01*
X145319809Y-95405800D02*
X145176952Y-95453419D01*
X145176952Y-95453419D02*
X145081714Y-95453419D01*
X146462666Y-95453419D02*
X145891238Y-95453419D01*
X146176952Y-95453419D02*
X146176952Y-94453419D01*
X146176952Y-94453419D02*
X146081714Y-94596276D01*
X146081714Y-94596276D02*
X145986476Y-94691514D01*
X145986476Y-94691514D02*
X145891238Y-94739133D01*
X129266666Y-94557419D02*
X129266666Y-95271704D01*
X129266666Y-95271704D02*
X129219047Y-95414561D01*
X129219047Y-95414561D02*
X129123809Y-95509800D01*
X129123809Y-95509800D02*
X128980952Y-95557419D01*
X128980952Y-95557419D02*
X128885714Y-95557419D01*
X129647619Y-94557419D02*
X130266666Y-94557419D01*
X130266666Y-94557419D02*
X129933333Y-94938371D01*
X129933333Y-94938371D02*
X130076190Y-94938371D01*
X130076190Y-94938371D02*
X130171428Y-94985990D01*
X130171428Y-94985990D02*
X130219047Y-95033609D01*
X130219047Y-95033609D02*
X130266666Y-95128847D01*
X130266666Y-95128847D02*
X130266666Y-95366942D01*
X130266666Y-95366942D02*
X130219047Y-95462180D01*
X130219047Y-95462180D02*
X130171428Y-95509800D01*
X130171428Y-95509800D02*
X130076190Y-95557419D01*
X130076190Y-95557419D02*
X129790476Y-95557419D01*
X129790476Y-95557419D02*
X129695238Y-95509800D01*
X129695238Y-95509800D02*
X129647619Y-95462180D01*
X121457419Y-103633333D02*
X122171704Y-103633333D01*
X122171704Y-103633333D02*
X122314561Y-103680952D01*
X122314561Y-103680952D02*
X122409800Y-103776190D01*
X122409800Y-103776190D02*
X122457419Y-103919047D01*
X122457419Y-103919047D02*
X122457419Y-104014285D01*
X121790752Y-102728571D02*
X122457419Y-102728571D01*
X121409800Y-102966666D02*
X122124085Y-103204761D01*
X122124085Y-103204761D02*
X122124085Y-102585714D01*
D10*
X149121905Y-122120819D02*
X149121905Y-121120819D01*
X149121905Y-121120819D02*
X149360000Y-121120819D01*
X149360000Y-121120819D02*
X149502857Y-121168438D01*
X149502857Y-121168438D02*
X149598095Y-121263676D01*
X149598095Y-121263676D02*
X149645714Y-121358914D01*
X149645714Y-121358914D02*
X149693333Y-121549390D01*
X149693333Y-121549390D02*
X149693333Y-121692247D01*
X149693333Y-121692247D02*
X149645714Y-121882723D01*
X149645714Y-121882723D02*
X149598095Y-121977961D01*
X149598095Y-121977961D02*
X149502857Y-122073200D01*
X149502857Y-122073200D02*
X149360000Y-122120819D01*
X149360000Y-122120819D02*
X149121905Y-122120819D01*
X150026667Y-121120819D02*
X150645714Y-121120819D01*
X150645714Y-121120819D02*
X150312381Y-121501771D01*
X150312381Y-121501771D02*
X150455238Y-121501771D01*
X150455238Y-121501771D02*
X150550476Y-121549390D01*
X150550476Y-121549390D02*
X150598095Y-121597009D01*
X150598095Y-121597009D02*
X150645714Y-121692247D01*
X150645714Y-121692247D02*
X150645714Y-121930342D01*
X150645714Y-121930342D02*
X150598095Y-122025580D01*
X150598095Y-122025580D02*
X150550476Y-122073200D01*
X150550476Y-122073200D02*
X150455238Y-122120819D01*
X150455238Y-122120819D02*
X150169524Y-122120819D01*
X150169524Y-122120819D02*
X150074286Y-122073200D01*
X150074286Y-122073200D02*
X150026667Y-122025580D01*
D11*
X124080952Y-123357419D02*
X124080952Y-122357419D01*
X124080952Y-122357419D02*
X124414285Y-123071704D01*
X124414285Y-123071704D02*
X124747618Y-122357419D01*
X124747618Y-122357419D02*
X124747618Y-123357419D01*
X125176190Y-123071704D02*
X125652380Y-123071704D01*
X125080952Y-123357419D02*
X125414285Y-122357419D01*
X125414285Y-122357419D02*
X125747618Y-123357419D01*
X125985714Y-122357419D02*
X126652380Y-123357419D01*
X126652380Y-122357419D02*
X125985714Y-123357419D01*
X127080952Y-123357419D02*
X127271428Y-123357419D01*
X127271428Y-123357419D02*
X127366666Y-123309800D01*
X127366666Y-123309800D02*
X127414285Y-123262180D01*
X127414285Y-123262180D02*
X127509523Y-123119323D01*
X127509523Y-123119323D02*
X127557142Y-122928847D01*
X127557142Y-122928847D02*
X127557142Y-122547895D01*
X127557142Y-122547895D02*
X127509523Y-122452657D01*
X127509523Y-122452657D02*
X127461904Y-122405038D01*
X127461904Y-122405038D02*
X127366666Y-122357419D01*
X127366666Y-122357419D02*
X127176190Y-122357419D01*
X127176190Y-122357419D02*
X127080952Y-122405038D01*
X127080952Y-122405038D02*
X127033333Y-122452657D01*
X127033333Y-122452657D02*
X126985714Y-122547895D01*
X126985714Y-122547895D02*
X126985714Y-122785990D01*
X126985714Y-122785990D02*
X127033333Y-122881228D01*
X127033333Y-122881228D02*
X127080952Y-122928847D01*
X127080952Y-122928847D02*
X127176190Y-122976466D01*
X127176190Y-122976466D02*
X127366666Y-122976466D01*
X127366666Y-122976466D02*
X127461904Y-122928847D01*
X127461904Y-122928847D02*
X127509523Y-122881228D01*
X127509523Y-122881228D02*
X127557142Y-122785990D01*
X128128571Y-122785990D02*
X128033333Y-122738371D01*
X128033333Y-122738371D02*
X127985714Y-122690752D01*
X127985714Y-122690752D02*
X127938095Y-122595514D01*
X127938095Y-122595514D02*
X127938095Y-122547895D01*
X127938095Y-122547895D02*
X127985714Y-122452657D01*
X127985714Y-122452657D02*
X128033333Y-122405038D01*
X128033333Y-122405038D02*
X128128571Y-122357419D01*
X128128571Y-122357419D02*
X128319047Y-122357419D01*
X128319047Y-122357419D02*
X128414285Y-122405038D01*
X128414285Y-122405038D02*
X128461904Y-122452657D01*
X128461904Y-122452657D02*
X128509523Y-122547895D01*
X128509523Y-122547895D02*
X128509523Y-122595514D01*
X128509523Y-122595514D02*
X128461904Y-122690752D01*
X128461904Y-122690752D02*
X128414285Y-122738371D01*
X128414285Y-122738371D02*
X128319047Y-122785990D01*
X128319047Y-122785990D02*
X128128571Y-122785990D01*
X128128571Y-122785990D02*
X128033333Y-122833609D01*
X128033333Y-122833609D02*
X127985714Y-122881228D01*
X127985714Y-122881228D02*
X127938095Y-122976466D01*
X127938095Y-122976466D02*
X127938095Y-123166942D01*
X127938095Y-123166942D02*
X127985714Y-123262180D01*
X127985714Y-123262180D02*
X128033333Y-123309800D01*
X128033333Y-123309800D02*
X128128571Y-123357419D01*
X128128571Y-123357419D02*
X128319047Y-123357419D01*
X128319047Y-123357419D02*
X128414285Y-123309800D01*
X128414285Y-123309800D02*
X128461904Y-123262180D01*
X128461904Y-123262180D02*
X128509523Y-123166942D01*
X128509523Y-123166942D02*
X128509523Y-122976466D01*
X128509523Y-122976466D02*
X128461904Y-122881228D01*
X128461904Y-122881228D02*
X128414285Y-122833609D01*
X128414285Y-122833609D02*
X128319047Y-122785990D01*
X128842857Y-122357419D02*
X129461904Y-122357419D01*
X129461904Y-122357419D02*
X129128571Y-122738371D01*
X129128571Y-122738371D02*
X129271428Y-122738371D01*
X129271428Y-122738371D02*
X129366666Y-122785990D01*
X129366666Y-122785990D02*
X129414285Y-122833609D01*
X129414285Y-122833609D02*
X129461904Y-122928847D01*
X129461904Y-122928847D02*
X129461904Y-123166942D01*
X129461904Y-123166942D02*
X129414285Y-123262180D01*
X129414285Y-123262180D02*
X129366666Y-123309800D01*
X129366666Y-123309800D02*
X129271428Y-123357419D01*
X129271428Y-123357419D02*
X128985714Y-123357419D01*
X128985714Y-123357419D02*
X128890476Y-123309800D01*
X128890476Y-123309800D02*
X128842857Y-123262180D01*
X130366666Y-122357419D02*
X129890476Y-122357419D01*
X129890476Y-122357419D02*
X129842857Y-122833609D01*
X129842857Y-122833609D02*
X129890476Y-122785990D01*
X129890476Y-122785990D02*
X129985714Y-122738371D01*
X129985714Y-122738371D02*
X130223809Y-122738371D01*
X130223809Y-122738371D02*
X130319047Y-122785990D01*
X130319047Y-122785990D02*
X130366666Y-122833609D01*
X130366666Y-122833609D02*
X130414285Y-122928847D01*
X130414285Y-122928847D02*
X130414285Y-123166942D01*
X130414285Y-123166942D02*
X130366666Y-123262180D01*
X130366666Y-123262180D02*
X130319047Y-123309800D01*
X130319047Y-123309800D02*
X130223809Y-123357419D01*
X130223809Y-123357419D02*
X129985714Y-123357419D01*
X129985714Y-123357419D02*
X129890476Y-123309800D01*
X129890476Y-123309800D02*
X129842857Y-123262180D01*
X130747619Y-122357419D02*
X131414285Y-122357419D01*
X131414285Y-122357419D02*
X130985714Y-123357419D01*
X156377500Y-129285000D02*
G75*
G02*
X154472500Y-131190000I-1905000J0D01*
G01*
X154472500Y-113410000D02*
G75*
G02*
X156377500Y-115315000I0J-1905000D01*
G01*
X156377500Y-129285000D02*
X156377500Y-115315000D01*
X137327500Y-131190000D02*
X154472500Y-131190000D01*
X137327500Y-113410000D02*
X154472500Y-113410000D01*
X120677000Y-97361000D02*
X153443000Y-97361000D01*
X153443000Y-112347000D01*
X120677000Y-112347000D01*
X120677000Y-97361000D01*
D12*
X146198000Y-121600000D02*
X146780000Y-121600000D01*
X147560000Y-120130000D02*
X147560000Y-123070000D01*
X147680000Y-120130000D02*
X147680000Y-123070000D01*
X147800000Y-120130000D02*
X147800000Y-123070000D01*
X152802000Y-121600000D02*
X152220000Y-121600000D01*
X146780000Y-120130000D02*
X152220000Y-120130000D01*
X152220000Y-123070000D01*
X146780000Y-123070000D01*
X146780000Y-120130000D01*
D11*
X136590000Y-131607500D02*
X118810000Y-131607500D01*
X118810000Y-113192500D01*
X136590000Y-113192500D01*
X136590000Y-131607500D01*
M02*
