M48
; DRILL file {KiCad 9.0.5} date 2025-12-02T21:38:52+0100
; FORMAT={-:-/ absolute / metric / decimal}
; #@! TF.CreationDate,2025-12-02T21:38:52+01:00
; #@! TF.GenerationSoftware,Kicad,Pcbnew,9.0.5
; #@! TF.FileFunction,Plated,1,4,PTH
FMAT,2
METRIC
; #@! TA.AperFunction,Plated,PTH,ViaDrill
T1C0.300
; #@! TA.AperFunction,Plated,PTH,ComponentDrill
T2C0.800
; #@! TA.AperFunction,Plated,PTH,ComponentDrill
T3C0.850
; #@! TA.AperFunction,Plated,PTH,ComponentDrill
T4C1.100
%
G90
G05
T1
X136.325Y-125.73
X141.6Y-104.025
X148.461Y-125.811
T2
X118.9Y-102.425
X118.9Y-104.275
X125.875Y-95.185
X127.725Y-95.185
X147.975Y-95.115
X149.825Y-95.115
X154.858Y-102.425
X154.858Y-104.275
T3
X120.08Y-114.78
X122.582Y-98.631
X122.582Y-110.95
X122.62Y-114.78
X130.24Y-114.78
X132.78Y-114.78
X135.32Y-114.78
X138.28Y-114.68
X138.28Y-129.92
X140.82Y-114.68
X140.82Y-129.92
X143.36Y-114.68
X143.36Y-129.92
X145.9Y-114.68
X145.9Y-117.728
X145.9Y-129.92
X148.44Y-117.728
X148.44Y-129.92
X150.98Y-114.68
X151.716Y-98.631
X151.716Y-110.95
X153.52Y-114.68
X153.52Y-129.92
T4
X144.928Y-121.6
X154.072Y-121.6
M30
