G04 #@! TF.GenerationSoftware,KiCad,Pcbnew,9.0.5*
G04 #@! TF.CreationDate,2025-12-02T21:41:35+01:00*
G04 #@! TF.ProjectId,ToyBoard,546f7942-6f61-4726-942e-6b696361645f,rev?*
G04 #@! TF.SameCoordinates,Original*
G04 #@! TF.FileFunction,Copper,L1,Top*
G04 #@! TF.FilePolarity,Positive*
%FSLAX46Y46*%
G04 Gerber Fmt 4.6, Leading zero omitted, Abs format (unit mm)*
G04 Created by KiCad (PCBNEW 9.0.5) date 2025-12-02 21:41:35*
%MOMM*%
%LPD*%
G01*
G04 APERTURE LIST*
G04 Aperture macros list*
%AMRoundRect*
0 Rectangle with rounded corners*
0 $1 Rounding radius*
0 $2 $3 $4 $5 $6 $7 $8 $9 X,Y pos of 4 corners*
0 Add a 4 corners polygon primitive as box body*
4,1,4,$2,$3,$4,$5,$6,$7,$8,$9,$2,$3,0*
0 Add four circle primitives for the rounded corners*
1,1,$1+$1,$2,$3*
1,1,$1+$1,$4,$5*
1,1,$1+$1,$6,$7*
1,1,$1+$1,$8,$9*
0 Add four rect primitives between the rounded corners*
20,1,$1+$1,$2,$3,$4,$5,0*
20,1,$1+$1,$4,$5,$6,$7,0*
20,1,$1+$1,$6,$7,$8,$9,0*
20,1,$1+$1,$8,$9,$2,$3,0*%
G04 Aperture macros list end*
G04 #@! TA.AperFunction,ComponentPad*
%ADD10C,2.000000*%
G04 #@! TD*
G04 #@! TA.AperFunction,ComponentPad*
%ADD11RoundRect,0.190500X-1.079500X-0.444500X1.079500X-0.444500X1.079500X0.444500X-1.079500X0.444500X0*%
G04 #@! TD*
G04 #@! TA.AperFunction,ComponentPad*
%ADD12RoundRect,0.250000X0.750000X-0.500000X0.750000X0.500000X-0.750000X0.500000X-0.750000X-0.500000X0*%
G04 #@! TD*
G04 #@! TA.AperFunction,ComponentPad*
%ADD13RoundRect,0.250000X-0.500000X-0.750000X0.500000X-0.750000X0.500000X0.750000X-0.500000X0.750000X0*%
G04 #@! TD*
G04 #@! TA.AperFunction,ComponentPad*
%ADD14RoundRect,0.250000X0.500000X0.750000X-0.500000X0.750000X-0.500000X-0.750000X0.500000X-0.750000X0*%
G04 #@! TD*
G04 #@! TA.AperFunction,ComponentPad*
%ADD15RoundRect,0.249999X-0.850001X-0.850001X0.850001X-0.850001X0.850001X0.850001X-0.850001X0.850001X0*%
G04 #@! TD*
G04 #@! TA.AperFunction,ComponentPad*
%ADD16C,2.200000*%
G04 #@! TD*
G04 #@! TA.AperFunction,ViaPad*
%ADD17C,0.600000*%
G04 #@! TD*
G04 #@! TA.AperFunction,Conductor*
%ADD18C,0.500000*%
G04 #@! TD*
G04 APERTURE END LIST*
D10*
X145900000Y-117728000D03*
X148440000Y-117728000D03*
X138280000Y-114680000D03*
X140820000Y-114680000D03*
X143360000Y-114680000D03*
X145900000Y-114680000D03*
X150980000Y-114680000D03*
X138280000Y-129920000D03*
X140820000Y-129920000D03*
X143360000Y-129920000D03*
X145900000Y-129920000D03*
X148440000Y-129920000D03*
X153520000Y-129920000D03*
X153520000Y-114680000D03*
D11*
X122582000Y-110950000D03*
X122582000Y-98631000D03*
X151715800Y-110950000D03*
X151715800Y-98631000D03*
D12*
X154858000Y-104275000D03*
X154858000Y-102425000D03*
D13*
X149825000Y-95115000D03*
X147975000Y-95115000D03*
D14*
X125875000Y-95185000D03*
X127725000Y-95185000D03*
D12*
X118900500Y-104275000D03*
X118900500Y-102425000D03*
D15*
X144928000Y-121600000D03*
D16*
X154072000Y-121600000D03*
D10*
X120080000Y-114780000D03*
X122620000Y-114780000D03*
X130240000Y-114780000D03*
X132780000Y-114780000D03*
X135320000Y-114780000D03*
D17*
X148460682Y-125810682D03*
X136325000Y-125730000D03*
X141600000Y-104025000D03*
D18*
X144928000Y-118700000D02*
X144928000Y-121600000D01*
X136395000Y-125800000D02*
X148450000Y-125800000D01*
X136325000Y-125730000D02*
X136395000Y-125800000D01*
X154072000Y-120172000D02*
X154072000Y-121600000D01*
X144839000Y-110939000D02*
X154072000Y-120172000D01*
X141018000Y-110950000D02*
X122582000Y-110950000D01*
X141150000Y-110818000D02*
X141018000Y-110950000D01*
X141600000Y-110818000D02*
X141150000Y-110818000D01*
X148440000Y-125831364D02*
X148460682Y-125810682D01*
X141600000Y-110818000D02*
X141721000Y-110939000D01*
X141600000Y-104025000D02*
X141600000Y-110818000D01*
X144928000Y-118700000D02*
X145900000Y-117728000D01*
X140820000Y-129620000D02*
X140820000Y-129920000D01*
X152431000Y-98631000D02*
X151715800Y-98631000D01*
X153425000Y-114775000D02*
X153520000Y-114680000D01*
X140820000Y-129295000D02*
X140820000Y-129920000D01*
X143360000Y-129185000D02*
X143360000Y-129920000D01*
X132780000Y-114830000D02*
X132780000Y-114780000D01*
X130630000Y-114780000D02*
X130240000Y-114780000D01*
X138180000Y-114780000D02*
X138280000Y-114680000D01*
X138210000Y-129850000D02*
X138280000Y-129920000D01*
X150980000Y-114680000D02*
X150880000Y-114680000D01*
X141721000Y-110939000D02*
X144839000Y-110939000D01*
X120080000Y-114780000D02*
X120080000Y-113052000D01*
X118872000Y-104303500D02*
X118900500Y-104275000D01*
X120080000Y-113052000D02*
X122682000Y-110450000D01*
X122682000Y-110450000D02*
X118872000Y-106640000D01*
X118872000Y-106640000D02*
X118872000Y-104303500D01*
G04 #@! TA.AperFunction,Conductor*
G36*
X124986726Y-94120185D02*
G01*
X125032481Y-94172989D01*
X125042425Y-94242147D01*
X125031087Y-94278960D01*
X125008191Y-94325793D01*
X125008190Y-94325796D01*
X124997500Y-94399172D01*
X124997500Y-95970825D01*
X125008191Y-96044204D01*
X125063525Y-96157392D01*
X125152607Y-96246474D01*
X125152608Y-96246474D01*
X125152610Y-96246476D01*
X125265796Y-96301809D01*
X125339173Y-96312500D01*
X126410826Y-96312499D01*
X126484204Y-96301809D01*
X126597390Y-96246476D01*
X126686476Y-96157390D01*
X126688599Y-96153046D01*
X126735725Y-96101465D01*
X126803258Y-96083549D01*
X126869757Y-96104988D01*
X126911400Y-96153046D01*
X126913524Y-96157390D01*
X126913525Y-96157391D01*
X126913526Y-96157393D01*
X127002607Y-96246474D01*
X127002608Y-96246474D01*
X127002610Y-96246476D01*
X127115796Y-96301809D01*
X127189173Y-96312500D01*
X128260826Y-96312499D01*
X128334204Y-96301809D01*
X128447390Y-96246476D01*
X128536476Y-96157390D01*
X128591809Y-96044204D01*
X128602500Y-95970827D01*
X128602499Y-94399174D01*
X128591809Y-94325796D01*
X128568911Y-94278958D01*
X128557154Y-94210087D01*
X128584497Y-94145790D01*
X128642262Y-94106483D01*
X128680313Y-94100500D01*
X146988077Y-94100500D01*
X147055116Y-94120185D01*
X147100871Y-94172989D01*
X147110815Y-94242147D01*
X147109011Y-94250163D01*
X147097500Y-94329172D01*
X147097500Y-95900825D01*
X147108191Y-95974204D01*
X147163525Y-96087392D01*
X147252607Y-96176474D01*
X147252608Y-96176474D01*
X147252610Y-96176476D01*
X147365796Y-96231809D01*
X147439173Y-96242500D01*
X148510826Y-96242499D01*
X148584204Y-96231809D01*
X148697390Y-96176476D01*
X148786476Y-96087390D01*
X148788599Y-96083046D01*
X148835725Y-96031465D01*
X148903258Y-96013549D01*
X148969757Y-96034988D01*
X149011400Y-96083046D01*
X149013524Y-96087390D01*
X149013525Y-96087391D01*
X149013526Y-96087393D01*
X149102607Y-96176474D01*
X149102608Y-96176474D01*
X149102610Y-96176476D01*
X149215796Y-96231809D01*
X149289173Y-96242500D01*
X150360826Y-96242499D01*
X150434204Y-96231809D01*
X150547390Y-96176476D01*
X150636476Y-96087390D01*
X150691809Y-95974204D01*
X150702500Y-95900827D01*
X150702499Y-94465843D01*
X150722184Y-94398805D01*
X150774987Y-94353050D01*
X150844146Y-94343106D01*
X150907702Y-94372131D01*
X150921598Y-94386270D01*
X156340731Y-100863459D01*
X156442604Y-100985222D01*
X156470525Y-101049271D01*
X156471500Y-101064791D01*
X156471500Y-133233500D01*
X156451815Y-133300539D01*
X156399011Y-133346294D01*
X156347500Y-133357500D01*
X117724500Y-133357500D01*
X117657461Y-133337815D01*
X117611706Y-133285011D01*
X117600500Y-133233500D01*
X117600500Y-129737920D01*
X121983499Y-129737920D01*
X122012340Y-129882907D01*
X122012343Y-129882917D01*
X122068912Y-130019488D01*
X122068919Y-130019501D01*
X122151048Y-130142415D01*
X122151051Y-130142419D01*
X122255580Y-130246948D01*
X122255584Y-130246951D01*
X122378498Y-130329080D01*
X122378511Y-130329087D01*
X122515082Y-130385656D01*
X122515087Y-130385658D01*
X122515091Y-130385658D01*
X122515092Y-130385659D01*
X122660079Y-130414500D01*
X122660082Y-130414500D01*
X122807920Y-130414500D01*
X122905462Y-130395096D01*
X122952913Y-130385658D01*
X123089495Y-130329084D01*
X123212416Y-130246951D01*
X123316951Y-130142416D01*
X123399084Y-130019495D01*
X123455658Y-129882913D01*
X123465932Y-129831264D01*
X137152500Y-129831264D01*
X137152500Y-130008735D01*
X137180263Y-130184024D01*
X137180263Y-130184027D01*
X137235103Y-130352807D01*
X137315678Y-130510942D01*
X137419985Y-130654510D01*
X137419989Y-130654515D01*
X137545484Y-130780010D01*
X137545489Y-130780014D01*
X137670716Y-130870996D01*
X137689061Y-130884324D01*
X137847190Y-130964895D01*
X137847192Y-130964896D01*
X138015973Y-131019736D01*
X138015974Y-131019736D01*
X138015977Y-131019737D01*
X138191264Y-131047500D01*
X138191265Y-131047500D01*
X138368735Y-131047500D01*
X138368736Y-131047500D01*
X138544023Y-131019737D01*
X138544026Y-131019736D01*
X138544027Y-131019736D01*
X138712807Y-130964896D01*
X138712807Y-130964895D01*
X138712810Y-130964895D01*
X138870939Y-130884324D01*
X139014517Y-130780009D01*
X139140009Y-130654517D01*
X139244324Y-130510939D01*
X139324895Y-130352810D01*
X139379737Y-130184023D01*
X139407500Y-130008736D01*
X139407500Y-129831264D01*
X139692500Y-129831264D01*
X139692500Y-130008735D01*
X139720263Y-130184024D01*
X139720263Y-130184027D01*
X139775103Y-130352807D01*
X139855678Y-130510942D01*
X139959985Y-130654510D01*
X139959989Y-130654515D01*
X140085484Y-130780010D01*
X140085489Y-130780014D01*
X140210716Y-130870996D01*
X140229061Y-130884324D01*
X140387190Y-130964895D01*
X140387192Y-130964896D01*
X140555973Y-131019736D01*
X140555974Y-131019736D01*
X140555977Y-131019737D01*
X140731264Y-131047500D01*
X140731265Y-131047500D01*
X140908735Y-131047500D01*
X140908736Y-131047500D01*
X141084023Y-131019737D01*
X141084026Y-131019736D01*
X141084027Y-131019736D01*
X141252807Y-130964896D01*
X141252807Y-130964895D01*
X141252810Y-130964895D01*
X141410939Y-130884324D01*
X141554517Y-130780009D01*
X141680009Y-130654517D01*
X141784324Y-130510939D01*
X141864895Y-130352810D01*
X141919737Y-130184023D01*
X141947500Y-130008736D01*
X141947500Y-129831264D01*
X142232500Y-129831264D01*
X142232500Y-130008735D01*
X142260263Y-130184024D01*
X142260263Y-130184027D01*
X142315103Y-130352807D01*
X142395678Y-130510942D01*
X142499985Y-130654510D01*
X142499989Y-130654515D01*
X142625484Y-130780010D01*
X142625489Y-130780014D01*
X142750716Y-130870996D01*
X142769061Y-130884324D01*
X142927190Y-130964895D01*
X142927192Y-130964896D01*
X143095973Y-131019736D01*
X143095974Y-131019736D01*
X143095977Y-131019737D01*
X143271264Y-131047500D01*
X143271265Y-131047500D01*
X143448735Y-131047500D01*
X143448736Y-131047500D01*
X143624023Y-131019737D01*
X143624026Y-131019736D01*
X143624027Y-131019736D01*
X143792807Y-130964896D01*
X143792807Y-130964895D01*
X143792810Y-130964895D01*
X143950939Y-130884324D01*
X144094517Y-130780009D01*
X144220009Y-130654517D01*
X144324324Y-130510939D01*
X144404895Y-130352810D01*
X144459737Y-130184023D01*
X144487500Y-130008736D01*
X144487500Y-129831264D01*
X144772500Y-129831264D01*
X144772500Y-130008735D01*
X144800263Y-130184024D01*
X144800263Y-130184027D01*
X144855103Y-130352807D01*
X144935678Y-130510942D01*
X145039985Y-130654510D01*
X145039989Y-130654515D01*
X145165484Y-130780010D01*
X145165489Y-130780014D01*
X145290716Y-130870996D01*
X145309061Y-130884324D01*
X145467190Y-130964895D01*
X145467192Y-130964896D01*
X145635973Y-131019736D01*
X145635974Y-131019736D01*
X145635977Y-131019737D01*
X145811264Y-131047500D01*
X145811265Y-131047500D01*
X145988735Y-131047500D01*
X145988736Y-131047500D01*
X146164023Y-131019737D01*
X146164026Y-131019736D01*
X146164027Y-131019736D01*
X146332807Y-130964896D01*
X146332807Y-130964895D01*
X146332810Y-130964895D01*
X146490939Y-130884324D01*
X146634517Y-130780009D01*
X146760009Y-130654517D01*
X146864324Y-130510939D01*
X146944895Y-130352810D01*
X146999737Y-130184023D01*
X147027500Y-130008736D01*
X147027500Y-129831264D01*
X147312500Y-129831264D01*
X147312500Y-130008735D01*
X147340263Y-130184024D01*
X147340263Y-130184027D01*
X147395103Y-130352807D01*
X147475678Y-130510942D01*
X147579985Y-130654510D01*
X147579989Y-130654515D01*
X147705484Y-130780010D01*
X147705489Y-130780014D01*
X147830716Y-130870996D01*
X147849061Y-130884324D01*
X148007190Y-130964895D01*
X148007192Y-130964896D01*
X148175973Y-131019736D01*
X148175974Y-131019736D01*
X148175977Y-131019737D01*
X148351264Y-131047500D01*
X148351265Y-131047500D01*
X148528735Y-131047500D01*
X148528736Y-131047500D01*
X148704023Y-131019737D01*
X148704026Y-131019736D01*
X148704027Y-131019736D01*
X148872807Y-130964896D01*
X148872807Y-130964895D01*
X148872810Y-130964895D01*
X149030939Y-130884324D01*
X149174517Y-130780009D01*
X149300009Y-130654517D01*
X149404324Y-130510939D01*
X149484895Y-130352810D01*
X149539737Y-130184023D01*
X149567500Y-130008736D01*
X149567500Y-129831264D01*
X152392500Y-129831264D01*
X152392500Y-130008735D01*
X152420263Y-130184024D01*
X152420263Y-130184027D01*
X152475103Y-130352807D01*
X152555678Y-130510942D01*
X152659985Y-130654510D01*
X152659989Y-130654515D01*
X152785484Y-130780010D01*
X152785489Y-130780014D01*
X152910716Y-130870996D01*
X152929061Y-130884324D01*
X153087190Y-130964895D01*
X153087192Y-130964896D01*
X153255973Y-131019736D01*
X153255974Y-131019736D01*
X153255977Y-131019737D01*
X153431264Y-131047500D01*
X153431265Y-131047500D01*
X153608735Y-131047500D01*
X153608736Y-131047500D01*
X153784023Y-131019737D01*
X153784026Y-131019736D01*
X153784027Y-131019736D01*
X153952807Y-130964896D01*
X153952807Y-130964895D01*
X153952810Y-130964895D01*
X154110939Y-130884324D01*
X154254517Y-130780009D01*
X154380009Y-130654517D01*
X154484324Y-130510939D01*
X154564895Y-130352810D01*
X154619737Y-130184023D01*
X154647500Y-130008736D01*
X154647500Y-129831264D01*
X154619737Y-129655977D01*
X154619736Y-129655973D01*
X154619736Y-129655972D01*
X154564896Y-129487192D01*
X154543440Y-129445082D01*
X154484324Y-129329061D01*
X154469384Y-129308498D01*
X154380014Y-129185489D01*
X154380010Y-129185484D01*
X154254515Y-129059989D01*
X154254510Y-129059985D01*
X154110942Y-128955678D01*
X154110941Y-128955677D01*
X154110939Y-128955676D01*
X154028164Y-128913500D01*
X153952807Y-128875103D01*
X153784026Y-128820263D01*
X153652557Y-128799440D01*
X153608736Y-128792500D01*
X153431264Y-128792500D01*
X153372835Y-128801754D01*
X153255975Y-128820263D01*
X153255972Y-128820263D01*
X153087192Y-128875103D01*
X152929057Y-128955678D01*
X152785489Y-129059985D01*
X152785484Y-129059989D01*
X152659989Y-129185484D01*
X152659985Y-129185489D01*
X152555678Y-129329057D01*
X152475103Y-129487192D01*
X152420263Y-129655972D01*
X152420263Y-129655975D01*
X152392500Y-129831264D01*
X149567500Y-129831264D01*
X149539737Y-129655977D01*
X149539736Y-129655973D01*
X149539736Y-129655972D01*
X149484896Y-129487192D01*
X149463440Y-129445082D01*
X149404324Y-129329061D01*
X149389384Y-129308498D01*
X149300014Y-129185489D01*
X149300010Y-129185484D01*
X149174515Y-129059989D01*
X149174510Y-129059985D01*
X149030942Y-128955678D01*
X149030941Y-128955677D01*
X149030939Y-128955676D01*
X148948164Y-128913500D01*
X148872807Y-128875103D01*
X148704026Y-128820263D01*
X148572557Y-128799440D01*
X148528736Y-128792500D01*
X148351264Y-128792500D01*
X148292835Y-128801754D01*
X148175975Y-128820263D01*
X148175972Y-128820263D01*
X148007192Y-128875103D01*
X147849057Y-128955678D01*
X147705489Y-129059985D01*
X147705484Y-129059989D01*
X147579989Y-129185484D01*
X147579985Y-129185489D01*
X147475678Y-129329057D01*
X147395103Y-129487192D01*
X147340263Y-129655972D01*
X147340263Y-129655975D01*
X147312500Y-129831264D01*
X147027500Y-129831264D01*
X146999737Y-129655977D01*
X146999736Y-129655973D01*
X146999736Y-129655972D01*
X146944896Y-129487192D01*
X146923440Y-129445082D01*
X146864324Y-129329061D01*
X146849384Y-129308498D01*
X146760014Y-129185489D01*
X146760010Y-129185484D01*
X146634515Y-129059989D01*
X146634510Y-129059985D01*
X146490942Y-128955678D01*
X146490941Y-128955677D01*
X146490939Y-128955676D01*
X146408164Y-128913500D01*
X146332807Y-128875103D01*
X146164026Y-128820263D01*
X146032557Y-128799440D01*
X145988736Y-128792500D01*
X145811264Y-128792500D01*
X145752835Y-128801754D01*
X145635975Y-128820263D01*
X145635972Y-128820263D01*
X145467192Y-128875103D01*
X145309057Y-128955678D01*
X145165489Y-129059985D01*
X145165484Y-129059989D01*
X145039989Y-129185484D01*
X145039985Y-129185489D01*
X144935678Y-129329057D01*
X144855103Y-129487192D01*
X144800263Y-129655972D01*
X144800263Y-129655975D01*
X144772500Y-129831264D01*
X144487500Y-129831264D01*
X144459737Y-129655977D01*
X144459736Y-129655973D01*
X144459736Y-129655972D01*
X144404896Y-129487192D01*
X144383440Y-129445082D01*
X144324324Y-129329061D01*
X144309384Y-129308498D01*
X144220014Y-129185489D01*
X144220010Y-129185484D01*
X144094515Y-129059989D01*
X144094510Y-129059985D01*
X143950942Y-128955678D01*
X143950941Y-128955677D01*
X143950939Y-128955676D01*
X143868164Y-128913500D01*
X143792807Y-128875103D01*
X143624026Y-128820263D01*
X143492557Y-128799440D01*
X143448736Y-128792500D01*
X143271264Y-128792500D01*
X143212835Y-128801754D01*
X143095975Y-128820263D01*
X143095972Y-128820263D01*
X142927192Y-128875103D01*
X142769057Y-128955678D01*
X142625489Y-129059985D01*
X142625484Y-129059989D01*
X142499989Y-129185484D01*
X142499985Y-129185489D01*
X142395678Y-129329057D01*
X142315103Y-129487192D01*
X142260263Y-129655972D01*
X142260263Y-129655975D01*
X142232500Y-129831264D01*
X141947500Y-129831264D01*
X141919737Y-129655977D01*
X141919736Y-129655973D01*
X141919736Y-129655972D01*
X141864896Y-129487192D01*
X141843440Y-129445082D01*
X141784324Y-129329061D01*
X141769384Y-129308498D01*
X141680014Y-129185489D01*
X141680010Y-129185484D01*
X141554515Y-129059989D01*
X141554510Y-129059985D01*
X141410942Y-128955678D01*
X141410941Y-128955677D01*
X141410939Y-128955676D01*
X141328164Y-128913500D01*
X141252807Y-128875103D01*
X141084026Y-128820263D01*
X140952557Y-128799440D01*
X140908736Y-128792500D01*
X140731264Y-128792500D01*
X140672835Y-128801754D01*
X140555975Y-128820263D01*
X140555972Y-128820263D01*
X140387192Y-128875103D01*
X140229057Y-128955678D01*
X140085489Y-129059985D01*
X140085484Y-129059989D01*
X139959989Y-129185484D01*
X139959985Y-129185489D01*
X139855678Y-129329057D01*
X139775103Y-129487192D01*
X139720263Y-129655972D01*
X139720263Y-129655975D01*
X139692500Y-129831264D01*
X139407500Y-129831264D01*
X139379737Y-129655977D01*
X139379736Y-129655973D01*
X139379736Y-129655972D01*
X139324896Y-129487192D01*
X139303440Y-129445082D01*
X139244324Y-129329061D01*
X139229384Y-129308498D01*
X139140014Y-129185489D01*
X139140010Y-129185484D01*
X139014515Y-129059989D01*
X139014510Y-129059985D01*
X138870942Y-128955678D01*
X138870941Y-128955677D01*
X138870939Y-128955676D01*
X138788164Y-128913500D01*
X138712807Y-128875103D01*
X138544026Y-128820263D01*
X138412557Y-128799440D01*
X138368736Y-128792500D01*
X138191264Y-128792500D01*
X138132835Y-128801754D01*
X138015975Y-128820263D01*
X138015972Y-128820263D01*
X137847192Y-128875103D01*
X137689057Y-128955678D01*
X137545489Y-129059985D01*
X137545484Y-129059989D01*
X137419989Y-129185484D01*
X137419985Y-129185489D01*
X137315678Y-129329057D01*
X137235103Y-129487192D01*
X137180263Y-129655972D01*
X137180263Y-129655975D01*
X137152500Y-129831264D01*
X123465932Y-129831264D01*
X123471714Y-129802200D01*
X123471714Y-129802199D01*
X123484499Y-129737922D01*
X123484500Y-129737920D01*
X123484500Y-129590079D01*
X123455659Y-129445092D01*
X123455658Y-129445091D01*
X123455658Y-129445087D01*
X123407597Y-129329057D01*
X123399087Y-129308511D01*
X123399080Y-129308498D01*
X123316951Y-129185584D01*
X123316948Y-129185580D01*
X123212419Y-129081051D01*
X123212415Y-129081048D01*
X123089501Y-128998919D01*
X123089488Y-128998912D01*
X122952917Y-128942343D01*
X122952907Y-128942340D01*
X122807920Y-128913500D01*
X122807918Y-128913500D01*
X122660082Y-128913500D01*
X122660080Y-128913500D01*
X122515092Y-128942340D01*
X122515082Y-128942343D01*
X122378511Y-128998912D01*
X122378498Y-128998919D01*
X122255584Y-129081048D01*
X122255580Y-129081051D01*
X122151051Y-129185580D01*
X122151048Y-129185584D01*
X122068919Y-129308498D01*
X122068912Y-129308511D01*
X122012343Y-129445082D01*
X122012340Y-129445092D01*
X121983500Y-129590079D01*
X121983500Y-129590082D01*
X121983500Y-129737918D01*
X121983500Y-129737920D01*
X121983499Y-129737920D01*
X117600500Y-129737920D01*
X117600500Y-125673719D01*
X135897500Y-125673719D01*
X135897500Y-125786280D01*
X135926633Y-125895010D01*
X135954774Y-125943750D01*
X135982915Y-125992491D01*
X136062509Y-126072085D01*
X136159991Y-126128367D01*
X136268719Y-126157500D01*
X136268721Y-126157500D01*
X136272852Y-126158607D01*
X136280367Y-126160101D01*
X136345301Y-126177500D01*
X136444699Y-126177500D01*
X148207803Y-126177500D01*
X148269804Y-126194114D01*
X148295667Y-126209046D01*
X148295669Y-126209047D01*
X148295670Y-126209047D01*
X148295673Y-126209049D01*
X148404401Y-126238182D01*
X148404403Y-126238182D01*
X148516961Y-126238182D01*
X148516963Y-126238182D01*
X148625691Y-126209049D01*
X148723173Y-126152767D01*
X148802767Y-126073173D01*
X148859049Y-125975691D01*
X148888182Y-125866963D01*
X148888182Y-125754401D01*
X148859049Y-125645673D01*
X148802767Y-125548191D01*
X148723173Y-125468597D01*
X148643332Y-125422500D01*
X148625692Y-125412315D01*
X148552881Y-125392806D01*
X148516963Y-125383182D01*
X148404401Y-125383182D01*
X148331129Y-125402815D01*
X148295666Y-125412317D01*
X148293868Y-125413062D01*
X148290058Y-125413819D01*
X148287822Y-125414419D01*
X148287782Y-125414272D01*
X148246419Y-125422500D01*
X136673438Y-125422500D01*
X136606399Y-125402815D01*
X136593979Y-125392806D01*
X136593937Y-125392862D01*
X136587493Y-125387917D01*
X136587491Y-125387915D01*
X136538750Y-125359774D01*
X136490010Y-125331633D01*
X136435645Y-125317066D01*
X136381281Y-125302500D01*
X136268719Y-125302500D01*
X136159989Y-125331633D01*
X136062509Y-125387915D01*
X136062506Y-125387917D01*
X135982917Y-125467506D01*
X135982915Y-125467509D01*
X135926633Y-125564989D01*
X135897500Y-125673719D01*
X117600500Y-125673719D01*
X117600500Y-121737920D01*
X121983499Y-121737920D01*
X122012340Y-121882907D01*
X122012343Y-121882917D01*
X122068912Y-122019488D01*
X122068919Y-122019501D01*
X122151048Y-122142415D01*
X122151051Y-122142419D01*
X122255580Y-122246948D01*
X122255584Y-122246951D01*
X122378498Y-122329080D01*
X122378511Y-122329087D01*
X122515082Y-122385656D01*
X122515087Y-122385658D01*
X122515091Y-122385658D01*
X122515092Y-122385659D01*
X122660079Y-122414500D01*
X122660082Y-122414500D01*
X122807920Y-122414500D01*
X122905462Y-122395096D01*
X122952913Y-122385658D01*
X123089495Y-122329084D01*
X123212416Y-122246951D01*
X123316951Y-122142416D01*
X123399084Y-122019495D01*
X123455658Y-121882913D01*
X123484500Y-121737918D01*
X123484500Y-121590082D01*
X123484500Y-121590079D01*
X123455659Y-121445092D01*
X123455658Y-121445091D01*
X123455658Y-121445087D01*
X123400763Y-121312558D01*
X123399087Y-121308511D01*
X123399080Y-121308498D01*
X123316951Y-121185584D01*
X123316948Y-121185580D01*
X123212419Y-121081051D01*
X123212415Y-121081048D01*
X123089501Y-120998919D01*
X123089488Y-120998912D01*
X122952917Y-120942343D01*
X122952907Y-120942340D01*
X122807920Y-120913500D01*
X122807918Y-120913500D01*
X122660082Y-120913500D01*
X122660080Y-120913500D01*
X122515092Y-120942340D01*
X122515082Y-120942343D01*
X122378511Y-120998912D01*
X122378498Y-120998919D01*
X122255584Y-121081048D01*
X122255580Y-121081051D01*
X122151051Y-121185580D01*
X122151048Y-121185584D01*
X122068919Y-121308498D01*
X122068912Y-121308511D01*
X122012343Y-121445082D01*
X122012340Y-121445092D01*
X121983500Y-121590079D01*
X121983500Y-121590082D01*
X121983500Y-121737918D01*
X121983500Y-121737920D01*
X121983499Y-121737920D01*
X117600500Y-121737920D01*
X117600500Y-120714171D01*
X143700500Y-120714171D01*
X143700500Y-122485828D01*
X143711190Y-122559204D01*
X143766524Y-122672391D01*
X143855608Y-122761475D01*
X143968795Y-122816809D01*
X144042171Y-122827500D01*
X144042172Y-122827500D01*
X145813829Y-122827500D01*
X145850516Y-122822154D01*
X145887205Y-122816809D01*
X146000390Y-122761476D01*
X146089476Y-122672390D01*
X146144809Y-122559205D01*
X146155500Y-122485828D01*
X146155500Y-120714172D01*
X146144809Y-120640795D01*
X146089476Y-120527610D01*
X146089475Y-120527609D01*
X146089475Y-120527608D01*
X146000391Y-120438524D01*
X145887204Y-120383190D01*
X145813829Y-120372500D01*
X145813828Y-120372500D01*
X145429500Y-120372500D01*
X145362461Y-120352815D01*
X145316706Y-120300011D01*
X145305500Y-120248500D01*
X145305500Y-118907727D01*
X145314142Y-118878295D01*
X145320665Y-118848304D01*
X145324422Y-118843283D01*
X145325185Y-118840688D01*
X145341812Y-118820052D01*
X145354420Y-118807444D01*
X145415739Y-118773959D01*
X145480417Y-118777192D01*
X145597689Y-118815296D01*
X145635976Y-118827737D01*
X145717746Y-118840688D01*
X145811264Y-118855500D01*
X145811265Y-118855500D01*
X145988735Y-118855500D01*
X145988736Y-118855500D01*
X146164023Y-118827737D01*
X146164026Y-118827736D01*
X146164027Y-118827736D01*
X146294116Y-118785468D01*
X146332807Y-118772896D01*
X146332807Y-118772895D01*
X146332810Y-118772895D01*
X146490939Y-118692324D01*
X146634517Y-118588009D01*
X146760009Y-118462517D01*
X146858997Y-118326269D01*
X146914325Y-118283606D01*
X146983938Y-118277627D01*
X147045734Y-118310232D01*
X147069799Y-118342862D01*
X147157087Y-118514174D01*
X147217338Y-118597104D01*
X147217340Y-118597105D01*
X148018274Y-117796171D01*
X148043963Y-117892044D01*
X148099916Y-117988956D01*
X148179044Y-118068084D01*
X148275956Y-118124037D01*
X148371828Y-118149725D01*
X147570893Y-118950658D01*
X147653828Y-119010914D01*
X147864197Y-119118102D01*
X148088752Y-119191065D01*
X148088751Y-119191065D01*
X148321948Y-119228000D01*
X148558052Y-119228000D01*
X148791247Y-119191065D01*
X149015802Y-119118102D01*
X149226163Y-119010918D01*
X149226169Y-119010914D01*
X149309104Y-118950658D01*
X149309105Y-118950658D01*
X148508171Y-118149725D01*
X148604044Y-118124037D01*
X148700956Y-118068084D01*
X148780084Y-117988956D01*
X148836037Y-117892044D01*
X148861725Y-117796172D01*
X149662658Y-118597105D01*
X149662658Y-118597104D01*
X149722914Y-118514169D01*
X149722918Y-118514163D01*
X149830102Y-118303802D01*
X149903065Y-118079247D01*
X149940000Y-117846052D01*
X149940000Y-117609947D01*
X149903065Y-117376752D01*
X149830102Y-117152197D01*
X149722914Y-116941828D01*
X149662658Y-116858894D01*
X149662658Y-116858893D01*
X148861725Y-117659827D01*
X148836037Y-117563956D01*
X148780084Y-117467044D01*
X148700956Y-117387916D01*
X148604044Y-117331963D01*
X148508172Y-117306274D01*
X149309105Y-116505340D01*
X149309104Y-116505338D01*
X149226174Y-116445087D01*
X149015802Y-116337897D01*
X148791247Y-116264934D01*
X148791248Y-116264934D01*
X148558052Y-116228000D01*
X148321948Y-116228000D01*
X148088752Y-116264934D01*
X147864197Y-116337897D01*
X147653830Y-116445084D01*
X147570894Y-116505340D01*
X148371828Y-117306274D01*
X148275956Y-117331963D01*
X148179044Y-117387916D01*
X148099916Y-117467044D01*
X148043963Y-117563956D01*
X148018274Y-117659828D01*
X147217340Y-116858894D01*
X147157084Y-116941830D01*
X147069799Y-117113137D01*
X147021824Y-117163933D01*
X146954003Y-117180728D01*
X146887868Y-117158190D01*
X146858996Y-117129727D01*
X146760014Y-116993488D01*
X146634515Y-116867989D01*
X146634510Y-116867985D01*
X146490942Y-116763678D01*
X146490941Y-116763677D01*
X146490939Y-116763676D01*
X146411874Y-116723390D01*
X146332807Y-116683103D01*
X146294110Y-116670530D01*
X146164026Y-116628263D01*
X146032557Y-116607440D01*
X145988736Y-116600500D01*
X145811264Y-116600500D01*
X145752835Y-116609754D01*
X145635975Y-116628263D01*
X145635972Y-116628263D01*
X145467192Y-116683103D01*
X145309057Y-116763678D01*
X145165489Y-116867985D01*
X145165484Y-116867989D01*
X145039989Y-116993484D01*
X145039985Y-116993489D01*
X144935678Y-117137057D01*
X144855103Y-117295192D01*
X144800263Y-117463972D01*
X144800263Y-117463975D01*
X144772500Y-117639264D01*
X144772500Y-117816735D01*
X144800263Y-117992024D01*
X144800263Y-117992027D01*
X144850805Y-118147579D01*
X144852800Y-118217420D01*
X144820556Y-118273578D01*
X144625925Y-118468210D01*
X144576225Y-118554291D01*
X144576225Y-118554294D01*
X144550500Y-118650301D01*
X144550500Y-120248500D01*
X144530815Y-120315539D01*
X144478011Y-120361294D01*
X144426500Y-120372500D01*
X144042171Y-120372500D01*
X143968795Y-120383190D01*
X143855608Y-120438524D01*
X143766524Y-120527608D01*
X143711190Y-120640795D01*
X143700500Y-120714171D01*
X117600500Y-120714171D01*
X117600500Y-105045461D01*
X117620185Y-104978422D01*
X117672989Y-104932667D01*
X117742147Y-104922723D01*
X117805703Y-104951748D01*
X117835901Y-104991002D01*
X117839024Y-104997391D01*
X117928107Y-105086474D01*
X117928108Y-105086474D01*
X117928110Y-105086476D01*
X118041296Y-105141809D01*
X118114673Y-105152500D01*
X118370501Y-105152499D01*
X118437539Y-105172183D01*
X118483294Y-105224987D01*
X118494500Y-105276499D01*
X118494500Y-106590301D01*
X118494500Y-106689699D01*
X118520226Y-106785710D01*
X118569925Y-106871790D01*
X118569927Y-106871792D01*
X121673953Y-109975819D01*
X121707438Y-110037142D01*
X121702454Y-110106834D01*
X121660582Y-110162767D01*
X121595118Y-110187184D01*
X121586272Y-110187500D01*
X121465236Y-110187500D01*
X121465230Y-110187500D01*
X121465226Y-110187501D01*
X121418927Y-110193596D01*
X121317288Y-110240991D01*
X121237991Y-110320288D01*
X121190596Y-110421927D01*
X121184501Y-110468226D01*
X121184500Y-110468236D01*
X121184500Y-111362272D01*
X121164815Y-111429311D01*
X121148181Y-111449953D01*
X119777927Y-112820207D01*
X119777925Y-112820210D01*
X119728225Y-112906291D01*
X119728225Y-112906294D01*
X119702500Y-113002301D01*
X119702500Y-113630936D01*
X119682815Y-113697975D01*
X119634796Y-113741420D01*
X119572186Y-113773321D01*
X119489056Y-113815678D01*
X119345489Y-113919985D01*
X119345484Y-113919989D01*
X119219989Y-114045484D01*
X119219985Y-114045489D01*
X119115678Y-114189057D01*
X119035103Y-114347192D01*
X118980263Y-114515972D01*
X118980263Y-114515975D01*
X118952500Y-114691264D01*
X118952500Y-114868735D01*
X118980263Y-115044024D01*
X118980263Y-115044027D01*
X119035103Y-115212807D01*
X119035105Y-115212810D01*
X119107963Y-115355802D01*
X119115678Y-115370942D01*
X119219985Y-115514510D01*
X119219989Y-115514515D01*
X119345484Y-115640010D01*
X119345489Y-115640014D01*
X119470716Y-115730996D01*
X119489061Y-115744324D01*
X119647190Y-115824895D01*
X119647192Y-115824896D01*
X119815973Y-115879736D01*
X119815974Y-115879736D01*
X119815977Y-115879737D01*
X119991264Y-115907500D01*
X119991265Y-115907500D01*
X120168735Y-115907500D01*
X120168736Y-115907500D01*
X120344023Y-115879737D01*
X120344026Y-115879736D01*
X120344027Y-115879736D01*
X120474116Y-115837468D01*
X120512807Y-115824896D01*
X120512807Y-115824895D01*
X120512810Y-115824895D01*
X120670939Y-115744324D01*
X120814517Y-115640009D01*
X120940009Y-115514517D01*
X121038997Y-115378269D01*
X121094325Y-115335606D01*
X121163938Y-115329627D01*
X121225734Y-115362232D01*
X121249799Y-115394862D01*
X121337087Y-115566174D01*
X121397338Y-115649104D01*
X121397340Y-115649105D01*
X122198274Y-114848171D01*
X122223963Y-114944044D01*
X122279916Y-115040956D01*
X122359044Y-115120084D01*
X122455956Y-115176037D01*
X122551828Y-115201725D01*
X121750893Y-116002658D01*
X121833828Y-116062914D01*
X122044197Y-116170102D01*
X122268752Y-116243065D01*
X122268751Y-116243065D01*
X122501948Y-116280000D01*
X122738052Y-116280000D01*
X122971247Y-116243065D01*
X123195802Y-116170102D01*
X123406163Y-116062918D01*
X123406169Y-116062914D01*
X123489104Y-116002658D01*
X123489105Y-116002658D01*
X122688171Y-115201725D01*
X122784044Y-115176037D01*
X122880956Y-115120084D01*
X122960084Y-115040956D01*
X123016037Y-114944044D01*
X123041725Y-114848171D01*
X123842658Y-115649105D01*
X123842658Y-115649104D01*
X123902914Y-115566169D01*
X123902918Y-115566163D01*
X124010102Y-115355802D01*
X124083065Y-115131247D01*
X124120000Y-114898052D01*
X124120000Y-114691264D01*
X129112500Y-114691264D01*
X129112500Y-114868735D01*
X129140263Y-115044024D01*
X129140263Y-115044027D01*
X129195103Y-115212807D01*
X129195105Y-115212810D01*
X129267963Y-115355802D01*
X129275678Y-115370942D01*
X129379985Y-115514510D01*
X129379989Y-115514515D01*
X129505484Y-115640010D01*
X129505489Y-115640014D01*
X129630716Y-115730996D01*
X129649061Y-115744324D01*
X129807190Y-115824895D01*
X129807192Y-115824896D01*
X129975973Y-115879736D01*
X129975974Y-115879736D01*
X129975977Y-115879737D01*
X130151264Y-115907500D01*
X130151265Y-115907500D01*
X130328735Y-115907500D01*
X130328736Y-115907500D01*
X130504023Y-115879737D01*
X130504026Y-115879736D01*
X130504027Y-115879736D01*
X130672807Y-115824896D01*
X130672807Y-115824895D01*
X130672810Y-115824895D01*
X130830939Y-115744324D01*
X130974517Y-115640009D01*
X131100009Y-115514517D01*
X131204324Y-115370939D01*
X131284895Y-115212810D01*
X131311396Y-115131247D01*
X131339736Y-115044027D01*
X131339736Y-115044026D01*
X131339737Y-115044023D01*
X131367500Y-114868736D01*
X131367500Y-114691264D01*
X131652500Y-114691264D01*
X131652500Y-114868735D01*
X131680263Y-115044024D01*
X131680263Y-115044027D01*
X131735103Y-115212807D01*
X131735105Y-115212810D01*
X131807963Y-115355802D01*
X131815678Y-115370942D01*
X131919985Y-115514510D01*
X131919989Y-115514515D01*
X132045484Y-115640010D01*
X132045489Y-115640014D01*
X132170716Y-115730996D01*
X132189061Y-115744324D01*
X132347190Y-115824895D01*
X132347192Y-115824896D01*
X132515973Y-115879736D01*
X132515974Y-115879736D01*
X132515977Y-115879737D01*
X132691264Y-115907500D01*
X132691265Y-115907500D01*
X132868735Y-115907500D01*
X132868736Y-115907500D01*
X133044023Y-115879737D01*
X133044026Y-115879736D01*
X133044027Y-115879736D01*
X133212807Y-115824896D01*
X133212807Y-115824895D01*
X133212810Y-115824895D01*
X133370939Y-115744324D01*
X133514517Y-115640009D01*
X133640009Y-115514517D01*
X133744324Y-115370939D01*
X133824895Y-115212810D01*
X133851396Y-115131247D01*
X133879736Y-115044027D01*
X133879736Y-115044026D01*
X133879737Y-115044023D01*
X133907500Y-114868736D01*
X133907500Y-114691264D01*
X134192500Y-114691264D01*
X134192500Y-114868735D01*
X134220263Y-115044024D01*
X134220263Y-115044027D01*
X134275103Y-115212807D01*
X134275105Y-115212810D01*
X134347963Y-115355802D01*
X134355678Y-115370942D01*
X134459985Y-115514510D01*
X134459989Y-115514515D01*
X134585484Y-115640010D01*
X134585489Y-115640014D01*
X134710716Y-115730996D01*
X134729061Y-115744324D01*
X134887190Y-115824895D01*
X134887192Y-115824896D01*
X135055973Y-115879736D01*
X135055974Y-115879736D01*
X135055977Y-115879737D01*
X135231264Y-115907500D01*
X135231265Y-115907500D01*
X135408735Y-115907500D01*
X135408736Y-115907500D01*
X135584023Y-115879737D01*
X135584026Y-115879736D01*
X135584027Y-115879736D01*
X135752807Y-115824896D01*
X135752807Y-115824895D01*
X135752810Y-115824895D01*
X135910939Y-115744324D01*
X136054517Y-115640009D01*
X136180009Y-115514517D01*
X136284324Y-115370939D01*
X136364895Y-115212810D01*
X136391396Y-115131247D01*
X136419736Y-115044027D01*
X136419736Y-115044026D01*
X136419737Y-115044023D01*
X136447500Y-114868736D01*
X136447500Y-114691264D01*
X136431661Y-114591264D01*
X137152500Y-114591264D01*
X137152500Y-114768735D01*
X137180263Y-114944024D01*
X137180263Y-114944027D01*
X137235103Y-115112807D01*
X137315678Y-115270942D01*
X137419985Y-115414510D01*
X137419989Y-115414515D01*
X137545484Y-115540010D01*
X137545489Y-115540014D01*
X137581489Y-115566169D01*
X137689061Y-115644324D01*
X137847186Y-115724893D01*
X137847192Y-115724896D01*
X138015973Y-115779736D01*
X138015974Y-115779736D01*
X138015977Y-115779737D01*
X138191264Y-115807500D01*
X138191265Y-115807500D01*
X138368735Y-115807500D01*
X138368736Y-115807500D01*
X138544023Y-115779737D01*
X138544026Y-115779736D01*
X138544027Y-115779736D01*
X138712807Y-115724896D01*
X138712807Y-115724895D01*
X138712810Y-115724895D01*
X138870939Y-115644324D01*
X139014517Y-115540009D01*
X139140009Y-115414517D01*
X139244324Y-115270939D01*
X139324895Y-115112810D01*
X139379737Y-114944023D01*
X139407500Y-114768736D01*
X139407500Y-114591264D01*
X139692500Y-114591264D01*
X139692500Y-114768735D01*
X139720263Y-114944024D01*
X139720263Y-114944027D01*
X139775103Y-115112807D01*
X139855678Y-115270942D01*
X139959985Y-115414510D01*
X139959989Y-115414515D01*
X140085484Y-115540010D01*
X140085489Y-115540014D01*
X140121489Y-115566169D01*
X140229061Y-115644324D01*
X140387186Y-115724893D01*
X140387192Y-115724896D01*
X140555973Y-115779736D01*
X140555974Y-115779736D01*
X140555977Y-115779737D01*
X140731264Y-115807500D01*
X140731265Y-115807500D01*
X140908735Y-115807500D01*
X140908736Y-115807500D01*
X141084023Y-115779737D01*
X141084026Y-115779736D01*
X141084027Y-115779736D01*
X141252807Y-115724896D01*
X141252807Y-115724895D01*
X141252810Y-115724895D01*
X141410939Y-115644324D01*
X141554517Y-115540009D01*
X141680009Y-115414517D01*
X141784324Y-115270939D01*
X141864895Y-115112810D01*
X141919737Y-114944023D01*
X141947500Y-114768736D01*
X141947500Y-114591264D01*
X142232500Y-114591264D01*
X142232500Y-114768735D01*
X142260263Y-114944024D01*
X142260263Y-114944027D01*
X142315103Y-115112807D01*
X142395678Y-115270942D01*
X142499985Y-115414510D01*
X142499989Y-115414515D01*
X142625484Y-115540010D01*
X142625489Y-115540014D01*
X142661489Y-115566169D01*
X142769061Y-115644324D01*
X142927186Y-115724893D01*
X142927192Y-115724896D01*
X143095973Y-115779736D01*
X143095974Y-115779736D01*
X143095977Y-115779737D01*
X143271264Y-115807500D01*
X143271265Y-115807500D01*
X143448735Y-115807500D01*
X143448736Y-115807500D01*
X143624023Y-115779737D01*
X143624026Y-115779736D01*
X143624027Y-115779736D01*
X143792807Y-115724896D01*
X143792807Y-115724895D01*
X143792810Y-115724895D01*
X143950939Y-115644324D01*
X144094517Y-115540009D01*
X144220009Y-115414517D01*
X144324324Y-115270939D01*
X144404895Y-115112810D01*
X144459737Y-114944023D01*
X144487500Y-114768736D01*
X144487500Y-114591264D01*
X144772500Y-114591264D01*
X144772500Y-114768735D01*
X144800263Y-114944024D01*
X144800263Y-114944027D01*
X144855103Y-115112807D01*
X144935678Y-115270942D01*
X145039985Y-115414510D01*
X145039989Y-115414515D01*
X145165484Y-115540010D01*
X145165489Y-115540014D01*
X145201489Y-115566169D01*
X145309061Y-115644324D01*
X145467186Y-115724893D01*
X145467192Y-115724896D01*
X145635973Y-115779736D01*
X145635974Y-115779736D01*
X145635977Y-115779737D01*
X145811264Y-115807500D01*
X145811265Y-115807500D01*
X145988735Y-115807500D01*
X145988736Y-115807500D01*
X146164023Y-115779737D01*
X146164026Y-115779736D01*
X146164027Y-115779736D01*
X146332807Y-115724896D01*
X146332807Y-115724895D01*
X146332810Y-115724895D01*
X146490939Y-115644324D01*
X146634517Y-115540009D01*
X146760009Y-115414517D01*
X146864324Y-115270939D01*
X146944895Y-115112810D01*
X146999737Y-114944023D01*
X147027500Y-114768736D01*
X147027500Y-114591264D01*
X146999737Y-114415977D01*
X146999736Y-114415973D01*
X146999736Y-114415972D01*
X146944896Y-114247192D01*
X146922989Y-114204197D01*
X146864324Y-114089061D01*
X146795134Y-113993828D01*
X146760014Y-113945489D01*
X146760010Y-113945484D01*
X146634515Y-113819989D01*
X146634510Y-113819985D01*
X146490942Y-113715678D01*
X146490941Y-113715677D01*
X146490939Y-113715676D01*
X146411874Y-113675390D01*
X146332807Y-113635103D01*
X146164026Y-113580263D01*
X146019294Y-113557340D01*
X145988736Y-113552500D01*
X145811264Y-113552500D01*
X145780706Y-113557340D01*
X145635975Y-113580263D01*
X145635972Y-113580263D01*
X145467192Y-113635103D01*
X145309057Y-113715678D01*
X145165489Y-113819985D01*
X145165484Y-113819989D01*
X145039989Y-113945484D01*
X145039985Y-113945489D01*
X144935678Y-114089057D01*
X144855103Y-114247192D01*
X144800263Y-114415972D01*
X144800263Y-114415975D01*
X144772500Y-114591264D01*
X144487500Y-114591264D01*
X144459737Y-114415977D01*
X144459736Y-114415973D01*
X144459736Y-114415972D01*
X144404896Y-114247192D01*
X144382989Y-114204197D01*
X144324324Y-114089061D01*
X144255134Y-113993828D01*
X144220014Y-113945489D01*
X144220010Y-113945484D01*
X144094515Y-113819989D01*
X144094510Y-113819985D01*
X143950942Y-113715678D01*
X143950941Y-113715677D01*
X143950939Y-113715676D01*
X143871874Y-113675390D01*
X143792807Y-113635103D01*
X143624026Y-113580263D01*
X143479294Y-113557340D01*
X143448736Y-113552500D01*
X143271264Y-113552500D01*
X143240706Y-113557340D01*
X143095975Y-113580263D01*
X143095972Y-113580263D01*
X142927192Y-113635103D01*
X142769057Y-113715678D01*
X142625489Y-113819985D01*
X142625484Y-113819989D01*
X142499989Y-113945484D01*
X142499985Y-113945489D01*
X142395678Y-114089057D01*
X142315103Y-114247192D01*
X142260263Y-114415972D01*
X142260263Y-114415975D01*
X142232500Y-114591264D01*
X141947500Y-114591264D01*
X141919737Y-114415977D01*
X141919736Y-114415973D01*
X141919736Y-114415972D01*
X141864896Y-114247192D01*
X141842989Y-114204197D01*
X141784324Y-114089061D01*
X141715134Y-113993828D01*
X141680014Y-113945489D01*
X141680010Y-113945484D01*
X141554515Y-113819989D01*
X141554510Y-113819985D01*
X141410942Y-113715678D01*
X141410941Y-113715677D01*
X141410939Y-113715676D01*
X141331874Y-113675390D01*
X141252807Y-113635103D01*
X141084026Y-113580263D01*
X140939294Y-113557340D01*
X140908736Y-113552500D01*
X140731264Y-113552500D01*
X140700706Y-113557340D01*
X140555975Y-113580263D01*
X140555972Y-113580263D01*
X140387192Y-113635103D01*
X140229057Y-113715678D01*
X140085489Y-113819985D01*
X140085484Y-113819989D01*
X139959989Y-113945484D01*
X139959985Y-113945489D01*
X139855678Y-114089057D01*
X139775103Y-114247192D01*
X139720263Y-114415972D01*
X139720263Y-114415975D01*
X139692500Y-114591264D01*
X139407500Y-114591264D01*
X139379737Y-114415977D01*
X139379736Y-114415973D01*
X139379736Y-114415972D01*
X139324896Y-114247192D01*
X139302989Y-114204197D01*
X139244324Y-114089061D01*
X139175134Y-113993828D01*
X139140014Y-113945489D01*
X139140010Y-113945484D01*
X139014515Y-113819989D01*
X139014510Y-113819985D01*
X138870942Y-113715678D01*
X138870941Y-113715677D01*
X138870939Y-113715676D01*
X138791874Y-113675390D01*
X138712807Y-113635103D01*
X138544026Y-113580263D01*
X138399294Y-113557340D01*
X138368736Y-113552500D01*
X138191264Y-113552500D01*
X138160706Y-113557340D01*
X138015975Y-113580263D01*
X138015972Y-113580263D01*
X137847192Y-113635103D01*
X137689057Y-113715678D01*
X137545489Y-113819985D01*
X137545484Y-113819989D01*
X137419989Y-113945484D01*
X137419985Y-113945489D01*
X137315678Y-114089057D01*
X137235103Y-114247192D01*
X137180263Y-114415972D01*
X137180263Y-114415975D01*
X137152500Y-114591264D01*
X136431661Y-114591264D01*
X136419737Y-114515977D01*
X136419736Y-114515973D01*
X136419736Y-114515972D01*
X136364896Y-114347192D01*
X136313942Y-114247190D01*
X136284324Y-114189061D01*
X136266942Y-114165137D01*
X136180014Y-114045489D01*
X136180010Y-114045484D01*
X136054515Y-113919989D01*
X136054510Y-113919985D01*
X135910942Y-113815678D01*
X135910941Y-113815677D01*
X135910939Y-113815676D01*
X135831874Y-113775390D01*
X135752807Y-113735103D01*
X135584026Y-113680263D01*
X135452557Y-113659440D01*
X135408736Y-113652500D01*
X135231264Y-113652500D01*
X135172835Y-113661754D01*
X135055975Y-113680263D01*
X135055972Y-113680263D01*
X134887192Y-113735103D01*
X134729057Y-113815678D01*
X134585489Y-113919985D01*
X134585484Y-113919989D01*
X134459989Y-114045484D01*
X134459985Y-114045489D01*
X134355678Y-114189057D01*
X134275103Y-114347192D01*
X134220263Y-114515972D01*
X134220263Y-114515975D01*
X134192500Y-114691264D01*
X133907500Y-114691264D01*
X133879737Y-114515977D01*
X133879736Y-114515973D01*
X133879736Y-114515972D01*
X133824896Y-114347192D01*
X133773942Y-114247190D01*
X133744324Y-114189061D01*
X133726942Y-114165137D01*
X133640014Y-114045489D01*
X133640010Y-114045484D01*
X133514515Y-113919989D01*
X133514510Y-113919985D01*
X133370942Y-113815678D01*
X133370941Y-113815677D01*
X133370939Y-113815676D01*
X133291874Y-113775390D01*
X133212807Y-113735103D01*
X133044026Y-113680263D01*
X132912557Y-113659440D01*
X132868736Y-113652500D01*
X132691264Y-113652500D01*
X132632835Y-113661754D01*
X132515975Y-113680263D01*
X132515972Y-113680263D01*
X132347192Y-113735103D01*
X132189057Y-113815678D01*
X132045489Y-113919985D01*
X132045484Y-113919989D01*
X131919989Y-114045484D01*
X131919985Y-114045489D01*
X131815678Y-114189057D01*
X131735103Y-114347192D01*
X131680263Y-114515972D01*
X131680263Y-114515975D01*
X131652500Y-114691264D01*
X131367500Y-114691264D01*
X131339737Y-114515977D01*
X131339736Y-114515973D01*
X131339736Y-114515972D01*
X131284896Y-114347192D01*
X131233942Y-114247190D01*
X131204324Y-114189061D01*
X131186942Y-114165137D01*
X131100014Y-114045489D01*
X131100010Y-114045484D01*
X130974515Y-113919989D01*
X130974510Y-113919985D01*
X130830942Y-113815678D01*
X130830941Y-113815677D01*
X130830939Y-113815676D01*
X130751874Y-113775390D01*
X130672807Y-113735103D01*
X130504026Y-113680263D01*
X130372557Y-113659440D01*
X130328736Y-113652500D01*
X130151264Y-113652500D01*
X130092835Y-113661754D01*
X129975975Y-113680263D01*
X129975972Y-113680263D01*
X129807192Y-113735103D01*
X129649057Y-113815678D01*
X129505489Y-113919985D01*
X129505484Y-113919989D01*
X129379989Y-114045484D01*
X129379985Y-114045489D01*
X129275678Y-114189057D01*
X129195103Y-114347192D01*
X129140263Y-114515972D01*
X129140263Y-114515975D01*
X129112500Y-114691264D01*
X124120000Y-114691264D01*
X124120000Y-114661947D01*
X124083065Y-114428752D01*
X124010102Y-114204197D01*
X123902914Y-113993828D01*
X123842658Y-113910894D01*
X123842658Y-113910893D01*
X123041725Y-114711827D01*
X123016037Y-114615956D01*
X122960084Y-114519044D01*
X122880956Y-114439916D01*
X122784044Y-114383963D01*
X122688172Y-114358274D01*
X123489105Y-113557340D01*
X123489104Y-113557338D01*
X123406174Y-113497087D01*
X123195802Y-113389897D01*
X122971247Y-113316934D01*
X122971248Y-113316934D01*
X122738052Y-113280000D01*
X122501948Y-113280000D01*
X122268752Y-113316934D01*
X122044197Y-113389897D01*
X121833830Y-113497084D01*
X121750894Y-113557340D01*
X122551828Y-114358274D01*
X122455956Y-114383963D01*
X122359044Y-114439916D01*
X122279916Y-114519044D01*
X122223963Y-114615956D01*
X122198274Y-114711828D01*
X121397340Y-113910894D01*
X121337084Y-113993830D01*
X121249799Y-114165137D01*
X121201824Y-114215933D01*
X121134003Y-114232728D01*
X121067868Y-114210190D01*
X121038996Y-114181727D01*
X120940014Y-114045488D01*
X120814515Y-113919989D01*
X120814510Y-113919985D01*
X120670943Y-113815678D01*
X120658616Y-113809397D01*
X120525204Y-113741420D01*
X120514140Y-113730971D01*
X120500297Y-113724649D01*
X120489255Y-113707468D01*
X120474409Y-113693446D01*
X120470167Y-113677766D01*
X120462523Y-113665871D01*
X120457500Y-113630936D01*
X120457500Y-113259727D01*
X120477185Y-113192688D01*
X120493819Y-113172046D01*
X121917047Y-111748819D01*
X121978370Y-111715334D01*
X122004728Y-111712500D01*
X123698757Y-111712500D01*
X123698764Y-111712500D01*
X123745074Y-111706403D01*
X123846711Y-111659009D01*
X123926009Y-111579711D01*
X123973403Y-111478074D01*
X123979033Y-111435314D01*
X124007300Y-111371418D01*
X124065625Y-111332947D01*
X124101972Y-111327500D01*
X141067697Y-111327500D01*
X141067699Y-111327500D01*
X141163710Y-111301774D01*
X141249790Y-111252075D01*
X141270046Y-111231819D01*
X141296973Y-111217115D01*
X141322792Y-111200523D01*
X141328992Y-111199631D01*
X141331369Y-111198334D01*
X141357727Y-111195500D01*
X141392273Y-111195500D01*
X141459312Y-111215185D01*
X141479954Y-111231819D01*
X141489210Y-111241075D01*
X141575290Y-111290774D01*
X141671301Y-111316500D01*
X144631273Y-111316500D01*
X144698312Y-111336185D01*
X144718954Y-111352819D01*
X153631003Y-120264868D01*
X153664488Y-120326191D01*
X153659504Y-120395883D01*
X153617632Y-120451816D01*
X153599618Y-120463033D01*
X153428653Y-120550146D01*
X153272336Y-120663715D01*
X153135715Y-120800336D01*
X153022147Y-120956650D01*
X152934429Y-121128805D01*
X152874725Y-121312558D01*
X152844500Y-121503388D01*
X152844500Y-121696611D01*
X152874725Y-121887441D01*
X152934429Y-122071194D01*
X153022147Y-122243349D01*
X153135715Y-122399663D01*
X153272336Y-122536284D01*
X153428650Y-122649852D01*
X153600805Y-122737570D01*
X153692681Y-122767422D01*
X153784560Y-122797275D01*
X153872943Y-122811273D01*
X153975389Y-122827500D01*
X153975394Y-122827500D01*
X154168611Y-122827500D01*
X154261123Y-122812846D01*
X154359440Y-122797275D01*
X154543197Y-122737569D01*
X154715350Y-122649852D01*
X154871663Y-122536285D01*
X155008285Y-122399663D01*
X155121852Y-122243350D01*
X155209569Y-122071197D01*
X155269275Y-121887440D01*
X155292957Y-121737918D01*
X155299500Y-121696611D01*
X155299500Y-121503388D01*
X155281916Y-121392373D01*
X155269275Y-121312560D01*
X155209569Y-121128803D01*
X155121852Y-120956650D01*
X155008285Y-120800337D01*
X154871663Y-120663715D01*
X154715350Y-120550148D01*
X154715351Y-120550148D01*
X154715349Y-120550147D01*
X154543201Y-120462432D01*
X154540392Y-120461519D01*
X154535179Y-120459825D01*
X154477506Y-120420389D01*
X154450308Y-120356030D01*
X154449500Y-120341896D01*
X154449500Y-120122303D01*
X154449500Y-120122301D01*
X154423774Y-120026291D01*
X154423774Y-120026290D01*
X154374075Y-119940210D01*
X150308839Y-115874974D01*
X150275354Y-115813651D01*
X150280338Y-115743959D01*
X150322210Y-115688026D01*
X150387674Y-115663609D01*
X150452815Y-115676809D01*
X150547185Y-115724893D01*
X150547189Y-115724895D01*
X150715973Y-115779736D01*
X150715974Y-115779736D01*
X150715977Y-115779737D01*
X150891264Y-115807500D01*
X150891265Y-115807500D01*
X151068735Y-115807500D01*
X151068736Y-115807500D01*
X151244023Y-115779737D01*
X151244026Y-115779736D01*
X151244027Y-115779736D01*
X151412807Y-115724896D01*
X151412807Y-115724895D01*
X151412810Y-115724895D01*
X151570939Y-115644324D01*
X151714517Y-115540009D01*
X151840009Y-115414517D01*
X151944324Y-115270939D01*
X152024895Y-115112810D01*
X152079737Y-114944023D01*
X152107500Y-114768736D01*
X152107500Y-114591264D01*
X152392500Y-114591264D01*
X152392500Y-114768735D01*
X152420263Y-114944024D01*
X152420263Y-114944027D01*
X152475103Y-115112807D01*
X152555678Y-115270942D01*
X152659985Y-115414510D01*
X152659989Y-115414515D01*
X152785484Y-115540010D01*
X152785489Y-115540014D01*
X152821489Y-115566169D01*
X152929061Y-115644324D01*
X153087186Y-115724893D01*
X153087192Y-115724896D01*
X153255973Y-115779736D01*
X153255974Y-115779736D01*
X153255977Y-115779737D01*
X153431264Y-115807500D01*
X153431265Y-115807500D01*
X153608735Y-115807500D01*
X153608736Y-115807500D01*
X153784023Y-115779737D01*
X153784026Y-115779736D01*
X153784027Y-115779736D01*
X153952807Y-115724896D01*
X153952807Y-115724895D01*
X153952810Y-115724895D01*
X154110939Y-115644324D01*
X154254517Y-115540009D01*
X154380009Y-115414517D01*
X154484324Y-115270939D01*
X154564895Y-115112810D01*
X154619737Y-114944023D01*
X154647500Y-114768736D01*
X154647500Y-114591264D01*
X154619737Y-114415977D01*
X154619736Y-114415973D01*
X154619736Y-114415972D01*
X154564896Y-114247192D01*
X154542989Y-114204197D01*
X154484324Y-114089061D01*
X154415134Y-113993828D01*
X154380014Y-113945489D01*
X154380010Y-113945484D01*
X154254515Y-113819989D01*
X154254510Y-113819985D01*
X154110942Y-113715678D01*
X154110941Y-113715677D01*
X154110939Y-113715676D01*
X154031874Y-113675390D01*
X153952807Y-113635103D01*
X153784026Y-113580263D01*
X153639294Y-113557340D01*
X153608736Y-113552500D01*
X153431264Y-113552500D01*
X153400706Y-113557340D01*
X153255975Y-113580263D01*
X153255972Y-113580263D01*
X153087192Y-113635103D01*
X152929057Y-113715678D01*
X152785489Y-113819985D01*
X152785484Y-113819989D01*
X152659989Y-113945484D01*
X152659985Y-113945489D01*
X152555678Y-114089057D01*
X152475103Y-114247192D01*
X152420263Y-114415972D01*
X152420263Y-114415975D01*
X152392500Y-114591264D01*
X152107500Y-114591264D01*
X152079737Y-114415977D01*
X152079736Y-114415973D01*
X152079736Y-114415972D01*
X152024896Y-114247192D01*
X152002989Y-114204197D01*
X151944324Y-114089061D01*
X151875134Y-113993828D01*
X151840014Y-113945489D01*
X151840010Y-113945484D01*
X151714515Y-113819989D01*
X151714510Y-113819985D01*
X151570942Y-113715678D01*
X151570941Y-113715677D01*
X151570939Y-113715676D01*
X151491874Y-113675390D01*
X151412807Y-113635103D01*
X151244026Y-113580263D01*
X151099294Y-113557340D01*
X151068736Y-113552500D01*
X150891264Y-113552500D01*
X150860706Y-113557340D01*
X150715975Y-113580263D01*
X150715972Y-113580263D01*
X150547192Y-113635103D01*
X150389057Y-113715678D01*
X150245489Y-113819985D01*
X150245484Y-113819989D01*
X150119989Y-113945484D01*
X150119985Y-113945489D01*
X150015678Y-114089057D01*
X149935103Y-114247192D01*
X149880263Y-114415972D01*
X149880263Y-114415975D01*
X149852500Y-114591264D01*
X149852500Y-114768735D01*
X149880263Y-114944024D01*
X149880263Y-114944027D01*
X149935103Y-115112807D01*
X149983191Y-115207184D01*
X149996087Y-115275853D01*
X149969811Y-115340594D01*
X149912704Y-115380851D01*
X149842899Y-115383843D01*
X149785025Y-115351160D01*
X145070792Y-110636927D01*
X145070790Y-110636925D01*
X144984710Y-110587226D01*
X144888699Y-110561500D01*
X144888698Y-110561500D01*
X142101500Y-110561500D01*
X142034461Y-110541815D01*
X141988706Y-110489011D01*
X141984186Y-110468236D01*
X150318300Y-110468236D01*
X150318300Y-111431757D01*
X150318301Y-111431773D01*
X150324396Y-111478072D01*
X150324397Y-111478074D01*
X150371791Y-111579711D01*
X150451089Y-111659009D01*
X150552726Y-111706403D01*
X150599036Y-111712500D01*
X150599043Y-111712500D01*
X152832557Y-111712500D01*
X152832564Y-111712500D01*
X152878874Y-111706403D01*
X152980511Y-111659009D01*
X153059809Y-111579711D01*
X153107203Y-111478074D01*
X153113300Y-111431764D01*
X153113300Y-110468236D01*
X153107203Y-110421926D01*
X153059809Y-110320289D01*
X152980511Y-110240991D01*
X152878874Y-110193597D01*
X152878872Y-110193596D01*
X152832573Y-110187501D01*
X152832570Y-110187500D01*
X152832564Y-110187500D01*
X150599036Y-110187500D01*
X150599030Y-110187500D01*
X150599026Y-110187501D01*
X150552727Y-110193596D01*
X150451088Y-110240991D01*
X150371791Y-110320288D01*
X150324396Y-110421927D01*
X150318301Y-110468226D01*
X150318300Y-110468236D01*
X141984186Y-110468236D01*
X141977500Y-110437500D01*
X141977500Y-104259377D01*
X141994115Y-104197373D01*
X141998366Y-104190010D01*
X141998367Y-104190009D01*
X142027500Y-104081281D01*
X142027500Y-103968719D01*
X141998367Y-103859991D01*
X141942085Y-103762509D01*
X141862491Y-103682915D01*
X141813750Y-103654774D01*
X141765010Y-103626633D01*
X141710645Y-103612066D01*
X141656281Y-103597500D01*
X141543719Y-103597500D01*
X141434989Y-103626633D01*
X141337509Y-103682915D01*
X141337506Y-103682917D01*
X141257917Y-103762506D01*
X141257915Y-103762509D01*
X141201633Y-103859989D01*
X141172500Y-103968719D01*
X141172500Y-104081280D01*
X141201633Y-104190010D01*
X141205885Y-104197373D01*
X141222500Y-104259377D01*
X141222500Y-110316500D01*
X141202815Y-110383539D01*
X141150011Y-110429294D01*
X141131682Y-110435978D01*
X141115400Y-110440500D01*
X141100301Y-110440500D01*
X141004291Y-110466226D01*
X141000810Y-110468236D01*
X140987165Y-110476113D01*
X140987161Y-110476115D01*
X140918213Y-110515922D01*
X140918208Y-110515926D01*
X140897954Y-110536181D01*
X140836631Y-110569666D01*
X140810273Y-110572500D01*
X124101972Y-110572500D01*
X124034933Y-110552815D01*
X123989178Y-110500011D01*
X123979033Y-110464686D01*
X123973403Y-110421927D01*
X123973403Y-110421926D01*
X123926009Y-110320289D01*
X123846711Y-110240991D01*
X123745074Y-110193597D01*
X123745072Y-110193596D01*
X123698773Y-110187501D01*
X123698770Y-110187500D01*
X123698764Y-110187500D01*
X123698757Y-110187500D01*
X123004730Y-110187500D01*
X122975299Y-110178858D01*
X122945317Y-110172340D01*
X122940292Y-110168578D01*
X122937691Y-110167815D01*
X122917060Y-110151193D01*
X122913791Y-110147924D01*
X122913788Y-110147922D01*
X119285819Y-106519953D01*
X119252334Y-106458630D01*
X119249500Y-106432272D01*
X119249500Y-105276499D01*
X119269185Y-105209460D01*
X119321989Y-105163705D01*
X119373500Y-105152499D01*
X119686326Y-105152499D01*
X119759704Y-105141809D01*
X119872890Y-105086476D01*
X119961976Y-104997390D01*
X120017309Y-104884204D01*
X120028000Y-104810827D01*
X120027999Y-103739174D01*
X120027999Y-103739172D01*
X120027999Y-103739168D01*
X120019803Y-103682915D01*
X120017580Y-103667658D01*
X120027393Y-103598483D01*
X120073048Y-103545593D01*
X120075189Y-103544242D01*
X120118845Y-103517315D01*
X120242815Y-103393345D01*
X120334856Y-103244124D01*
X120334858Y-103244119D01*
X120390005Y-103077697D01*
X120390006Y-103077690D01*
X120400499Y-102974986D01*
X120400500Y-102974973D01*
X120400500Y-102675000D01*
X119216186Y-102675000D01*
X119220580Y-102670606D01*
X119273241Y-102579394D01*
X119300500Y-102477661D01*
X119300500Y-102372339D01*
X119273241Y-102270606D01*
X119220580Y-102179394D01*
X119216186Y-102175000D01*
X120400499Y-102175000D01*
X120400499Y-101889172D01*
X153730500Y-101889172D01*
X153730500Y-102960825D01*
X153741191Y-103034204D01*
X153796525Y-103147392D01*
X153885608Y-103236475D01*
X153889954Y-103238600D01*
X153941536Y-103285728D01*
X153959450Y-103353262D01*
X153938009Y-103419760D01*
X153889954Y-103461400D01*
X153885608Y-103463524D01*
X153796525Y-103552607D01*
X153741190Y-103665797D01*
X153730500Y-103739172D01*
X153730500Y-104810825D01*
X153741191Y-104884204D01*
X153796525Y-104997392D01*
X153885607Y-105086474D01*
X153885608Y-105086474D01*
X153885610Y-105086476D01*
X153998796Y-105141809D01*
X154072173Y-105152500D01*
X155643826Y-105152499D01*
X155717204Y-105141809D01*
X155830390Y-105086476D01*
X155919476Y-104997390D01*
X155974809Y-104884204D01*
X155985500Y-104810827D01*
X155985499Y-103739174D01*
X155974809Y-103665796D01*
X155919476Y-103552610D01*
X155919474Y-103552608D01*
X155919474Y-103552607D01*
X155830391Y-103463524D01*
X155826042Y-103461398D01*
X155774461Y-103414268D01*
X155756549Y-103346733D01*
X155777992Y-103280235D01*
X155826051Y-103238596D01*
X155830390Y-103236476D01*
X155919476Y-103147390D01*
X155974809Y-103034204D01*
X155985500Y-102960827D01*
X155985499Y-101889174D01*
X155974809Y-101815796D01*
X155919476Y-101702610D01*
X155919474Y-101702608D01*
X155919474Y-101702607D01*
X155830392Y-101613525D01*
X155717202Y-101558190D01*
X155643827Y-101547500D01*
X154072174Y-101547500D01*
X153998795Y-101558191D01*
X153885607Y-101613525D01*
X153796525Y-101702607D01*
X153741190Y-101815797D01*
X153730500Y-101889172D01*
X120400499Y-101889172D01*
X120400499Y-101875028D01*
X120400498Y-101875013D01*
X120390005Y-101772302D01*
X120334858Y-101605880D01*
X120334856Y-101605875D01*
X120242815Y-101456654D01*
X120118845Y-101332684D01*
X119969624Y-101240643D01*
X119969619Y-101240641D01*
X119803197Y-101185494D01*
X119803190Y-101185493D01*
X119700486Y-101175000D01*
X119150500Y-101175000D01*
X119150500Y-102109314D01*
X119146106Y-102104920D01*
X119054894Y-102052259D01*
X118953161Y-102025000D01*
X118847839Y-102025000D01*
X118746106Y-102052259D01*
X118654894Y-102104920D01*
X118650500Y-102109314D01*
X118650500Y-101175000D01*
X118100528Y-101175000D01*
X118100512Y-101175001D01*
X117997802Y-101185494D01*
X117831380Y-101240641D01*
X117831371Y-101240645D01*
X117789596Y-101266413D01*
X117781978Y-101268497D01*
X117776011Y-101273668D01*
X117748762Y-101277585D01*
X117722204Y-101284853D01*
X117714669Y-101282488D01*
X117706853Y-101283612D01*
X117681808Y-101272174D01*
X117655540Y-101263930D01*
X117650480Y-101257867D01*
X117643297Y-101254587D01*
X117628412Y-101231425D01*
X117610771Y-101210288D01*
X117608831Y-101200957D01*
X117605523Y-101195809D01*
X117600500Y-101160874D01*
X117600500Y-101069268D01*
X117620185Y-101002229D01*
X117629559Y-100989505D01*
X120031324Y-98130701D01*
X120812000Y-98130701D01*
X120812000Y-98381000D01*
X122235590Y-98381000D01*
X122185963Y-98466956D01*
X122157000Y-98575048D01*
X122157000Y-98686952D01*
X122185963Y-98795044D01*
X122235590Y-98881000D01*
X120812001Y-98881000D01*
X120812001Y-99131308D01*
X120818321Y-99200875D01*
X120818323Y-99200883D01*
X120868208Y-99360970D01*
X120868209Y-99360972D01*
X120954954Y-99504467D01*
X120954957Y-99504471D01*
X121073528Y-99623042D01*
X121073532Y-99623045D01*
X121217026Y-99709789D01*
X121377123Y-99759677D01*
X121446701Y-99765999D01*
X122331999Y-99765999D01*
X122332000Y-99765998D01*
X122332000Y-98977409D01*
X122417956Y-99027037D01*
X122526048Y-99056000D01*
X122637952Y-99056000D01*
X122746044Y-99027037D01*
X122832000Y-98977409D01*
X122832000Y-99765999D01*
X123717307Y-99765999D01*
X123786875Y-99759678D01*
X123786883Y-99759676D01*
X123946970Y-99709791D01*
X123946972Y-99709790D01*
X124090467Y-99623045D01*
X124090471Y-99623042D01*
X124209042Y-99504471D01*
X124209045Y-99504467D01*
X124295789Y-99360973D01*
X124345677Y-99200876D01*
X124352000Y-99131298D01*
X124352000Y-98881000D01*
X122928410Y-98881000D01*
X122978037Y-98795044D01*
X123007000Y-98686952D01*
X123007000Y-98575048D01*
X122978037Y-98466956D01*
X122928410Y-98381000D01*
X124351999Y-98381000D01*
X124351999Y-98149242D01*
X150318300Y-98149242D01*
X150318300Y-99112757D01*
X150318301Y-99112773D01*
X150324396Y-99159072D01*
X150324397Y-99159074D01*
X150371791Y-99260711D01*
X150451089Y-99340009D01*
X150552726Y-99387403D01*
X150599036Y-99393500D01*
X150599043Y-99393500D01*
X152832557Y-99393500D01*
X152832564Y-99393500D01*
X152878874Y-99387403D01*
X152980511Y-99340009D01*
X153059809Y-99260711D01*
X153107203Y-99159074D01*
X153113300Y-99112764D01*
X153113300Y-98149236D01*
X153107203Y-98102926D01*
X153059809Y-98001289D01*
X152980511Y-97921991D01*
X152878874Y-97874597D01*
X152878872Y-97874596D01*
X152832573Y-97868501D01*
X152832570Y-97868500D01*
X152832564Y-97868500D01*
X150599036Y-97868500D01*
X150599030Y-97868500D01*
X150599026Y-97868501D01*
X150552727Y-97874596D01*
X150451088Y-97921991D01*
X150371791Y-98001288D01*
X150324396Y-98102927D01*
X150318301Y-98149226D01*
X150318300Y-98149242D01*
X124351999Y-98149242D01*
X124351999Y-98130691D01*
X124345678Y-98061124D01*
X124345676Y-98061116D01*
X124295791Y-97901029D01*
X124295790Y-97901027D01*
X124209045Y-97757532D01*
X124209042Y-97757528D01*
X124090471Y-97638957D01*
X124090467Y-97638954D01*
X123946973Y-97552210D01*
X123786876Y-97502322D01*
X123717298Y-97496000D01*
X122832000Y-97496000D01*
X122832000Y-98284590D01*
X122746044Y-98234963D01*
X122637952Y-98206000D01*
X122526048Y-98206000D01*
X122417956Y-98234963D01*
X122332000Y-98284590D01*
X122332000Y-97496000D01*
X121446691Y-97496000D01*
X121377123Y-97502321D01*
X121377116Y-97502323D01*
X121217029Y-97552208D01*
X121217027Y-97552209D01*
X121073532Y-97638954D01*
X121073528Y-97638957D01*
X120954957Y-97757528D01*
X120954954Y-97757532D01*
X120868210Y-97901026D01*
X120818322Y-98061123D01*
X120812000Y-98130701D01*
X120031324Y-98130701D01*
X123380051Y-94144736D01*
X123438245Y-94106070D01*
X123474992Y-94100500D01*
X124919687Y-94100500D01*
X124986726Y-94120185D01*
G37*
G04 #@! TD.AperFunction*
M02*
