%TF.GenerationSoftware,KiCad,Pcbnew,9.0.5*%
%TF.CreationDate,2025-12-02T21:38:52+01:00*%
%TF.ProjectId,ToyBoard,546f7942-6f61-4726-942e-6b696361645f,rev?*%
%TF.SameCoordinates,Original*%
%TF.FileFunction,Drillmap*%
%TF.FilePolarity,Positive*%
%FSLAX45Y45*%
G04 Gerber Fmt 4.5, Leading zero omitted, Abs format (unit mm)*
G04 Created by KiCad (PCBNEW 9.0.5) date 2025-12-02 21:38:52*
%MOMM*%
%LPD*%
G01*
G04 APERTURE LIST*
%ADD10C,0.038100*%
%ADD11C,0.200000*%
%ADD12C,0.100000*%
%ADD13C,0.110000*%
G04 APERTURE END LIST*
D10*
X12310000Y-9370000D02*
X12320000Y-9360000D01*
X15100000Y-9370000D02*
X15090000Y-9360000D01*
X11710000Y-13385800D02*
X15697200Y-13385800D01*
X15090000Y-9360000D02*
X12320000Y-9360000D01*
X15697200Y-13385800D02*
X15697200Y-10083800D01*
X11710000Y-10084176D02*
X11710000Y-13385800D01*
X11710000Y-10084176D02*
X12310000Y-9370000D01*
X15697200Y-10083800D02*
X15100000Y-9370000D01*
D11*
D12*
X13617500Y-12558000D02*
X13647500Y-12588000D01*
X13647500Y-12558000D02*
X13617500Y-12588000D01*
X14145000Y-10387500D02*
X14175000Y-10417500D01*
X14175000Y-10387500D02*
X14145000Y-10417500D01*
X14831068Y-12566068D02*
X14861068Y-12596068D01*
X14861068Y-12566068D02*
X14831068Y-12596068D01*
X11930050Y-10242500D02*
G75*
G02*
X11850050Y-10242500I-40000J0D01*
G01*
X11850050Y-10242500D02*
G75*
G02*
X11930050Y-10242500I40000J0D01*
G01*
X11930050Y-10427500D02*
G75*
G02*
X11850050Y-10427500I-40000J0D01*
G01*
X11850050Y-10427500D02*
G75*
G02*
X11930050Y-10427500I40000J0D01*
G01*
X12627500Y-9518500D02*
G75*
G02*
X12547500Y-9518500I-40000J0D01*
G01*
X12547500Y-9518500D02*
G75*
G02*
X12627500Y-9518500I40000J0D01*
G01*
X12812500Y-9518500D02*
G75*
G02*
X12732500Y-9518500I-40000J0D01*
G01*
X12732500Y-9518500D02*
G75*
G02*
X12812500Y-9518500I40000J0D01*
G01*
X14837500Y-9511500D02*
G75*
G02*
X14757500Y-9511500I-40000J0D01*
G01*
X14757500Y-9511500D02*
G75*
G02*
X14837500Y-9511500I40000J0D01*
G01*
X15022500Y-9511500D02*
G75*
G02*
X14942500Y-9511500I-40000J0D01*
G01*
X14942500Y-9511500D02*
G75*
G02*
X15022500Y-9511500I40000J0D01*
G01*
X15525800Y-10242500D02*
G75*
G02*
X15445800Y-10242500I-40000J0D01*
G01*
X15445800Y-10242500D02*
G75*
G02*
X15525800Y-10242500I40000J0D01*
G01*
X15525800Y-10427500D02*
G75*
G02*
X15445800Y-10427500I-40000J0D01*
G01*
X15445800Y-10427500D02*
G75*
G02*
X15525800Y-10427500I40000J0D01*
G01*
X12008000Y-11435500D02*
X12008000Y-11520500D01*
X11965500Y-11478000D02*
X12050500Y-11478000D01*
X12258200Y-9820600D02*
X12258200Y-9905600D01*
X12215700Y-9863100D02*
X12300700Y-9863100D01*
X12258200Y-11052500D02*
X12258200Y-11137500D01*
X12215700Y-11095000D02*
X12300700Y-11095000D01*
X12262000Y-11435500D02*
X12262000Y-11520500D01*
X12219500Y-11478000D02*
X12304500Y-11478000D01*
X13024000Y-11435500D02*
X13024000Y-11520500D01*
X12981500Y-11478000D02*
X13066500Y-11478000D01*
X13278000Y-11435500D02*
X13278000Y-11520500D01*
X13235500Y-11478000D02*
X13320500Y-11478000D01*
X13532000Y-11435500D02*
X13532000Y-11520500D01*
X13489500Y-11478000D02*
X13574500Y-11478000D01*
X13828000Y-11425500D02*
X13828000Y-11510500D01*
X13785500Y-11468000D02*
X13870500Y-11468000D01*
X13828000Y-12949500D02*
X13828000Y-13034500D01*
X13785500Y-12992000D02*
X13870500Y-12992000D01*
X14082000Y-11425500D02*
X14082000Y-11510500D01*
X14039500Y-11468000D02*
X14124500Y-11468000D01*
X14082000Y-12949500D02*
X14082000Y-13034500D01*
X14039500Y-12992000D02*
X14124500Y-12992000D01*
X14336000Y-11425500D02*
X14336000Y-11510500D01*
X14293500Y-11468000D02*
X14378500Y-11468000D01*
X14336000Y-12949500D02*
X14336000Y-13034500D01*
X14293500Y-12992000D02*
X14378500Y-12992000D01*
X14590000Y-11425500D02*
X14590000Y-11510500D01*
X14547500Y-11468000D02*
X14632500Y-11468000D01*
X14590000Y-11730300D02*
X14590000Y-11815300D01*
X14547500Y-11772800D02*
X14632500Y-11772800D01*
X14590000Y-12949500D02*
X14590000Y-13034500D01*
X14547500Y-12992000D02*
X14632500Y-12992000D01*
X14844000Y-11730300D02*
X14844000Y-11815300D01*
X14801500Y-11772800D02*
X14886500Y-11772800D01*
X14844000Y-12949500D02*
X14844000Y-13034500D01*
X14801500Y-12992000D02*
X14886500Y-12992000D01*
X15098000Y-11425500D02*
X15098000Y-11510500D01*
X15055500Y-11468000D02*
X15140500Y-11468000D01*
X15171580Y-9820600D02*
X15171580Y-9905600D01*
X15129080Y-9863100D02*
X15214080Y-9863100D01*
X15171580Y-11052500D02*
X15171580Y-11137500D01*
X15129080Y-11095000D02*
X15214080Y-11095000D01*
X15352000Y-11425500D02*
X15352000Y-11510500D01*
X15309500Y-11468000D02*
X15394500Y-11468000D01*
X15352000Y-12949500D02*
X15352000Y-13034500D01*
X15309500Y-12992000D02*
X15394500Y-12992000D01*
D13*
X14531691Y-12198891D02*
X14531691Y-12121109D01*
X14453909Y-12121109D01*
X14453909Y-12198891D01*
X14531691Y-12198891D01*
X15446091Y-12198891D02*
X15446091Y-12121109D01*
X15368309Y-12121109D01*
X15368309Y-12198891D01*
X15446091Y-12198891D01*
D11*
X11968872Y-13699189D02*
X11968872Y-13499189D01*
X11968872Y-13499189D02*
X12016491Y-13499189D01*
X12016491Y-13499189D02*
X12045062Y-13508713D01*
X12045062Y-13508713D02*
X12064110Y-13527760D01*
X12064110Y-13527760D02*
X12073634Y-13546808D01*
X12073634Y-13546808D02*
X12083157Y-13584903D01*
X12083157Y-13584903D02*
X12083157Y-13613474D01*
X12083157Y-13613474D02*
X12073634Y-13651570D01*
X12073634Y-13651570D02*
X12064110Y-13670617D01*
X12064110Y-13670617D02*
X12045062Y-13689665D01*
X12045062Y-13689665D02*
X12016491Y-13699189D01*
X12016491Y-13699189D02*
X11968872Y-13699189D01*
X12168872Y-13699189D02*
X12168872Y-13565855D01*
X12168872Y-13603951D02*
X12178396Y-13584903D01*
X12178396Y-13584903D02*
X12187919Y-13575379D01*
X12187919Y-13575379D02*
X12206967Y-13565855D01*
X12206967Y-13565855D02*
X12226015Y-13565855D01*
X12292681Y-13699189D02*
X12292681Y-13565855D01*
X12292681Y-13499189D02*
X12283157Y-13508713D01*
X12283157Y-13508713D02*
X12292681Y-13518236D01*
X12292681Y-13518236D02*
X12302205Y-13508713D01*
X12302205Y-13508713D02*
X12292681Y-13499189D01*
X12292681Y-13499189D02*
X12292681Y-13518236D01*
X12416491Y-13699189D02*
X12397443Y-13689665D01*
X12397443Y-13689665D02*
X12387919Y-13670617D01*
X12387919Y-13670617D02*
X12387919Y-13499189D01*
X12521253Y-13699189D02*
X12502205Y-13689665D01*
X12502205Y-13689665D02*
X12492681Y-13670617D01*
X12492681Y-13670617D02*
X12492681Y-13499189D01*
X12749824Y-13699189D02*
X12749824Y-13499189D01*
X12749824Y-13499189D02*
X12816491Y-13642046D01*
X12816491Y-13642046D02*
X12883157Y-13499189D01*
X12883157Y-13499189D02*
X12883157Y-13699189D01*
X13064110Y-13699189D02*
X13064110Y-13594427D01*
X13064110Y-13594427D02*
X13054586Y-13575379D01*
X13054586Y-13575379D02*
X13035538Y-13565855D01*
X13035538Y-13565855D02*
X12997443Y-13565855D01*
X12997443Y-13565855D02*
X12978396Y-13575379D01*
X13064110Y-13689665D02*
X13045062Y-13699189D01*
X13045062Y-13699189D02*
X12997443Y-13699189D01*
X12997443Y-13699189D02*
X12978396Y-13689665D01*
X12978396Y-13689665D02*
X12968872Y-13670617D01*
X12968872Y-13670617D02*
X12968872Y-13651570D01*
X12968872Y-13651570D02*
X12978396Y-13632522D01*
X12978396Y-13632522D02*
X12997443Y-13622998D01*
X12997443Y-13622998D02*
X13045062Y-13622998D01*
X13045062Y-13622998D02*
X13064110Y-13613474D01*
X13159348Y-13565855D02*
X13159348Y-13765855D01*
X13159348Y-13575379D02*
X13178396Y-13565855D01*
X13178396Y-13565855D02*
X13216491Y-13565855D01*
X13216491Y-13565855D02*
X13235538Y-13575379D01*
X13235538Y-13575379D02*
X13245062Y-13584903D01*
X13245062Y-13584903D02*
X13254586Y-13603951D01*
X13254586Y-13603951D02*
X13254586Y-13661093D01*
X13254586Y-13661093D02*
X13245062Y-13680141D01*
X13245062Y-13680141D02*
X13235538Y-13689665D01*
X13235538Y-13689665D02*
X13216491Y-13699189D01*
X13216491Y-13699189D02*
X13178396Y-13699189D01*
X13178396Y-13699189D02*
X13159348Y-13689665D01*
X13340300Y-13680141D02*
X13349824Y-13689665D01*
X13349824Y-13689665D02*
X13340300Y-13699189D01*
X13340300Y-13699189D02*
X13330777Y-13689665D01*
X13330777Y-13689665D02*
X13340300Y-13680141D01*
X13340300Y-13680141D02*
X13340300Y-13699189D01*
X13340300Y-13575379D02*
X13349824Y-13584903D01*
X13349824Y-13584903D02*
X13340300Y-13594427D01*
X13340300Y-13594427D02*
X13330777Y-13584903D01*
X13330777Y-13584903D02*
X13340300Y-13575379D01*
X13340300Y-13575379D02*
X13340300Y-13594427D01*
D12*
X11678095Y-14012705D02*
X11708095Y-14042705D01*
X11708095Y-14012705D02*
X11678095Y-14042705D01*
D11*
X12006967Y-13919189D02*
X12026015Y-13919189D01*
X12026015Y-13919189D02*
X12045062Y-13928713D01*
X12045062Y-13928713D02*
X12054586Y-13938236D01*
X12054586Y-13938236D02*
X12064110Y-13957284D01*
X12064110Y-13957284D02*
X12073634Y-13995379D01*
X12073634Y-13995379D02*
X12073634Y-14042998D01*
X12073634Y-14042998D02*
X12064110Y-14081093D01*
X12064110Y-14081093D02*
X12054586Y-14100141D01*
X12054586Y-14100141D02*
X12045062Y-14109665D01*
X12045062Y-14109665D02*
X12026015Y-14119189D01*
X12026015Y-14119189D02*
X12006967Y-14119189D01*
X12006967Y-14119189D02*
X11987919Y-14109665D01*
X11987919Y-14109665D02*
X11978396Y-14100141D01*
X11978396Y-14100141D02*
X11968872Y-14081093D01*
X11968872Y-14081093D02*
X11959348Y-14042998D01*
X11959348Y-14042998D02*
X11959348Y-13995379D01*
X11959348Y-13995379D02*
X11968872Y-13957284D01*
X11968872Y-13957284D02*
X11978396Y-13938236D01*
X11978396Y-13938236D02*
X11987919Y-13928713D01*
X11987919Y-13928713D02*
X12006967Y-13919189D01*
X12159348Y-14100141D02*
X12168872Y-14109665D01*
X12168872Y-14109665D02*
X12159348Y-14119189D01*
X12159348Y-14119189D02*
X12149824Y-14109665D01*
X12149824Y-14109665D02*
X12159348Y-14100141D01*
X12159348Y-14100141D02*
X12159348Y-14119189D01*
X12235538Y-13919189D02*
X12359348Y-13919189D01*
X12359348Y-13919189D02*
X12292681Y-13995379D01*
X12292681Y-13995379D02*
X12321253Y-13995379D01*
X12321253Y-13995379D02*
X12340300Y-14004903D01*
X12340300Y-14004903D02*
X12349824Y-14014427D01*
X12349824Y-14014427D02*
X12359348Y-14033474D01*
X12359348Y-14033474D02*
X12359348Y-14081093D01*
X12359348Y-14081093D02*
X12349824Y-14100141D01*
X12349824Y-14100141D02*
X12340300Y-14109665D01*
X12340300Y-14109665D02*
X12321253Y-14119189D01*
X12321253Y-14119189D02*
X12264110Y-14119189D01*
X12264110Y-14119189D02*
X12245062Y-14109665D01*
X12245062Y-14109665D02*
X12235538Y-14100141D01*
X12483157Y-13919189D02*
X12502205Y-13919189D01*
X12502205Y-13919189D02*
X12521253Y-13928713D01*
X12521253Y-13928713D02*
X12530777Y-13938236D01*
X12530777Y-13938236D02*
X12540300Y-13957284D01*
X12540300Y-13957284D02*
X12549824Y-13995379D01*
X12549824Y-13995379D02*
X12549824Y-14042998D01*
X12549824Y-14042998D02*
X12540300Y-14081093D01*
X12540300Y-14081093D02*
X12530777Y-14100141D01*
X12530777Y-14100141D02*
X12521253Y-14109665D01*
X12521253Y-14109665D02*
X12502205Y-14119189D01*
X12502205Y-14119189D02*
X12483157Y-14119189D01*
X12483157Y-14119189D02*
X12464110Y-14109665D01*
X12464110Y-14109665D02*
X12454586Y-14100141D01*
X12454586Y-14100141D02*
X12445062Y-14081093D01*
X12445062Y-14081093D02*
X12435538Y-14042998D01*
X12435538Y-14042998D02*
X12435538Y-13995379D01*
X12435538Y-13995379D02*
X12445062Y-13957284D01*
X12445062Y-13957284D02*
X12454586Y-13938236D01*
X12454586Y-13938236D02*
X12464110Y-13928713D01*
X12464110Y-13928713D02*
X12483157Y-13919189D01*
X12673634Y-13919189D02*
X12692681Y-13919189D01*
X12692681Y-13919189D02*
X12711729Y-13928713D01*
X12711729Y-13928713D02*
X12721253Y-13938236D01*
X12721253Y-13938236D02*
X12730777Y-13957284D01*
X12730777Y-13957284D02*
X12740300Y-13995379D01*
X12740300Y-13995379D02*
X12740300Y-14042998D01*
X12740300Y-14042998D02*
X12730777Y-14081093D01*
X12730777Y-14081093D02*
X12721253Y-14100141D01*
X12721253Y-14100141D02*
X12711729Y-14109665D01*
X12711729Y-14109665D02*
X12692681Y-14119189D01*
X12692681Y-14119189D02*
X12673634Y-14119189D01*
X12673634Y-14119189D02*
X12654586Y-14109665D01*
X12654586Y-14109665D02*
X12645062Y-14100141D01*
X12645062Y-14100141D02*
X12635538Y-14081093D01*
X12635538Y-14081093D02*
X12626015Y-14042998D01*
X12626015Y-14042998D02*
X12626015Y-13995379D01*
X12626015Y-13995379D02*
X12635538Y-13957284D01*
X12635538Y-13957284D02*
X12645062Y-13938236D01*
X12645062Y-13938236D02*
X12654586Y-13928713D01*
X12654586Y-13928713D02*
X12673634Y-13919189D01*
X12826015Y-14119189D02*
X12826015Y-13985855D01*
X12826015Y-14004903D02*
X12835538Y-13995379D01*
X12835538Y-13995379D02*
X12854586Y-13985855D01*
X12854586Y-13985855D02*
X12883158Y-13985855D01*
X12883158Y-13985855D02*
X12902205Y-13995379D01*
X12902205Y-13995379D02*
X12911729Y-14014427D01*
X12911729Y-14014427D02*
X12911729Y-14119189D01*
X12911729Y-14014427D02*
X12921253Y-13995379D01*
X12921253Y-13995379D02*
X12940300Y-13985855D01*
X12940300Y-13985855D02*
X12968872Y-13985855D01*
X12968872Y-13985855D02*
X12987919Y-13995379D01*
X12987919Y-13995379D02*
X12997443Y-14014427D01*
X12997443Y-14014427D02*
X12997443Y-14119189D01*
X13092681Y-14119189D02*
X13092681Y-13985855D01*
X13092681Y-14004903D02*
X13102205Y-13995379D01*
X13102205Y-13995379D02*
X13121253Y-13985855D01*
X13121253Y-13985855D02*
X13149824Y-13985855D01*
X13149824Y-13985855D02*
X13168872Y-13995379D01*
X13168872Y-13995379D02*
X13178396Y-14014427D01*
X13178396Y-14014427D02*
X13178396Y-14119189D01*
X13178396Y-14014427D02*
X13187919Y-13995379D01*
X13187919Y-13995379D02*
X13206967Y-13985855D01*
X13206967Y-13985855D02*
X13235538Y-13985855D01*
X13235538Y-13985855D02*
X13254586Y-13995379D01*
X13254586Y-13995379D02*
X13264110Y-14014427D01*
X13264110Y-14014427D02*
X13264110Y-14119189D01*
X13654586Y-13909665D02*
X13483158Y-14166808D01*
X13911729Y-13919189D02*
X13930777Y-13919189D01*
X13930777Y-13919189D02*
X13949824Y-13928713D01*
X13949824Y-13928713D02*
X13959348Y-13938236D01*
X13959348Y-13938236D02*
X13968872Y-13957284D01*
X13968872Y-13957284D02*
X13978396Y-13995379D01*
X13978396Y-13995379D02*
X13978396Y-14042998D01*
X13978396Y-14042998D02*
X13968872Y-14081093D01*
X13968872Y-14081093D02*
X13959348Y-14100141D01*
X13959348Y-14100141D02*
X13949824Y-14109665D01*
X13949824Y-14109665D02*
X13930777Y-14119189D01*
X13930777Y-14119189D02*
X13911729Y-14119189D01*
X13911729Y-14119189D02*
X13892681Y-14109665D01*
X13892681Y-14109665D02*
X13883158Y-14100141D01*
X13883158Y-14100141D02*
X13873634Y-14081093D01*
X13873634Y-14081093D02*
X13864110Y-14042998D01*
X13864110Y-14042998D02*
X13864110Y-13995379D01*
X13864110Y-13995379D02*
X13873634Y-13957284D01*
X13873634Y-13957284D02*
X13883158Y-13938236D01*
X13883158Y-13938236D02*
X13892681Y-13928713D01*
X13892681Y-13928713D02*
X13911729Y-13919189D01*
X14064110Y-14100141D02*
X14073634Y-14109665D01*
X14073634Y-14109665D02*
X14064110Y-14119189D01*
X14064110Y-14119189D02*
X14054586Y-14109665D01*
X14054586Y-14109665D02*
X14064110Y-14100141D01*
X14064110Y-14100141D02*
X14064110Y-14119189D01*
X14197443Y-13919189D02*
X14216491Y-13919189D01*
X14216491Y-13919189D02*
X14235539Y-13928713D01*
X14235539Y-13928713D02*
X14245062Y-13938236D01*
X14245062Y-13938236D02*
X14254586Y-13957284D01*
X14254586Y-13957284D02*
X14264110Y-13995379D01*
X14264110Y-13995379D02*
X14264110Y-14042998D01*
X14264110Y-14042998D02*
X14254586Y-14081093D01*
X14254586Y-14081093D02*
X14245062Y-14100141D01*
X14245062Y-14100141D02*
X14235539Y-14109665D01*
X14235539Y-14109665D02*
X14216491Y-14119189D01*
X14216491Y-14119189D02*
X14197443Y-14119189D01*
X14197443Y-14119189D02*
X14178396Y-14109665D01*
X14178396Y-14109665D02*
X14168872Y-14100141D01*
X14168872Y-14100141D02*
X14159348Y-14081093D01*
X14159348Y-14081093D02*
X14149824Y-14042998D01*
X14149824Y-14042998D02*
X14149824Y-13995379D01*
X14149824Y-13995379D02*
X14159348Y-13957284D01*
X14159348Y-13957284D02*
X14168872Y-13938236D01*
X14168872Y-13938236D02*
X14178396Y-13928713D01*
X14178396Y-13928713D02*
X14197443Y-13919189D01*
X14454586Y-14119189D02*
X14340301Y-14119189D01*
X14397443Y-14119189D02*
X14397443Y-13919189D01*
X14397443Y-13919189D02*
X14378396Y-13947760D01*
X14378396Y-13947760D02*
X14359348Y-13966808D01*
X14359348Y-13966808D02*
X14340301Y-13976332D01*
X14645062Y-14119189D02*
X14530777Y-14119189D01*
X14587920Y-14119189D02*
X14587920Y-13919189D01*
X14587920Y-13919189D02*
X14568872Y-13947760D01*
X14568872Y-13947760D02*
X14549824Y-13966808D01*
X14549824Y-13966808D02*
X14530777Y-13976332D01*
X14759348Y-14004903D02*
X14740301Y-13995379D01*
X14740301Y-13995379D02*
X14730777Y-13985855D01*
X14730777Y-13985855D02*
X14721253Y-13966808D01*
X14721253Y-13966808D02*
X14721253Y-13957284D01*
X14721253Y-13957284D02*
X14730777Y-13938236D01*
X14730777Y-13938236D02*
X14740301Y-13928713D01*
X14740301Y-13928713D02*
X14759348Y-13919189D01*
X14759348Y-13919189D02*
X14797443Y-13919189D01*
X14797443Y-13919189D02*
X14816491Y-13928713D01*
X14816491Y-13928713D02*
X14826015Y-13938236D01*
X14826015Y-13938236D02*
X14835539Y-13957284D01*
X14835539Y-13957284D02*
X14835539Y-13966808D01*
X14835539Y-13966808D02*
X14826015Y-13985855D01*
X14826015Y-13985855D02*
X14816491Y-13995379D01*
X14816491Y-13995379D02*
X14797443Y-14004903D01*
X14797443Y-14004903D02*
X14759348Y-14004903D01*
X14759348Y-14004903D02*
X14740301Y-14014427D01*
X14740301Y-14014427D02*
X14730777Y-14023951D01*
X14730777Y-14023951D02*
X14721253Y-14042998D01*
X14721253Y-14042998D02*
X14721253Y-14081093D01*
X14721253Y-14081093D02*
X14730777Y-14100141D01*
X14730777Y-14100141D02*
X14740301Y-14109665D01*
X14740301Y-14109665D02*
X14759348Y-14119189D01*
X14759348Y-14119189D02*
X14797443Y-14119189D01*
X14797443Y-14119189D02*
X14816491Y-14109665D01*
X14816491Y-14109665D02*
X14826015Y-14100141D01*
X14826015Y-14100141D02*
X14835539Y-14081093D01*
X14835539Y-14081093D02*
X14835539Y-14042998D01*
X14835539Y-14042998D02*
X14826015Y-14023951D01*
X14826015Y-14023951D02*
X14816491Y-14014427D01*
X14816491Y-14014427D02*
X14797443Y-14004903D01*
X14911729Y-13919189D02*
X14911729Y-13957284D01*
X14987920Y-13919189D02*
X14987920Y-13957284D01*
X15283158Y-14195379D02*
X15273634Y-14185855D01*
X15273634Y-14185855D02*
X15254586Y-14157284D01*
X15254586Y-14157284D02*
X15245063Y-14138236D01*
X15245063Y-14138236D02*
X15235539Y-14109665D01*
X15235539Y-14109665D02*
X15226015Y-14062046D01*
X15226015Y-14062046D02*
X15226015Y-14023951D01*
X15226015Y-14023951D02*
X15235539Y-13976332D01*
X15235539Y-13976332D02*
X15245063Y-13947760D01*
X15245063Y-13947760D02*
X15254586Y-13928713D01*
X15254586Y-13928713D02*
X15273634Y-13900141D01*
X15273634Y-13900141D02*
X15283158Y-13890617D01*
X15340301Y-13919189D02*
X15464110Y-13919189D01*
X15464110Y-13919189D02*
X15397443Y-13995379D01*
X15397443Y-13995379D02*
X15426015Y-13995379D01*
X15426015Y-13995379D02*
X15445063Y-14004903D01*
X15445063Y-14004903D02*
X15454586Y-14014427D01*
X15454586Y-14014427D02*
X15464110Y-14033474D01*
X15464110Y-14033474D02*
X15464110Y-14081093D01*
X15464110Y-14081093D02*
X15454586Y-14100141D01*
X15454586Y-14100141D02*
X15445063Y-14109665D01*
X15445063Y-14109665D02*
X15426015Y-14119189D01*
X15426015Y-14119189D02*
X15368872Y-14119189D01*
X15368872Y-14119189D02*
X15349824Y-14109665D01*
X15349824Y-14109665D02*
X15340301Y-14100141D01*
X15702205Y-14119189D02*
X15702205Y-13919189D01*
X15787920Y-14119189D02*
X15787920Y-14014427D01*
X15787920Y-14014427D02*
X15778396Y-13995379D01*
X15778396Y-13995379D02*
X15759348Y-13985855D01*
X15759348Y-13985855D02*
X15730777Y-13985855D01*
X15730777Y-13985855D02*
X15711729Y-13995379D01*
X15711729Y-13995379D02*
X15702205Y-14004903D01*
X15911729Y-14119189D02*
X15892682Y-14109665D01*
X15892682Y-14109665D02*
X15883158Y-14100141D01*
X15883158Y-14100141D02*
X15873634Y-14081093D01*
X15873634Y-14081093D02*
X15873634Y-14023951D01*
X15873634Y-14023951D02*
X15883158Y-14004903D01*
X15883158Y-14004903D02*
X15892682Y-13995379D01*
X15892682Y-13995379D02*
X15911729Y-13985855D01*
X15911729Y-13985855D02*
X15940301Y-13985855D01*
X15940301Y-13985855D02*
X15959348Y-13995379D01*
X15959348Y-13995379D02*
X15968872Y-14004903D01*
X15968872Y-14004903D02*
X15978396Y-14023951D01*
X15978396Y-14023951D02*
X15978396Y-14081093D01*
X15978396Y-14081093D02*
X15968872Y-14100141D01*
X15968872Y-14100141D02*
X15959348Y-14109665D01*
X15959348Y-14109665D02*
X15940301Y-14119189D01*
X15940301Y-14119189D02*
X15911729Y-14119189D01*
X16092682Y-14119189D02*
X16073634Y-14109665D01*
X16073634Y-14109665D02*
X16064110Y-14090617D01*
X16064110Y-14090617D02*
X16064110Y-13919189D01*
X16245063Y-14109665D02*
X16226015Y-14119189D01*
X16226015Y-14119189D02*
X16187920Y-14119189D01*
X16187920Y-14119189D02*
X16168872Y-14109665D01*
X16168872Y-14109665D02*
X16159348Y-14090617D01*
X16159348Y-14090617D02*
X16159348Y-14014427D01*
X16159348Y-14014427D02*
X16168872Y-13995379D01*
X16168872Y-13995379D02*
X16187920Y-13985855D01*
X16187920Y-13985855D02*
X16226015Y-13985855D01*
X16226015Y-13985855D02*
X16245063Y-13995379D01*
X16245063Y-13995379D02*
X16254586Y-14014427D01*
X16254586Y-14014427D02*
X16254586Y-14033474D01*
X16254586Y-14033474D02*
X16159348Y-14052522D01*
X16330777Y-14109665D02*
X16349825Y-14119189D01*
X16349825Y-14119189D02*
X16387920Y-14119189D01*
X16387920Y-14119189D02*
X16406967Y-14109665D01*
X16406967Y-14109665D02*
X16416491Y-14090617D01*
X16416491Y-14090617D02*
X16416491Y-14081093D01*
X16416491Y-14081093D02*
X16406967Y-14062046D01*
X16406967Y-14062046D02*
X16387920Y-14052522D01*
X16387920Y-14052522D02*
X16359348Y-14052522D01*
X16359348Y-14052522D02*
X16340301Y-14042998D01*
X16340301Y-14042998D02*
X16330777Y-14023951D01*
X16330777Y-14023951D02*
X16330777Y-14014427D01*
X16330777Y-14014427D02*
X16340301Y-13995379D01*
X16340301Y-13995379D02*
X16359348Y-13985855D01*
X16359348Y-13985855D02*
X16387920Y-13985855D01*
X16387920Y-13985855D02*
X16406967Y-13995379D01*
X16483158Y-14195379D02*
X16492682Y-14185855D01*
X16492682Y-14185855D02*
X16511729Y-14157284D01*
X16511729Y-14157284D02*
X16521253Y-14138236D01*
X16521253Y-14138236D02*
X16530777Y-14109665D01*
X16530777Y-14109665D02*
X16540301Y-14062046D01*
X16540301Y-14062046D02*
X16540301Y-14023951D01*
X16540301Y-14023951D02*
X16530777Y-13976332D01*
X16530777Y-13976332D02*
X16521253Y-13947760D01*
X16521253Y-13947760D02*
X16511729Y-13928713D01*
X16511729Y-13928713D02*
X16492682Y-13900141D01*
X16492682Y-13900141D02*
X16483158Y-13890617D01*
D12*
X11708095Y-14291705D02*
G75*
G02*
X11628095Y-14291705I-40000J0D01*
G01*
X11628095Y-14291705D02*
G75*
G02*
X11708095Y-14291705I40000J0D01*
G01*
D11*
X12006967Y-14183189D02*
X12026015Y-14183189D01*
X12026015Y-14183189D02*
X12045062Y-14192713D01*
X12045062Y-14192713D02*
X12054586Y-14202236D01*
X12054586Y-14202236D02*
X12064110Y-14221284D01*
X12064110Y-14221284D02*
X12073634Y-14259379D01*
X12073634Y-14259379D02*
X12073634Y-14306998D01*
X12073634Y-14306998D02*
X12064110Y-14345093D01*
X12064110Y-14345093D02*
X12054586Y-14364141D01*
X12054586Y-14364141D02*
X12045062Y-14373665D01*
X12045062Y-14373665D02*
X12026015Y-14383189D01*
X12026015Y-14383189D02*
X12006967Y-14383189D01*
X12006967Y-14383189D02*
X11987919Y-14373665D01*
X11987919Y-14373665D02*
X11978396Y-14364141D01*
X11978396Y-14364141D02*
X11968872Y-14345093D01*
X11968872Y-14345093D02*
X11959348Y-14306998D01*
X11959348Y-14306998D02*
X11959348Y-14259379D01*
X11959348Y-14259379D02*
X11968872Y-14221284D01*
X11968872Y-14221284D02*
X11978396Y-14202236D01*
X11978396Y-14202236D02*
X11987919Y-14192713D01*
X11987919Y-14192713D02*
X12006967Y-14183189D01*
X12159348Y-14364141D02*
X12168872Y-14373665D01*
X12168872Y-14373665D02*
X12159348Y-14383189D01*
X12159348Y-14383189D02*
X12149824Y-14373665D01*
X12149824Y-14373665D02*
X12159348Y-14364141D01*
X12159348Y-14364141D02*
X12159348Y-14383189D01*
X12283157Y-14268903D02*
X12264110Y-14259379D01*
X12264110Y-14259379D02*
X12254586Y-14249855D01*
X12254586Y-14249855D02*
X12245062Y-14230808D01*
X12245062Y-14230808D02*
X12245062Y-14221284D01*
X12245062Y-14221284D02*
X12254586Y-14202236D01*
X12254586Y-14202236D02*
X12264110Y-14192713D01*
X12264110Y-14192713D02*
X12283157Y-14183189D01*
X12283157Y-14183189D02*
X12321253Y-14183189D01*
X12321253Y-14183189D02*
X12340300Y-14192713D01*
X12340300Y-14192713D02*
X12349824Y-14202236D01*
X12349824Y-14202236D02*
X12359348Y-14221284D01*
X12359348Y-14221284D02*
X12359348Y-14230808D01*
X12359348Y-14230808D02*
X12349824Y-14249855D01*
X12349824Y-14249855D02*
X12340300Y-14259379D01*
X12340300Y-14259379D02*
X12321253Y-14268903D01*
X12321253Y-14268903D02*
X12283157Y-14268903D01*
X12283157Y-14268903D02*
X12264110Y-14278427D01*
X12264110Y-14278427D02*
X12254586Y-14287951D01*
X12254586Y-14287951D02*
X12245062Y-14306998D01*
X12245062Y-14306998D02*
X12245062Y-14345093D01*
X12245062Y-14345093D02*
X12254586Y-14364141D01*
X12254586Y-14364141D02*
X12264110Y-14373665D01*
X12264110Y-14373665D02*
X12283157Y-14383189D01*
X12283157Y-14383189D02*
X12321253Y-14383189D01*
X12321253Y-14383189D02*
X12340300Y-14373665D01*
X12340300Y-14373665D02*
X12349824Y-14364141D01*
X12349824Y-14364141D02*
X12359348Y-14345093D01*
X12359348Y-14345093D02*
X12359348Y-14306998D01*
X12359348Y-14306998D02*
X12349824Y-14287951D01*
X12349824Y-14287951D02*
X12340300Y-14278427D01*
X12340300Y-14278427D02*
X12321253Y-14268903D01*
X12483157Y-14183189D02*
X12502205Y-14183189D01*
X12502205Y-14183189D02*
X12521253Y-14192713D01*
X12521253Y-14192713D02*
X12530777Y-14202236D01*
X12530777Y-14202236D02*
X12540300Y-14221284D01*
X12540300Y-14221284D02*
X12549824Y-14259379D01*
X12549824Y-14259379D02*
X12549824Y-14306998D01*
X12549824Y-14306998D02*
X12540300Y-14345093D01*
X12540300Y-14345093D02*
X12530777Y-14364141D01*
X12530777Y-14364141D02*
X12521253Y-14373665D01*
X12521253Y-14373665D02*
X12502205Y-14383189D01*
X12502205Y-14383189D02*
X12483157Y-14383189D01*
X12483157Y-14383189D02*
X12464110Y-14373665D01*
X12464110Y-14373665D02*
X12454586Y-14364141D01*
X12454586Y-14364141D02*
X12445062Y-14345093D01*
X12445062Y-14345093D02*
X12435538Y-14306998D01*
X12435538Y-14306998D02*
X12435538Y-14259379D01*
X12435538Y-14259379D02*
X12445062Y-14221284D01*
X12445062Y-14221284D02*
X12454586Y-14202236D01*
X12454586Y-14202236D02*
X12464110Y-14192713D01*
X12464110Y-14192713D02*
X12483157Y-14183189D01*
X12673634Y-14183189D02*
X12692681Y-14183189D01*
X12692681Y-14183189D02*
X12711729Y-14192713D01*
X12711729Y-14192713D02*
X12721253Y-14202236D01*
X12721253Y-14202236D02*
X12730777Y-14221284D01*
X12730777Y-14221284D02*
X12740300Y-14259379D01*
X12740300Y-14259379D02*
X12740300Y-14306998D01*
X12740300Y-14306998D02*
X12730777Y-14345093D01*
X12730777Y-14345093D02*
X12721253Y-14364141D01*
X12721253Y-14364141D02*
X12711729Y-14373665D01*
X12711729Y-14373665D02*
X12692681Y-14383189D01*
X12692681Y-14383189D02*
X12673634Y-14383189D01*
X12673634Y-14383189D02*
X12654586Y-14373665D01*
X12654586Y-14373665D02*
X12645062Y-14364141D01*
X12645062Y-14364141D02*
X12635538Y-14345093D01*
X12635538Y-14345093D02*
X12626015Y-14306998D01*
X12626015Y-14306998D02*
X12626015Y-14259379D01*
X12626015Y-14259379D02*
X12635538Y-14221284D01*
X12635538Y-14221284D02*
X12645062Y-14202236D01*
X12645062Y-14202236D02*
X12654586Y-14192713D01*
X12654586Y-14192713D02*
X12673634Y-14183189D01*
X12826015Y-14383189D02*
X12826015Y-14249855D01*
X12826015Y-14268903D02*
X12835538Y-14259379D01*
X12835538Y-14259379D02*
X12854586Y-14249855D01*
X12854586Y-14249855D02*
X12883158Y-14249855D01*
X12883158Y-14249855D02*
X12902205Y-14259379D01*
X12902205Y-14259379D02*
X12911729Y-14278427D01*
X12911729Y-14278427D02*
X12911729Y-14383189D01*
X12911729Y-14278427D02*
X12921253Y-14259379D01*
X12921253Y-14259379D02*
X12940300Y-14249855D01*
X12940300Y-14249855D02*
X12968872Y-14249855D01*
X12968872Y-14249855D02*
X12987919Y-14259379D01*
X12987919Y-14259379D02*
X12997443Y-14278427D01*
X12997443Y-14278427D02*
X12997443Y-14383189D01*
X13092681Y-14383189D02*
X13092681Y-14249855D01*
X13092681Y-14268903D02*
X13102205Y-14259379D01*
X13102205Y-14259379D02*
X13121253Y-14249855D01*
X13121253Y-14249855D02*
X13149824Y-14249855D01*
X13149824Y-14249855D02*
X13168872Y-14259379D01*
X13168872Y-14259379D02*
X13178396Y-14278427D01*
X13178396Y-14278427D02*
X13178396Y-14383189D01*
X13178396Y-14278427D02*
X13187919Y-14259379D01*
X13187919Y-14259379D02*
X13206967Y-14249855D01*
X13206967Y-14249855D02*
X13235538Y-14249855D01*
X13235538Y-14249855D02*
X13254586Y-14259379D01*
X13254586Y-14259379D02*
X13264110Y-14278427D01*
X13264110Y-14278427D02*
X13264110Y-14383189D01*
X13654586Y-14173665D02*
X13483158Y-14430808D01*
X13911729Y-14183189D02*
X13930777Y-14183189D01*
X13930777Y-14183189D02*
X13949824Y-14192713D01*
X13949824Y-14192713D02*
X13959348Y-14202236D01*
X13959348Y-14202236D02*
X13968872Y-14221284D01*
X13968872Y-14221284D02*
X13978396Y-14259379D01*
X13978396Y-14259379D02*
X13978396Y-14306998D01*
X13978396Y-14306998D02*
X13968872Y-14345093D01*
X13968872Y-14345093D02*
X13959348Y-14364141D01*
X13959348Y-14364141D02*
X13949824Y-14373665D01*
X13949824Y-14373665D02*
X13930777Y-14383189D01*
X13930777Y-14383189D02*
X13911729Y-14383189D01*
X13911729Y-14383189D02*
X13892681Y-14373665D01*
X13892681Y-14373665D02*
X13883158Y-14364141D01*
X13883158Y-14364141D02*
X13873634Y-14345093D01*
X13873634Y-14345093D02*
X13864110Y-14306998D01*
X13864110Y-14306998D02*
X13864110Y-14259379D01*
X13864110Y-14259379D02*
X13873634Y-14221284D01*
X13873634Y-14221284D02*
X13883158Y-14202236D01*
X13883158Y-14202236D02*
X13892681Y-14192713D01*
X13892681Y-14192713D02*
X13911729Y-14183189D01*
X14064110Y-14364141D02*
X14073634Y-14373665D01*
X14073634Y-14373665D02*
X14064110Y-14383189D01*
X14064110Y-14383189D02*
X14054586Y-14373665D01*
X14054586Y-14373665D02*
X14064110Y-14364141D01*
X14064110Y-14364141D02*
X14064110Y-14383189D01*
X14197443Y-14183189D02*
X14216491Y-14183189D01*
X14216491Y-14183189D02*
X14235539Y-14192713D01*
X14235539Y-14192713D02*
X14245062Y-14202236D01*
X14245062Y-14202236D02*
X14254586Y-14221284D01*
X14254586Y-14221284D02*
X14264110Y-14259379D01*
X14264110Y-14259379D02*
X14264110Y-14306998D01*
X14264110Y-14306998D02*
X14254586Y-14345093D01*
X14254586Y-14345093D02*
X14245062Y-14364141D01*
X14245062Y-14364141D02*
X14235539Y-14373665D01*
X14235539Y-14373665D02*
X14216491Y-14383189D01*
X14216491Y-14383189D02*
X14197443Y-14383189D01*
X14197443Y-14383189D02*
X14178396Y-14373665D01*
X14178396Y-14373665D02*
X14168872Y-14364141D01*
X14168872Y-14364141D02*
X14159348Y-14345093D01*
X14159348Y-14345093D02*
X14149824Y-14306998D01*
X14149824Y-14306998D02*
X14149824Y-14259379D01*
X14149824Y-14259379D02*
X14159348Y-14221284D01*
X14159348Y-14221284D02*
X14168872Y-14202236D01*
X14168872Y-14202236D02*
X14178396Y-14192713D01*
X14178396Y-14192713D02*
X14197443Y-14183189D01*
X14330777Y-14183189D02*
X14454586Y-14183189D01*
X14454586Y-14183189D02*
X14387920Y-14259379D01*
X14387920Y-14259379D02*
X14416491Y-14259379D01*
X14416491Y-14259379D02*
X14435539Y-14268903D01*
X14435539Y-14268903D02*
X14445062Y-14278427D01*
X14445062Y-14278427D02*
X14454586Y-14297474D01*
X14454586Y-14297474D02*
X14454586Y-14345093D01*
X14454586Y-14345093D02*
X14445062Y-14364141D01*
X14445062Y-14364141D02*
X14435539Y-14373665D01*
X14435539Y-14373665D02*
X14416491Y-14383189D01*
X14416491Y-14383189D02*
X14359348Y-14383189D01*
X14359348Y-14383189D02*
X14340301Y-14373665D01*
X14340301Y-14373665D02*
X14330777Y-14364141D01*
X14645062Y-14383189D02*
X14530777Y-14383189D01*
X14587920Y-14383189D02*
X14587920Y-14183189D01*
X14587920Y-14183189D02*
X14568872Y-14211760D01*
X14568872Y-14211760D02*
X14549824Y-14230808D01*
X14549824Y-14230808D02*
X14530777Y-14240332D01*
X14826015Y-14183189D02*
X14730777Y-14183189D01*
X14730777Y-14183189D02*
X14721253Y-14278427D01*
X14721253Y-14278427D02*
X14730777Y-14268903D01*
X14730777Y-14268903D02*
X14749824Y-14259379D01*
X14749824Y-14259379D02*
X14797443Y-14259379D01*
X14797443Y-14259379D02*
X14816491Y-14268903D01*
X14816491Y-14268903D02*
X14826015Y-14278427D01*
X14826015Y-14278427D02*
X14835539Y-14297474D01*
X14835539Y-14297474D02*
X14835539Y-14345093D01*
X14835539Y-14345093D02*
X14826015Y-14364141D01*
X14826015Y-14364141D02*
X14816491Y-14373665D01*
X14816491Y-14373665D02*
X14797443Y-14383189D01*
X14797443Y-14383189D02*
X14749824Y-14383189D01*
X14749824Y-14383189D02*
X14730777Y-14373665D01*
X14730777Y-14373665D02*
X14721253Y-14364141D01*
X14911729Y-14183189D02*
X14911729Y-14221284D01*
X14987920Y-14183189D02*
X14987920Y-14221284D01*
X15283158Y-14459379D02*
X15273634Y-14449855D01*
X15273634Y-14449855D02*
X15254586Y-14421284D01*
X15254586Y-14421284D02*
X15245063Y-14402236D01*
X15245063Y-14402236D02*
X15235539Y-14373665D01*
X15235539Y-14373665D02*
X15226015Y-14326046D01*
X15226015Y-14326046D02*
X15226015Y-14287951D01*
X15226015Y-14287951D02*
X15235539Y-14240332D01*
X15235539Y-14240332D02*
X15245063Y-14211760D01*
X15245063Y-14211760D02*
X15254586Y-14192713D01*
X15254586Y-14192713D02*
X15273634Y-14164141D01*
X15273634Y-14164141D02*
X15283158Y-14154617D01*
X15387920Y-14268903D02*
X15368872Y-14259379D01*
X15368872Y-14259379D02*
X15359348Y-14249855D01*
X15359348Y-14249855D02*
X15349824Y-14230808D01*
X15349824Y-14230808D02*
X15349824Y-14221284D01*
X15349824Y-14221284D02*
X15359348Y-14202236D01*
X15359348Y-14202236D02*
X15368872Y-14192713D01*
X15368872Y-14192713D02*
X15387920Y-14183189D01*
X15387920Y-14183189D02*
X15426015Y-14183189D01*
X15426015Y-14183189D02*
X15445063Y-14192713D01*
X15445063Y-14192713D02*
X15454586Y-14202236D01*
X15454586Y-14202236D02*
X15464110Y-14221284D01*
X15464110Y-14221284D02*
X15464110Y-14230808D01*
X15464110Y-14230808D02*
X15454586Y-14249855D01*
X15454586Y-14249855D02*
X15445063Y-14259379D01*
X15445063Y-14259379D02*
X15426015Y-14268903D01*
X15426015Y-14268903D02*
X15387920Y-14268903D01*
X15387920Y-14268903D02*
X15368872Y-14278427D01*
X15368872Y-14278427D02*
X15359348Y-14287951D01*
X15359348Y-14287951D02*
X15349824Y-14306998D01*
X15349824Y-14306998D02*
X15349824Y-14345093D01*
X15349824Y-14345093D02*
X15359348Y-14364141D01*
X15359348Y-14364141D02*
X15368872Y-14373665D01*
X15368872Y-14373665D02*
X15387920Y-14383189D01*
X15387920Y-14383189D02*
X15426015Y-14383189D01*
X15426015Y-14383189D02*
X15445063Y-14373665D01*
X15445063Y-14373665D02*
X15454586Y-14364141D01*
X15454586Y-14364141D02*
X15464110Y-14345093D01*
X15464110Y-14345093D02*
X15464110Y-14306998D01*
X15464110Y-14306998D02*
X15454586Y-14287951D01*
X15454586Y-14287951D02*
X15445063Y-14278427D01*
X15445063Y-14278427D02*
X15426015Y-14268903D01*
X15702205Y-14383189D02*
X15702205Y-14183189D01*
X15787920Y-14383189D02*
X15787920Y-14278427D01*
X15787920Y-14278427D02*
X15778396Y-14259379D01*
X15778396Y-14259379D02*
X15759348Y-14249855D01*
X15759348Y-14249855D02*
X15730777Y-14249855D01*
X15730777Y-14249855D02*
X15711729Y-14259379D01*
X15711729Y-14259379D02*
X15702205Y-14268903D01*
X15911729Y-14383189D02*
X15892682Y-14373665D01*
X15892682Y-14373665D02*
X15883158Y-14364141D01*
X15883158Y-14364141D02*
X15873634Y-14345093D01*
X15873634Y-14345093D02*
X15873634Y-14287951D01*
X15873634Y-14287951D02*
X15883158Y-14268903D01*
X15883158Y-14268903D02*
X15892682Y-14259379D01*
X15892682Y-14259379D02*
X15911729Y-14249855D01*
X15911729Y-14249855D02*
X15940301Y-14249855D01*
X15940301Y-14249855D02*
X15959348Y-14259379D01*
X15959348Y-14259379D02*
X15968872Y-14268903D01*
X15968872Y-14268903D02*
X15978396Y-14287951D01*
X15978396Y-14287951D02*
X15978396Y-14345093D01*
X15978396Y-14345093D02*
X15968872Y-14364141D01*
X15968872Y-14364141D02*
X15959348Y-14373665D01*
X15959348Y-14373665D02*
X15940301Y-14383189D01*
X15940301Y-14383189D02*
X15911729Y-14383189D01*
X16092682Y-14383189D02*
X16073634Y-14373665D01*
X16073634Y-14373665D02*
X16064110Y-14354617D01*
X16064110Y-14354617D02*
X16064110Y-14183189D01*
X16245063Y-14373665D02*
X16226015Y-14383189D01*
X16226015Y-14383189D02*
X16187920Y-14383189D01*
X16187920Y-14383189D02*
X16168872Y-14373665D01*
X16168872Y-14373665D02*
X16159348Y-14354617D01*
X16159348Y-14354617D02*
X16159348Y-14278427D01*
X16159348Y-14278427D02*
X16168872Y-14259379D01*
X16168872Y-14259379D02*
X16187920Y-14249855D01*
X16187920Y-14249855D02*
X16226015Y-14249855D01*
X16226015Y-14249855D02*
X16245063Y-14259379D01*
X16245063Y-14259379D02*
X16254586Y-14278427D01*
X16254586Y-14278427D02*
X16254586Y-14297474D01*
X16254586Y-14297474D02*
X16159348Y-14316522D01*
X16330777Y-14373665D02*
X16349825Y-14383189D01*
X16349825Y-14383189D02*
X16387920Y-14383189D01*
X16387920Y-14383189D02*
X16406967Y-14373665D01*
X16406967Y-14373665D02*
X16416491Y-14354617D01*
X16416491Y-14354617D02*
X16416491Y-14345093D01*
X16416491Y-14345093D02*
X16406967Y-14326046D01*
X16406967Y-14326046D02*
X16387920Y-14316522D01*
X16387920Y-14316522D02*
X16359348Y-14316522D01*
X16359348Y-14316522D02*
X16340301Y-14306998D01*
X16340301Y-14306998D02*
X16330777Y-14287951D01*
X16330777Y-14287951D02*
X16330777Y-14278427D01*
X16330777Y-14278427D02*
X16340301Y-14259379D01*
X16340301Y-14259379D02*
X16359348Y-14249855D01*
X16359348Y-14249855D02*
X16387920Y-14249855D01*
X16387920Y-14249855D02*
X16406967Y-14259379D01*
X16483158Y-14459379D02*
X16492682Y-14449855D01*
X16492682Y-14449855D02*
X16511729Y-14421284D01*
X16511729Y-14421284D02*
X16521253Y-14402236D01*
X16521253Y-14402236D02*
X16530777Y-14373665D01*
X16530777Y-14373665D02*
X16540301Y-14326046D01*
X16540301Y-14326046D02*
X16540301Y-14287951D01*
X16540301Y-14287951D02*
X16530777Y-14240332D01*
X16530777Y-14240332D02*
X16521253Y-14211760D01*
X16521253Y-14211760D02*
X16511729Y-14192713D01*
X16511729Y-14192713D02*
X16492682Y-14164141D01*
X16492682Y-14164141D02*
X16483158Y-14154617D01*
D12*
X11665595Y-14513205D02*
X11665595Y-14598205D01*
X11623095Y-14555705D02*
X11708095Y-14555705D01*
D11*
X12006967Y-14447189D02*
X12026015Y-14447189D01*
X12026015Y-14447189D02*
X12045062Y-14456713D01*
X12045062Y-14456713D02*
X12054586Y-14466236D01*
X12054586Y-14466236D02*
X12064110Y-14485284D01*
X12064110Y-14485284D02*
X12073634Y-14523379D01*
X12073634Y-14523379D02*
X12073634Y-14570998D01*
X12073634Y-14570998D02*
X12064110Y-14609093D01*
X12064110Y-14609093D02*
X12054586Y-14628141D01*
X12054586Y-14628141D02*
X12045062Y-14637665D01*
X12045062Y-14637665D02*
X12026015Y-14647189D01*
X12026015Y-14647189D02*
X12006967Y-14647189D01*
X12006967Y-14647189D02*
X11987919Y-14637665D01*
X11987919Y-14637665D02*
X11978396Y-14628141D01*
X11978396Y-14628141D02*
X11968872Y-14609093D01*
X11968872Y-14609093D02*
X11959348Y-14570998D01*
X11959348Y-14570998D02*
X11959348Y-14523379D01*
X11959348Y-14523379D02*
X11968872Y-14485284D01*
X11968872Y-14485284D02*
X11978396Y-14466236D01*
X11978396Y-14466236D02*
X11987919Y-14456713D01*
X11987919Y-14456713D02*
X12006967Y-14447189D01*
X12159348Y-14628141D02*
X12168872Y-14637665D01*
X12168872Y-14637665D02*
X12159348Y-14647189D01*
X12159348Y-14647189D02*
X12149824Y-14637665D01*
X12149824Y-14637665D02*
X12159348Y-14628141D01*
X12159348Y-14628141D02*
X12159348Y-14647189D01*
X12283157Y-14532903D02*
X12264110Y-14523379D01*
X12264110Y-14523379D02*
X12254586Y-14513855D01*
X12254586Y-14513855D02*
X12245062Y-14494808D01*
X12245062Y-14494808D02*
X12245062Y-14485284D01*
X12245062Y-14485284D02*
X12254586Y-14466236D01*
X12254586Y-14466236D02*
X12264110Y-14456713D01*
X12264110Y-14456713D02*
X12283157Y-14447189D01*
X12283157Y-14447189D02*
X12321253Y-14447189D01*
X12321253Y-14447189D02*
X12340300Y-14456713D01*
X12340300Y-14456713D02*
X12349824Y-14466236D01*
X12349824Y-14466236D02*
X12359348Y-14485284D01*
X12359348Y-14485284D02*
X12359348Y-14494808D01*
X12359348Y-14494808D02*
X12349824Y-14513855D01*
X12349824Y-14513855D02*
X12340300Y-14523379D01*
X12340300Y-14523379D02*
X12321253Y-14532903D01*
X12321253Y-14532903D02*
X12283157Y-14532903D01*
X12283157Y-14532903D02*
X12264110Y-14542427D01*
X12264110Y-14542427D02*
X12254586Y-14551951D01*
X12254586Y-14551951D02*
X12245062Y-14570998D01*
X12245062Y-14570998D02*
X12245062Y-14609093D01*
X12245062Y-14609093D02*
X12254586Y-14628141D01*
X12254586Y-14628141D02*
X12264110Y-14637665D01*
X12264110Y-14637665D02*
X12283157Y-14647189D01*
X12283157Y-14647189D02*
X12321253Y-14647189D01*
X12321253Y-14647189D02*
X12340300Y-14637665D01*
X12340300Y-14637665D02*
X12349824Y-14628141D01*
X12349824Y-14628141D02*
X12359348Y-14609093D01*
X12359348Y-14609093D02*
X12359348Y-14570998D01*
X12359348Y-14570998D02*
X12349824Y-14551951D01*
X12349824Y-14551951D02*
X12340300Y-14542427D01*
X12340300Y-14542427D02*
X12321253Y-14532903D01*
X12540300Y-14447189D02*
X12445062Y-14447189D01*
X12445062Y-14447189D02*
X12435538Y-14542427D01*
X12435538Y-14542427D02*
X12445062Y-14532903D01*
X12445062Y-14532903D02*
X12464110Y-14523379D01*
X12464110Y-14523379D02*
X12511729Y-14523379D01*
X12511729Y-14523379D02*
X12530777Y-14532903D01*
X12530777Y-14532903D02*
X12540300Y-14542427D01*
X12540300Y-14542427D02*
X12549824Y-14561474D01*
X12549824Y-14561474D02*
X12549824Y-14609093D01*
X12549824Y-14609093D02*
X12540300Y-14628141D01*
X12540300Y-14628141D02*
X12530777Y-14637665D01*
X12530777Y-14637665D02*
X12511729Y-14647189D01*
X12511729Y-14647189D02*
X12464110Y-14647189D01*
X12464110Y-14647189D02*
X12445062Y-14637665D01*
X12445062Y-14637665D02*
X12435538Y-14628141D01*
X12673634Y-14447189D02*
X12692681Y-14447189D01*
X12692681Y-14447189D02*
X12711729Y-14456713D01*
X12711729Y-14456713D02*
X12721253Y-14466236D01*
X12721253Y-14466236D02*
X12730777Y-14485284D01*
X12730777Y-14485284D02*
X12740300Y-14523379D01*
X12740300Y-14523379D02*
X12740300Y-14570998D01*
X12740300Y-14570998D02*
X12730777Y-14609093D01*
X12730777Y-14609093D02*
X12721253Y-14628141D01*
X12721253Y-14628141D02*
X12711729Y-14637665D01*
X12711729Y-14637665D02*
X12692681Y-14647189D01*
X12692681Y-14647189D02*
X12673634Y-14647189D01*
X12673634Y-14647189D02*
X12654586Y-14637665D01*
X12654586Y-14637665D02*
X12645062Y-14628141D01*
X12645062Y-14628141D02*
X12635538Y-14609093D01*
X12635538Y-14609093D02*
X12626015Y-14570998D01*
X12626015Y-14570998D02*
X12626015Y-14523379D01*
X12626015Y-14523379D02*
X12635538Y-14485284D01*
X12635538Y-14485284D02*
X12645062Y-14466236D01*
X12645062Y-14466236D02*
X12654586Y-14456713D01*
X12654586Y-14456713D02*
X12673634Y-14447189D01*
X12826015Y-14647189D02*
X12826015Y-14513855D01*
X12826015Y-14532903D02*
X12835538Y-14523379D01*
X12835538Y-14523379D02*
X12854586Y-14513855D01*
X12854586Y-14513855D02*
X12883158Y-14513855D01*
X12883158Y-14513855D02*
X12902205Y-14523379D01*
X12902205Y-14523379D02*
X12911729Y-14542427D01*
X12911729Y-14542427D02*
X12911729Y-14647189D01*
X12911729Y-14542427D02*
X12921253Y-14523379D01*
X12921253Y-14523379D02*
X12940300Y-14513855D01*
X12940300Y-14513855D02*
X12968872Y-14513855D01*
X12968872Y-14513855D02*
X12987919Y-14523379D01*
X12987919Y-14523379D02*
X12997443Y-14542427D01*
X12997443Y-14542427D02*
X12997443Y-14647189D01*
X13092681Y-14647189D02*
X13092681Y-14513855D01*
X13092681Y-14532903D02*
X13102205Y-14523379D01*
X13102205Y-14523379D02*
X13121253Y-14513855D01*
X13121253Y-14513855D02*
X13149824Y-14513855D01*
X13149824Y-14513855D02*
X13168872Y-14523379D01*
X13168872Y-14523379D02*
X13178396Y-14542427D01*
X13178396Y-14542427D02*
X13178396Y-14647189D01*
X13178396Y-14542427D02*
X13187919Y-14523379D01*
X13187919Y-14523379D02*
X13206967Y-14513855D01*
X13206967Y-14513855D02*
X13235538Y-14513855D01*
X13235538Y-14513855D02*
X13254586Y-14523379D01*
X13254586Y-14523379D02*
X13264110Y-14542427D01*
X13264110Y-14542427D02*
X13264110Y-14647189D01*
X13654586Y-14437665D02*
X13483158Y-14694808D01*
X13911729Y-14447189D02*
X13930777Y-14447189D01*
X13930777Y-14447189D02*
X13949824Y-14456713D01*
X13949824Y-14456713D02*
X13959348Y-14466236D01*
X13959348Y-14466236D02*
X13968872Y-14485284D01*
X13968872Y-14485284D02*
X13978396Y-14523379D01*
X13978396Y-14523379D02*
X13978396Y-14570998D01*
X13978396Y-14570998D02*
X13968872Y-14609093D01*
X13968872Y-14609093D02*
X13959348Y-14628141D01*
X13959348Y-14628141D02*
X13949824Y-14637665D01*
X13949824Y-14637665D02*
X13930777Y-14647189D01*
X13930777Y-14647189D02*
X13911729Y-14647189D01*
X13911729Y-14647189D02*
X13892681Y-14637665D01*
X13892681Y-14637665D02*
X13883158Y-14628141D01*
X13883158Y-14628141D02*
X13873634Y-14609093D01*
X13873634Y-14609093D02*
X13864110Y-14570998D01*
X13864110Y-14570998D02*
X13864110Y-14523379D01*
X13864110Y-14523379D02*
X13873634Y-14485284D01*
X13873634Y-14485284D02*
X13883158Y-14466236D01*
X13883158Y-14466236D02*
X13892681Y-14456713D01*
X13892681Y-14456713D02*
X13911729Y-14447189D01*
X14064110Y-14628141D02*
X14073634Y-14637665D01*
X14073634Y-14637665D02*
X14064110Y-14647189D01*
X14064110Y-14647189D02*
X14054586Y-14637665D01*
X14054586Y-14637665D02*
X14064110Y-14628141D01*
X14064110Y-14628141D02*
X14064110Y-14647189D01*
X14197443Y-14447189D02*
X14216491Y-14447189D01*
X14216491Y-14447189D02*
X14235539Y-14456713D01*
X14235539Y-14456713D02*
X14245062Y-14466236D01*
X14245062Y-14466236D02*
X14254586Y-14485284D01*
X14254586Y-14485284D02*
X14264110Y-14523379D01*
X14264110Y-14523379D02*
X14264110Y-14570998D01*
X14264110Y-14570998D02*
X14254586Y-14609093D01*
X14254586Y-14609093D02*
X14245062Y-14628141D01*
X14245062Y-14628141D02*
X14235539Y-14637665D01*
X14235539Y-14637665D02*
X14216491Y-14647189D01*
X14216491Y-14647189D02*
X14197443Y-14647189D01*
X14197443Y-14647189D02*
X14178396Y-14637665D01*
X14178396Y-14637665D02*
X14168872Y-14628141D01*
X14168872Y-14628141D02*
X14159348Y-14609093D01*
X14159348Y-14609093D02*
X14149824Y-14570998D01*
X14149824Y-14570998D02*
X14149824Y-14523379D01*
X14149824Y-14523379D02*
X14159348Y-14485284D01*
X14159348Y-14485284D02*
X14168872Y-14466236D01*
X14168872Y-14466236D02*
X14178396Y-14456713D01*
X14178396Y-14456713D02*
X14197443Y-14447189D01*
X14330777Y-14447189D02*
X14454586Y-14447189D01*
X14454586Y-14447189D02*
X14387920Y-14523379D01*
X14387920Y-14523379D02*
X14416491Y-14523379D01*
X14416491Y-14523379D02*
X14435539Y-14532903D01*
X14435539Y-14532903D02*
X14445062Y-14542427D01*
X14445062Y-14542427D02*
X14454586Y-14561474D01*
X14454586Y-14561474D02*
X14454586Y-14609093D01*
X14454586Y-14609093D02*
X14445062Y-14628141D01*
X14445062Y-14628141D02*
X14435539Y-14637665D01*
X14435539Y-14637665D02*
X14416491Y-14647189D01*
X14416491Y-14647189D02*
X14359348Y-14647189D01*
X14359348Y-14647189D02*
X14340301Y-14637665D01*
X14340301Y-14637665D02*
X14330777Y-14628141D01*
X14521253Y-14447189D02*
X14645062Y-14447189D01*
X14645062Y-14447189D02*
X14578396Y-14523379D01*
X14578396Y-14523379D02*
X14606967Y-14523379D01*
X14606967Y-14523379D02*
X14626015Y-14532903D01*
X14626015Y-14532903D02*
X14635539Y-14542427D01*
X14635539Y-14542427D02*
X14645062Y-14561474D01*
X14645062Y-14561474D02*
X14645062Y-14609093D01*
X14645062Y-14609093D02*
X14635539Y-14628141D01*
X14635539Y-14628141D02*
X14626015Y-14637665D01*
X14626015Y-14637665D02*
X14606967Y-14647189D01*
X14606967Y-14647189D02*
X14549824Y-14647189D01*
X14549824Y-14647189D02*
X14530777Y-14637665D01*
X14530777Y-14637665D02*
X14521253Y-14628141D01*
X14826015Y-14447189D02*
X14730777Y-14447189D01*
X14730777Y-14447189D02*
X14721253Y-14542427D01*
X14721253Y-14542427D02*
X14730777Y-14532903D01*
X14730777Y-14532903D02*
X14749824Y-14523379D01*
X14749824Y-14523379D02*
X14797443Y-14523379D01*
X14797443Y-14523379D02*
X14816491Y-14532903D01*
X14816491Y-14532903D02*
X14826015Y-14542427D01*
X14826015Y-14542427D02*
X14835539Y-14561474D01*
X14835539Y-14561474D02*
X14835539Y-14609093D01*
X14835539Y-14609093D02*
X14826015Y-14628141D01*
X14826015Y-14628141D02*
X14816491Y-14637665D01*
X14816491Y-14637665D02*
X14797443Y-14647189D01*
X14797443Y-14647189D02*
X14749824Y-14647189D01*
X14749824Y-14647189D02*
X14730777Y-14637665D01*
X14730777Y-14637665D02*
X14721253Y-14628141D01*
X14911729Y-14447189D02*
X14911729Y-14485284D01*
X14987920Y-14447189D02*
X14987920Y-14485284D01*
X15283158Y-14723379D02*
X15273634Y-14713855D01*
X15273634Y-14713855D02*
X15254586Y-14685284D01*
X15254586Y-14685284D02*
X15245063Y-14666236D01*
X15245063Y-14666236D02*
X15235539Y-14637665D01*
X15235539Y-14637665D02*
X15226015Y-14590046D01*
X15226015Y-14590046D02*
X15226015Y-14551951D01*
X15226015Y-14551951D02*
X15235539Y-14504332D01*
X15235539Y-14504332D02*
X15245063Y-14475760D01*
X15245063Y-14475760D02*
X15254586Y-14456713D01*
X15254586Y-14456713D02*
X15273634Y-14428141D01*
X15273634Y-14428141D02*
X15283158Y-14418617D01*
X15349824Y-14466236D02*
X15359348Y-14456713D01*
X15359348Y-14456713D02*
X15378396Y-14447189D01*
X15378396Y-14447189D02*
X15426015Y-14447189D01*
X15426015Y-14447189D02*
X15445063Y-14456713D01*
X15445063Y-14456713D02*
X15454586Y-14466236D01*
X15454586Y-14466236D02*
X15464110Y-14485284D01*
X15464110Y-14485284D02*
X15464110Y-14504332D01*
X15464110Y-14504332D02*
X15454586Y-14532903D01*
X15454586Y-14532903D02*
X15340301Y-14647189D01*
X15340301Y-14647189D02*
X15464110Y-14647189D01*
X15530777Y-14447189D02*
X15654586Y-14447189D01*
X15654586Y-14447189D02*
X15587920Y-14523379D01*
X15587920Y-14523379D02*
X15616491Y-14523379D01*
X15616491Y-14523379D02*
X15635539Y-14532903D01*
X15635539Y-14532903D02*
X15645063Y-14542427D01*
X15645063Y-14542427D02*
X15654586Y-14561474D01*
X15654586Y-14561474D02*
X15654586Y-14609093D01*
X15654586Y-14609093D02*
X15645063Y-14628141D01*
X15645063Y-14628141D02*
X15635539Y-14637665D01*
X15635539Y-14637665D02*
X15616491Y-14647189D01*
X15616491Y-14647189D02*
X15559348Y-14647189D01*
X15559348Y-14647189D02*
X15540301Y-14637665D01*
X15540301Y-14637665D02*
X15530777Y-14628141D01*
X15892682Y-14647189D02*
X15892682Y-14447189D01*
X15978396Y-14647189D02*
X15978396Y-14542427D01*
X15978396Y-14542427D02*
X15968872Y-14523379D01*
X15968872Y-14523379D02*
X15949825Y-14513855D01*
X15949825Y-14513855D02*
X15921253Y-14513855D01*
X15921253Y-14513855D02*
X15902205Y-14523379D01*
X15902205Y-14523379D02*
X15892682Y-14532903D01*
X16102205Y-14647189D02*
X16083158Y-14637665D01*
X16083158Y-14637665D02*
X16073634Y-14628141D01*
X16073634Y-14628141D02*
X16064110Y-14609093D01*
X16064110Y-14609093D02*
X16064110Y-14551951D01*
X16064110Y-14551951D02*
X16073634Y-14532903D01*
X16073634Y-14532903D02*
X16083158Y-14523379D01*
X16083158Y-14523379D02*
X16102205Y-14513855D01*
X16102205Y-14513855D02*
X16130777Y-14513855D01*
X16130777Y-14513855D02*
X16149825Y-14523379D01*
X16149825Y-14523379D02*
X16159348Y-14532903D01*
X16159348Y-14532903D02*
X16168872Y-14551951D01*
X16168872Y-14551951D02*
X16168872Y-14609093D01*
X16168872Y-14609093D02*
X16159348Y-14628141D01*
X16159348Y-14628141D02*
X16149825Y-14637665D01*
X16149825Y-14637665D02*
X16130777Y-14647189D01*
X16130777Y-14647189D02*
X16102205Y-14647189D01*
X16283158Y-14647189D02*
X16264110Y-14637665D01*
X16264110Y-14637665D02*
X16254586Y-14618617D01*
X16254586Y-14618617D02*
X16254586Y-14447189D01*
X16435539Y-14637665D02*
X16416491Y-14647189D01*
X16416491Y-14647189D02*
X16378396Y-14647189D01*
X16378396Y-14647189D02*
X16359348Y-14637665D01*
X16359348Y-14637665D02*
X16349825Y-14618617D01*
X16349825Y-14618617D02*
X16349825Y-14542427D01*
X16349825Y-14542427D02*
X16359348Y-14523379D01*
X16359348Y-14523379D02*
X16378396Y-14513855D01*
X16378396Y-14513855D02*
X16416491Y-14513855D01*
X16416491Y-14513855D02*
X16435539Y-14523379D01*
X16435539Y-14523379D02*
X16445063Y-14542427D01*
X16445063Y-14542427D02*
X16445063Y-14561474D01*
X16445063Y-14561474D02*
X16349825Y-14580522D01*
X16521253Y-14637665D02*
X16540301Y-14647189D01*
X16540301Y-14647189D02*
X16578396Y-14647189D01*
X16578396Y-14647189D02*
X16597444Y-14637665D01*
X16597444Y-14637665D02*
X16606967Y-14618617D01*
X16606967Y-14618617D02*
X16606967Y-14609093D01*
X16606967Y-14609093D02*
X16597444Y-14590046D01*
X16597444Y-14590046D02*
X16578396Y-14580522D01*
X16578396Y-14580522D02*
X16549825Y-14580522D01*
X16549825Y-14580522D02*
X16530777Y-14570998D01*
X16530777Y-14570998D02*
X16521253Y-14551951D01*
X16521253Y-14551951D02*
X16521253Y-14542427D01*
X16521253Y-14542427D02*
X16530777Y-14523379D01*
X16530777Y-14523379D02*
X16549825Y-14513855D01*
X16549825Y-14513855D02*
X16578396Y-14513855D01*
X16578396Y-14513855D02*
X16597444Y-14523379D01*
X16673634Y-14723379D02*
X16683158Y-14713855D01*
X16683158Y-14713855D02*
X16702206Y-14685284D01*
X16702206Y-14685284D02*
X16711729Y-14666236D01*
X16711729Y-14666236D02*
X16721253Y-14637665D01*
X16721253Y-14637665D02*
X16730777Y-14590046D01*
X16730777Y-14590046D02*
X16730777Y-14551951D01*
X16730777Y-14551951D02*
X16721253Y-14504332D01*
X16721253Y-14504332D02*
X16711729Y-14475760D01*
X16711729Y-14475760D02*
X16702206Y-14456713D01*
X16702206Y-14456713D02*
X16683158Y-14428141D01*
X16683158Y-14428141D02*
X16673634Y-14418617D01*
D13*
X11691986Y-14858596D02*
X11691986Y-14780814D01*
X11614204Y-14780814D01*
X11614204Y-14858596D01*
X11691986Y-14858596D01*
D11*
X12073634Y-14911189D02*
X11959348Y-14911189D01*
X12016491Y-14911189D02*
X12016491Y-14711189D01*
X12016491Y-14711189D02*
X11997443Y-14739760D01*
X11997443Y-14739760D02*
X11978396Y-14758808D01*
X11978396Y-14758808D02*
X11959348Y-14768332D01*
X12159348Y-14892141D02*
X12168872Y-14901665D01*
X12168872Y-14901665D02*
X12159348Y-14911189D01*
X12159348Y-14911189D02*
X12149824Y-14901665D01*
X12149824Y-14901665D02*
X12159348Y-14892141D01*
X12159348Y-14892141D02*
X12159348Y-14911189D01*
X12359348Y-14911189D02*
X12245062Y-14911189D01*
X12302205Y-14911189D02*
X12302205Y-14711189D01*
X12302205Y-14711189D02*
X12283157Y-14739760D01*
X12283157Y-14739760D02*
X12264110Y-14758808D01*
X12264110Y-14758808D02*
X12245062Y-14768332D01*
X12483157Y-14711189D02*
X12502205Y-14711189D01*
X12502205Y-14711189D02*
X12521253Y-14720713D01*
X12521253Y-14720713D02*
X12530777Y-14730236D01*
X12530777Y-14730236D02*
X12540300Y-14749284D01*
X12540300Y-14749284D02*
X12549824Y-14787379D01*
X12549824Y-14787379D02*
X12549824Y-14834998D01*
X12549824Y-14834998D02*
X12540300Y-14873093D01*
X12540300Y-14873093D02*
X12530777Y-14892141D01*
X12530777Y-14892141D02*
X12521253Y-14901665D01*
X12521253Y-14901665D02*
X12502205Y-14911189D01*
X12502205Y-14911189D02*
X12483157Y-14911189D01*
X12483157Y-14911189D02*
X12464110Y-14901665D01*
X12464110Y-14901665D02*
X12454586Y-14892141D01*
X12454586Y-14892141D02*
X12445062Y-14873093D01*
X12445062Y-14873093D02*
X12435538Y-14834998D01*
X12435538Y-14834998D02*
X12435538Y-14787379D01*
X12435538Y-14787379D02*
X12445062Y-14749284D01*
X12445062Y-14749284D02*
X12454586Y-14730236D01*
X12454586Y-14730236D02*
X12464110Y-14720713D01*
X12464110Y-14720713D02*
X12483157Y-14711189D01*
X12673634Y-14711189D02*
X12692681Y-14711189D01*
X12692681Y-14711189D02*
X12711729Y-14720713D01*
X12711729Y-14720713D02*
X12721253Y-14730236D01*
X12721253Y-14730236D02*
X12730777Y-14749284D01*
X12730777Y-14749284D02*
X12740300Y-14787379D01*
X12740300Y-14787379D02*
X12740300Y-14834998D01*
X12740300Y-14834998D02*
X12730777Y-14873093D01*
X12730777Y-14873093D02*
X12721253Y-14892141D01*
X12721253Y-14892141D02*
X12711729Y-14901665D01*
X12711729Y-14901665D02*
X12692681Y-14911189D01*
X12692681Y-14911189D02*
X12673634Y-14911189D01*
X12673634Y-14911189D02*
X12654586Y-14901665D01*
X12654586Y-14901665D02*
X12645062Y-14892141D01*
X12645062Y-14892141D02*
X12635538Y-14873093D01*
X12635538Y-14873093D02*
X12626015Y-14834998D01*
X12626015Y-14834998D02*
X12626015Y-14787379D01*
X12626015Y-14787379D02*
X12635538Y-14749284D01*
X12635538Y-14749284D02*
X12645062Y-14730236D01*
X12645062Y-14730236D02*
X12654586Y-14720713D01*
X12654586Y-14720713D02*
X12673634Y-14711189D01*
X12826015Y-14911189D02*
X12826015Y-14777855D01*
X12826015Y-14796903D02*
X12835538Y-14787379D01*
X12835538Y-14787379D02*
X12854586Y-14777855D01*
X12854586Y-14777855D02*
X12883158Y-14777855D01*
X12883158Y-14777855D02*
X12902205Y-14787379D01*
X12902205Y-14787379D02*
X12911729Y-14806427D01*
X12911729Y-14806427D02*
X12911729Y-14911189D01*
X12911729Y-14806427D02*
X12921253Y-14787379D01*
X12921253Y-14787379D02*
X12940300Y-14777855D01*
X12940300Y-14777855D02*
X12968872Y-14777855D01*
X12968872Y-14777855D02*
X12987919Y-14787379D01*
X12987919Y-14787379D02*
X12997443Y-14806427D01*
X12997443Y-14806427D02*
X12997443Y-14911189D01*
X13092681Y-14911189D02*
X13092681Y-14777855D01*
X13092681Y-14796903D02*
X13102205Y-14787379D01*
X13102205Y-14787379D02*
X13121253Y-14777855D01*
X13121253Y-14777855D02*
X13149824Y-14777855D01*
X13149824Y-14777855D02*
X13168872Y-14787379D01*
X13168872Y-14787379D02*
X13178396Y-14806427D01*
X13178396Y-14806427D02*
X13178396Y-14911189D01*
X13178396Y-14806427D02*
X13187919Y-14787379D01*
X13187919Y-14787379D02*
X13206967Y-14777855D01*
X13206967Y-14777855D02*
X13235538Y-14777855D01*
X13235538Y-14777855D02*
X13254586Y-14787379D01*
X13254586Y-14787379D02*
X13264110Y-14806427D01*
X13264110Y-14806427D02*
X13264110Y-14911189D01*
X13654586Y-14701665D02*
X13483158Y-14958808D01*
X13911729Y-14711189D02*
X13930777Y-14711189D01*
X13930777Y-14711189D02*
X13949824Y-14720713D01*
X13949824Y-14720713D02*
X13959348Y-14730236D01*
X13959348Y-14730236D02*
X13968872Y-14749284D01*
X13968872Y-14749284D02*
X13978396Y-14787379D01*
X13978396Y-14787379D02*
X13978396Y-14834998D01*
X13978396Y-14834998D02*
X13968872Y-14873093D01*
X13968872Y-14873093D02*
X13959348Y-14892141D01*
X13959348Y-14892141D02*
X13949824Y-14901665D01*
X13949824Y-14901665D02*
X13930777Y-14911189D01*
X13930777Y-14911189D02*
X13911729Y-14911189D01*
X13911729Y-14911189D02*
X13892681Y-14901665D01*
X13892681Y-14901665D02*
X13883158Y-14892141D01*
X13883158Y-14892141D02*
X13873634Y-14873093D01*
X13873634Y-14873093D02*
X13864110Y-14834998D01*
X13864110Y-14834998D02*
X13864110Y-14787379D01*
X13864110Y-14787379D02*
X13873634Y-14749284D01*
X13873634Y-14749284D02*
X13883158Y-14730236D01*
X13883158Y-14730236D02*
X13892681Y-14720713D01*
X13892681Y-14720713D02*
X13911729Y-14711189D01*
X14064110Y-14892141D02*
X14073634Y-14901665D01*
X14073634Y-14901665D02*
X14064110Y-14911189D01*
X14064110Y-14911189D02*
X14054586Y-14901665D01*
X14054586Y-14901665D02*
X14064110Y-14892141D01*
X14064110Y-14892141D02*
X14064110Y-14911189D01*
X14197443Y-14711189D02*
X14216491Y-14711189D01*
X14216491Y-14711189D02*
X14235539Y-14720713D01*
X14235539Y-14720713D02*
X14245062Y-14730236D01*
X14245062Y-14730236D02*
X14254586Y-14749284D01*
X14254586Y-14749284D02*
X14264110Y-14787379D01*
X14264110Y-14787379D02*
X14264110Y-14834998D01*
X14264110Y-14834998D02*
X14254586Y-14873093D01*
X14254586Y-14873093D02*
X14245062Y-14892141D01*
X14245062Y-14892141D02*
X14235539Y-14901665D01*
X14235539Y-14901665D02*
X14216491Y-14911189D01*
X14216491Y-14911189D02*
X14197443Y-14911189D01*
X14197443Y-14911189D02*
X14178396Y-14901665D01*
X14178396Y-14901665D02*
X14168872Y-14892141D01*
X14168872Y-14892141D02*
X14159348Y-14873093D01*
X14159348Y-14873093D02*
X14149824Y-14834998D01*
X14149824Y-14834998D02*
X14149824Y-14787379D01*
X14149824Y-14787379D02*
X14159348Y-14749284D01*
X14159348Y-14749284D02*
X14168872Y-14730236D01*
X14168872Y-14730236D02*
X14178396Y-14720713D01*
X14178396Y-14720713D02*
X14197443Y-14711189D01*
X14435539Y-14777855D02*
X14435539Y-14911189D01*
X14387920Y-14701665D02*
X14340301Y-14844522D01*
X14340301Y-14844522D02*
X14464110Y-14844522D01*
X14521253Y-14711189D02*
X14645062Y-14711189D01*
X14645062Y-14711189D02*
X14578396Y-14787379D01*
X14578396Y-14787379D02*
X14606967Y-14787379D01*
X14606967Y-14787379D02*
X14626015Y-14796903D01*
X14626015Y-14796903D02*
X14635539Y-14806427D01*
X14635539Y-14806427D02*
X14645062Y-14825474D01*
X14645062Y-14825474D02*
X14645062Y-14873093D01*
X14645062Y-14873093D02*
X14635539Y-14892141D01*
X14635539Y-14892141D02*
X14626015Y-14901665D01*
X14626015Y-14901665D02*
X14606967Y-14911189D01*
X14606967Y-14911189D02*
X14549824Y-14911189D01*
X14549824Y-14911189D02*
X14530777Y-14901665D01*
X14530777Y-14901665D02*
X14521253Y-14892141D01*
X14711729Y-14711189D02*
X14835539Y-14711189D01*
X14835539Y-14711189D02*
X14768872Y-14787379D01*
X14768872Y-14787379D02*
X14797443Y-14787379D01*
X14797443Y-14787379D02*
X14816491Y-14796903D01*
X14816491Y-14796903D02*
X14826015Y-14806427D01*
X14826015Y-14806427D02*
X14835539Y-14825474D01*
X14835539Y-14825474D02*
X14835539Y-14873093D01*
X14835539Y-14873093D02*
X14826015Y-14892141D01*
X14826015Y-14892141D02*
X14816491Y-14901665D01*
X14816491Y-14901665D02*
X14797443Y-14911189D01*
X14797443Y-14911189D02*
X14740301Y-14911189D01*
X14740301Y-14911189D02*
X14721253Y-14901665D01*
X14721253Y-14901665D02*
X14711729Y-14892141D01*
X14911729Y-14711189D02*
X14911729Y-14749284D01*
X14987920Y-14711189D02*
X14987920Y-14749284D01*
X15283158Y-14987379D02*
X15273634Y-14977855D01*
X15273634Y-14977855D02*
X15254586Y-14949284D01*
X15254586Y-14949284D02*
X15245063Y-14930236D01*
X15245063Y-14930236D02*
X15235539Y-14901665D01*
X15235539Y-14901665D02*
X15226015Y-14854046D01*
X15226015Y-14854046D02*
X15226015Y-14815951D01*
X15226015Y-14815951D02*
X15235539Y-14768332D01*
X15235539Y-14768332D02*
X15245063Y-14739760D01*
X15245063Y-14739760D02*
X15254586Y-14720713D01*
X15254586Y-14720713D02*
X15273634Y-14692141D01*
X15273634Y-14692141D02*
X15283158Y-14682617D01*
X15349824Y-14730236D02*
X15359348Y-14720713D01*
X15359348Y-14720713D02*
X15378396Y-14711189D01*
X15378396Y-14711189D02*
X15426015Y-14711189D01*
X15426015Y-14711189D02*
X15445063Y-14720713D01*
X15445063Y-14720713D02*
X15454586Y-14730236D01*
X15454586Y-14730236D02*
X15464110Y-14749284D01*
X15464110Y-14749284D02*
X15464110Y-14768332D01*
X15464110Y-14768332D02*
X15454586Y-14796903D01*
X15454586Y-14796903D02*
X15340301Y-14911189D01*
X15340301Y-14911189D02*
X15464110Y-14911189D01*
X15702205Y-14911189D02*
X15702205Y-14711189D01*
X15787920Y-14911189D02*
X15787920Y-14806427D01*
X15787920Y-14806427D02*
X15778396Y-14787379D01*
X15778396Y-14787379D02*
X15759348Y-14777855D01*
X15759348Y-14777855D02*
X15730777Y-14777855D01*
X15730777Y-14777855D02*
X15711729Y-14787379D01*
X15711729Y-14787379D02*
X15702205Y-14796903D01*
X15911729Y-14911189D02*
X15892682Y-14901665D01*
X15892682Y-14901665D02*
X15883158Y-14892141D01*
X15883158Y-14892141D02*
X15873634Y-14873093D01*
X15873634Y-14873093D02*
X15873634Y-14815951D01*
X15873634Y-14815951D02*
X15883158Y-14796903D01*
X15883158Y-14796903D02*
X15892682Y-14787379D01*
X15892682Y-14787379D02*
X15911729Y-14777855D01*
X15911729Y-14777855D02*
X15940301Y-14777855D01*
X15940301Y-14777855D02*
X15959348Y-14787379D01*
X15959348Y-14787379D02*
X15968872Y-14796903D01*
X15968872Y-14796903D02*
X15978396Y-14815951D01*
X15978396Y-14815951D02*
X15978396Y-14873093D01*
X15978396Y-14873093D02*
X15968872Y-14892141D01*
X15968872Y-14892141D02*
X15959348Y-14901665D01*
X15959348Y-14901665D02*
X15940301Y-14911189D01*
X15940301Y-14911189D02*
X15911729Y-14911189D01*
X16092682Y-14911189D02*
X16073634Y-14901665D01*
X16073634Y-14901665D02*
X16064110Y-14882617D01*
X16064110Y-14882617D02*
X16064110Y-14711189D01*
X16245063Y-14901665D02*
X16226015Y-14911189D01*
X16226015Y-14911189D02*
X16187920Y-14911189D01*
X16187920Y-14911189D02*
X16168872Y-14901665D01*
X16168872Y-14901665D02*
X16159348Y-14882617D01*
X16159348Y-14882617D02*
X16159348Y-14806427D01*
X16159348Y-14806427D02*
X16168872Y-14787379D01*
X16168872Y-14787379D02*
X16187920Y-14777855D01*
X16187920Y-14777855D02*
X16226015Y-14777855D01*
X16226015Y-14777855D02*
X16245063Y-14787379D01*
X16245063Y-14787379D02*
X16254586Y-14806427D01*
X16254586Y-14806427D02*
X16254586Y-14825474D01*
X16254586Y-14825474D02*
X16159348Y-14844522D01*
X16330777Y-14901665D02*
X16349825Y-14911189D01*
X16349825Y-14911189D02*
X16387920Y-14911189D01*
X16387920Y-14911189D02*
X16406967Y-14901665D01*
X16406967Y-14901665D02*
X16416491Y-14882617D01*
X16416491Y-14882617D02*
X16416491Y-14873093D01*
X16416491Y-14873093D02*
X16406967Y-14854046D01*
X16406967Y-14854046D02*
X16387920Y-14844522D01*
X16387920Y-14844522D02*
X16359348Y-14844522D01*
X16359348Y-14844522D02*
X16340301Y-14834998D01*
X16340301Y-14834998D02*
X16330777Y-14815951D01*
X16330777Y-14815951D02*
X16330777Y-14806427D01*
X16330777Y-14806427D02*
X16340301Y-14787379D01*
X16340301Y-14787379D02*
X16359348Y-14777855D01*
X16359348Y-14777855D02*
X16387920Y-14777855D01*
X16387920Y-14777855D02*
X16406967Y-14787379D01*
X16483158Y-14987379D02*
X16492682Y-14977855D01*
X16492682Y-14977855D02*
X16511729Y-14949284D01*
X16511729Y-14949284D02*
X16521253Y-14930236D01*
X16521253Y-14930236D02*
X16530777Y-14901665D01*
X16530777Y-14901665D02*
X16540301Y-14854046D01*
X16540301Y-14854046D02*
X16540301Y-14815951D01*
X16540301Y-14815951D02*
X16530777Y-14768332D01*
X16530777Y-14768332D02*
X16521253Y-14739760D01*
X16521253Y-14739760D02*
X16511729Y-14720713D01*
X16511729Y-14720713D02*
X16492682Y-14692141D01*
X16492682Y-14692141D02*
X16483158Y-14682617D01*
M02*
