G04 #@! TF.GenerationSoftware,KiCad,Pcbnew,9.0.5*
G04 #@! TF.CreationDate,2025-12-02T21:41:35+01:00*
G04 #@! TF.ProjectId,ToyBoard,546f7942-6f61-4726-942e-6b696361645f,rev?*
G04 #@! TF.SameCoordinates,Original*
G04 #@! TF.FileFunction,Soldermask,Bot*
G04 #@! TF.FilePolarity,Negative*
%FSLAX46Y46*%
G04 Gerber Fmt 4.6, Leading zero omitted, Abs format (unit mm)*
G04 Created by KiCad (PCBNEW 9.0.5) date 2025-12-02 21:41:35*
%MOMM*%
%LPD*%
G01*
G04 APERTURE LIST*
G04 APERTURE END LIST*
G36*
X133374634Y-131893764D02*
G01*
X133407725Y-131915875D01*
X133429836Y-131948966D01*
X133437600Y-131988000D01*
X133437600Y-133188000D01*
X133429836Y-133227034D01*
X133407725Y-133260125D01*
X133374634Y-133282236D01*
X133335600Y-133290000D01*
X131535600Y-133290000D01*
X131496566Y-133282236D01*
X131463475Y-133260125D01*
X131441364Y-133227034D01*
X131433600Y-133188000D01*
X131433600Y-131988000D01*
X131441364Y-131948966D01*
X131463475Y-131915875D01*
X131496566Y-131893764D01*
X131535600Y-131886000D01*
X133335600Y-131886000D01*
X133374634Y-131893764D01*
G37*
G36*
X124273034Y-131769764D02*
G01*
X124306125Y-131791875D01*
X124328236Y-131824966D01*
X124336000Y-131864000D01*
X124336000Y-133064000D01*
X124328236Y-133103034D01*
X124306125Y-133136125D01*
X124273034Y-133158236D01*
X124234000Y-133166000D01*
X122034000Y-133166000D01*
X121994966Y-133158236D01*
X121961875Y-133136125D01*
X121939764Y-133103034D01*
X121932000Y-133064000D01*
X121932000Y-131864000D01*
X121939764Y-131824966D01*
X121961875Y-131791875D01*
X121994966Y-131769764D01*
X122034000Y-131762000D01*
X124234000Y-131762000D01*
X124273034Y-131769764D01*
G37*
G36*
X146679850Y-131500964D02*
G01*
X146730040Y-131506787D01*
X146747189Y-131514359D01*
X146770671Y-131519030D01*
X146795810Y-131535827D01*
X146815696Y-131544608D01*
X146829277Y-131558189D01*
X146851777Y-131573223D01*
X146866810Y-131595722D01*
X146880391Y-131609303D01*
X146889170Y-131629186D01*
X146905970Y-131654329D01*
X146910641Y-131677812D01*
X146918212Y-131694959D01*
X146924033Y-131745139D01*
X146925000Y-131750000D01*
X146925000Y-132650000D01*
X146924032Y-132654863D01*
X146918212Y-132705040D01*
X146910641Y-132722185D01*
X146905970Y-132745671D01*
X146889169Y-132770815D01*
X146880391Y-132790696D01*
X146866812Y-132804274D01*
X146851777Y-132826777D01*
X146829274Y-132841812D01*
X146815696Y-132855391D01*
X146795815Y-132864169D01*
X146770671Y-132880970D01*
X146747185Y-132885641D01*
X146730040Y-132893212D01*
X146679861Y-132899032D01*
X146675000Y-132900000D01*
X145975000Y-132900000D01*
X145970138Y-132899032D01*
X145919959Y-132893212D01*
X145902812Y-132885641D01*
X145879329Y-132880970D01*
X145854186Y-132864170D01*
X145834303Y-132855391D01*
X145820722Y-132841810D01*
X145798223Y-132826777D01*
X145783189Y-132804277D01*
X145769608Y-132790696D01*
X145760827Y-132770810D01*
X145744030Y-132745671D01*
X145739359Y-132722189D01*
X145731787Y-132705040D01*
X145725964Y-132654849D01*
X145725000Y-132650000D01*
X145725000Y-131750000D01*
X145725964Y-131745150D01*
X145731787Y-131694959D01*
X145739359Y-131677808D01*
X145744030Y-131654329D01*
X145760826Y-131629191D01*
X145769608Y-131609303D01*
X145783191Y-131595719D01*
X145798223Y-131573223D01*
X145820719Y-131558191D01*
X145834303Y-131544608D01*
X145854191Y-131535826D01*
X145879329Y-131519030D01*
X145902808Y-131514359D01*
X145919959Y-131506787D01*
X145970151Y-131500964D01*
X145975000Y-131500000D01*
X146675000Y-131500000D01*
X146679850Y-131500964D01*
G37*
G36*
X148679850Y-131500964D02*
G01*
X148730040Y-131506787D01*
X148747189Y-131514359D01*
X148770671Y-131519030D01*
X148795810Y-131535827D01*
X148815696Y-131544608D01*
X148829277Y-131558189D01*
X148851777Y-131573223D01*
X148866810Y-131595722D01*
X148880391Y-131609303D01*
X148889170Y-131629186D01*
X148905970Y-131654329D01*
X148910641Y-131677812D01*
X148918212Y-131694959D01*
X148924033Y-131745139D01*
X148925000Y-131750000D01*
X148925000Y-132650000D01*
X148924032Y-132654863D01*
X148918212Y-132705040D01*
X148910641Y-132722185D01*
X148905970Y-132745671D01*
X148889169Y-132770815D01*
X148880391Y-132790696D01*
X148866812Y-132804274D01*
X148851777Y-132826777D01*
X148829274Y-132841812D01*
X148815696Y-132855391D01*
X148795815Y-132864169D01*
X148770671Y-132880970D01*
X148747185Y-132885641D01*
X148730040Y-132893212D01*
X148679861Y-132899032D01*
X148675000Y-132900000D01*
X147975000Y-132900000D01*
X147970138Y-132899032D01*
X147919959Y-132893212D01*
X147902812Y-132885641D01*
X147879329Y-132880970D01*
X147854186Y-132864170D01*
X147834303Y-132855391D01*
X147820722Y-132841810D01*
X147798223Y-132826777D01*
X147783189Y-132804277D01*
X147769608Y-132790696D01*
X147760827Y-132770810D01*
X147744030Y-132745671D01*
X147739359Y-132722189D01*
X147731787Y-132705040D01*
X147725964Y-132654849D01*
X147725000Y-132650000D01*
X147725000Y-131750000D01*
X147725964Y-131745150D01*
X147731787Y-131694959D01*
X147739359Y-131677808D01*
X147744030Y-131654329D01*
X147760826Y-131629191D01*
X147769608Y-131609303D01*
X147783191Y-131595719D01*
X147798223Y-131573223D01*
X147820719Y-131558191D01*
X147834303Y-131544608D01*
X147854191Y-131535826D01*
X147879329Y-131519030D01*
X147902808Y-131514359D01*
X147919959Y-131506787D01*
X147970151Y-131500964D01*
X147975000Y-131500000D01*
X148675000Y-131500000D01*
X148679850Y-131500964D01*
G37*
G36*
X134573034Y-130819764D02*
G01*
X134606125Y-130841875D01*
X134628236Y-130874966D01*
X134636000Y-130914000D01*
X134636000Y-131614000D01*
X134628236Y-131653034D01*
X134606125Y-131686125D01*
X134573034Y-131708236D01*
X134534000Y-131716000D01*
X132934000Y-131716000D01*
X132894966Y-131708236D01*
X132861875Y-131686125D01*
X132839764Y-131653034D01*
X132832000Y-131614000D01*
X132832000Y-130914000D01*
X132839764Y-130874966D01*
X132861875Y-130841875D01*
X132894966Y-130819764D01*
X132934000Y-130812000D01*
X134534000Y-130812000D01*
X134573034Y-130819764D01*
G37*
G36*
X138570285Y-128963060D02*
G01*
X138751397Y-129038079D01*
X138914393Y-129146990D01*
X139053010Y-129285607D01*
X139161921Y-129448603D01*
X139236940Y-129629715D01*
X139275185Y-129821983D01*
X139275185Y-130018017D01*
X139236940Y-130210285D01*
X139161921Y-130391397D01*
X139053010Y-130554393D01*
X138914393Y-130693010D01*
X138751397Y-130801921D01*
X138570285Y-130876940D01*
X138378017Y-130915185D01*
X138181983Y-130915185D01*
X137989715Y-130876940D01*
X137808603Y-130801921D01*
X137645607Y-130693010D01*
X137506990Y-130554393D01*
X137398079Y-130391397D01*
X137323060Y-130210285D01*
X137284815Y-130018017D01*
X137284815Y-129821983D01*
X137323060Y-129629715D01*
X137398079Y-129448603D01*
X137506990Y-129285607D01*
X137645607Y-129146990D01*
X137808603Y-129038079D01*
X137989715Y-128963060D01*
X138181983Y-128924815D01*
X138378017Y-128924815D01*
X138570285Y-128963060D01*
G37*
G36*
X141110285Y-128963060D02*
G01*
X141291397Y-129038079D01*
X141454393Y-129146990D01*
X141593010Y-129285607D01*
X141701921Y-129448603D01*
X141776940Y-129629715D01*
X141815185Y-129821983D01*
X141815185Y-130018017D01*
X141776940Y-130210285D01*
X141701921Y-130391397D01*
X141593010Y-130554393D01*
X141454393Y-130693010D01*
X141291397Y-130801921D01*
X141110285Y-130876940D01*
X140918017Y-130915185D01*
X140721983Y-130915185D01*
X140529715Y-130876940D01*
X140348603Y-130801921D01*
X140185607Y-130693010D01*
X140046990Y-130554393D01*
X139938079Y-130391397D01*
X139863060Y-130210285D01*
X139824815Y-130018017D01*
X139824815Y-129821983D01*
X139863060Y-129629715D01*
X139938079Y-129448603D01*
X140046990Y-129285607D01*
X140185607Y-129146990D01*
X140348603Y-129038079D01*
X140529715Y-128963060D01*
X140721983Y-128924815D01*
X140918017Y-128924815D01*
X141110285Y-128963060D01*
G37*
G36*
X143650285Y-128963060D02*
G01*
X143831397Y-129038079D01*
X143994393Y-129146990D01*
X144133010Y-129285607D01*
X144241921Y-129448603D01*
X144316940Y-129629715D01*
X144355185Y-129821983D01*
X144355185Y-130018017D01*
X144316940Y-130210285D01*
X144241921Y-130391397D01*
X144133010Y-130554393D01*
X143994393Y-130693010D01*
X143831397Y-130801921D01*
X143650285Y-130876940D01*
X143458017Y-130915185D01*
X143261983Y-130915185D01*
X143069715Y-130876940D01*
X142888603Y-130801921D01*
X142725607Y-130693010D01*
X142586990Y-130554393D01*
X142478079Y-130391397D01*
X142403060Y-130210285D01*
X142364815Y-130018017D01*
X142364815Y-129821983D01*
X142403060Y-129629715D01*
X142478079Y-129448603D01*
X142586990Y-129285607D01*
X142725607Y-129146990D01*
X142888603Y-129038079D01*
X143069715Y-128963060D01*
X143261983Y-128924815D01*
X143458017Y-128924815D01*
X143650285Y-128963060D01*
G37*
G36*
X146190285Y-128963060D02*
G01*
X146371397Y-129038079D01*
X146534393Y-129146990D01*
X146673010Y-129285607D01*
X146781921Y-129448603D01*
X146856940Y-129629715D01*
X146895185Y-129821983D01*
X146895185Y-130018017D01*
X146856940Y-130210285D01*
X146781921Y-130391397D01*
X146673010Y-130554393D01*
X146534393Y-130693010D01*
X146371397Y-130801921D01*
X146190285Y-130876940D01*
X145998017Y-130915185D01*
X145801983Y-130915185D01*
X145609715Y-130876940D01*
X145428603Y-130801921D01*
X145265607Y-130693010D01*
X145126990Y-130554393D01*
X145018079Y-130391397D01*
X144943060Y-130210285D01*
X144904815Y-130018017D01*
X144904815Y-129821983D01*
X144943060Y-129629715D01*
X145018079Y-129448603D01*
X145126990Y-129285607D01*
X145265607Y-129146990D01*
X145428603Y-129038079D01*
X145609715Y-128963060D01*
X145801983Y-128924815D01*
X145998017Y-128924815D01*
X146190285Y-128963060D01*
G37*
G36*
X148730285Y-128963060D02*
G01*
X148911397Y-129038079D01*
X149074393Y-129146990D01*
X149213010Y-129285607D01*
X149321921Y-129448603D01*
X149396940Y-129629715D01*
X149435185Y-129821983D01*
X149435185Y-130018017D01*
X149396940Y-130210285D01*
X149321921Y-130391397D01*
X149213010Y-130554393D01*
X149074393Y-130693010D01*
X148911397Y-130801921D01*
X148730285Y-130876940D01*
X148538017Y-130915185D01*
X148341983Y-130915185D01*
X148149715Y-130876940D01*
X147968603Y-130801921D01*
X147805607Y-130693010D01*
X147666990Y-130554393D01*
X147558079Y-130391397D01*
X147483060Y-130210285D01*
X147444815Y-130018017D01*
X147444815Y-129821983D01*
X147483060Y-129629715D01*
X147558079Y-129448603D01*
X147666990Y-129285607D01*
X147805607Y-129146990D01*
X147968603Y-129038079D01*
X148149715Y-128963060D01*
X148341983Y-128924815D01*
X148538017Y-128924815D01*
X148730285Y-128963060D01*
G37*
G36*
X153810285Y-128963060D02*
G01*
X153991397Y-129038079D01*
X154154393Y-129146990D01*
X154293010Y-129285607D01*
X154401921Y-129448603D01*
X154476940Y-129629715D01*
X154515185Y-129821983D01*
X154515185Y-130018017D01*
X154476940Y-130210285D01*
X154401921Y-130391397D01*
X154293010Y-130554393D01*
X154154393Y-130693010D01*
X153991397Y-130801921D01*
X153810285Y-130876940D01*
X153618017Y-130915185D01*
X153421983Y-130915185D01*
X153229715Y-130876940D01*
X153048603Y-130801921D01*
X152885607Y-130693010D01*
X152746990Y-130554393D01*
X152638079Y-130391397D01*
X152563060Y-130210285D01*
X152524815Y-130018017D01*
X152524815Y-129821983D01*
X152563060Y-129629715D01*
X152638079Y-129448603D01*
X152746990Y-129285607D01*
X152885607Y-129146990D01*
X153048603Y-129038079D01*
X153229715Y-128963060D01*
X153421983Y-128924815D01*
X153618017Y-128924815D01*
X153810285Y-128963060D01*
G37*
G36*
X134573034Y-129719764D02*
G01*
X134606125Y-129741875D01*
X134628236Y-129774966D01*
X134636000Y-129814000D01*
X134636000Y-130514000D01*
X134628236Y-130553034D01*
X134606125Y-130586125D01*
X134573034Y-130608236D01*
X134534000Y-130616000D01*
X132934000Y-130616000D01*
X132894966Y-130608236D01*
X132861875Y-130586125D01*
X132839764Y-130553034D01*
X132832000Y-130514000D01*
X132832000Y-129814000D01*
X132839764Y-129774966D01*
X132861875Y-129741875D01*
X132894966Y-129719764D01*
X132934000Y-129712000D01*
X134534000Y-129712000D01*
X134573034Y-129719764D01*
G37*
G36*
X122925342Y-129202060D02*
G01*
X123038381Y-129267323D01*
X123130677Y-129359619D01*
X123195940Y-129472658D01*
X123229722Y-129598737D01*
X123229722Y-129729263D01*
X123195940Y-129855342D01*
X123130677Y-129968381D01*
X123038381Y-130060677D01*
X122925342Y-130125940D01*
X122799263Y-130159722D01*
X122668737Y-130159722D01*
X122542658Y-130125940D01*
X122429619Y-130060677D01*
X122337323Y-129968381D01*
X122272060Y-129855342D01*
X122238278Y-129729263D01*
X122238278Y-129598737D01*
X122272060Y-129472658D01*
X122337323Y-129359619D01*
X122429619Y-129267323D01*
X122542658Y-129202060D01*
X122668737Y-129168278D01*
X122799263Y-129168278D01*
X122925342Y-129202060D01*
G37*
G36*
X134573034Y-128619764D02*
G01*
X134606125Y-128641875D01*
X134628236Y-128674966D01*
X134636000Y-128714000D01*
X134636000Y-129414000D01*
X134628236Y-129453034D01*
X134606125Y-129486125D01*
X134573034Y-129508236D01*
X134534000Y-129516000D01*
X132934000Y-129516000D01*
X132894966Y-129508236D01*
X132861875Y-129486125D01*
X132839764Y-129453034D01*
X132832000Y-129414000D01*
X132832000Y-128714000D01*
X132839764Y-128674966D01*
X132861875Y-128641875D01*
X132894966Y-128619764D01*
X132934000Y-128612000D01*
X134534000Y-128612000D01*
X134573034Y-128619764D01*
G37*
G36*
X134573034Y-127519764D02*
G01*
X134606125Y-127541875D01*
X134628236Y-127574966D01*
X134636000Y-127614000D01*
X134636000Y-128314000D01*
X134628236Y-128353034D01*
X134606125Y-128386125D01*
X134573034Y-128408236D01*
X134534000Y-128416000D01*
X132934000Y-128416000D01*
X132894966Y-128408236D01*
X132861875Y-128386125D01*
X132839764Y-128353034D01*
X132832000Y-128314000D01*
X132832000Y-127614000D01*
X132839764Y-127574966D01*
X132861875Y-127541875D01*
X132894966Y-127519764D01*
X132934000Y-127512000D01*
X134534000Y-127512000D01*
X134573034Y-127519764D01*
G37*
G36*
X149754316Y-127601799D02*
G01*
X149804602Y-127635398D01*
X149838201Y-127685684D01*
X149850000Y-127745000D01*
X149850000Y-128055000D01*
X149838201Y-128114316D01*
X149804602Y-128164602D01*
X149754316Y-128198201D01*
X149695000Y-128210000D01*
X149270000Y-128210000D01*
X149210684Y-128198201D01*
X149160398Y-128164602D01*
X149126799Y-128114316D01*
X149115000Y-128055000D01*
X149115000Y-127745000D01*
X149126799Y-127685684D01*
X149160398Y-127635398D01*
X149210684Y-127601799D01*
X149270000Y-127590000D01*
X149695000Y-127590000D01*
X149754316Y-127601799D01*
G37*
G36*
X150889316Y-127601799D02*
G01*
X150939602Y-127635398D01*
X150973201Y-127685684D01*
X150985000Y-127745000D01*
X150985000Y-128055000D01*
X150973201Y-128114316D01*
X150939602Y-128164602D01*
X150889316Y-128198201D01*
X150830000Y-128210000D01*
X150405000Y-128210000D01*
X150345684Y-128198201D01*
X150295398Y-128164602D01*
X150261799Y-128114316D01*
X150250000Y-128055000D01*
X150250000Y-127745000D01*
X150261799Y-127685684D01*
X150295398Y-127635398D01*
X150345684Y-127601799D01*
X150405000Y-127590000D01*
X150830000Y-127590000D01*
X150889316Y-127601799D01*
G37*
G36*
X134573034Y-126419764D02*
G01*
X134606125Y-126441875D01*
X134628236Y-126474966D01*
X134636000Y-126514000D01*
X134636000Y-127214000D01*
X134628236Y-127253034D01*
X134606125Y-127286125D01*
X134573034Y-127308236D01*
X134534000Y-127316000D01*
X132934000Y-127316000D01*
X132894966Y-127308236D01*
X132861875Y-127286125D01*
X132839764Y-127253034D01*
X132832000Y-127214000D01*
X132832000Y-126514000D01*
X132839764Y-126474966D01*
X132861875Y-126441875D01*
X132894966Y-126419764D01*
X132934000Y-126412000D01*
X134534000Y-126412000D01*
X134573034Y-126419764D01*
G37*
G36*
X134573034Y-125319764D02*
G01*
X134606125Y-125341875D01*
X134628236Y-125374966D01*
X134636000Y-125414000D01*
X134636000Y-126114000D01*
X134628236Y-126153034D01*
X134606125Y-126186125D01*
X134573034Y-126208236D01*
X134534000Y-126216000D01*
X132934000Y-126216000D01*
X132894966Y-126208236D01*
X132861875Y-126186125D01*
X132839764Y-126153034D01*
X132832000Y-126114000D01*
X132832000Y-125414000D01*
X132839764Y-125374966D01*
X132861875Y-125341875D01*
X132894966Y-125319764D01*
X132934000Y-125312000D01*
X134534000Y-125312000D01*
X134573034Y-125319764D01*
G37*
G36*
X150834316Y-125431799D02*
G01*
X150884602Y-125465398D01*
X150918201Y-125515684D01*
X150930000Y-125575000D01*
X150930000Y-125885000D01*
X150918201Y-125944316D01*
X150884602Y-125994602D01*
X150834316Y-126028201D01*
X150775000Y-126040000D01*
X150350000Y-126040000D01*
X150290684Y-126028201D01*
X150240398Y-125994602D01*
X150206799Y-125944316D01*
X150195000Y-125885000D01*
X150195000Y-125575000D01*
X150206799Y-125515684D01*
X150240398Y-125465398D01*
X150290684Y-125431799D01*
X150350000Y-125420000D01*
X150775000Y-125420000D01*
X150834316Y-125431799D01*
G37*
G36*
X151969316Y-125431799D02*
G01*
X152019602Y-125465398D01*
X152053201Y-125515684D01*
X152065000Y-125575000D01*
X152065000Y-125885000D01*
X152053201Y-125944316D01*
X152019602Y-125994602D01*
X151969316Y-126028201D01*
X151910000Y-126040000D01*
X151485000Y-126040000D01*
X151425684Y-126028201D01*
X151375398Y-125994602D01*
X151341799Y-125944316D01*
X151330000Y-125885000D01*
X151330000Y-125575000D01*
X151341799Y-125515684D01*
X151375398Y-125465398D01*
X151425684Y-125431799D01*
X151485000Y-125420000D01*
X151910000Y-125420000D01*
X151969316Y-125431799D01*
G37*
G36*
X134573034Y-124219764D02*
G01*
X134606125Y-124241875D01*
X134628236Y-124274966D01*
X134636000Y-124314000D01*
X134636000Y-125014000D01*
X134628236Y-125053034D01*
X134606125Y-125086125D01*
X134573034Y-125108236D01*
X134534000Y-125116000D01*
X132934000Y-125116000D01*
X132894966Y-125108236D01*
X132861875Y-125086125D01*
X132839764Y-125053034D01*
X132832000Y-125014000D01*
X132832000Y-124314000D01*
X132839764Y-124274966D01*
X132861875Y-124241875D01*
X132894966Y-124219764D01*
X132934000Y-124212000D01*
X134534000Y-124212000D01*
X134573034Y-124219764D01*
G37*
G36*
X134573034Y-123119764D02*
G01*
X134606125Y-123141875D01*
X134628236Y-123174966D01*
X134636000Y-123214000D01*
X134636000Y-123914000D01*
X134628236Y-123953034D01*
X134606125Y-123986125D01*
X134573034Y-124008236D01*
X134534000Y-124016000D01*
X132934000Y-124016000D01*
X132894966Y-124008236D01*
X132861875Y-123986125D01*
X132839764Y-123953034D01*
X132832000Y-123914000D01*
X132832000Y-123214000D01*
X132839764Y-123174966D01*
X132861875Y-123141875D01*
X132894966Y-123119764D01*
X132934000Y-123112000D01*
X134534000Y-123112000D01*
X134573034Y-123119764D01*
G37*
G36*
X134573034Y-122019764D02*
G01*
X134606125Y-122041875D01*
X134628236Y-122074966D01*
X134636000Y-122114000D01*
X134636000Y-122814000D01*
X134628236Y-122853034D01*
X134606125Y-122886125D01*
X134573034Y-122908236D01*
X134534000Y-122916000D01*
X132934000Y-122916000D01*
X132894966Y-122908236D01*
X132861875Y-122886125D01*
X132839764Y-122853034D01*
X132832000Y-122814000D01*
X132832000Y-122114000D01*
X132839764Y-122074966D01*
X132861875Y-122041875D01*
X132894966Y-122019764D01*
X132934000Y-122012000D01*
X134534000Y-122012000D01*
X134573034Y-122019764D01*
G37*
G36*
X145782850Y-120500964D02*
G01*
X145833041Y-120506787D01*
X145850191Y-120514359D01*
X145873671Y-120519030D01*
X145898806Y-120535825D01*
X145918696Y-120544607D01*
X145932280Y-120558191D01*
X145954777Y-120573223D01*
X145969808Y-120595719D01*
X145983392Y-120609303D01*
X145992173Y-120629190D01*
X146008970Y-120654329D01*
X146013640Y-120677809D01*
X146021212Y-120694958D01*
X146027036Y-120745161D01*
X146027999Y-120750000D01*
X146027999Y-120753456D01*
X146028000Y-120753465D01*
X146028000Y-121686291D01*
X146028000Y-122450001D01*
X146027034Y-122454853D01*
X146021212Y-122505041D01*
X146013641Y-122522187D01*
X146008970Y-122545671D01*
X145992171Y-122570811D01*
X145983392Y-122590696D01*
X145969810Y-122604277D01*
X145954777Y-122626777D01*
X145932277Y-122641810D01*
X145918696Y-122655392D01*
X145898811Y-122664171D01*
X145873671Y-122680970D01*
X145850188Y-122685640D01*
X145833041Y-122693212D01*
X145782838Y-122699036D01*
X145778000Y-122699999D01*
X145774543Y-122699999D01*
X145774535Y-122700000D01*
X144081465Y-122700000D01*
X144081464Y-122699999D01*
X144077999Y-122700000D01*
X144073147Y-122699035D01*
X144022958Y-122693212D01*
X144005810Y-122685640D01*
X143982329Y-122680970D01*
X143957190Y-122664173D01*
X143937303Y-122655392D01*
X143923719Y-122641808D01*
X143901223Y-122626777D01*
X143886191Y-122604280D01*
X143872607Y-122590696D01*
X143863825Y-122570806D01*
X143847030Y-122545671D01*
X143842360Y-122522192D01*
X143834787Y-122505041D01*
X143828963Y-122454838D01*
X143828001Y-122450000D01*
X143828000Y-122446542D01*
X143828000Y-122446534D01*
X143828000Y-120753465D01*
X143828000Y-120753464D01*
X143828000Y-120749999D01*
X143828964Y-120745149D01*
X143834787Y-120694958D01*
X143842359Y-120677806D01*
X143847030Y-120654329D01*
X143863823Y-120629194D01*
X143872607Y-120609303D01*
X143886193Y-120595716D01*
X143901223Y-120573223D01*
X143923716Y-120558193D01*
X143937303Y-120544607D01*
X143957194Y-120535823D01*
X143982329Y-120519030D01*
X144005805Y-120514360D01*
X144022958Y-120506787D01*
X144073163Y-120500963D01*
X144078000Y-120500001D01*
X144081456Y-120500000D01*
X144081465Y-120500000D01*
X145774535Y-120500000D01*
X145778001Y-120500000D01*
X145782850Y-120500964D01*
G37*
G36*
X154328790Y-120530393D02*
G01*
X154492952Y-120583733D01*
X154646748Y-120662096D01*
X154786393Y-120763553D01*
X154908447Y-120885607D01*
X155009904Y-121025252D01*
X155088267Y-121179048D01*
X155141607Y-121343210D01*
X155168609Y-121513695D01*
X155168609Y-121686305D01*
X155141607Y-121856790D01*
X155088267Y-122020952D01*
X155009904Y-122174748D01*
X154908447Y-122314393D01*
X154786393Y-122436447D01*
X154646748Y-122537904D01*
X154492952Y-122616267D01*
X154328790Y-122669607D01*
X154158305Y-122696609D01*
X153985695Y-122696609D01*
X153815210Y-122669607D01*
X153651048Y-122616267D01*
X153497252Y-122537904D01*
X153357607Y-122436447D01*
X153235553Y-122314393D01*
X153134096Y-122174748D01*
X153055733Y-122020952D01*
X153002393Y-121856790D01*
X152975391Y-121686305D01*
X152975391Y-121513695D01*
X153002393Y-121343210D01*
X153055733Y-121179048D01*
X153134096Y-121025252D01*
X153235553Y-120885607D01*
X153357607Y-120763553D01*
X153497252Y-120662096D01*
X153651048Y-120583733D01*
X153815210Y-120530393D01*
X153985695Y-120503391D01*
X154158305Y-120503391D01*
X154328790Y-120530393D01*
G37*
G36*
X122925342Y-121202060D02*
G01*
X123038381Y-121267323D01*
X123130677Y-121359619D01*
X123195940Y-121472658D01*
X123229722Y-121598737D01*
X123229722Y-121729263D01*
X123195940Y-121855342D01*
X123130677Y-121968381D01*
X123038381Y-122060677D01*
X122925342Y-122125940D01*
X122799263Y-122159722D01*
X122668737Y-122159722D01*
X122542658Y-122125940D01*
X122429619Y-122060677D01*
X122337323Y-121968381D01*
X122272060Y-121855342D01*
X122238278Y-121729263D01*
X122238278Y-121598737D01*
X122272060Y-121472658D01*
X122337323Y-121359619D01*
X122429619Y-121267323D01*
X122542658Y-121202060D01*
X122668737Y-121168278D01*
X122799263Y-121168278D01*
X122925342Y-121202060D01*
G37*
G36*
X133473034Y-116969764D02*
G01*
X133506125Y-116991875D01*
X133528236Y-117024966D01*
X133536000Y-117064000D01*
X133536000Y-118664000D01*
X133528236Y-118703034D01*
X133506125Y-118736125D01*
X133473034Y-118758236D01*
X133434000Y-118766000D01*
X131934000Y-118766000D01*
X131894966Y-118758236D01*
X131861875Y-118736125D01*
X131839764Y-118703034D01*
X131832000Y-118664000D01*
X131832000Y-117064000D01*
X131839764Y-117024966D01*
X131861875Y-116991875D01*
X131894966Y-116969764D01*
X131934000Y-116962000D01*
X133434000Y-116962000D01*
X133473034Y-116969764D01*
G37*
G36*
X146190285Y-116771060D02*
G01*
X146371397Y-116846079D01*
X146534393Y-116954990D01*
X146673010Y-117093607D01*
X146781921Y-117256603D01*
X146856940Y-117437715D01*
X146895185Y-117629983D01*
X146895185Y-117826017D01*
X146856940Y-118018285D01*
X146781921Y-118199397D01*
X146673010Y-118362393D01*
X146534393Y-118501010D01*
X146371397Y-118609921D01*
X146190285Y-118684940D01*
X145998017Y-118723185D01*
X145801983Y-118723185D01*
X145609715Y-118684940D01*
X145428603Y-118609921D01*
X145265607Y-118501010D01*
X145126990Y-118362393D01*
X145018079Y-118199397D01*
X144943060Y-118018285D01*
X144904815Y-117826017D01*
X144904815Y-117629983D01*
X144943060Y-117437715D01*
X145018079Y-117256603D01*
X145126990Y-117093607D01*
X145265607Y-116954990D01*
X145428603Y-116846079D01*
X145609715Y-116771060D01*
X145801983Y-116732815D01*
X145998017Y-116732815D01*
X146190285Y-116771060D01*
G37*
G36*
X148730285Y-116771060D02*
G01*
X148911397Y-116846079D01*
X149074393Y-116954990D01*
X149213010Y-117093607D01*
X149321921Y-117256603D01*
X149396940Y-117437715D01*
X149435185Y-117629983D01*
X149435185Y-117826017D01*
X149396940Y-118018285D01*
X149321921Y-118199397D01*
X149213010Y-118362393D01*
X149074393Y-118501010D01*
X148911397Y-118609921D01*
X148730285Y-118684940D01*
X148538017Y-118723185D01*
X148341983Y-118723185D01*
X148149715Y-118684940D01*
X147968603Y-118609921D01*
X147805607Y-118501010D01*
X147666990Y-118362393D01*
X147558079Y-118199397D01*
X147483060Y-118018285D01*
X147444815Y-117826017D01*
X147444815Y-117629983D01*
X147483060Y-117437715D01*
X147558079Y-117256603D01*
X147666990Y-117093607D01*
X147805607Y-116954990D01*
X147968603Y-116846079D01*
X148149715Y-116771060D01*
X148341983Y-116732815D01*
X148538017Y-116732815D01*
X148730285Y-116771060D01*
G37*
G36*
X124273034Y-116269764D02*
G01*
X124306125Y-116291875D01*
X124328236Y-116324966D01*
X124336000Y-116364000D01*
X124336000Y-117564000D01*
X124328236Y-117603034D01*
X124306125Y-117636125D01*
X124273034Y-117658236D01*
X124234000Y-117666000D01*
X122034000Y-117666000D01*
X121994966Y-117658236D01*
X121961875Y-117636125D01*
X121939764Y-117603034D01*
X121932000Y-117564000D01*
X121932000Y-116364000D01*
X121939764Y-116324966D01*
X121961875Y-116291875D01*
X121994966Y-116269764D01*
X122034000Y-116262000D01*
X124234000Y-116262000D01*
X124273034Y-116269764D01*
G37*
G36*
X120370285Y-113823060D02*
G01*
X120551397Y-113898079D01*
X120714393Y-114006990D01*
X120853010Y-114145607D01*
X120961921Y-114308603D01*
X121036940Y-114489715D01*
X121075185Y-114681983D01*
X121075185Y-114878017D01*
X121036940Y-115070285D01*
X120961921Y-115251397D01*
X120853010Y-115414393D01*
X120714393Y-115553010D01*
X120551397Y-115661921D01*
X120370285Y-115736940D01*
X120178017Y-115775185D01*
X119981983Y-115775185D01*
X119789715Y-115736940D01*
X119608603Y-115661921D01*
X119445607Y-115553010D01*
X119306990Y-115414393D01*
X119198079Y-115251397D01*
X119123060Y-115070285D01*
X119084815Y-114878017D01*
X119084815Y-114681983D01*
X119123060Y-114489715D01*
X119198079Y-114308603D01*
X119306990Y-114145607D01*
X119445607Y-114006990D01*
X119608603Y-113898079D01*
X119789715Y-113823060D01*
X119981983Y-113784815D01*
X120178017Y-113784815D01*
X120370285Y-113823060D01*
G37*
G36*
X122910285Y-113823060D02*
G01*
X123091397Y-113898079D01*
X123254393Y-114006990D01*
X123393010Y-114145607D01*
X123501921Y-114308603D01*
X123576940Y-114489715D01*
X123615185Y-114681983D01*
X123615185Y-114878017D01*
X123576940Y-115070285D01*
X123501921Y-115251397D01*
X123393010Y-115414393D01*
X123254393Y-115553010D01*
X123091397Y-115661921D01*
X122910285Y-115736940D01*
X122718017Y-115775185D01*
X122521983Y-115775185D01*
X122329715Y-115736940D01*
X122148603Y-115661921D01*
X121985607Y-115553010D01*
X121846990Y-115414393D01*
X121738079Y-115251397D01*
X121663060Y-115070285D01*
X121624815Y-114878017D01*
X121624815Y-114681983D01*
X121663060Y-114489715D01*
X121738079Y-114308603D01*
X121846990Y-114145607D01*
X121985607Y-114006990D01*
X122148603Y-113898079D01*
X122329715Y-113823060D01*
X122521983Y-113784815D01*
X122718017Y-113784815D01*
X122910285Y-113823060D01*
G37*
G36*
X130530285Y-113823060D02*
G01*
X130711397Y-113898079D01*
X130874393Y-114006990D01*
X131013010Y-114145607D01*
X131121921Y-114308603D01*
X131196940Y-114489715D01*
X131235185Y-114681983D01*
X131235185Y-114878017D01*
X131196940Y-115070285D01*
X131121921Y-115251397D01*
X131013010Y-115414393D01*
X130874393Y-115553010D01*
X130711397Y-115661921D01*
X130530285Y-115736940D01*
X130338017Y-115775185D01*
X130141983Y-115775185D01*
X129949715Y-115736940D01*
X129768603Y-115661921D01*
X129605607Y-115553010D01*
X129466990Y-115414393D01*
X129358079Y-115251397D01*
X129283060Y-115070285D01*
X129244815Y-114878017D01*
X129244815Y-114681983D01*
X129283060Y-114489715D01*
X129358079Y-114308603D01*
X129466990Y-114145607D01*
X129605607Y-114006990D01*
X129768603Y-113898079D01*
X129949715Y-113823060D01*
X130141983Y-113784815D01*
X130338017Y-113784815D01*
X130530285Y-113823060D01*
G37*
G36*
X133070285Y-113823060D02*
G01*
X133251397Y-113898079D01*
X133414393Y-114006990D01*
X133553010Y-114145607D01*
X133661921Y-114308603D01*
X133736940Y-114489715D01*
X133775185Y-114681983D01*
X133775185Y-114878017D01*
X133736940Y-115070285D01*
X133661921Y-115251397D01*
X133553010Y-115414393D01*
X133414393Y-115553010D01*
X133251397Y-115661921D01*
X133070285Y-115736940D01*
X132878017Y-115775185D01*
X132681983Y-115775185D01*
X132489715Y-115736940D01*
X132308603Y-115661921D01*
X132145607Y-115553010D01*
X132006990Y-115414393D01*
X131898079Y-115251397D01*
X131823060Y-115070285D01*
X131784815Y-114878017D01*
X131784815Y-114681983D01*
X131823060Y-114489715D01*
X131898079Y-114308603D01*
X132006990Y-114145607D01*
X132145607Y-114006990D01*
X132308603Y-113898079D01*
X132489715Y-113823060D01*
X132681983Y-113784815D01*
X132878017Y-113784815D01*
X133070285Y-113823060D01*
G37*
G36*
X135610285Y-113823060D02*
G01*
X135791397Y-113898079D01*
X135954393Y-114006990D01*
X136093010Y-114145607D01*
X136201921Y-114308603D01*
X136276940Y-114489715D01*
X136315185Y-114681983D01*
X136315185Y-114878017D01*
X136276940Y-115070285D01*
X136201921Y-115251397D01*
X136093010Y-115414393D01*
X135954393Y-115553010D01*
X135791397Y-115661921D01*
X135610285Y-115736940D01*
X135418017Y-115775185D01*
X135221983Y-115775185D01*
X135029715Y-115736940D01*
X134848603Y-115661921D01*
X134685607Y-115553010D01*
X134546990Y-115414393D01*
X134438079Y-115251397D01*
X134363060Y-115070285D01*
X134324815Y-114878017D01*
X134324815Y-114681983D01*
X134363060Y-114489715D01*
X134438079Y-114308603D01*
X134546990Y-114145607D01*
X134685607Y-114006990D01*
X134848603Y-113898079D01*
X135029715Y-113823060D01*
X135221983Y-113784815D01*
X135418017Y-113784815D01*
X135610285Y-113823060D01*
G37*
G36*
X138570285Y-113723060D02*
G01*
X138751397Y-113798079D01*
X138914393Y-113906990D01*
X139053010Y-114045607D01*
X139161921Y-114208603D01*
X139236940Y-114389715D01*
X139275185Y-114581983D01*
X139275185Y-114778017D01*
X139236940Y-114970285D01*
X139161921Y-115151397D01*
X139053010Y-115314393D01*
X138914393Y-115453010D01*
X138751397Y-115561921D01*
X138570285Y-115636940D01*
X138378017Y-115675185D01*
X138181983Y-115675185D01*
X137989715Y-115636940D01*
X137808603Y-115561921D01*
X137645607Y-115453010D01*
X137506990Y-115314393D01*
X137398079Y-115151397D01*
X137323060Y-114970285D01*
X137284815Y-114778017D01*
X137284815Y-114581983D01*
X137323060Y-114389715D01*
X137398079Y-114208603D01*
X137506990Y-114045607D01*
X137645607Y-113906990D01*
X137808603Y-113798079D01*
X137989715Y-113723060D01*
X138181983Y-113684815D01*
X138378017Y-113684815D01*
X138570285Y-113723060D01*
G37*
G36*
X141110285Y-113723060D02*
G01*
X141291397Y-113798079D01*
X141454393Y-113906990D01*
X141593010Y-114045607D01*
X141701921Y-114208603D01*
X141776940Y-114389715D01*
X141815185Y-114581983D01*
X141815185Y-114778017D01*
X141776940Y-114970285D01*
X141701921Y-115151397D01*
X141593010Y-115314393D01*
X141454393Y-115453010D01*
X141291397Y-115561921D01*
X141110285Y-115636940D01*
X140918017Y-115675185D01*
X140721983Y-115675185D01*
X140529715Y-115636940D01*
X140348603Y-115561921D01*
X140185607Y-115453010D01*
X140046990Y-115314393D01*
X139938079Y-115151397D01*
X139863060Y-114970285D01*
X139824815Y-114778017D01*
X139824815Y-114581983D01*
X139863060Y-114389715D01*
X139938079Y-114208603D01*
X140046990Y-114045607D01*
X140185607Y-113906990D01*
X140348603Y-113798079D01*
X140529715Y-113723060D01*
X140721983Y-113684815D01*
X140918017Y-113684815D01*
X141110285Y-113723060D01*
G37*
G36*
X143650285Y-113723060D02*
G01*
X143831397Y-113798079D01*
X143994393Y-113906990D01*
X144133010Y-114045607D01*
X144241921Y-114208603D01*
X144316940Y-114389715D01*
X144355185Y-114581983D01*
X144355185Y-114778017D01*
X144316940Y-114970285D01*
X144241921Y-115151397D01*
X144133010Y-115314393D01*
X143994393Y-115453010D01*
X143831397Y-115561921D01*
X143650285Y-115636940D01*
X143458017Y-115675185D01*
X143261983Y-115675185D01*
X143069715Y-115636940D01*
X142888603Y-115561921D01*
X142725607Y-115453010D01*
X142586990Y-115314393D01*
X142478079Y-115151397D01*
X142403060Y-114970285D01*
X142364815Y-114778017D01*
X142364815Y-114581983D01*
X142403060Y-114389715D01*
X142478079Y-114208603D01*
X142586990Y-114045607D01*
X142725607Y-113906990D01*
X142888603Y-113798079D01*
X143069715Y-113723060D01*
X143261983Y-113684815D01*
X143458017Y-113684815D01*
X143650285Y-113723060D01*
G37*
G36*
X146190285Y-113723060D02*
G01*
X146371397Y-113798079D01*
X146534393Y-113906990D01*
X146673010Y-114045607D01*
X146781921Y-114208603D01*
X146856940Y-114389715D01*
X146895185Y-114581983D01*
X146895185Y-114778017D01*
X146856940Y-114970285D01*
X146781921Y-115151397D01*
X146673010Y-115314393D01*
X146534393Y-115453010D01*
X146371397Y-115561921D01*
X146190285Y-115636940D01*
X145998017Y-115675185D01*
X145801983Y-115675185D01*
X145609715Y-115636940D01*
X145428603Y-115561921D01*
X145265607Y-115453010D01*
X145126990Y-115314393D01*
X145018079Y-115151397D01*
X144943060Y-114970285D01*
X144904815Y-114778017D01*
X144904815Y-114581983D01*
X144943060Y-114389715D01*
X145018079Y-114208603D01*
X145126990Y-114045607D01*
X145265607Y-113906990D01*
X145428603Y-113798079D01*
X145609715Y-113723060D01*
X145801983Y-113684815D01*
X145998017Y-113684815D01*
X146190285Y-113723060D01*
G37*
G36*
X151270285Y-113723060D02*
G01*
X151451397Y-113798079D01*
X151614393Y-113906990D01*
X151753010Y-114045607D01*
X151861921Y-114208603D01*
X151936940Y-114389715D01*
X151975185Y-114581983D01*
X151975185Y-114778017D01*
X151936940Y-114970285D01*
X151861921Y-115151397D01*
X151753010Y-115314393D01*
X151614393Y-115453010D01*
X151451397Y-115561921D01*
X151270285Y-115636940D01*
X151078017Y-115675185D01*
X150881983Y-115675185D01*
X150689715Y-115636940D01*
X150508603Y-115561921D01*
X150345607Y-115453010D01*
X150206990Y-115314393D01*
X150098079Y-115151397D01*
X150023060Y-114970285D01*
X149984815Y-114778017D01*
X149984815Y-114581983D01*
X150023060Y-114389715D01*
X150098079Y-114208603D01*
X150206990Y-114045607D01*
X150345607Y-113906990D01*
X150508603Y-113798079D01*
X150689715Y-113723060D01*
X150881983Y-113684815D01*
X151078017Y-113684815D01*
X151270285Y-113723060D01*
G37*
G36*
X153810285Y-113723060D02*
G01*
X153991397Y-113798079D01*
X154154393Y-113906990D01*
X154293010Y-114045607D01*
X154401921Y-114208603D01*
X154476940Y-114389715D01*
X154515185Y-114581983D01*
X154515185Y-114778017D01*
X154476940Y-114970285D01*
X154401921Y-115151397D01*
X154293010Y-115314393D01*
X154154393Y-115453010D01*
X153991397Y-115561921D01*
X153810285Y-115636940D01*
X153618017Y-115675185D01*
X153421983Y-115675185D01*
X153229715Y-115636940D01*
X153048603Y-115561921D01*
X152885607Y-115453010D01*
X152746990Y-115314393D01*
X152638079Y-115151397D01*
X152563060Y-114970285D01*
X152524815Y-114778017D01*
X152524815Y-114581983D01*
X152563060Y-114389715D01*
X152638079Y-114208603D01*
X152746990Y-114045607D01*
X152885607Y-113906990D01*
X153048603Y-113798079D01*
X153229715Y-113723060D01*
X153421983Y-113684815D01*
X153618017Y-113684815D01*
X153810285Y-113723060D01*
G37*
G36*
X123734401Y-110329501D02*
G01*
X123796204Y-110370796D01*
X123837499Y-110432599D01*
X123852000Y-110505500D01*
X123852000Y-111394500D01*
X123837499Y-111467401D01*
X123796204Y-111529204D01*
X123734401Y-111570499D01*
X123661500Y-111585000D01*
X121502500Y-111585000D01*
X121429599Y-111570499D01*
X121367796Y-111529204D01*
X121326501Y-111467401D01*
X121312000Y-111394500D01*
X121312000Y-110505500D01*
X121326501Y-110432599D01*
X121367796Y-110370796D01*
X121429599Y-110329501D01*
X121502500Y-110315000D01*
X123661500Y-110315000D01*
X123734401Y-110329501D01*
G37*
G36*
X152868201Y-110329501D02*
G01*
X152930004Y-110370796D01*
X152971299Y-110432599D01*
X152985800Y-110505500D01*
X152985800Y-111394500D01*
X152971299Y-111467401D01*
X152930004Y-111529204D01*
X152868201Y-111570499D01*
X152795300Y-111585000D01*
X150636300Y-111585000D01*
X150563399Y-111570499D01*
X150501596Y-111529204D01*
X150460301Y-111467401D01*
X150445800Y-111394500D01*
X150445800Y-110505500D01*
X150460301Y-110432599D01*
X150501596Y-110370796D01*
X150563399Y-110329501D01*
X150636300Y-110315000D01*
X152795300Y-110315000D01*
X152868201Y-110329501D01*
G37*
G36*
X146674850Y-108266964D02*
G01*
X146725040Y-108272787D01*
X146742189Y-108280359D01*
X146765671Y-108285030D01*
X146790810Y-108301827D01*
X146810696Y-108310608D01*
X146824277Y-108324189D01*
X146846777Y-108339223D01*
X146861810Y-108361722D01*
X146875391Y-108375303D01*
X146884170Y-108395186D01*
X146900970Y-108420329D01*
X146905641Y-108443812D01*
X146913212Y-108460959D01*
X146919033Y-108511139D01*
X146920000Y-108516000D01*
X146920000Y-109416000D01*
X146919032Y-109420863D01*
X146913212Y-109471040D01*
X146905641Y-109488185D01*
X146900970Y-109511671D01*
X146884169Y-109536815D01*
X146875391Y-109556696D01*
X146861812Y-109570274D01*
X146846777Y-109592777D01*
X146824274Y-109607812D01*
X146810696Y-109621391D01*
X146790815Y-109630169D01*
X146765671Y-109646970D01*
X146742185Y-109651641D01*
X146725040Y-109659212D01*
X146674861Y-109665032D01*
X146670000Y-109666000D01*
X145970000Y-109666000D01*
X145965138Y-109665032D01*
X145914959Y-109659212D01*
X145897812Y-109651641D01*
X145874329Y-109646970D01*
X145849186Y-109630170D01*
X145829303Y-109621391D01*
X145815722Y-109607810D01*
X145793223Y-109592777D01*
X145778189Y-109570277D01*
X145764608Y-109556696D01*
X145755827Y-109536810D01*
X145739030Y-109511671D01*
X145734359Y-109488189D01*
X145726787Y-109471040D01*
X145720964Y-109420849D01*
X145720000Y-109416000D01*
X145720000Y-108516000D01*
X145720964Y-108511150D01*
X145726787Y-108460959D01*
X145734359Y-108443808D01*
X145739030Y-108420329D01*
X145755826Y-108395191D01*
X145764608Y-108375303D01*
X145778191Y-108361719D01*
X145793223Y-108339223D01*
X145815719Y-108324191D01*
X145829303Y-108310608D01*
X145849191Y-108301826D01*
X145874329Y-108285030D01*
X145897808Y-108280359D01*
X145914959Y-108272787D01*
X145965151Y-108266964D01*
X145970000Y-108266000D01*
X146670000Y-108266000D01*
X146674850Y-108266964D01*
G37*
G36*
X148674850Y-108266964D02*
G01*
X148725040Y-108272787D01*
X148742189Y-108280359D01*
X148765671Y-108285030D01*
X148790810Y-108301827D01*
X148810696Y-108310608D01*
X148824277Y-108324189D01*
X148846777Y-108339223D01*
X148861810Y-108361722D01*
X148875391Y-108375303D01*
X148884170Y-108395186D01*
X148900970Y-108420329D01*
X148905641Y-108443812D01*
X148913212Y-108460959D01*
X148919033Y-108511139D01*
X148920000Y-108516000D01*
X148920000Y-109416000D01*
X148919032Y-109420863D01*
X148913212Y-109471040D01*
X148905641Y-109488185D01*
X148900970Y-109511671D01*
X148884169Y-109536815D01*
X148875391Y-109556696D01*
X148861812Y-109570274D01*
X148846777Y-109592777D01*
X148824274Y-109607812D01*
X148810696Y-109621391D01*
X148790815Y-109630169D01*
X148765671Y-109646970D01*
X148742185Y-109651641D01*
X148725040Y-109659212D01*
X148674861Y-109665032D01*
X148670000Y-109666000D01*
X147970000Y-109666000D01*
X147965138Y-109665032D01*
X147914959Y-109659212D01*
X147897812Y-109651641D01*
X147874329Y-109646970D01*
X147849186Y-109630170D01*
X147829303Y-109621391D01*
X147815722Y-109607810D01*
X147793223Y-109592777D01*
X147778189Y-109570277D01*
X147764608Y-109556696D01*
X147755827Y-109536810D01*
X147739030Y-109511671D01*
X147734359Y-109488189D01*
X147726787Y-109471040D01*
X147720964Y-109420849D01*
X147720000Y-109416000D01*
X147720000Y-108516000D01*
X147720964Y-108511150D01*
X147726787Y-108460959D01*
X147734359Y-108443808D01*
X147739030Y-108420329D01*
X147755826Y-108395191D01*
X147764608Y-108375303D01*
X147778191Y-108361719D01*
X147793223Y-108339223D01*
X147815719Y-108324191D01*
X147829303Y-108310608D01*
X147849191Y-108301826D01*
X147874329Y-108285030D01*
X147897808Y-108280359D01*
X147914959Y-108272787D01*
X147965151Y-108266964D01*
X147970000Y-108266000D01*
X148670000Y-108266000D01*
X148674850Y-108266964D01*
G37*
G36*
X137022850Y-108012964D02*
G01*
X137073040Y-108018787D01*
X137090189Y-108026359D01*
X137113671Y-108031030D01*
X137138810Y-108047827D01*
X137158696Y-108056608D01*
X137172277Y-108070189D01*
X137194777Y-108085223D01*
X137209810Y-108107722D01*
X137223391Y-108121303D01*
X137232170Y-108141186D01*
X137248970Y-108166329D01*
X137253641Y-108189812D01*
X137261212Y-108206959D01*
X137267033Y-108257139D01*
X137268000Y-108262000D01*
X137268000Y-109162000D01*
X137267032Y-109166863D01*
X137261212Y-109217040D01*
X137253641Y-109234185D01*
X137248970Y-109257671D01*
X137232169Y-109282815D01*
X137223391Y-109302696D01*
X137209812Y-109316274D01*
X137194777Y-109338777D01*
X137172274Y-109353812D01*
X137158696Y-109367391D01*
X137138815Y-109376169D01*
X137113671Y-109392970D01*
X137090185Y-109397641D01*
X137073040Y-109405212D01*
X137022861Y-109411032D01*
X137018000Y-109412000D01*
X136318000Y-109412000D01*
X136313138Y-109411032D01*
X136262959Y-109405212D01*
X136245812Y-109397641D01*
X136222329Y-109392970D01*
X136197186Y-109376170D01*
X136177303Y-109367391D01*
X136163722Y-109353810D01*
X136141223Y-109338777D01*
X136126189Y-109316277D01*
X136112608Y-109302696D01*
X136103827Y-109282810D01*
X136087030Y-109257671D01*
X136082359Y-109234189D01*
X136074787Y-109217040D01*
X136068964Y-109166849D01*
X136068000Y-109162000D01*
X136068000Y-108262000D01*
X136068964Y-108257150D01*
X136074787Y-108206959D01*
X136082359Y-108189808D01*
X136087030Y-108166329D01*
X136103826Y-108141191D01*
X136112608Y-108121303D01*
X136126191Y-108107719D01*
X136141223Y-108085223D01*
X136163719Y-108070191D01*
X136177303Y-108056608D01*
X136197191Y-108047826D01*
X136222329Y-108031030D01*
X136245808Y-108026359D01*
X136262959Y-108018787D01*
X136313151Y-108012964D01*
X136318000Y-108012000D01*
X137018000Y-108012000D01*
X137022850Y-108012964D01*
G37*
G36*
X139022850Y-108012964D02*
G01*
X139073040Y-108018787D01*
X139090189Y-108026359D01*
X139113671Y-108031030D01*
X139138810Y-108047827D01*
X139158696Y-108056608D01*
X139172277Y-108070189D01*
X139194777Y-108085223D01*
X139209810Y-108107722D01*
X139223391Y-108121303D01*
X139232170Y-108141186D01*
X139248970Y-108166329D01*
X139253641Y-108189812D01*
X139261212Y-108206959D01*
X139267033Y-108257139D01*
X139268000Y-108262000D01*
X139268000Y-109162000D01*
X139267032Y-109166863D01*
X139261212Y-109217040D01*
X139253641Y-109234185D01*
X139248970Y-109257671D01*
X139232169Y-109282815D01*
X139223391Y-109302696D01*
X139209812Y-109316274D01*
X139194777Y-109338777D01*
X139172274Y-109353812D01*
X139158696Y-109367391D01*
X139138815Y-109376169D01*
X139113671Y-109392970D01*
X139090185Y-109397641D01*
X139073040Y-109405212D01*
X139022861Y-109411032D01*
X139018000Y-109412000D01*
X138318000Y-109412000D01*
X138313138Y-109411032D01*
X138262959Y-109405212D01*
X138245812Y-109397641D01*
X138222329Y-109392970D01*
X138197186Y-109376170D01*
X138177303Y-109367391D01*
X138163722Y-109353810D01*
X138141223Y-109338777D01*
X138126189Y-109316277D01*
X138112608Y-109302696D01*
X138103827Y-109282810D01*
X138087030Y-109257671D01*
X138082359Y-109234189D01*
X138074787Y-109217040D01*
X138068964Y-109166849D01*
X138068000Y-109162000D01*
X138068000Y-108262000D01*
X138068964Y-108257150D01*
X138074787Y-108206959D01*
X138082359Y-108189808D01*
X138087030Y-108166329D01*
X138103826Y-108141191D01*
X138112608Y-108121303D01*
X138126191Y-108107719D01*
X138141223Y-108085223D01*
X138163719Y-108070191D01*
X138177303Y-108056608D01*
X138197191Y-108047826D01*
X138222329Y-108031030D01*
X138245808Y-108026359D01*
X138262959Y-108018787D01*
X138313151Y-108012964D01*
X138318000Y-108012000D01*
X139018000Y-108012000D01*
X139022850Y-108012964D01*
G37*
G36*
X146594686Y-106122370D02*
G01*
X146647405Y-106157595D01*
X146682630Y-106210314D01*
X146695000Y-106272500D01*
X146695000Y-107167500D01*
X146682630Y-107229686D01*
X146647405Y-107282405D01*
X146594686Y-107317630D01*
X146532500Y-107330000D01*
X146207500Y-107330000D01*
X146145314Y-107317630D01*
X146092595Y-107282405D01*
X146057370Y-107229686D01*
X146045000Y-107167500D01*
X146045000Y-106272500D01*
X146057370Y-106210314D01*
X146092595Y-106157595D01*
X146145314Y-106122370D01*
X146207500Y-106110000D01*
X146532500Y-106110000D01*
X146594686Y-106122370D01*
G37*
G36*
X148494686Y-106122370D02*
G01*
X148547405Y-106157595D01*
X148582630Y-106210314D01*
X148595000Y-106272500D01*
X148595000Y-107167500D01*
X148582630Y-107229686D01*
X148547405Y-107282405D01*
X148494686Y-107317630D01*
X148432500Y-107330000D01*
X148107500Y-107330000D01*
X148045314Y-107317630D01*
X147992595Y-107282405D01*
X147957370Y-107229686D01*
X147945000Y-107167500D01*
X147945000Y-106272500D01*
X147957370Y-106210314D01*
X147992595Y-106157595D01*
X148045314Y-106122370D01*
X148107500Y-106110000D01*
X148432500Y-106110000D01*
X148494686Y-106122370D01*
G37*
G36*
X136942686Y-105868370D02*
G01*
X136995405Y-105903595D01*
X137030630Y-105956314D01*
X137043000Y-106018500D01*
X137043000Y-106913500D01*
X137030630Y-106975686D01*
X136995405Y-107028405D01*
X136942686Y-107063630D01*
X136880500Y-107076000D01*
X136555500Y-107076000D01*
X136493314Y-107063630D01*
X136440595Y-107028405D01*
X136405370Y-106975686D01*
X136393000Y-106913500D01*
X136393000Y-106018500D01*
X136405370Y-105956314D01*
X136440595Y-105903595D01*
X136493314Y-105868370D01*
X136555500Y-105856000D01*
X136880500Y-105856000D01*
X136942686Y-105868370D01*
G37*
G36*
X138842686Y-105868370D02*
G01*
X138895405Y-105903595D01*
X138930630Y-105956314D01*
X138943000Y-106018500D01*
X138943000Y-106913500D01*
X138930630Y-106975686D01*
X138895405Y-107028405D01*
X138842686Y-107063630D01*
X138780500Y-107076000D01*
X138455500Y-107076000D01*
X138393314Y-107063630D01*
X138340595Y-107028405D01*
X138305370Y-106975686D01*
X138293000Y-106913500D01*
X138293000Y-106018500D01*
X138305370Y-105956314D01*
X138340595Y-105903595D01*
X138393314Y-105868370D01*
X138455500Y-105856000D01*
X138780500Y-105856000D01*
X138842686Y-105868370D01*
G37*
G36*
X119655350Y-103525964D02*
G01*
X119705540Y-103531787D01*
X119722689Y-103539359D01*
X119746171Y-103544030D01*
X119771310Y-103560827D01*
X119791196Y-103569608D01*
X119804777Y-103583189D01*
X119827277Y-103598223D01*
X119842310Y-103620722D01*
X119855891Y-103634303D01*
X119864670Y-103654186D01*
X119881470Y-103679329D01*
X119886141Y-103702812D01*
X119893712Y-103719959D01*
X119899533Y-103770139D01*
X119900500Y-103775000D01*
X119900500Y-104775000D01*
X119899532Y-104779863D01*
X119893712Y-104830040D01*
X119886141Y-104847185D01*
X119881470Y-104870671D01*
X119864669Y-104895815D01*
X119855891Y-104915696D01*
X119842312Y-104929274D01*
X119827277Y-104951777D01*
X119804774Y-104966812D01*
X119791196Y-104980391D01*
X119771315Y-104989169D01*
X119746171Y-105005970D01*
X119722685Y-105010641D01*
X119705540Y-105018212D01*
X119655361Y-105024032D01*
X119650500Y-105025000D01*
X118150500Y-105025000D01*
X118145638Y-105024032D01*
X118095459Y-105018212D01*
X118078312Y-105010641D01*
X118054829Y-105005970D01*
X118029686Y-104989170D01*
X118009803Y-104980391D01*
X117996222Y-104966810D01*
X117973723Y-104951777D01*
X117958689Y-104929277D01*
X117945108Y-104915696D01*
X117936327Y-104895810D01*
X117919530Y-104870671D01*
X117914859Y-104847189D01*
X117907287Y-104830040D01*
X117901464Y-104779849D01*
X117900500Y-104775000D01*
X117900500Y-103775000D01*
X117901464Y-103770150D01*
X117907287Y-103719959D01*
X117914859Y-103702808D01*
X117919530Y-103679329D01*
X117936326Y-103654191D01*
X117945108Y-103634303D01*
X117958691Y-103620719D01*
X117973723Y-103598223D01*
X117996219Y-103583191D01*
X118009803Y-103569608D01*
X118029691Y-103560826D01*
X118054829Y-103544030D01*
X118078308Y-103539359D01*
X118095459Y-103531787D01*
X118145651Y-103525964D01*
X118150500Y-103525000D01*
X119650500Y-103525000D01*
X119655350Y-103525964D01*
G37*
G36*
X155612850Y-103525964D02*
G01*
X155663040Y-103531787D01*
X155680189Y-103539359D01*
X155703671Y-103544030D01*
X155728810Y-103560827D01*
X155748696Y-103569608D01*
X155762277Y-103583189D01*
X155784777Y-103598223D01*
X155799810Y-103620722D01*
X155813391Y-103634303D01*
X155822170Y-103654186D01*
X155838970Y-103679329D01*
X155843641Y-103702812D01*
X155851212Y-103719959D01*
X155857033Y-103770139D01*
X155858000Y-103775000D01*
X155858000Y-104775000D01*
X155857032Y-104779863D01*
X155851212Y-104830040D01*
X155843641Y-104847185D01*
X155838970Y-104870671D01*
X155822169Y-104895815D01*
X155813391Y-104915696D01*
X155799812Y-104929274D01*
X155784777Y-104951777D01*
X155762274Y-104966812D01*
X155748696Y-104980391D01*
X155728815Y-104989169D01*
X155703671Y-105005970D01*
X155680185Y-105010641D01*
X155663040Y-105018212D01*
X155612861Y-105024032D01*
X155608000Y-105025000D01*
X154108000Y-105025000D01*
X154103138Y-105024032D01*
X154052959Y-105018212D01*
X154035812Y-105010641D01*
X154012329Y-105005970D01*
X153987186Y-104989170D01*
X153967303Y-104980391D01*
X153953722Y-104966810D01*
X153931223Y-104951777D01*
X153916189Y-104929277D01*
X153902608Y-104915696D01*
X153893827Y-104895810D01*
X153877030Y-104870671D01*
X153872359Y-104847189D01*
X153864787Y-104830040D01*
X153858964Y-104779849D01*
X153858000Y-104775000D01*
X153858000Y-103775000D01*
X153858964Y-103770150D01*
X153864787Y-103719959D01*
X153872359Y-103702808D01*
X153877030Y-103679329D01*
X153893826Y-103654191D01*
X153902608Y-103634303D01*
X153916191Y-103620719D01*
X153931223Y-103598223D01*
X153953719Y-103583191D01*
X153967303Y-103569608D01*
X153987191Y-103560826D01*
X154012329Y-103544030D01*
X154035808Y-103539359D01*
X154052959Y-103531787D01*
X154103151Y-103525964D01*
X154108000Y-103525000D01*
X155608000Y-103525000D01*
X155612850Y-103525964D01*
G37*
G36*
X147544686Y-103502370D02*
G01*
X147597405Y-103537595D01*
X147632630Y-103590314D01*
X147645000Y-103652500D01*
X147645000Y-104547500D01*
X147632630Y-104609686D01*
X147597405Y-104662405D01*
X147544686Y-104697630D01*
X147482500Y-104710000D01*
X147157500Y-104710000D01*
X147095314Y-104697630D01*
X147042595Y-104662405D01*
X147007370Y-104609686D01*
X146995000Y-104547500D01*
X146995000Y-103652500D01*
X147007370Y-103590314D01*
X147042595Y-103537595D01*
X147095314Y-103502370D01*
X147157500Y-103490000D01*
X147482500Y-103490000D01*
X147544686Y-103502370D01*
G37*
G36*
X137892686Y-103248370D02*
G01*
X137945405Y-103283595D01*
X137980630Y-103336314D01*
X137993000Y-103398500D01*
X137993000Y-104293500D01*
X137980630Y-104355686D01*
X137945405Y-104408405D01*
X137892686Y-104443630D01*
X137830500Y-104456000D01*
X137505500Y-104456000D01*
X137443314Y-104443630D01*
X137390595Y-104408405D01*
X137355370Y-104355686D01*
X137343000Y-104293500D01*
X137343000Y-103398500D01*
X137355370Y-103336314D01*
X137390595Y-103283595D01*
X137443314Y-103248370D01*
X137505500Y-103236000D01*
X137830500Y-103236000D01*
X137892686Y-103248370D01*
G37*
G36*
X119655350Y-101675964D02*
G01*
X119705540Y-101681787D01*
X119722689Y-101689359D01*
X119746171Y-101694030D01*
X119771310Y-101710827D01*
X119791196Y-101719608D01*
X119804777Y-101733189D01*
X119827277Y-101748223D01*
X119842310Y-101770722D01*
X119855891Y-101784303D01*
X119864670Y-101804186D01*
X119881470Y-101829329D01*
X119886141Y-101852812D01*
X119893712Y-101869959D01*
X119899533Y-101920139D01*
X119900500Y-101925000D01*
X119900500Y-102925000D01*
X119899532Y-102929863D01*
X119893712Y-102980040D01*
X119886141Y-102997185D01*
X119881470Y-103020671D01*
X119864669Y-103045815D01*
X119855891Y-103065696D01*
X119842312Y-103079274D01*
X119827277Y-103101777D01*
X119804774Y-103116812D01*
X119791196Y-103130391D01*
X119771315Y-103139169D01*
X119746171Y-103155970D01*
X119722685Y-103160641D01*
X119705540Y-103168212D01*
X119655361Y-103174032D01*
X119650500Y-103175000D01*
X118150500Y-103175000D01*
X118145638Y-103174032D01*
X118095459Y-103168212D01*
X118078312Y-103160641D01*
X118054829Y-103155970D01*
X118029686Y-103139170D01*
X118009803Y-103130391D01*
X117996222Y-103116810D01*
X117973723Y-103101777D01*
X117958689Y-103079277D01*
X117945108Y-103065696D01*
X117936327Y-103045810D01*
X117919530Y-103020671D01*
X117914859Y-102997189D01*
X117907287Y-102980040D01*
X117901464Y-102929849D01*
X117900500Y-102925000D01*
X117900500Y-101925000D01*
X117901464Y-101920150D01*
X117907287Y-101869959D01*
X117914859Y-101852808D01*
X117919530Y-101829329D01*
X117936326Y-101804191D01*
X117945108Y-101784303D01*
X117958691Y-101770719D01*
X117973723Y-101748223D01*
X117996219Y-101733191D01*
X118009803Y-101719608D01*
X118029691Y-101710826D01*
X118054829Y-101694030D01*
X118078308Y-101689359D01*
X118095459Y-101681787D01*
X118145651Y-101675964D01*
X118150500Y-101675000D01*
X119650500Y-101675000D01*
X119655350Y-101675964D01*
G37*
G36*
X155612850Y-101675964D02*
G01*
X155663040Y-101681787D01*
X155680189Y-101689359D01*
X155703671Y-101694030D01*
X155728810Y-101710827D01*
X155748696Y-101719608D01*
X155762277Y-101733189D01*
X155784777Y-101748223D01*
X155799810Y-101770722D01*
X155813391Y-101784303D01*
X155822170Y-101804186D01*
X155838970Y-101829329D01*
X155843641Y-101852812D01*
X155851212Y-101869959D01*
X155857033Y-101920139D01*
X155858000Y-101925000D01*
X155858000Y-102925000D01*
X155857032Y-102929863D01*
X155851212Y-102980040D01*
X155843641Y-102997185D01*
X155838970Y-103020671D01*
X155822169Y-103045815D01*
X155813391Y-103065696D01*
X155799812Y-103079274D01*
X155784777Y-103101777D01*
X155762274Y-103116812D01*
X155748696Y-103130391D01*
X155728815Y-103139169D01*
X155703671Y-103155970D01*
X155680185Y-103160641D01*
X155663040Y-103168212D01*
X155612861Y-103174032D01*
X155608000Y-103175000D01*
X154108000Y-103175000D01*
X154103138Y-103174032D01*
X154052959Y-103168212D01*
X154035812Y-103160641D01*
X154012329Y-103155970D01*
X153987186Y-103139170D01*
X153967303Y-103130391D01*
X153953722Y-103116810D01*
X153931223Y-103101777D01*
X153916189Y-103079277D01*
X153902608Y-103065696D01*
X153893827Y-103045810D01*
X153877030Y-103020671D01*
X153872359Y-102997189D01*
X153864787Y-102980040D01*
X153858964Y-102929849D01*
X153858000Y-102925000D01*
X153858000Y-101925000D01*
X153858964Y-101920150D01*
X153864787Y-101869959D01*
X153872359Y-101852808D01*
X153877030Y-101829329D01*
X153893826Y-101804191D01*
X153902608Y-101784303D01*
X153916191Y-101770719D01*
X153931223Y-101748223D01*
X153953719Y-101733191D01*
X153967303Y-101719608D01*
X153987191Y-101710826D01*
X154012329Y-101694030D01*
X154035808Y-101689359D01*
X154052959Y-101681787D01*
X154103151Y-101675964D01*
X154108000Y-101675000D01*
X155608000Y-101675000D01*
X155612850Y-101675964D01*
G37*
G36*
X144704850Y-100100964D02*
G01*
X144755040Y-100106787D01*
X144772189Y-100114359D01*
X144795671Y-100119030D01*
X144820810Y-100135827D01*
X144840696Y-100144608D01*
X144854277Y-100158189D01*
X144876777Y-100173223D01*
X144891810Y-100195722D01*
X144905391Y-100209303D01*
X144914170Y-100229186D01*
X144930970Y-100254329D01*
X144935641Y-100277812D01*
X144943212Y-100294959D01*
X144949033Y-100345139D01*
X144950000Y-100350000D01*
X144950000Y-101650000D01*
X144949032Y-101654863D01*
X144943212Y-101705040D01*
X144935641Y-101722185D01*
X144930970Y-101745671D01*
X144914169Y-101770815D01*
X144905391Y-101790696D01*
X144891812Y-101804274D01*
X144876777Y-101826777D01*
X144854274Y-101841812D01*
X144840696Y-101855391D01*
X144820815Y-101864169D01*
X144795671Y-101880970D01*
X144772185Y-101885641D01*
X144755040Y-101893212D01*
X144704861Y-101899032D01*
X144700000Y-101900000D01*
X142700000Y-101900000D01*
X142695138Y-101899032D01*
X142644959Y-101893212D01*
X142627812Y-101885641D01*
X142604329Y-101880970D01*
X142579186Y-101864170D01*
X142559303Y-101855391D01*
X142545722Y-101841810D01*
X142523223Y-101826777D01*
X142508189Y-101804277D01*
X142494608Y-101790696D01*
X142485827Y-101770810D01*
X142469030Y-101745671D01*
X142464359Y-101722189D01*
X142456787Y-101705040D01*
X142450964Y-101654849D01*
X142450000Y-101650000D01*
X142450000Y-100350000D01*
X142450964Y-100345150D01*
X142456787Y-100294959D01*
X142464359Y-100277808D01*
X142469030Y-100254329D01*
X142485826Y-100229191D01*
X142494608Y-100209303D01*
X142508191Y-100195719D01*
X142523223Y-100173223D01*
X142545719Y-100158191D01*
X142559303Y-100144608D01*
X142579191Y-100135826D01*
X142604329Y-100119030D01*
X142627808Y-100114359D01*
X142644959Y-100106787D01*
X142695151Y-100100964D01*
X142700000Y-100100000D01*
X144700000Y-100100000D01*
X144704850Y-100100964D01*
G37*
G36*
X148704850Y-100100964D02*
G01*
X148755040Y-100106787D01*
X148772189Y-100114359D01*
X148795671Y-100119030D01*
X148820810Y-100135827D01*
X148840696Y-100144608D01*
X148854277Y-100158189D01*
X148876777Y-100173223D01*
X148891810Y-100195722D01*
X148905391Y-100209303D01*
X148914170Y-100229186D01*
X148930970Y-100254329D01*
X148935641Y-100277812D01*
X148943212Y-100294959D01*
X148949033Y-100345139D01*
X148950000Y-100350000D01*
X148950000Y-101650000D01*
X148949032Y-101654863D01*
X148943212Y-101705040D01*
X148935641Y-101722185D01*
X148930970Y-101745671D01*
X148914169Y-101770815D01*
X148905391Y-101790696D01*
X148891812Y-101804274D01*
X148876777Y-101826777D01*
X148854274Y-101841812D01*
X148840696Y-101855391D01*
X148820815Y-101864169D01*
X148795671Y-101880970D01*
X148772185Y-101885641D01*
X148755040Y-101893212D01*
X148704861Y-101899032D01*
X148700000Y-101900000D01*
X146700000Y-101900000D01*
X146695138Y-101899032D01*
X146644959Y-101893212D01*
X146627812Y-101885641D01*
X146604329Y-101880970D01*
X146579186Y-101864170D01*
X146559303Y-101855391D01*
X146545722Y-101841810D01*
X146523223Y-101826777D01*
X146508189Y-101804277D01*
X146494608Y-101790696D01*
X146485827Y-101770810D01*
X146469030Y-101745671D01*
X146464359Y-101722189D01*
X146456787Y-101705040D01*
X146450964Y-101654849D01*
X146450000Y-101650000D01*
X146450000Y-100350000D01*
X146450964Y-100345150D01*
X146456787Y-100294959D01*
X146464359Y-100277808D01*
X146469030Y-100254329D01*
X146485826Y-100229191D01*
X146494608Y-100209303D01*
X146508191Y-100195719D01*
X146523223Y-100173223D01*
X146545719Y-100158191D01*
X146559303Y-100144608D01*
X146579191Y-100135826D01*
X146604329Y-100119030D01*
X146627808Y-100114359D01*
X146644959Y-100106787D01*
X146695151Y-100100964D01*
X146700000Y-100100000D01*
X148700000Y-100100000D01*
X148704850Y-100100964D01*
G37*
G36*
X136672850Y-99938964D02*
G01*
X136723040Y-99944787D01*
X136740189Y-99952359D01*
X136763671Y-99957030D01*
X136788810Y-99973827D01*
X136808696Y-99982608D01*
X136822277Y-99996189D01*
X136844777Y-100011223D01*
X136859810Y-100033722D01*
X136873391Y-100047303D01*
X136882170Y-100067186D01*
X136898970Y-100092329D01*
X136903641Y-100115812D01*
X136911212Y-100132959D01*
X136917033Y-100183139D01*
X136918000Y-100188000D01*
X136918000Y-101488000D01*
X136917032Y-101492863D01*
X136911212Y-101543040D01*
X136903641Y-101560185D01*
X136898970Y-101583671D01*
X136882169Y-101608815D01*
X136873391Y-101628696D01*
X136859812Y-101642274D01*
X136844777Y-101664777D01*
X136822274Y-101679812D01*
X136808696Y-101693391D01*
X136788815Y-101702169D01*
X136763671Y-101718970D01*
X136740185Y-101723641D01*
X136723040Y-101731212D01*
X136672861Y-101737032D01*
X136668000Y-101738000D01*
X134668000Y-101738000D01*
X134663138Y-101737032D01*
X134612959Y-101731212D01*
X134595812Y-101723641D01*
X134572329Y-101718970D01*
X134547186Y-101702170D01*
X134527303Y-101693391D01*
X134513722Y-101679810D01*
X134491223Y-101664777D01*
X134476189Y-101642277D01*
X134462608Y-101628696D01*
X134453827Y-101608810D01*
X134437030Y-101583671D01*
X134432359Y-101560189D01*
X134424787Y-101543040D01*
X134418964Y-101492849D01*
X134418000Y-101488000D01*
X134418000Y-100188000D01*
X134418964Y-100183150D01*
X134424787Y-100132959D01*
X134432359Y-100115808D01*
X134437030Y-100092329D01*
X134453826Y-100067191D01*
X134462608Y-100047303D01*
X134476191Y-100033719D01*
X134491223Y-100011223D01*
X134513719Y-99996191D01*
X134527303Y-99982608D01*
X134547191Y-99973826D01*
X134572329Y-99957030D01*
X134595808Y-99952359D01*
X134612959Y-99944787D01*
X134663151Y-99938964D01*
X134668000Y-99938000D01*
X136668000Y-99938000D01*
X136672850Y-99938964D01*
G37*
G36*
X140672850Y-99938964D02*
G01*
X140723040Y-99944787D01*
X140740189Y-99952359D01*
X140763671Y-99957030D01*
X140788810Y-99973827D01*
X140808696Y-99982608D01*
X140822277Y-99996189D01*
X140844777Y-100011223D01*
X140859810Y-100033722D01*
X140873391Y-100047303D01*
X140882170Y-100067186D01*
X140898970Y-100092329D01*
X140903641Y-100115812D01*
X140911212Y-100132959D01*
X140917033Y-100183139D01*
X140918000Y-100188000D01*
X140918000Y-101488000D01*
X140917032Y-101492863D01*
X140911212Y-101543040D01*
X140903641Y-101560185D01*
X140898970Y-101583671D01*
X140882169Y-101608815D01*
X140873391Y-101628696D01*
X140859812Y-101642274D01*
X140844777Y-101664777D01*
X140822274Y-101679812D01*
X140808696Y-101693391D01*
X140788815Y-101702169D01*
X140763671Y-101718970D01*
X140740185Y-101723641D01*
X140723040Y-101731212D01*
X140672861Y-101737032D01*
X140668000Y-101738000D01*
X138668000Y-101738000D01*
X138663138Y-101737032D01*
X138612959Y-101731212D01*
X138595812Y-101723641D01*
X138572329Y-101718970D01*
X138547186Y-101702170D01*
X138527303Y-101693391D01*
X138513722Y-101679810D01*
X138491223Y-101664777D01*
X138476189Y-101642277D01*
X138462608Y-101628696D01*
X138453827Y-101608810D01*
X138437030Y-101583671D01*
X138432359Y-101560189D01*
X138424787Y-101543040D01*
X138418964Y-101492849D01*
X138418000Y-101488000D01*
X138418000Y-100188000D01*
X138418964Y-100183150D01*
X138424787Y-100132959D01*
X138432359Y-100115808D01*
X138437030Y-100092329D01*
X138453826Y-100067191D01*
X138462608Y-100047303D01*
X138476191Y-100033719D01*
X138491223Y-100011223D01*
X138513719Y-99996191D01*
X138527303Y-99982608D01*
X138547191Y-99973826D01*
X138572329Y-99957030D01*
X138595808Y-99952359D01*
X138612959Y-99944787D01*
X138663151Y-99938964D01*
X138668000Y-99938000D01*
X140668000Y-99938000D01*
X140672850Y-99938964D01*
G37*
G36*
X123734401Y-98010501D02*
G01*
X123796204Y-98051796D01*
X123837499Y-98113599D01*
X123852000Y-98186500D01*
X123852000Y-99075500D01*
X123837499Y-99148401D01*
X123796204Y-99210204D01*
X123734401Y-99251499D01*
X123661500Y-99266000D01*
X121502500Y-99266000D01*
X121429599Y-99251499D01*
X121367796Y-99210204D01*
X121326501Y-99148401D01*
X121312000Y-99075500D01*
X121312000Y-98186500D01*
X121326501Y-98113599D01*
X121367796Y-98051796D01*
X121429599Y-98010501D01*
X121502500Y-97996000D01*
X123661500Y-97996000D01*
X123734401Y-98010501D01*
G37*
G36*
X152868201Y-98010501D02*
G01*
X152930004Y-98051796D01*
X152971299Y-98113599D01*
X152985800Y-98186500D01*
X152985800Y-99075500D01*
X152971299Y-99148401D01*
X152930004Y-99210204D01*
X152868201Y-99251499D01*
X152795300Y-99266000D01*
X150636300Y-99266000D01*
X150563399Y-99251499D01*
X150501596Y-99210204D01*
X150460301Y-99148401D01*
X150445800Y-99075500D01*
X150445800Y-98186500D01*
X150460301Y-98113599D01*
X150501596Y-98051796D01*
X150563399Y-98010501D01*
X150636300Y-97996000D01*
X152795300Y-97996000D01*
X152868201Y-98010501D01*
G37*
G36*
X126379850Y-94185964D02*
G01*
X126430040Y-94191787D01*
X126447189Y-94199359D01*
X126470671Y-94204030D01*
X126495810Y-94220827D01*
X126515696Y-94229608D01*
X126529277Y-94243189D01*
X126551777Y-94258223D01*
X126566810Y-94280722D01*
X126580391Y-94294303D01*
X126589170Y-94314186D01*
X126605970Y-94339329D01*
X126610641Y-94362812D01*
X126618212Y-94379959D01*
X126624033Y-94430139D01*
X126625000Y-94435000D01*
X126625000Y-95935000D01*
X126624032Y-95939863D01*
X126618212Y-95990040D01*
X126610641Y-96007185D01*
X126605970Y-96030671D01*
X126589169Y-96055815D01*
X126580391Y-96075696D01*
X126566812Y-96089274D01*
X126551777Y-96111777D01*
X126529274Y-96126812D01*
X126515696Y-96140391D01*
X126495815Y-96149169D01*
X126470671Y-96165970D01*
X126447185Y-96170641D01*
X126430040Y-96178212D01*
X126379861Y-96184032D01*
X126375000Y-96185000D01*
X125375000Y-96185000D01*
X125370138Y-96184032D01*
X125319959Y-96178212D01*
X125302812Y-96170641D01*
X125279329Y-96165970D01*
X125254186Y-96149170D01*
X125234303Y-96140391D01*
X125220722Y-96126810D01*
X125198223Y-96111777D01*
X125183189Y-96089277D01*
X125169608Y-96075696D01*
X125160827Y-96055810D01*
X125144030Y-96030671D01*
X125139359Y-96007189D01*
X125131787Y-95990040D01*
X125125964Y-95939849D01*
X125125000Y-95935000D01*
X125125000Y-94435000D01*
X125125964Y-94430150D01*
X125131787Y-94379959D01*
X125139359Y-94362808D01*
X125144030Y-94339329D01*
X125160826Y-94314191D01*
X125169608Y-94294303D01*
X125183191Y-94280719D01*
X125198223Y-94258223D01*
X125220719Y-94243191D01*
X125234303Y-94229608D01*
X125254191Y-94220826D01*
X125279329Y-94204030D01*
X125302808Y-94199359D01*
X125319959Y-94191787D01*
X125370151Y-94185964D01*
X125375000Y-94185000D01*
X126375000Y-94185000D01*
X126379850Y-94185964D01*
G37*
G36*
X128229850Y-94185964D02*
G01*
X128280040Y-94191787D01*
X128297189Y-94199359D01*
X128320671Y-94204030D01*
X128345810Y-94220827D01*
X128365696Y-94229608D01*
X128379277Y-94243189D01*
X128401777Y-94258223D01*
X128416810Y-94280722D01*
X128430391Y-94294303D01*
X128439170Y-94314186D01*
X128455970Y-94339329D01*
X128460641Y-94362812D01*
X128468212Y-94379959D01*
X128474033Y-94430139D01*
X128475000Y-94435000D01*
X128475000Y-95935000D01*
X128474032Y-95939863D01*
X128468212Y-95990040D01*
X128460641Y-96007185D01*
X128455970Y-96030671D01*
X128439169Y-96055815D01*
X128430391Y-96075696D01*
X128416812Y-96089274D01*
X128401777Y-96111777D01*
X128379274Y-96126812D01*
X128365696Y-96140391D01*
X128345815Y-96149169D01*
X128320671Y-96165970D01*
X128297185Y-96170641D01*
X128280040Y-96178212D01*
X128229861Y-96184032D01*
X128225000Y-96185000D01*
X127225000Y-96185000D01*
X127220138Y-96184032D01*
X127169959Y-96178212D01*
X127152812Y-96170641D01*
X127129329Y-96165970D01*
X127104186Y-96149170D01*
X127084303Y-96140391D01*
X127070722Y-96126810D01*
X127048223Y-96111777D01*
X127033189Y-96089277D01*
X127019608Y-96075696D01*
X127010827Y-96055810D01*
X126994030Y-96030671D01*
X126989359Y-96007189D01*
X126981787Y-95990040D01*
X126975964Y-95939849D01*
X126975000Y-95935000D01*
X126975000Y-94435000D01*
X126975964Y-94430150D01*
X126981787Y-94379959D01*
X126989359Y-94362808D01*
X126994030Y-94339329D01*
X127010826Y-94314191D01*
X127019608Y-94294303D01*
X127033191Y-94280719D01*
X127048223Y-94258223D01*
X127070719Y-94243191D01*
X127084303Y-94229608D01*
X127104191Y-94220826D01*
X127129329Y-94204030D01*
X127152808Y-94199359D01*
X127169959Y-94191787D01*
X127220151Y-94185964D01*
X127225000Y-94185000D01*
X128225000Y-94185000D01*
X128229850Y-94185964D01*
G37*
G36*
X148479850Y-94115964D02*
G01*
X148530040Y-94121787D01*
X148547189Y-94129359D01*
X148570671Y-94134030D01*
X148595810Y-94150827D01*
X148615696Y-94159608D01*
X148629277Y-94173189D01*
X148651777Y-94188223D01*
X148666810Y-94210722D01*
X148680391Y-94224303D01*
X148689170Y-94244186D01*
X148705970Y-94269329D01*
X148710641Y-94292812D01*
X148718212Y-94309959D01*
X148724033Y-94360139D01*
X148725000Y-94365000D01*
X148725000Y-95865000D01*
X148724032Y-95869863D01*
X148718212Y-95920040D01*
X148710641Y-95937185D01*
X148705970Y-95960671D01*
X148689169Y-95985815D01*
X148680391Y-96005696D01*
X148666812Y-96019274D01*
X148651777Y-96041777D01*
X148629274Y-96056812D01*
X148615696Y-96070391D01*
X148595815Y-96079169D01*
X148570671Y-96095970D01*
X148547185Y-96100641D01*
X148530040Y-96108212D01*
X148479861Y-96114032D01*
X148475000Y-96115000D01*
X147475000Y-96115000D01*
X147470138Y-96114032D01*
X147419959Y-96108212D01*
X147402812Y-96100641D01*
X147379329Y-96095970D01*
X147354186Y-96079170D01*
X147334303Y-96070391D01*
X147320722Y-96056810D01*
X147298223Y-96041777D01*
X147283189Y-96019277D01*
X147269608Y-96005696D01*
X147260827Y-95985810D01*
X147244030Y-95960671D01*
X147239359Y-95937189D01*
X147231787Y-95920040D01*
X147225964Y-95869849D01*
X147225000Y-95865000D01*
X147225000Y-94365000D01*
X147225964Y-94360150D01*
X147231787Y-94309959D01*
X147239359Y-94292808D01*
X147244030Y-94269329D01*
X147260826Y-94244191D01*
X147269608Y-94224303D01*
X147283191Y-94210719D01*
X147298223Y-94188223D01*
X147320719Y-94173191D01*
X147334303Y-94159608D01*
X147354191Y-94150826D01*
X147379329Y-94134030D01*
X147402808Y-94129359D01*
X147419959Y-94121787D01*
X147470151Y-94115964D01*
X147475000Y-94115000D01*
X148475000Y-94115000D01*
X148479850Y-94115964D01*
G37*
G36*
X150329850Y-94115964D02*
G01*
X150380040Y-94121787D01*
X150397189Y-94129359D01*
X150420671Y-94134030D01*
X150445810Y-94150827D01*
X150465696Y-94159608D01*
X150479277Y-94173189D01*
X150501777Y-94188223D01*
X150516810Y-94210722D01*
X150530391Y-94224303D01*
X150539170Y-94244186D01*
X150555970Y-94269329D01*
X150560641Y-94292812D01*
X150568212Y-94309959D01*
X150574033Y-94360139D01*
X150575000Y-94365000D01*
X150575000Y-95865000D01*
X150574032Y-95869863D01*
X150568212Y-95920040D01*
X150560641Y-95937185D01*
X150555970Y-95960671D01*
X150539169Y-95985815D01*
X150530391Y-96005696D01*
X150516812Y-96019274D01*
X150501777Y-96041777D01*
X150479274Y-96056812D01*
X150465696Y-96070391D01*
X150445815Y-96079169D01*
X150420671Y-96095970D01*
X150397185Y-96100641D01*
X150380040Y-96108212D01*
X150329861Y-96114032D01*
X150325000Y-96115000D01*
X149325000Y-96115000D01*
X149320138Y-96114032D01*
X149269959Y-96108212D01*
X149252812Y-96100641D01*
X149229329Y-96095970D01*
X149204186Y-96079170D01*
X149184303Y-96070391D01*
X149170722Y-96056810D01*
X149148223Y-96041777D01*
X149133189Y-96019277D01*
X149119608Y-96005696D01*
X149110827Y-95985810D01*
X149094030Y-95960671D01*
X149089359Y-95937189D01*
X149081787Y-95920040D01*
X149075964Y-95869849D01*
X149075000Y-95865000D01*
X149075000Y-94365000D01*
X149075964Y-94360150D01*
X149081787Y-94309959D01*
X149089359Y-94292808D01*
X149094030Y-94269329D01*
X149110826Y-94244191D01*
X149119608Y-94224303D01*
X149133191Y-94210719D01*
X149148223Y-94188223D01*
X149170719Y-94173191D01*
X149184303Y-94159608D01*
X149204191Y-94150826D01*
X149229329Y-94134030D01*
X149252808Y-94129359D01*
X149269959Y-94121787D01*
X149320151Y-94115964D01*
X149325000Y-94115000D01*
X150325000Y-94115000D01*
X150329850Y-94115964D01*
G37*
M02*
